<svg id="Capa_1" xmlns="http://www.w3.org/2000/svg" viewBox="0 0 250 250"><style/><path fill="none" d="M0 0h250v250H0z"/><path d="M210 125.7c-.4 46.9-38.8 84.7-85.7 84.3-46.9-.4-84.7-38.8-84.3-85.7.4-46.9 38.8-84.7 85.7-84.3 47 .4 84.7 38.8 84.3 85.7" fill="#ff3f3f"/><path d="M163.3 79.6c-14.3 6.2-25.3 19-31.1 24.1-1.1 1-4.1 3.9-5.2 4.9l-3.3-3c-7.4-6.6-32.5-33.7-44.1-24.1-8 6.5 7.8 22.5 11.6 27.2 4.6 5.6 11.3 12.9 16.4 18.1-7.5 6.5-17.3 14.5-23.5 22.3-.2.2-.4.5-.6.7-3.3 4.2-8.9 9.9-7.9 15.5.7 4.1 3.2 5.6 6.7 5.6 35.3-21.9 65.2-53.3 81-91.3" fill="#fff"/><path d="M166.6 147.7c-.2-.2-.4-.5-.6-.7-6.3-7.7-14.1-13.9-21.6-20.4 5.1-5.2 11.9-10.6 16.4-16.2 3.8-4.7 19.6-22.6 11.6-29.1-2.5-2.1-5.7-2.5-9.2-1.8-15.8 38.1-45.7 69.4-81.1 91.2 11.1-.1 31.9-16 36-19.2 2.3-1.8 6.4-5.5 8.7-7.4 2.3 1.9 6.4 5.6 8.7 7.4 5.4 4.2 36.2 30.5 38.9 13.6 1.1-5.5-4.5-13.1-7.8-17.4" fill="#dfdfde"/></svg>