<svg xmlns="http://www.w3.org/2000/svg" xmlns:xlink="http://www.w3.org/1999/xlink" width="76" height="92" viewBox="0 0 76 92">
    <defs>
        <path id="a" d="M.705.08h60.917v45.783H.705z"/>
        <path id="c" d="M0 91.967h75.636V0H0z"/>
    </defs>
    <g fill="none" fill-rule="evenodd">
        <path fill="#333" d="M32.452 5.82c11.302 0 20.499 9.196 20.499 20.5v13.427c0 .902.734 1.637 1.636 1.637.902 0 1.636-.735 1.636-1.637V26.32c0-13.108-10.664-23.772-23.771-23.772C19.344 2.548 8.68 13.212 8.68 26.32v13.427c0 .902.734 1.637 1.636 1.637.903 0 1.637-.735 1.637-1.637V26.32c0-11.304 9.196-20.5 20.499-20.5m22.135 38.112a4.19 4.19 0 0 1-4.184-4.185V26.32c0-9.9-8.053-17.952-17.951-17.952-9.9 0-17.95 8.053-17.95 17.952v13.427a4.19 4.19 0 0 1-4.186 4.185 4.19 4.19 0 0 1-4.183-4.185V26.32C6.133 11.806 17.938 0 32.452 0 46.965 0 58.77 11.807 58.77 26.32v13.427a4.19 4.19 0 0 1-4.184 4.185"/>
        <g transform="translate(14.014 46.104)">
            <mask id="b" fill="#fff">
                <use xlink:href="#a"/>
            </mask>
            <path fill="#999" d="M60.348 2.755c-.704 0-1.274-.57-1.274-1.274v-.127a1.274 1.274 0 1 1 2.548 0v.127c0 .703-.57 1.274-1.274 1.274m0 5.223c-.704 0-1.274-.57-1.274-1.274v-.127a1.274 1.274 0 1 1 2.548 0v.127c0 .704-.57 1.274-1.274 1.274m0 5.224c-.704 0-1.274-.571-1.274-1.274 0-.705.57-1.338 1.274-1.338.705 0 1.274.507 1.274 1.21v.128c0 .703-.57 1.274-1.274 1.274m0 5.223c-.704 0-1.274-.57-1.274-1.274v-.127a1.273 1.273 0 1 1 2.548 0v.127c0 .703-.57 1.274-1.274 1.274m0 5.223c-.704 0-1.274-.57-1.274-1.274v-.127a1.274 1.274 0 1 1 2.548 0v.127c0 .704-.57 1.274-1.274 1.274m0 5.224c-.704 0-1.274-.571-1.274-1.274v-.128a1.274 1.274 0 1 1 2.548 0v.128c0 .703-.57 1.274-1.274 1.274m0 5.223c-.704 0-1.274-.57-1.274-1.274v-.128a1.274 1.274 0 1 1 2.548 0v.128c0 .703-.57 1.274-1.274 1.274m0 5.223c-.704 0-1.274-.57-1.274-1.274 0-.704.57-1.338 1.274-1.338.705 0 1.274.508 1.274 1.21v.128c0 .703-.57 1.274-1.274 1.274m-1.386 4.87a1.274 1.274 0 0 1-.938-2.136c.473-.525 1.316-.606 1.839-.135.522.47.602 1.233.131 1.757l-.094.103a1.266 1.266 0 0 1-.938.412M2.106 45.863h-.127a1.273 1.273 0 1 1 0-2.548h.127a1.274 1.274 0 1 1 0 2.548m5.223 0h-.127a1.273 1.273 0 1 1 0-2.548c.704 0 1.338.57 1.338 1.274 0 .704-.506 1.274-1.21 1.274m5.223 0h-.128a1.273 1.273 0 1 1 0-2.548h.128a1.274 1.274 0 1 1 0 2.548m5.223 0h-.128a1.274 1.274 0 1 1 0-2.548c.705 0 1.338.57 1.338 1.274 0 .704-.506 1.274-1.21 1.274m5.223 0h-.127a1.273 1.273 0 1 1 0-2.548c.704 0 1.337.57 1.337 1.274 0 .704-.507 1.274-1.21 1.274m5.223 0h-.127a1.273 1.273 0 1 1 0-2.548h.127a1.274 1.274 0 1 1 0 2.548m5.224 0h-.128a1.273 1.273 0 1 1 0-2.548c.705 0 1.338.57 1.338 1.274 0 .704-.506 1.274-1.21 1.274m5.223 0h-.127a1.273 1.273 0 1 1 0-2.548h.127a1.274 1.274 0 1 1 0 2.548m5.223 0h-.127a1.274 1.274 0 1 1 0-2.548c.704 0 1.338.57 1.338 1.274 0 .704-.506 1.274-1.21 1.274m5.223 0h-.128a1.273 1.273 0 1 1 0-2.548c.705 0 1.338.57 1.338 1.274 0 .704-.507 1.274-1.21 1.274m5.223 0h-.128a1.273 1.273 0 1 1 0-2.548h.128a1.274 1.274 0 1 1 0 2.548" mask="url(#b)"/>
        </g>
        <path fill="#999" d="M68.996 43.492c-.704 0-1.274-.57-1.274-1.274v-.127a1.274 1.274 0 1 1 2.548 0v.127c0 .704-.57 1.274-1.274 1.274m0 5.224c-.704 0-1.274-.571-1.274-1.274v-.128a1.274 1.274 0 1 1 2.548 0v.128c0 .703-.57 1.274-1.274 1.274m0 5.223c-.704 0-1.274-.57-1.274-1.274 0-.704.57-1.338 1.274-1.338.705 0 1.274.507 1.274 1.21v.128c0 .703-.57 1.274-1.274 1.274m0 5.223c-.704 0-1.274-.57-1.274-1.274v-.127a1.273 1.273 0 1 1 2.548 0v.127c0 .704-.57 1.274-1.274 1.274m0 5.224c-.704 0-1.274-.571-1.274-1.274v-.128a1.274 1.274 0 1 1 2.548 0v.128c0 .703-.57 1.274-1.274 1.274m0 5.223c-.704 0-1.274-.57-1.274-1.274v-.128a1.274 1.274 0 1 1 2.548 0v.128c0 .703-.57 1.274-1.274 1.274m0 5.223c-.704 0-1.274-.57-1.274-1.274v-.127a1.274 1.274 0 1 1 2.548 0v.127c0 .703-.57 1.274-1.274 1.274m0 5.223c-.704 0-1.274-.57-1.274-1.274 0-.704.57-1.337 1.274-1.337.705 0 1.274.507 1.274 1.21v.127c0 .704-.57 1.274-1.274 1.274m0 5.214c-.704 0-1.274-.561-1.274-1.264v-.128a1.273 1.273 0 1 1 2.548 0v.107c0 .704-.57 1.285-1.274 1.285m-56.582 1.33h-.128a1.274 1.274 0 1 1 0-2.547c.705 0 1.338.57 1.338 1.274 0 .704-.506 1.274-1.21 1.274m5.223 0h-.127a1.273 1.273 0 1 1 0-2.548c.704 0 1.337.57 1.337 1.274 0 .704-.507 1.274-1.21 1.274m5.223 0h-.127a1.273 1.273 0 1 1 0-2.548h.127a1.274 1.274 0 1 1 0 2.548m5.224 0h-.128a1.273 1.273 0 1 1 0-2.548c.705 0 1.338.57 1.338 1.274 0 .704-.507 1.274-1.21 1.274m5.223 0h-.127a1.273 1.273 0 1 1 0-2.548h.127a1.274 1.274 0 1 1 0 2.548m5.223 0h-.127a1.274 1.274 0 1 1 0-2.548c.704 0 1.338.57 1.338 1.274 0 .704-.506 1.274-1.21 1.274m5.223 0h-.128a1.273 1.273 0 1 1 0-2.548c.705 0 1.338.57 1.338 1.274 0 .704-.507 1.274-1.21 1.274m5.223 0h-.128a1.273 1.273 0 1 1 0-2.548h.128a1.274 1.274 0 1 1 0 2.548m5.223 0h-.127a1.273 1.273 0 1 1 0-2.548c.704 0 1.337.57 1.337 1.274 0 .704-.507 1.274-1.21 1.274m5.223 0h-.127a1.273 1.273 0 1 1 0-2.548h.127a1.274 1.274 0 1 1 0 2.548m5.224 0h-.128a1.274 1.274 0 1 1 0-2.548c.705 0 1.338.57 1.338 1.274 0 .704-.506 1.274-1.21 1.274"/>
        <path fill="#FFF" d="M62.355 79.96H2.548c-.703 0-1.274-.572-1.274-1.275V36.657c0-.703.571-1.274 1.274-1.274h59.807c.703 0 1.274.57 1.274 1.274v42.028c0 .703-.57 1.274-1.274 1.274"/>
        <path fill="#333" d="M2.548 36.657v42.028h59.808l-.001-42.028H2.548zm59.807 44.576H2.548A2.55 2.55 0 0 1 0 78.685V36.657a2.55 2.55 0 0 1 2.548-2.548h59.807a2.55 2.55 0 0 1 2.548 2.548v42.028a2.55 2.55 0 0 1-2.548 2.548z"/>
        <path fill="#FFF" d="M63.629 73.803H1.272"/>
        <mask id="d" fill="#fff">
            <use xlink:href="#c"/>
        </mask>
        <path fill="#333" d="M1.271 75.076H63.63V72.53H1.27z" mask="url(#d)"/>
        <path fill="#FFF" d="M39.534 51.165a7.088 7.088 0 0 1-4.386 6.561v8.32h-5.395v-8.32a7.088 7.088 0 0 1-4.387-6.56 7.077 7.077 0 0 1 7.084-7.085 7.078 7.078 0 0 1 7.084 7.084" mask="url(#d)"/>
        <path fill="#0574B9" d="M31.027 64.771h2.846v-7.897l.79-.325a5.8 5.8 0 0 0 3.598-5.384 5.817 5.817 0 0 0-5.811-5.81 5.817 5.817 0 0 0-5.81 5.81 5.798 5.798 0 0 0 3.598 5.384l.789.325v7.897zm5.394 2.548h-7.942v-8.787a8.339 8.339 0 0 1-4.386-7.367c0-4.608 3.749-8.357 8.357-8.357 4.608 0 8.359 3.75 8.359 8.357a8.338 8.338 0 0 1-4.388 7.367v8.787z" mask="url(#d)"/>
    </g>
</svg>
