<?xml version="1.0" encoding="utf-8"?>
<!-- Generator: Adobe Illustrator 22.1.0, SVG Export Plug-In . SVG Version: 6.00 Build 0)  -->
<svg version="1.1" id="Capa_1" xmlns="http://www.w3.org/2000/svg" xmlns:xlink="http://www.w3.org/1999/xlink" x="0px" y="0px"
	 viewBox="0 0 13 13" style="enable-background:new 0 0 13 13;" xml:space="preserve">
<style type="text/css">
	.st0{fill:#7AAC39;stroke:#7AAC39;stroke-linecap:round;stroke-linejoin:round;}
</style>
<title>7373E940-6931-4759-859E-B843D21D7B4F</title>
<desc>Created with sketchtool.</desc>
<g id="_xD83D__xDE80_-Componentes">
	<g id="Componentes-5" transform="translate(-1229.000000, -3423.000000)">
		<g id="Modal---Notificación" transform="translate(445.000000, 3335.000000)">
			<g id="BOX" transform="translate(285.000000, 60.000000)">
				<g id="Cerrar" transform="translate(491.000000, 20.000000)">
					<path id="Combined-Shape" class="st0" d="M15,14.5l4.8,4.8c0.1,0.1,0.1,0.3,0,0.5c-0.1,0.1-0.3,0.1-0.5,0L14.5,15l-4.8,4.8
						c-0.1,0.1-0.3,0.1-0.5,0c-0.1-0.1-0.1-0.3,0-0.5l4.8-4.8L9.2,9.7c-0.1-0.1-0.1-0.3,0-0.5c0.1-0.1,0.3-0.1,0.5,0l4.8,4.8
						l4.8-4.8c0.1-0.1,0.3-0.1,0.5,0c0.1,0.1,0.1,0.3,0,0.5L15,14.5z"/>
				</g>
			</g>
		</g>
	</g>
</g>
</svg>
