<svg xmlns="http://www.w3.org/2000/svg" xmlns:xlink="http://www.w3.org/1999/xlink" width="59" height="71" viewBox="0 0 59 71">
    <defs>
        <path id="a" d="M0 .345h44.48V57H0z"/>
        <path id="c" d="M0 71h58.479V.345H0z"/>
    </defs>
    <g fill="none" fill-rule="evenodd">
        <path fill="#FFF" d="M7 55.655H1V1h42.48v6"/>
        <g transform="translate(0 -.345)">
            <mask id="b" fill="#fff">
                <use xlink:href="#a"/>
            </mask>
            <path fill="#0574B9" d="M7 57H1.924A1.923 1.923 0 0 1 0 55.077V2.269C0 1.207.861.345 1.924.345h40.632c1.062 0 1.923.862 1.923 1.924v5.076h-2v-5H2V55h5v2z" mask="url(#b)"/>
            <path fill="#FFF" d="M38.791 62H8.001a1 1 0 0 1-1-1V8.346a1 1 0 0 1 1-1h40.478a1 1 0 0 1 1 1v42.966c0 .266-.105.52-.292.708L39.5 61.707a1 1 0 0 1-.708.293"/>
            <path fill="#333" d="M8 8.345V61h30.792l9.687-9.688V8.345H8zM38.792 63H8c-1.103 0-2-.897-2-2V8.345c0-1.103.897-2 2-2h40.48c1.102 0 2 .897 2 2v42.967a1.99 1.99 0 0 1-.586 1.414l-9.688 9.688a2.015 2.015 0 0 1-1.414.586z"/>
            <path fill="#333" d="M40.206 52.726v6.86l6.86-6.86h-6.86zm-1 10.273a.999.999 0 0 1-1-1V51.726a1 1 0 0 1 1-1H49.48a1 1 0 0 1 .707 1.707L39.913 62.706a.996.996 0 0 1-.707.293z"/>
            <mask id="d" fill="#fff">
                <use xlink:href="#c"/>
            </mask>
            <path fill="#FFF" d="M14.465 27.927h12.503v-7.96H14.465z" mask="url(#d)"/>
            <path fill="#333" d="M15.465 26.927h10.504v-5.96H15.465v5.96zm-2 2h14.504v-9.96H13.465v9.96z" mask="url(#d)"/>
            <path fill="#FFF" d="M32.493 19.967h9.521" mask="url(#d)"/>
            <path fill="#333" d="M32.494 20.967h9.521v-2h-9.521z" mask="url(#d)"/>
            <path fill="#FFF" d="M32.493 23.947h9.521" mask="url(#d)"/>
            <path fill="#333" d="M32.494 24.947h9.521v-2h-9.521z" mask="url(#d)"/>
            <path fill="#FFF" d="M32.493 27.927h9.521" mask="url(#d)"/>
            <path fill="#333" d="M32.494 28.927h9.521v-2h-9.521zM23.536 39.321h18.479v-2H23.536zM23.536 43.644h18.479v-2H23.536zM23.536 47.967h18.479v-2H23.536z" mask="url(#d)"/>
            <path fill="#999" d="M27.4 69h-.1a1 1 0 0 0 0 2h.1a1 1 0 1 0 0-2M46.108 66.683l-.07.07c-.39.391-.352.99.04 1.38a.968.968 0 0 0 .685.273c.279 0 .56-.109.765-.315a1 1 0 1 0-1.42-1.408M49.007 63.784l-.07.07c-.39.392-.352.99.04 1.38a.968.968 0 0 0 .686.273c.278 0 .559-.108.764-.314a1 1 0 1 0-1.42-1.41M15.1 69H15c-.552 0-.95.448-.95 1s.497 1 1.05 1a1 1 0 1 0 0-2M43.8 69h-.1c-.552 0-.95.448-.95 1s.497 1 1.05 1a1 1 0 1 0 0-2M19.2 69h-.1a1 1 0 0 0 0 2h.1a1 1 0 1 0 0-2M39.7 69h-.1a1 1 0 0 0 0 2h.1a1 1 0 1 0 0-2M35.6 69h-.1c-.552 0-.95.448-.95 1s.497 1 1.05 1a1 1 0 1 0 0-2M31.5 69h-.1c-.552 0-.95.448-.95 1s.497 1 1.05 1a1 1 0 1 0 0-2M23.3 69h-.1c-.552 0-.95.448-.95 1s.497 1 1.05 1a1 1 0 1 0 0-2M51.91 60.882l-.07.07c-.392.391-.357.99.034 1.38a.962.962 0 0 0 .688.275c.278 0 .557-.107.761-.31a.999.999 0 1 0-1.414-1.415M57.48 33.904a1 1 0 0 0-1 1v.1a1 1 0 1 0 2 0v-.1a1 1 0 0 0-1-1M57.48 38.004a1 1 0 0 0-1 1v.1c0 .552.447.95 1 .95.553 0 1-.498 1-1.05a1 1 0 0 0-1-1M57.48 29.804a1 1 0 0 0-1 1v.1a1 1 0 1 0 2 0v-.1a1 1 0 0 0-1-1M57.48 42.103a1 1 0 0 0-1 1v.1a1 1 0 1 0 2 0v-.1a1 1 0 0 0-1-1M57.48 25.703a1 1 0 0 0-1 1v.1a1 1 0 1 0 2 0v-.1a1 1 0 0 0-1-1M57.48 21.603a1 1 0 0 0-1 1v.1a1 1 0 1 0 2 0v-.1a1 1 0 0 0-1-1M57.48 46.203a1 1 0 0 0-1 1v.1a1 1 0 1 0 2 0v-.1a1 1 0 0 0-1-1M54.81 57.98l-.07.071a1 1 0 1 0 1.41 1.42l.07-.072a1 1 0 1 0-1.41-1.419M57.48 54.404a1 1 0 0 0-1 1v.1a1 1 0 1 0 2 0v-.1a1 1 0 0 0-1-1M57.48 19.554c.553 0 1-.498 1-1.05a1 1 0 1 0-2 0v.1c0 .552.447.95 1 .95M57.48 50.304a1 1 0 0 0-1 1v.1a1 1 0 1 0 2 0v-.1a1 1 0 0 0-1-1M53.48 45.475a1 1 0 0 0 1-1v-.1a1 1 0 1 0-2 0v.1a1 1 0 0 0 1 1M11.1 65H11c-.552 0-.95.448-.95 1s.497 1 1.05 1a1 1 0 1 0 0-2M53.48 49.575a1 1 0 0 0 1-1v-.1a1 1 0 1 0-2 0v.1a1 1 0 0 0 1 1M53.48 20.825c.553 0 1-.498 1-1.05a1 1 0 1 0-2 0v.1c0 .552.447.95 1 .95M53.48 24.975a1 1 0 0 0 1-1v-.1a1 1 0 1 0-2 0v.1a1 1 0 0 0 1 1M53.48 41.325c.553 0 1-.498 1-1.05a1 1 0 1 0-2 0v.1c0 .552.447.95 1 .95M53.48 29.075a1 1 0 0 0 1-1v-.1a1 1 0 1 0-2 0v.1a1 1 0 0 0 1 1M53.48 16.775a1 1 0 0 0 1-1v-.1a1 1 0 1 0-2 0v.1a1 1 0 0 0 1 1M53.48 37.275a1 1 0 0 0 1-1v-.1a1 1 0 1 0-2 0v.1a1 1 0 0 0 1 1M53.48 33.175a1 1 0 0 0 1-1v-.1a1 1 0 1 0-2 0v.1a1 1 0 0 0 1 1M44.11 65.509a.999.999 0 1 0-1.413-1.414l-.07.07c-.392.39-.357.989.034 1.379a.962.962 0 0 0 .688.276c.279 0 .558-.107.762-.311M49.836 59.784l.071-.071a1 1 0 1 0-1.41-1.42l-.071.072a1 1 0 1 0 1.41 1.419M47.013 62.607a1 1 0 1 0-1.42-1.41l-.07.072c-.39.39-.352.989.04 1.379a.968.968 0 0 0 .686.273c.278 0 .559-.108.764-.314M39.8 65h-.1c-.552 0-.95.448-.95 1s.497 1 1.05 1a1 1 0 1 0 0-2M15.2 65h-.1a1 1 0 0 0 0 2h.1a1 1 0 1 0 0-2M52.733 56.887l.07-.07a.999.999 0 1 0-1.403-1.424l-.072.07a.999.999 0 1 0 1.404 1.424M54.48 52.575a1 1 0 1 0-2 0v.1a1 1 0 1 0 2 0v-.1zM23.4 65h-.1a1 1 0 0 0 0 2h.1a1 1 0 1 0 0-2M19.3 65h-.1c-.552 0-.95.448-.95 1s.497 1 1.05 1a1 1 0 1 0 0-2M31.6 65h-.1c-.552 0-.95.448-.95 1s.497 1 1.05 1a1 1 0 1 0 0-2M35.7 65h-.1a1 1 0 0 0 0 2h.1a1 1 0 1 0 0-2M27.5 65h-.1c-.552 0-.95.448-.95 1s.497 1 1.05 1a1 1 0 1 0 0-2" mask="url(#d)"/>
            <path fill="#333" d="M15.514 37.312h1.638v1.52c.453.05.82.133 1.107.251.284.118.486.217.605.295l-.694 1.343a3.887 3.887 0 0 0-.642-.303 2.745 2.745 0 0 0-.995-.169c-.71 0-1.064.211-1.064.634 0 .118.047.221.14.31.094.09.215.17.362.244.147.074.317.143.51.207a10.648 10.648 0 0 1 1.356.56c.25.123.47.27.657.436.188.167.338.363.45.59.114.226.17.492.17.797 0 .61-.171 1.1-.516 1.468-.345.37-.826.618-1.446.745v1.727h-1.638V46.3c-.481-.059-.888-.154-1.218-.287a4.5 4.5 0 0 1-.761-.377l.665-1.387a4.402 4.402 0 0 0 .715.384c.164.068.343.125.539.17.198.044.41.066.635.066.444 0 .76-.059.952-.177.193-.119.288-.276.288-.472a.433.433 0 0 0-.17-.347 1.788 1.788 0 0 0-.451-.259 9.345 9.345 0 0 0-.627-.236 7.52 7.52 0 0 1-.701-.28 4.267 4.267 0 0 1-1.202-.812c-.32-.314-.478-.747-.478-1.299 0-.54.157-.993.47-1.357.316-.364.764-.609 1.344-.737v-1.58z" mask="url(#d)"/>
        </g>
    </g>
</svg>
