<?xml version="1.0" encoding="UTF-8"?>
<svg width="18px" height="22px" viewBox="0 0 18 22" version="1.1" xmlns="http://www.w3.org/2000/svg" xmlns:xlink="http://www.w3.org/1999/xlink">
    <title>Download</title>
    <g id="00-Recorte" stroke="none" stroke-width="1" fill="none" fill-rule="evenodd">
        <path d="M16.7142857,20.5714286 C17.0693259,20.5714286 17.3571429,20.8592455 17.3571429,21.2142857 C17.3571429,21.529877 17.1297319,21.7923536 16.8298401,21.8467856 L16.7142857,21.8571429 L1.28571429,21.8571429 C0.930674089,21.8571429 0.642857143,21.5693259 0.642857143,21.2142857 C0.642857143,20.8986944 0.870268064,20.6362178 1.1701599,20.5817859 L1.28571429,20.5714286 L16.7142857,20.5714286 Z M8.99053803,0.798840442 C9.30612931,0.798840442 9.56860593,1.02625136 9.62303788,1.3261432 L9.63339517,1.44169758 L9.63421891,16.915269 L13.9907931,12.5585575 C14.2139499,12.3354008 14.5603527,12.3106056 14.8108974,12.4841719 L14.8999304,12.5585575 C15.1230872,12.7817142 15.1478823,13.1281171 14.974316,13.3786618 L14.8999304,13.4676948 L9.44510667,18.9225185 C9.22194993,19.1456753 8.87554713,19.1704705 8.62500238,18.9969041 L8.53596938,18.9225185 L3.08114564,13.4676948 C2.83009431,13.2166435 2.83009431,12.8096088 3.08114564,12.5585575 C3.30430238,12.3354008 3.65070518,12.3106056 3.90124993,12.4841719 L3.99028293,12.5585575 L8.34850462,16.915269 L8.34768088,1.44169758 C8.34768088,1.08665739 8.63549783,0.798840442 8.99053803,0.798840442 Z" id="Download" fill="#7AAC39" fill-rule="nonzero"></path>
    </g>
</svg>