<?xml version="1.0" encoding="UTF-8"?>
<svg width="88px" height="95px" viewBox="0 0 88 95" version="1.1" xmlns="http://www.w3.org/2000/svg" xmlns:xlink="http://www.w3.org/1999/xlink">
    <!-- Generator: sketchtool 54.1 (76490) - https://sketchapp.com -->
    <title>F2FA05EE-7F3F-4296-A1E6-3AF4D813D64A</title>
    <desc>Created with sketchtool.</desc>
    <defs>
        <polygon id="path-1" points="0.423911678 0.696573818 44.4600811 0.696573818 44.4600811 87.8243243 0.423911678 87.8243243"></polygon>
        <polygon id="path-3" points="0 0.00997972973 33.185355 0.00997972973 33.185355 53.1056824 0 53.1056824"></polygon>
    </defs>
    <g id="🚀-Componentes" stroke="none" stroke-width="1" fill="none" fill-rule="evenodd">
        <g id="Componentes-6" transform="translate(-671.000000, -2142.000000)">
            <g id="Group-14" transform="translate(445.000000, 1993.000000)">
                <g id="404" transform="translate(0.000000, 99.000000)">
                    <g id="Question" transform="translate(226.000000, 50.000000)">
                        <path d="M74.318123,10.4141297 C74.00615,10.4141297 73.6915554,10.3040216 73.4411905,10.0772514 C72.9076905,9.59618378 72.8106905,8.73235946 73.2865149,8.19230541 C73.7610284,7.65356216 74.5317851,7.55394054 75.0770824,8.02583243 C75.0836365,8.03107568 75.1885014,8.12283243 75.1950554,8.12938649 C75.7324878,8.61307568 75.7757446,9.44150811 75.2920554,9.98025135 C75.0338257,10.2673189 74.6759743,10.4141297 74.318123,10.4141297 L74.318123,10.4141297 Z M77.7380284,14.5300757 C77.2884203,14.5300757 76.8506095,14.2980622 76.6067986,13.8825351 C76.2437041,13.2638324 76.4127986,12.4118054 77.0262581,12.0408459 C77.6410284,11.6698865 78.4065419,11.8075216 78.7827446,12.4170486 C78.7892986,12.4262243 78.8627041,12.5468189 78.8679473,12.5559946 C79.2336635,13.1812514 79.0252446,13.9847784 78.3999878,14.3504946 C78.1915689,14.4724 77.9634878,14.5300757 77.7380284,14.5300757 L77.7380284,14.5300757 Z M79.7868257,19.4783865 C79.19565,19.4783865 78.6595284,19.0759676 78.5140284,18.4756162 C78.3449338,17.7795757 78.7499743,17.0140622 79.4447041,16.8344811 C80.1341905,16.6575216 80.8315419,17.0048865 81.0189878,17.6956838 C81.0216095,17.7074811 81.059623,17.846427 81.0622446,17.8582243 C81.2313392,18.5621297 80.8000824,19.2712784 80.096177,19.4416838 C79.992623,19.4665892 79.8890689,19.4783865 79.7868257,19.4783865 L79.7868257,19.4783865 Z M80.5431635,24.7530892 C79.8562986,24.7530892 79.2821635,24.2471162 79.2415284,23.5510757 C79.1995824,22.8288189 79.7475014,22.1432649 80.4684473,22.1013189 C81.1802176,22.059373 81.8094068,22.544373 81.8513527,23.2679405 C81.8526635,23.2744946 81.8552851,23.3452784 81.8565959,23.3518324 C81.8867446,24.0714676 81.3348932,24.7137649 80.6152581,24.7517784 C80.5903527,24.7517784 80.5680689,24.7530892 80.5431635,24.7530892 L80.5431635,24.7530892 Z M80.1551635,30.1313459 C80.0673392,30.1313459 79.9755824,30.1234811 79.8864473,30.1038189 C79.1772986,29.9556973 78.7224473,29.2609676 78.8718797,28.5531297 L78.8980959,28.4246703 C79.0449068,27.7155216 79.7396365,27.2619811 80.4487851,27.4087919 C81.1579338,27.5582243 81.6114743,28.2516432 81.4633527,28.9607919 L81.4371365,29.0892514 C81.3073662,29.7079541 80.7633797,30.1313459 80.1551635,30.1313459 L80.1551635,30.1313459 Z M78.3174068,35.1622378 C78.1220959,35.1622378 77.9254743,35.1202919 77.7393392,35.0285351 C77.0904878,34.7086973 76.8230824,33.9235216 77.1416095,33.2733595 C77.1481635,33.2602514 77.2150149,33.1317919 77.2215689,33.1186838 C77.5636905,32.4816297 78.3514878,32.2365081 78.9950959,32.5799405 C79.6347716,32.9194405 79.8759608,33.7137919 79.53515,34.3534676 L78.3790149,33.7360757 L79.4945149,34.4308054 C79.2664338,34.8935216 78.8010959,35.1622378 78.3174068,35.1622378 L78.3174068,35.1622378 Z M75.288123,39.5927784 C74.9997446,39.5927784 74.7087446,39.4970892 74.4662446,39.3017784 C73.9039068,38.846927 73.8147716,38.0211162 74.269623,37.4574676 C74.2735554,37.4535351 74.3600689,37.3473595 74.3640014,37.343427 C74.8280284,36.7863324 75.6538392,36.7103054 76.209623,37.1717108 C76.7667176,37.634427 76.8440554,38.4602378 76.3813392,39.0173324 L75.3733257,38.1810351 L76.3105554,39.1051568 C76.0497041,39.4263054 75.6708797,39.5927784 75.288123,39.5927784 L75.288123,39.5927784 Z M71.6493122,43.5422514 C71.3045689,43.5422514 70.9598257,43.4072378 70.7029068,43.1398324 C70.202177,42.6168189 70.2192176,41.7883865 70.7409203,41.2863459 C71.2547581,40.7725081 72.1212041,40.7397378 72.6324203,41.2496432 C73.1436365,41.7621703 73.18165,42.5552108 72.669123,43.066427 L72.5563932,43.1778459 C72.3034068,43.4216568 71.9757041,43.5422514 71.6493122,43.5422514 L71.6493122,43.5422514 Z M67.7601365,47.2518459 C67.4153932,47.2518459 67.0719608,47.1168324 66.8137311,46.8481162 C66.3143122,46.3264135 66.3300419,45.4966703 66.8530554,44.9946297 L66.9474338,44.9041838 C67.4704473,44.4034541 68.2988797,44.4204946 68.8009203,44.9421973 C69.30165,45.4652108 69.2846095,46.2949541 68.7629068,46.7956838 L68.6672176,46.8874405 C68.4129203,47.1312514 68.0865284,47.2518459 67.7601365,47.2518459 L67.7601365,47.2518459 Z M64.2537176,51.3022514 C64.0085959,51.3022514 63.7582311,51.2327784 63.5367041,51.0872784 C62.9311095,50.6914135 62.7633257,49.8787108 63.1578797,49.2731162 C63.5406365,48.6583459 64.3769338,48.4276432 64.9903932,48.8090892 C65.6064743,49.1905351 65.8214473,49.9560486 65.4400014,50.5708189 L65.352177,50.7097649 C65.1005014,51.0938324 64.6810419,51.3022514 64.2537176,51.3022514 L64.2537176,51.3022514 Z M63.6258392,55.1560351 L62.3255149,54.9725216 L61.0422311,54.699873 C61.1929743,53.9933459 61.8995014,53.4768865 62.6073392,53.6250081 C63.315177,53.7744405 63.7818257,54.4049405 63.6337041,55.1127784 L62.3504203,54.8440622 L63.6258392,55.1560351 Z M61.9335824,61.6393054 C61.9073662,61.6393054 61.88115,61.6379946 61.8549338,61.6366838 C61.1313662,61.593427 60.5821365,60.9734135 60.6240824,60.2511568 C60.6660284,59.5289 61.2860419,58.8839811 62.0122311,58.9547649 C62.7357986,58.9967108 63.2902716,59.5511838 63.2483257,60.2747514 L63.2404608,60.4045216 C63.1998257,61.1005622 62.6217581,61.6393054 61.9335824,61.6393054 L61.9335824,61.6393054 Z M61.6412716,67.0057649 C61.6163662,67.0057649 61.59015,67.0044541 61.5639338,67.0031432 C60.841677,66.9611973 60.2898257,66.3411838 60.3317716,65.6176162 L60.3396365,65.4865351 C60.3815824,64.7642784 60.9766905,64.2071838 61.7251635,64.2556838 C62.4461095,64.2976297 62.9979608,64.9176432 62.9560149,65.6399 L62.94815,65.7709811 C62.9075149,66.4683324 62.3294473,67.0057649 61.6412716,67.0057649 L61.6412716,67.0057649 Z M61.6517581,72.3774676 C60.938677,72.3774676 60.3553662,71.8072649 60.3409473,71.092873 L60.3383257,70.9617919 C60.3239068,70.2382243 60.9006635,69.6391838 61.6229203,69.6247649 L61.6491365,69.6247649 C62.3622176,69.6247649 62.9455284,70.1949676 62.9599473,70.9106703 L62.9625689,71.0417514 C62.9769878,71.7653189 62.4002311,72.3643595 61.6766635,72.3774676 L61.6517581,72.3774676 Z M61.7199203,77.7517919 C61.0068392,77.7517919 60.4222176,77.1829 60.4091095,76.4671973 C60.3946905,75.7436297 60.9675149,75.0790486 61.6923932,75.0646297 C62.3962986,75.0371027 63.0136905,75.5601162 63.0281095,76.2849946 L63.0307311,76.4160757 C63.0438392,77.1383324 62.4697041,77.737373 61.7448257,77.7517919 L61.7199203,77.7517919 Z M60.6188392,82.9517784 C60.4694068,82.9517784 60.3160419,82.9242514 60.1692311,82.8678865 C59.4967851,82.6109676 59.1467986,81.8887108 59.3984743,81.2149541 L59.4456635,81.0917378 C59.7012716,80.4127378 60.4562986,80.0732378 61.1339878,80.3249135 C61.811677,80.5792108 62.1551095,81.3342378 61.9008122,82.0132378 C61.8981905,82.0184811 61.8732851,82.0853324 61.8706635,82.0918865 C61.666177,82.6149 61.15365,82.9517784 60.6188392,82.9517784 L60.6188392,82.9517784 Z M57.6524743,87.3875622 C57.2435014,87.3875622 56.8410824,87.1961838 56.5854743,86.8383324 C56.1633932,86.2497784 56.3010284,85.4305216 56.8895824,85.0097514 C57.4702716,84.5955351 58.3275419,84.6833595 58.7548662,85.2535622 C59.1808797,85.8250757 59.1245149,86.5945216 58.5608662,87.0323324 C58.5477581,87.0441297 58.4284743,87.1319541 58.4127446,87.1424405 C58.1820419,87.3076027 57.9159473,87.3875622 57.6524743,87.3875622 L57.6524743,87.3875622 Z M42.1980149,88.3746027 C42.0184338,88.3746027 41.8349203,88.3326568 41.65665,88.2474541 L41.5229473,88.1819135 C40.8754068,87.8581432 40.6132446,87.0703459 40.9370149,86.4228054 C41.2620959,85.7752649 42.0472716,85.5157243 42.696123,85.836873 C43.3475959,86.1514676 43.6713662,86.9602378 43.3567716,87.6130216 C43.1273797,88.0875351 42.6764608,88.3746027 42.1980149,88.3746027 L42.1980149,88.3746027 Z M52.6346905,89.2030351 C52.0120554,89.2030351 51.4615149,88.7612919 51.3474743,88.1268595 C51.2163932,87.4150892 51.6882851,86.7334676 52.4013662,86.6036973 L52.5376905,86.5787919 C53.2494608,86.4503324 53.9297716,86.9287784 54.0556095,87.6418595 C54.1827581,88.3549405 53.705623,89.0352514 52.9925419,89.1597784 L52.8706365,89.1820622 C52.790677,89.1977919 52.7133392,89.2030351 52.6346905,89.2030351 L52.6346905,89.2030351 Z M47.4163527,89.6146297 L47.3757176,89.6146297 L47.2459473,89.6106973 C46.5210689,89.5884135 45.9508662,88.9854405 45.9718392,88.2631838 C45.9928122,87.5383054 46.6206905,86.9982514 47.3193527,86.9890757 L47.4530554,86.9930081 C48.176623,87.0152919 48.7455149,87.6182649 48.7258527,88.3418324 C48.7035689,89.0522919 48.1215689,89.6146297 47.4163527,89.6146297 L47.4163527,89.6146297 Z" id="Fill-1" fill="#999999"></path>
                        <g id="Group-5" transform="translate(43.256757, 7.041151)">
                            <mask id="mask-2" fill="white">
                                <use xlink:href="#path-1"></use>
                            </mask>
                            <g id="Clip-4"></g>
                            <path d="M38.1850986,3.39670405 C37.7617068,3.39670405 37.3448689,3.19221757 37.0931932,2.81339324 C36.6829095,2.21697432 36.8021932,1.35446081 37.3973014,0.944177027 C37.9924095,0.533893243 38.7775851,0.636136486 39.1891797,1.23124459 L39.2743824,1.35839324 C39.6768014,1.96136622 39.5142608,2.77537973 38.9112878,3.17648784 C38.6871392,3.32592027 38.4341527,3.39670405 38.1850986,3.39670405 L38.1850986,3.39670405 Z M40.6232068,8.11693378 C40.1408284,8.11693378 39.6912203,7.85477162 39.4801797,7.3789473 C39.4762473,7.36977162 39.4303689,7.26097432 39.4264365,7.25179865 C39.1472338,6.58459595 39.4578959,5.80728514 40.1250986,5.52677162 C40.7962338,5.24756892 41.5578149,5.55298784 41.8357068,6.21887973 C41.8357068,6.22019054 41.8448824,6.2398527 41.8448824,6.24116351 C42.1227743,6.90312297 41.8357068,7.71582568 41.1763689,8.00027162 C40.995477,8.07892027 40.8067203,8.11693378 40.6232068,8.11693378 L40.6232068,8.11693378 Z M42.3718284,13.2553122 C41.7937608,13.2553122 41.2655041,12.8699338 41.1068959,12.2840014 L41.0675716,12.1267041 C40.8971662,11.4227986 41.328423,10.71365 42.0336392,10.5432446 C42.741477,10.3715284 43.4453824,10.8040959 43.6157878,11.5080014 L43.6393824,11.6050014 C43.8281392,12.3036635 43.4126122,13.0219878 42.71395,13.2107446 C42.5999095,13.2408932 42.4845581,13.2553122 42.3718284,13.2553122 L42.3718284,13.2553122 Z M43.1478284,18.5654068 C42.4426122,18.5654068 41.8606122,18.0043797 41.8383284,17.2939203 C41.8173554,16.5769068 42.3718284,15.9110149 43.0875311,15.8795554 C43.8491122,15.8402311 44.4088284,16.3317851 44.4507743,17.0474878 C44.4520851,17.0605959 44.4586392,17.2034743 44.45995,17.2165824 C44.480923,17.94015 43.9107203,18.5444338 43.1871527,18.5654068 C43.1753554,18.5654068 43.1622473,18.5654068 43.1478284,18.5654068 L43.1478284,18.5654068 Z M42.5618959,23.8899203 C42.4727608,23.8899203 42.3823149,23.8807446 42.2931797,23.8623932 C41.5840311,23.7142716 41.1291797,23.0195419 41.2773014,22.3117041 C41.279923,22.2972851 41.3126932,22.1570284 41.3166257,22.1426095 C41.4870311,21.4387041 42.1988014,21.0061365 42.8987743,21.1778527 C43.6026797,21.3482581 44.0339365,22.0574068 43.8635311,22.7613122 L42.589423,22.4519608 L43.8425581,22.8478257 C43.7140986,23.4665284 43.1701122,23.8899203 42.5618959,23.8899203 L42.5618959,23.8899203 Z M41.0256257,29.0440284 C40.8722608,29.0440284 40.7175851,29.0165014 40.5642203,28.9601365 C39.8878419,28.7058392 39.5444095,27.9495014 39.7973959,27.2718122 C40.0490716,26.6032986 40.8067203,26.1930149 41.4883419,26.4355149 C42.1620986,26.6767041 42.5396122,27.3504608 42.3102203,28.0294608 C42.3062878,28.0425689 42.2577878,28.1788932 42.2538554,28.1933122 C42.055923,28.7189473 41.5551932,29.0440284 41.0256257,29.0440284 L41.0256257,29.0440284 Z M38.7212203,33.8887851 C38.4721662,33.8887851 38.2191797,33.8180014 37.9950311,33.6685689 C37.3933689,33.2674608 37.2295176,32.4534473 37.6319365,31.8517851 C38.0146932,31.2370149 38.8444365,31.0089338 39.4618284,31.3903797 C40.0752878,31.7731365 40.2876392,32.5438932 39.9061932,33.1586635 L39.8131257,33.3054743 C39.56145,33.6842986 39.1446122,33.8887851 38.7212203,33.8887851 L38.7212203,33.8887851 Z M35.4455041,38.1410554 C35.1427068,38.1410554 34.8372878,38.0375014 34.5895446,37.8238392 C34.0416257,37.3506365 33.9800176,36.5222041 34.4532203,35.9742851 C34.4597743,35.9677311 34.5528419,35.8615554 34.5593959,35.8550014 C35.0457068,35.3162581 35.8741392,35.275623 36.4102608,35.7593122 C36.9490041,36.2443122 36.99095,37.0727446 36.50595,37.6114878 L35.5333284,36.7332446 L36.4377878,37.6875149 C36.1795581,37.9876905 35.8125311,38.1410554 35.4455041,38.1410554 L35.4455041,38.1410554 Z M31.6808554,41.9738662 C31.3348014,41.9738662 30.9900581,41.8375419 30.7318284,41.5675149 C30.2337203,41.0431905 30.2520716,40.2134473 30.7777068,39.7140284 C31.3007203,39.2146095 32.1789635,39.1897041 32.6770716,39.7140284 C33.1764905,40.2383527 33.2040176,41.0235284 32.6796932,41.5216365 L32.5853149,41.6120824 C32.3310176,41.8532716 32.0059365,41.9738662 31.6808554,41.9738662 L31.6808554,41.9738662 Z M28.7721662,45.2508932 L27.7943014,44.3752716 L26.8675581,43.4485284 C27.3787743,42.9373122 28.2543959,42.8888122 28.766923,43.4013392 C29.27945,43.9138662 29.3253284,44.6964203 28.8141122,45.2089473 L27.8873689,44.2822041 L28.7721662,45.2508932 Z M24.7112743,50.0563257 C24.5277608,50.0563257 24.3416257,50.0170014 24.165977,49.9357311 C23.50795,49.6342446 23.2182608,48.8569338 23.5197473,48.1989068 L23.5879095,48.0560284 C23.9025041,47.4058662 24.6850581,47.1319068 25.3391527,47.4465014 C25.9906257,47.7624068 26.2632743,48.5462716 25.9486797,49.1977446 L25.9041122,49.292123 C25.6825851,49.7731905 25.2080716,50.0563257 24.7112743,50.0563257 L24.7112743,50.0563257 Z M23.41095,55.2340284 C23.3886662,55.2340284 23.3663824,55.2327176 23.3454095,55.2327176 C22.6218419,55.1973257 22.0647473,54.5825554 22.1001392,53.8589878 L22.1053824,53.7279068 C22.1420851,53.0043392 22.7450581,52.4498662 23.4791122,52.4826365 C24.2026797,52.5180284 24.7597743,53.1327986 24.7243824,53.8563662 L24.7191392,53.9874473 C24.6837473,54.6887311 24.1043689,55.2340284 23.41095,55.2340284 L23.41095,55.2340284 Z M23.1186392,60.6004878 C23.0963554,60.6004878 23.0753824,60.599177 23.0530986,60.599177 C22.3295311,60.5624743 21.7724365,59.9477041 21.8078284,59.2254473 C21.8432203,58.5031905 22.4186662,57.9107041 23.1854905,57.9146365 C23.9064365,57.9500284 24.4674635,58.5005689 24.4333824,59.2228257 L24.4268284,59.3525959 C24.3927473,60.0551905 23.8120581,60.6004878 23.1186392,60.6004878 L23.1186392,60.6004878 Z M22.8840041,65.9682581 C22.170923,65.9682581 21.5876122,65.3980554 21.5731932,64.6823527 L21.5705716,64.5512716 C21.5561527,63.8277041 22.1329095,63.2299743 22.856477,63.2155554 L22.8813824,63.2155554 C23.5944635,63.2155554 24.1777743,63.7857581 24.1921932,64.50015 L24.1948149,64.6312311 C24.2092338,65.3561095 23.632477,65.9538392 22.9102203,65.9682581 L22.8840041,65.9682581 Z M22.9521662,71.3412716 C22.2390851,71.3412716 21.6557743,70.7723797 21.6413554,70.056677 C21.6269365,69.3331095 22.2010716,68.6685284 22.9246392,68.6554203 C23.6442743,68.6265824 24.2446257,69.1509068 24.2603554,69.8744743 L24.262977,70.0055554 C24.2773959,70.729123 23.70195,71.3281635 22.9770716,71.3412716 L22.9521662,71.3412716 Z M22.8656527,76.7077311 C22.801423,76.7077311 22.7358824,76.7024878 22.6690311,76.6933122 C21.9520176,76.5845149 21.4604635,75.9173122 21.5692608,75.2016095 C21.6767473,74.4859068 22.3531257,73.9261905 23.0688284,74.0362986 C23.7832203,74.1424743 24.2852608,74.7428257 24.1803959,75.4585284 C24.1803959,75.4598392 24.1620446,75.5922311 24.1607338,75.5935419 C24.0637338,76.2437041 23.5040176,76.7077311 22.8656527,76.7077311 L22.8656527,76.7077311 Z M21.1786392,81.7897446 C20.9767743,81.7897446 20.7722878,81.7425554 20.5782878,81.6442446 C19.9359905,81.3126095 19.6843149,80.5208797 20.01595,79.8772716 L20.0841122,79.7461905 C20.4262338,79.1091365 21.2179635,78.8692581 21.85895,79.2048257 C22.4973149,79.5469473 22.7398149,80.3412986 22.3990041,80.9796635 L22.3452608,81.0805959 C22.1119365,81.5315149 21.6544635,81.7897446 21.1786392,81.7897446 L21.1786392,81.7897446 Z M17.4716662,85.5465284 C16.9971527,85.5465284 16.5383689,85.2882986 16.3063554,84.8373797 C15.9747203,84.1937716 16.2263959,83.4033527 16.8686932,83.0717176 C17.5109905,82.7295959 18.3551527,82.9471905 18.6933419,83.5842446 C19.0341527,84.2239203 18.8427743,84.9907446 18.2044095,85.3315554 L18.0720176,85.4010284 C17.8793284,85.4993392 17.6748419,85.5465284 17.4716662,85.5465284 L17.4716662,85.5465284 Z M1.86122027,87.3056365 C1.79961216,87.3056365 1.73669324,87.3003932 1.67377432,87.2912176 C1.67246351,87.2912176 1.54007162,87.2728662 1.53876081,87.2715554 C0.821747297,87.1640689 0.330193243,86.4955554 0.438990541,85.7798527 C0.546477027,85.0628392 1.21105811,84.5712851 1.93069324,84.6800824 C2.64639595,84.7875689 3.20349054,85.4639473 3.09469324,86.17965 C2.99769324,86.8298122 2.49172027,87.3056365 1.86122027,87.3056365 L1.86122027,87.3056365 Z M12.4211122,87.3567581 C11.8273149,87.3567581 11.2872608,86.9504068 11.1456932,86.3474338 C10.9805311,85.6422176 11.4170311,84.9370014 12.1209365,84.7705284 C12.8261527,84.6014338 13.592977,85.0169608 13.7646932,85.7208662 C13.9350986,86.4247716 13.5628284,87.1195014 12.858923,87.2885959 L12.7225986,87.322677 C12.6216662,87.3449608 12.5207338,87.3567581 12.4211122,87.3567581 L12.4211122,87.3567581 Z M7.21457162,87.8247176 L7.17655811,87.8247176 C7.16345,87.8234068 7.02057162,87.8181635 7.00746351,87.8168527 C6.28389595,87.7749068 5.73335541,87.1535824 5.77530135,86.4313257 C5.81855811,85.7090689 6.43332838,85.1650824 7.16082838,85.2004743 C7.87653108,85.2424203 8.49130135,85.8532581 8.45853108,86.5689608 C8.42838243,87.2715554 7.91061216,87.8247176 7.21457162,87.8247176 L7.21457162,87.8247176 Z" id="Fill-3" fill="#999999" mask="url(#mask-2)"></path>
                        </g>
                        <g id="Group-8" transform="translate(0.000000, 30.324935)">
                            <mask id="mask-4" fill="white">
                                <use xlink:href="#path-3"></use>
                            </mask>
                            <g id="Clip-7"></g>
                            <path d="M17.1186649,2.63160135 C15.8065432,2.63160135 14.7998405,2.98683108 14.0421919,3.71826351 C13.2963405,4.43658784 12.9345568,5.33318243 12.9345568,6.45916892 C12.9345568,7.60612838 13.306827,8.51714189 14.0710297,9.2459527 C14.8535838,9.99311486 15.8498,10.3562095 17.1186649,10.3562095 C18.3862189,10.3562095 19.3837459,9.99311486 20.1663,9.2459527 C20.9305027,8.51714189 21.302773,7.60612838 21.302773,6.45916892 C21.302773,5.33449324 20.9409892,4.43789865 20.1951378,3.71957432 C19.4361784,2.98683108 18.4294757,2.63160135 17.1186649,2.63160135 L17.1186649,2.63160135 Z M17.1186649,12.9778311 C15.1721108,12.9778311 13.5375297,12.3604392 12.2621108,11.1440068 C10.9696514,9.91184459 10.3129351,8.33625 10.3129351,6.45916892 C10.3129351,4.60961486 10.9552324,3.05237162 12.2240973,1.83069595 C13.4759216,0.622128378 15.1236108,0.00997972973 17.1186649,0.00997972973 C19.1124081,0.00997972973 20.7600973,0.622128378 22.0132324,1.83200676 C23.2807865,3.05237162 23.9243946,4.60961486 23.9243946,6.45916892 C23.9243946,8.33625 23.2676784,9.91184459 21.9739081,11.1453176 C20.6971784,12.3604392 19.0639081,12.9778311 17.1186649,12.9778311 L17.1186649,12.9778311 Z M14.173273,18.1673311 L14.1182189,19.0141149 C13.8298405,21.5937905 12.7051649,23.8156149 10.7677865,25.6795878 L8.01508378,28.2985878 C5.98988108,30.2608716 4.55847568,32.0566824 3.77067838,33.6244122 C3.00778649,35.1410203 2.6210973,36.7756014 2.6210973,38.4848986 C2.6210973,42.3570338 3.7733,45.2513041 6.14455676,47.33025 C8.53023243,49.4223041 11.9947054,50.4840608 16.4396649,50.4840608 C20.8374351,50.4840608 24.3268135,49.3620068 26.8134216,47.1493581 C29.0103405,45.1949392 30.2241514,42.6126419 30.5020432,39.2858041 L23.2375297,39.2858041 C22.9976514,40.8509122 22.3828811,42.1499257 21.3984622,43.1579392 C20.1413946,44.4464662 18.4727324,45.1005608 16.4396649,45.1005608 C12.1821514,45.1005608 9.83711081,42.5956014 9.83711081,38.0483986 C9.83711081,36.5462095 10.2421514,35.1030068 11.0378135,33.7607365 C11.7928405,32.4879392 13.2137595,30.9320068 15.3818405,29.0011824 C17.2667865,27.3220338 18.5723541,25.6179797 19.2631514,23.932277 C19.8582595,22.4798986 20.2043135,20.5451419 20.2947595,18.1673311 L14.173273,18.1673311 Z M16.4396649,53.1056824 C11.3406108,53.1056824 7.29413784,51.8250203 4.41690811,49.3017095 C1.48593514,46.7312095 -0.000524324325,43.0910878 -0.000524324325,38.4848986 C-0.000524324325,36.3640068 0.481854054,34.33225 1.42825946,32.4473041 C2.36155676,30.5898851 3.92273243,28.6144932 6.1983,26.4070878 L8.95493514,23.7841554 C10.4558135,22.3422635 11.2921108,20.70375 11.5070838,18.7821014 L11.6368541,16.7713176 C11.6827324,16.0818311 12.2542459,15.5457095 12.9450432,15.5457095 L21.6291649,15.5457095 C22.3540432,15.5457095 22.9399757,16.1329527 22.9399757,16.8565203 C22.9399757,20.2292365 22.5310027,22.8692095 21.6894622,24.9258716 C20.8466108,26.9838446 19.3103405,29.0129797 17.1252189,30.958223 C15.1878405,32.68325 13.8993135,34.0753311 13.2937189,35.0977635 C12.7313811,36.0441689 12.4587324,37.0089257 12.4587324,38.0483986 C12.4587324,41.1537095 13.6502595,42.4789392 16.4396649,42.4789392 C17.7570297,42.4789392 18.7663541,42.1027365 19.5213811,41.3280473 C20.2960703,40.5350068 20.6906243,39.4273716 20.7260162,37.942223 C20.7443676,37.2317635 21.3250568,36.6641824 22.036827,36.6641824 L31.8744622,36.6641824 C32.2231378,36.6641824 32.5600162,36.8044392 32.8064486,37.0534932 C33.0515703,37.3025473 33.1892054,37.6394257 33.185273,37.9894122 C33.1354622,42.6794932 31.5769081,46.4192365 28.5568,49.1077095 C25.5747054,51.7594797 21.4993946,53.1056824 16.4396649,53.1056824 L16.4396649,53.1056824 Z" id="Fill-6" fill="#0574B9" mask="url(#mask-4)"></path>
                        </g>
                        <path d="M42.1455824,55.9367541 L53.4958932,55.9367541 L53.6335284,53.8447 C54.0700284,49.9384838 55.7924338,46.542173 58.7574878,43.6911595 L63.1605014,39.5004973 C66.4716095,36.2916324 68.8153392,33.3462405 70.1169743,30.7560784 C71.3923932,28.2170378 72.0412446,25.4800649 72.0412446,22.6211865 C72.0412446,16.1798622 70.1077986,11.3547676 66.1334203,7.86801081 C62.1629743,4.3864973 56.4412851,2.62214595 49.1295824,2.62214595 C41.8939068,2.62214595 36.1289608,4.48611892 31.9985959,8.16032162 C28.1330149,11.5998892 26.0894608,16.1772405 25.7735554,22.1243892 L38.94065,22.1243892 C39.2211635,19.4804838 40.1636365,17.3202676 41.7562716,15.6883081 C43.6150014,13.7823892 46.0963662,12.8163216 49.1295824,12.8163216 C53.5915824,12.8163216 58.9121635,14.6383486 58.9121635,23.3198486 C58.9121635,25.5809973 58.3026365,27.7556324 57.100623,29.7834568 C55.9353122,31.7470514 53.7108662,34.1786054 50.3014473,37.2157541 C47.1895824,39.9854973 45.0293662,42.8129162 43.8810959,45.620673 C42.8272041,48.197727 42.2438932,51.6635108 42.1455824,55.9367541 L42.1455824,55.9367541 Z M55.9510419,58.5583757 L39.5095419,58.5583757 L39.5095419,57.2475649 C39.5095419,52.0266054 40.1636365,47.7808892 41.4547851,44.6270784 C42.7564203,41.4470514 45.1460284,38.2958622 48.5580689,35.2587135 C51.7184338,32.4430919 53.8340824,30.1504838 54.8447176,28.4451189 C55.81865,26.8066054 56.2905419,25.1300784 56.2905419,23.3198486 C56.2905419,17.9429027 54.0149743,15.4379432 49.1295824,15.4379432 C46.79765,15.4379432 44.9992176,16.1182541 43.6333527,17.5182 C42.2491365,18.9364973 41.5439203,20.8830514 41.4796905,23.4679703 L41.4482311,24.7460108 L23.0955689,24.7460108 L23.1099878,23.4207811 C23.1860149,16.1470919 25.5900419,10.3533081 30.2552176,6.20197027 C34.8810689,2.08602432 41.2319473,0.000524324324 49.1295824,0.000524324324 C57.0966905,0.000524324324 63.3990689,1.98378108 67.8610689,5.89655135 C72.3755014,9.8552 74.6628662,15.4812 74.6628662,22.6211865 C74.6628662,25.8916595 73.9209473,29.0244973 72.4593932,31.9331865 C71.0240554,34.7868216 68.5072986,37.9681595 64.9772851,41.3906865 L60.5703392,45.5852811 C58.0260554,48.0299432 56.6103797,50.810173 56.2446635,54.0767135 L55.9510419,58.5583757 Z M48.0442311,66.8676054 C45.8027446,66.8676054 44.0292176,67.5190784 42.6200959,68.8600378 C41.2319473,70.1839568 40.5568797,71.8303351 40.5568797,73.8922405 C40.5568797,75.9213757 41.2162176,77.5428486 42.5715959,78.8484162 C43.9400824,80.1670919 45.7293392,80.8093892 48.0442311,80.8093892 C50.3578122,80.8093892 52.1470689,80.1670919 53.5168662,78.8484162 C54.8722446,77.5415378 55.5315824,75.9200649 55.5315824,73.8922405 C55.5315824,71.8303351 54.8552041,70.1839568 53.4670554,68.8600378 C52.0579338,67.5190784 50.2844068,66.8676054 48.0442311,66.8676054 L48.0442311,66.8676054 Z M48.0442311,83.4310108 C45.0608257,83.4310108 42.6082986,82.5239297 40.7535014,80.7359838 C38.8842851,78.9362405 37.9352581,76.6331459 37.9352581,73.8922405 C37.9352581,71.1133216 38.9026365,68.7813892 40.8124878,66.9619838 C42.7052986,65.1596189 45.1381635,64.2459838 48.0442311,64.2459838 C50.9502986,64.2459838 53.3818527,65.1596189 55.2746635,66.9619838 C57.1845149,68.7813892 58.1532041,71.1133216 58.1532041,73.8922405 C58.1532041,76.6318351 57.204177,78.9349297 55.3349608,80.7359838 C53.4788527,82.5239297 51.0263257,83.4310108 48.0442311,83.4310108 L48.0442311,83.4310108 Z" id="Fill-9" fill="#333333"></path>
                    </g>
                </g>
            </g>
        </g>
    </g>
</svg>