<svg xmlns="http://www.w3.org/2000/svg" xmlns:xlink="http://www.w3.org/1999/xlink" width="154" height="156" viewBox="0 0 154 156">
    <defs>
        <path id="a" d="M.988 1.97h4.769v13.067H.987z"/>
        <path id="c" d="M.749.837h134.227V88.23H.75z"/>
    </defs>
    <g fill="none" fill-rule="evenodd">
        <g transform="translate(62 -1.584)">
            <mask id="b" fill="#fff">
                <use xlink:href="#a"/>
            </mask>
            <path fill="#0574B9" d="M3.372 15.037a2.384 2.384 0 0 1-2.384-2.385V4.354a2.384 2.384 0 1 1 4.769 0v8.298a2.384 2.384 0 0 1-2.385 2.385" mask="url(#b)"/>
        </g>
        <path fill="#0574B9" d="M38.704 24.499c-.61 0-1.221-.234-1.686-.7l-5.869-5.865a2.382 2.382 0 0 1 0-3.372 2.382 2.382 0 0 1 3.372 0l5.869 5.866c.932.93.932 2.44 0 3.372a2.378 2.378 0 0 1-1.686.699M27.656 51.17h-8.298a2.384 2.384 0 1 1 0-4.77h8.298a2.384 2.384 0 1 1 0 4.77M111.388 51.17h-8.298a2.384 2.384 0 1 1 0-4.77h8.298a2.384 2.384 0 1 1 0 4.77M92.043 24.499c-.61 0-1.22-.234-1.686-.7a2.382 2.382 0 0 1 0-3.371l5.867-5.866a2.382 2.382 0 0 1 3.371 0c.933.93.933 2.44 0 3.372L93.73 23.8a2.378 2.378 0 0 1-1.686.699"/>
        <path fill="#FFF" d="M2.678 131.47L63.527 26.077c.82-1.421 2.873-1.421 3.691 0l60.85 105.393c.82 1.421-.204 3.198-1.845 3.198H4.524c-1.64 0-2.668-1.777-1.846-3.198"/>
        <path fill="#333" d="M4.963 132.283h120.821L65.372 27.648 4.962 132.283zm121.26 4.77H4.524a4.468 4.468 0 0 1-3.91-2.26 4.458 4.458 0 0 1 .002-4.516L61.459 24.885a4.477 4.477 0 0 1 3.913-2.259h.005c1.634 0 3.093.847 3.908 2.261l60.849 105.39a4.473 4.473 0 0 1-.003 4.52 4.47 4.47 0 0 1-3.908 2.255z"/>
        <path fill="#333" d="M65.372 104.62a2.384 2.384 0 0 1-2.384-2.385v-31.52a2.384 2.384 0 1 1 4.769 0v31.52a2.384 2.384 0 0 1-2.385 2.384M65.372 114.9a2.384 2.384 0 0 1-2.384-2.385v-1.688a2.382 2.382 0 0 1 2.384-2.385 2.382 2.382 0 0 1 2.385 2.385v1.688a2.384 2.384 0 0 1-2.385 2.385"/>
        <path fill="#999" d="M99.774 67.055c-.825 0-1.628-.43-2.067-1.192-.66-1.143-.327-2.705.816-3.363 1.137-.653 2.542-.367 3.195.773l.12.205a2.381 2.381 0 0 1-.876 3.257c-.374.217-.785.32-1.188.32m4.889 8.468a2.38 2.38 0 0 1-2.068-1.195c-.66-1.14-.326-2.702.814-3.36 1.14-.653 2.544-.37 3.197.773l.12.205a2.385 2.385 0 0 1-2.063 3.577m4.89 8.467a2.39 2.39 0 0 1-2.06-1.178l-.119-.205a2.384 2.384 0 1 1 4.111-2.418l.122.208a2.388 2.388 0 0 1-2.053 3.593m4.886 8.466c-.825 0-1.629-.43-2.07-1.2l-.12-.205a2.382 2.382 0 0 1 .885-3.255 2.382 2.382 0 0 1 3.253.883l.12.207a2.383 2.383 0 0 1-2.068 3.57m4.888 8.468c-.825 0-1.628-.43-2.07-1.2l-.119-.207a2.381 2.381 0 0 1 .883-3.253 2.388 2.388 0 0 1 3.255.882l.116.208a2.38 2.38 0 0 1-2.065 3.57m4.889 8.465a2.378 2.378 0 0 1-2.068-1.192c-.66-1.143-.326-2.702.816-3.36 1.137-.656 2.54-.37 3.195.77l.12.207a2.382 2.382 0 0 1-2.063 3.575m4.89 8.468a2.38 2.38 0 0 1-2.057-1.176l-.122-.207a2.387 2.387 0 0 1 .847-3.265 2.39 2.39 0 0 1 3.264.849l.122.205a2.391 2.391 0 0 1-.847 3.267 2.392 2.392 0 0 1-1.206.327m4.888 8.468c-.825 0-1.629-.43-2.07-1.195-.658-1.14-.324-2.702.816-3.36 1.142-.656 2.542-.367 3.198.773l.119.205a2.385 2.385 0 0 1-2.063 3.576m4.886 8.468c-.823 0-1.626-.429-2.067-1.194-.658-1.14-.327-2.702.815-3.36 1.14-.654 2.542-.368 3.198.772l.12.205a2.384 2.384 0 0 1-.878 3.258c-.375.217-.785.32-1.188.32m-.365 9.049a2.385 2.385 0 0 1-1.82-3.925c.847-1.014 2.416-1.238 3.43-.396 1.013.842 1.223 2.263.381 3.276l-.166.2a2.387 2.387 0 0 1-1.825.845M12.37 146.26h-.239a2.384 2.384 0 1 1 0-4.77c1.319 0 2.504 1.069 2.504 2.385 0 1.319-.949 2.385-2.265 2.385m9.774 0h-.236a2.384 2.384 0 1 1 0-4.77c1.317 0 2.504 1.069 2.504 2.385 0 1.319-.949 2.385-2.268 2.385m9.78 0h-.241a2.384 2.384 0 1 1 0-4.77h.24a2.384 2.384 0 1 1 0 4.77m9.778 0h-.239a2.384 2.384 0 1 1 0-4.77c1.319 0 2.504 1.069 2.504 2.385 0 1.319-.95 2.385-2.265 2.385m9.774 0h-.236a2.384 2.384 0 1 1 0-4.77c1.316 0 2.501 1.069 2.501 2.385 0 1.319-.946 2.385-2.265 2.385m9.78 0h-.241a2.384 2.384 0 1 1 0-4.77h.24a2.385 2.385 0 0 1 0 4.77m9.775 0h-.236a2.384 2.384 0 1 1 0-4.77c1.316 0 2.504 1.069 2.504 2.385 0 1.319-.95 2.385-2.268 2.385m9.78 0h-.242a2.384 2.384 0 1 1 0-4.77h.241a2.384 2.384 0 1 1 0 4.77m9.777 0h-.238a2.384 2.384 0 1 1 0-4.77c1.318 0 2.504 1.069 2.504 2.385 0 1.319-.95 2.385-2.266 2.385m9.775 0h-.236a2.384 2.384 0 1 1 0-4.77c1.316 0 2.501 1.069 2.501 2.385 0 1.319-.947 2.385-2.265 2.385m9.779 0h-.24a2.384 2.384 0 1 1 0-4.77h.24a2.385 2.385 0 0 1 0 4.77m9.775 0h-.237a2.384 2.384 0 1 1 0-4.77c1.317 0 2.504 1.069 2.504 2.385 0 1.319-.949 2.385-2.267 2.385m9.779 0h-.241a2.384 2.384 0 1 1 0-4.77h.24a2.384 2.384 0 1 1 0 4.77"/>
        <g transform="translate(19.077 67.57)">
            <mask id="d" fill="#fff">
                <use xlink:href="#c"/>
            </mask>
            <path fill="#999" d="M96.086 5.737c-.825 0-1.629-.43-2.068-1.192-.66-1.143-.326-2.705.816-3.363 1.14-.655 2.542-.367 3.195.773l.12.205a2.381 2.381 0 0 1-.876 3.257c-.374.217-.784.32-1.187.32m4.888 8.468a2.38 2.38 0 0 1-2.067-1.195c-.66-1.14-.327-2.702.813-3.36 1.14-.653 2.544-.367 3.198.773l.12.205a2.385 2.385 0 0 1-2.064 3.577m4.891 8.467a2.39 2.39 0 0 1-2.06-1.178l-.12-.207a2.385 2.385 0 0 1 4.111-2.413l.122.205a2.388 2.388 0 0 1-2.053 3.593m4.886 8.466c-.825 0-1.628-.43-2.07-1.2l-.119-.205a2.382 2.382 0 0 1 .885-3.255 2.381 2.381 0 0 1 3.253.883l.119.207a2.383 2.383 0 0 1-2.068 3.57m4.889 8.468c-.825 0-1.629-.43-2.07-1.2l-.12-.207a2.381 2.381 0 0 1 .883-3.253 2.383 2.383 0 0 1 3.255.882l.117.208a2.38 2.38 0 0 1-2.065 3.57m4.888 8.465a2.378 2.378 0 0 1-2.067-1.192c-.66-1.143-.327-2.702.815-3.36 1.14-.656 2.54-.37 3.196.77l.119.207a2.382 2.382 0 0 1-2.063 3.575m4.891 8.468a2.38 2.38 0 0 1-2.058-1.176l-.121-.205a2.39 2.39 0 0 1 .846-3.267 2.39 2.39 0 0 1 3.265.85l.121.204a2.391 2.391 0 0 1-.846 3.267 2.392 2.392 0 0 1-1.207.327m4.889 8.468c-.826 0-1.63-.43-2.07-1.195-.658-1.14-.325-2.702.815-3.36 1.14-.656 2.545-.367 3.198.773l.12.205a2.385 2.385 0 0 1-2.063 3.577m2.27 9.333a2.38 2.38 0 0 1-2.377-2.585c.111-1.302 1.337-2.37 2.556-2.292 1.302.093 2.294 1.097 2.217 2.397 0 .024-.021.274-.021.298a2.391 2.391 0 0 1-2.375 2.182m-3.818 8.825a2.382 2.382 0 0 1-1.736-4.018c.854-1.004 2.396-1.173 3.396-.324 1.006.851 1.17 2.313.32 3.32l-.242.274a2.385 2.385 0 0 1-1.738.748m-8.327 4.78a2.385 2.385 0 0 1-.446-4.729c1.292-.237 2.644.567 2.902 1.848.26 1.282-.446 2.508-1.726 2.78-.015.002-.265.055-.282.057-.15.029-.3.043-.448.043M3.37 88.23h-.236a2.384 2.384 0 1 1 0-4.769c1.316 0 2.501 1.068 2.501 2.385 0 1.316-.947 2.384-2.265 2.384m9.779 0h-.24a2.384 2.384 0 1 1 0-4.769h.24a2.385 2.385 0 0 1 0 4.77m9.775 0h-.237a2.384 2.384 0 1 1 0-4.77c1.317 0 2.504 1.068 2.504 2.385 0 1.316-.949 2.384-2.267 2.384m9.776 0h-.238a2.385 2.385 0 0 1 0-4.769c1.319 0 2.504 1.068 2.504 2.385 0 1.316-.947 2.384-2.266 2.384m9.78 0h-.241a2.384 2.384 0 1 1 0-4.769h.24a2.385 2.385 0 0 1 0 4.77m9.775 0h-.236a2.384 2.384 0 1 1 0-4.77c1.317 0 2.502 1.068 2.502 2.385 0 1.316-.947 2.384-2.266 2.384m9.78 0h-.241a2.384 2.384 0 1 1 0-4.769h.24a2.385 2.385 0 0 1 0 4.77m9.775 0h-.236a2.384 2.384 0 1 1 0-4.77c1.316 0 2.504 1.068 2.504 2.385 0 1.316-.95 2.384-2.268 2.384m9.777 0h-.238a2.385 2.385 0 0 1 0-4.769c1.318 0 2.503 1.068 2.503 2.385 0 1.316-.946 2.384-2.265 2.384m9.78 0h-.241a2.384 2.384 0 1 1 0-4.769h.24a2.385 2.385 0 0 1 0 4.77m9.775 0h-.236a2.384 2.384 0 1 1 0-4.77c1.316 0 2.501 1.068 2.501 2.385 0 1.316-.946 2.384-2.265 2.384m9.78 0h-.242a2.384 2.384 0 1 1 0-4.769h.241a2.385 2.385 0 0 1 0 4.77" mask="url(#d)"/>
        </g>
        <path fill="#0574B9" d="M23.206 121.887h84.332L65.373 48.462l-42.167 73.425zm92.57 4.77H14.968l50.406-87.771 50.404 87.77z"/>
    </g>
</svg>
