<?xml version="1.0" encoding="UTF-8"?>
<svg width="94px" height="95px" viewBox="0 0 94 95" version="1.1" xmlns="http://www.w3.org/2000/svg" xmlns:xlink="http://www.w3.org/1999/xlink">
    <!-- Generator: sketchtool 54.1 (76490) - https://sketchapp.com -->
    <title>AAB988FD-EC71-4C83-9B4A-F2B0E0853DF2</title>
    <desc>Created with sketchtool.</desc>
    <defs>
        <polygon id="path-1" points="0.599952239 1.19585075 3.49547463 1.19585075 3.49547463 9.12943731 0.599952239 9.12943731"></polygon>
        <polygon id="path-3" points="0.455031343 0.508301488 81.9476269 0.508301488 81.9476269 53.5671642 0.455031343 53.5671642"></polygon>
    </defs>
    <g id="🚀-Componentes" stroke="none" stroke-width="1" fill="none" fill-rule="evenodd">
        <g id="Componentes-6" transform="translate(-1238.000000, -2143.000000)">
            <g id="Group-14" transform="translate(445.000000, 1993.000000)">
                <g id="500" transform="translate(570.000000, 99.000000)">
                    <g id="Alert" transform="translate(223.000000, 50.000000)">
                        <g id="Group-3" transform="translate(37.641791, 0.252345)">
                            <mask id="mask-2" fill="white">
                                <use xlink:href="#path-1"></use>
                            </mask>
                            <g id="Clip-2"></g>
                            <path d="M2.04771343,9.12943731 C1.24710149,9.12943731 0.599952239,8.4808403 0.599952239,7.68167612 L0.599952239,2.64346716 C0.599952239,1.84430299 1.24710149,1.19570597 2.04771343,1.19570597 C2.84832537,1.19570597 3.49547463,1.84430299 3.49547463,2.64346716 L3.49547463,7.68167612 C3.49547463,8.4808403 2.84832537,9.12943731 2.04771343,9.12943731" id="Fill-1" fill="#0574B9" mask="url(#mask-2)"></path>
                        </g>
                        <path d="M23.4983224,16.0882463 C23.1276955,16.0882463 22.7570687,15.9463657 22.4747552,15.6640522 L18.9118149,12.1025597 C18.3457403,11.5364851 18.3457403,10.6200522 18.9118149,10.0554254 C19.4778896,9.48935075 20.3928746,9.48935075 20.9589493,10.0554254 L24.5218896,13.6169179 C25.0879642,14.1815448 25.0879642,15.0979776 24.5218896,15.6640522 C24.2395761,15.9463657 23.8689493,16.0882463 23.4983224,16.0882463" id="Fill-4" fill="#0574B9"></path>
                        <path d="M16.7911343,32.2808761 L11.7529254,32.2808761 C10.9523134,32.2808761 10.3051642,31.6322791 10.3051642,30.8331149 C10.3051642,30.0339507 10.9523134,29.3853537 11.7529254,29.3853537 L16.7911343,29.3853537 C17.5917463,29.3853537 18.2388955,30.0339507 18.2388955,30.8331149 C18.2388955,31.6322791 17.5917463,32.2808761 16.7911343,32.2808761" id="Fill-6" fill="#0574B9"></path>
                        <path d="M67.6268075,32.2808761 L62.5885985,32.2808761 C61.7879866,32.2808761 61.1408373,31.6322791 61.1408373,30.8331149 C61.1408373,30.0339507 61.7879866,29.3853537 62.5885985,29.3853537 L67.6268075,29.3853537 C68.4274194,29.3853537 69.0745687,30.0339507 69.0745687,30.8331149 C69.0745687,31.6322791 68.4274194,32.2808761 67.6268075,32.2808761" id="Fill-8" fill="#0574B9"></path>
                        <path d="M55.8821343,16.0882463 C55.5115075,16.0882463 55.1408806,15.9463657 54.8585672,15.6640522 C54.2924925,15.0994254 54.2924925,14.1829925 54.8585672,13.6169179 L58.4200597,10.0554254 C58.9861343,9.48935075 59.9011194,9.48935075 60.467194,10.0554254 C61.0332687,10.6200522 61.0332687,11.5364851 60.467194,12.1025597 L56.9057015,15.6640522 C56.6233881,15.9463657 56.2527612,16.0882463 55.8821343,16.0882463" id="Fill-10" fill="#0574B9"></path>
                        <path d="M1.62496716,81.0332209 L38.5689373,17.0465194 C39.0655194,16.1836537 40.3120418,16.1836537 40.8100716,17.0465194 L77.752594,81.0332209 C78.2520716,81.8960866 77.6280866,82.9746687 76.6320269,82.9746687 L2.74553433,82.9746687 C1.74947463,82.9746687 1.12693731,81.8960866 1.62496716,81.0332209" id="Fill-12" fill="#FFFFFF"></path>
                        <path d="M3.01337015,81.5269075 L76.3670866,81.5269075 L39.6895045,18.000594 L3.01337015,81.5269075 Z M76.6334746,84.4224299 L2.74698209,84.4224299 C1.75526567,84.4224299 0.86778806,83.9099224 0.372653731,83.0514 C-0.123928358,82.1914299 -0.123928358,81.1664149 0.374101493,80.3093403 L37.3137284,16.3226388 C37.8117582,15.4641164 38.6977881,14.951609 39.6895045,14.951609 L39.6924,14.951609 C40.6841164,14.951609 41.5701463,15.4655642 42.0652806,16.3240866 L79.007803,80.3093403 C79.5029373,81.1693104 79.5029373,82.1943254 79.0063552,83.0528478 C78.5112209,83.9099224 77.6237433,84.4224299 76.6334746,84.4224299 L76.6334746,84.4224299 Z" id="Fill-14" fill="#333333"></path>
                        <path d="M39.6895045,64.7317194 C38.8888925,64.7317194 38.2417433,64.0831224 38.2417433,63.2839582 L38.2417433,44.1474507 C38.2417433,43.3482866 38.8888925,42.6996896 39.6895045,42.6996896 C40.4901164,42.6996896 41.1372657,43.3482866 41.1372657,44.1474507 L41.1372657,63.2839582 C41.1372657,64.0831224 40.4901164,64.7317194 39.6895045,64.7317194" id="Fill-16" fill="#333333"></path>
                        <path d="M39.6895045,70.9731627 C38.8888925,70.9731627 38.2417433,70.3245657 38.2417433,69.5254015 L38.2417433,68.5003866 C38.2417433,67.6997746 38.8888925,67.0526254 39.6895045,67.0526254 C40.4901164,67.0526254 41.1372657,67.6997746 41.1372657,68.5003866 L41.1372657,69.5254015 C41.1372657,70.3245657 40.4901164,70.9731627 39.6895045,70.9731627" id="Fill-18" fill="#333333"></path>
                        <path d="M60.5760657,41.9252821 C60.0751403,41.9252821 59.5872448,41.6646851 59.3208567,41.2014015 C58.9198269,40.5079239 59.1225134,39.5596403 59.815991,39.1600582 C60.5065731,38.7633716 61.3593045,38.937103 61.755991,39.6291328 L61.8283791,39.7536403 C62.229409,40.4471179 61.9905284,41.3331478 61.2970507,41.7312821 C61.0697522,41.8630284 60.8207373,41.9252821 60.5760657,41.9252821 M63.5439761,47.0662821 C63.0430507,47.0662821 62.5551552,46.8056851 62.2887672,46.3409537 C61.8877373,45.6489239 62.0904239,44.7006403 62.7824537,44.3010582 C63.4744836,43.9043716 64.3272149,44.0766552 64.7239015,44.7701328 L64.7962896,44.8946403 C65.1958716,45.5881179 64.956991,46.4741478 64.2649612,46.8722821 C64.0376627,47.0040284 63.7886478,47.0662821 63.5439761,47.0662821 M66.5133343,52.2072821 C66.0167522,52.2072821 65.5332,51.9510284 65.2624687,51.4920881 L65.1900806,51.3675806 C64.7847075,50.6769985 65.0149015,49.7909687 65.7040358,49.3855955 C66.3946179,48.9816701 67.2806478,49.2104164 67.6860209,49.8995507 L67.7598567,50.025506 C68.1637821,50.7146403 67.9335881,51.6021179 67.2444537,52.007491 C67.0142597,52.1421328 66.7609015,52.2072821 66.5133343,52.2072821 M69.479797,57.3468343 C68.9788716,57.3468343 68.4909761,57.0862373 68.2231403,56.6186104 L68.1507522,56.494103 C67.7526179,55.7991776 67.9929463,54.9145955 68.6878716,54.517909 C69.377006,54.1197746 70.2630358,54.3586552 70.6626179,55.0535806 L70.735006,55.1795358 C71.1331403,55.8730134 70.8928119,56.7590433 70.1978866,57.1557299 C69.9720358,57.2860284 69.7244687,57.3468343 69.479797,57.3468343 M72.4477075,62.4878343 C71.9467821,62.4878343 71.4588866,62.2272373 71.1910507,61.7596104 L71.1186627,61.6336552 C70.7205284,60.9401776 70.9608567,60.0555955 71.6543343,59.658909 C72.3449164,59.2622224 73.232394,59.501103 73.6305284,60.1945806 L73.7014687,60.3205358 C74.1010507,61.0140134 73.8607224,61.8985955 73.165797,62.2967299 C72.9399463,62.4270284 72.6923791,62.4878343 72.4477075,62.4878343 M75.4156179,67.6273866 C74.9146925,67.6273866 74.426797,67.3682373 74.160409,66.903506 C73.7593791,66.2100284 73.9620657,65.2631925 74.6555433,64.8636104 C75.3461254,64.4654761 76.197409,64.6392075 76.5955433,65.3312373 L76.6679313,65.4571925 C77.0689612,66.1492224 76.8300806,67.0352522 76.136603,67.4348343 C75.9093045,67.5651328 75.6602896,67.6273866 75.4156179,67.6273866 M78.3849761,72.7683866 C77.888394,72.7683866 77.4048418,72.5135806 77.1355582,72.0546403 L77.0617224,71.9286851 C76.6563493,71.2395507 76.887991,70.3520731 77.5756776,69.9467 C78.2648119,69.5442224 79.1522896,69.7729687 79.5576627,70.462103 L79.6314985,70.5866104 C80.0354239,71.2771925 79.8052299,72.1646701 79.1175433,72.5700433 C78.8859015,72.7046851 78.633991,72.7683866 78.3849761,72.7683866 M81.3528866,77.9093866 C80.8519612,77.9093866 80.3640657,77.6487896 80.0962299,77.1840582 C79.6966478,76.4920284 79.8993343,75.5437448 80.5913642,75.1441627 C81.2848418,74.7460284 82.1346776,74.9212075 82.5328119,75.6132373 L82.6052,75.7377448 C83.0047821,76.4312224 82.7659015,77.3172522 82.0738716,77.7153866 C81.8451254,77.8471328 81.5975582,77.9093866 81.3528866,77.9093866 M84.3193493,83.0503866 C83.8198716,83.0503866 83.3319761,82.7897896 83.0641403,82.3250582 C82.6645582,81.6330284 82.865797,80.6847448 83.5592746,80.2851627 C84.2513045,79.8884761 85.1025881,80.0622075 85.5007224,80.7542373 L85.5731104,80.8787448 C85.9726925,81.5722224 85.7338119,82.4582522 85.0403343,82.8563866 C84.8130358,82.9881328 84.5640209,83.0503866 84.3193493,83.0503866 M84.0978418,88.5446403 C83.7692,88.5446403 83.4362149,88.4317149 83.1654836,88.2015209 C82.5545284,87.6846701 82.477797,86.7725806 82.9932,86.1616254 C83.5071552,85.5463269 84.4597821,85.4102373 85.0750806,85.921297 C85.6903791,86.4323567 85.8177821,87.2952224 85.3067224,87.9105209 L85.2053791,88.0321328 C84.9172746,88.370909 84.509006,88.5446403 84.0978418,88.5446403 M7.50982687,90.0126701 L7.36505075,90.0126701 C6.56443881,90.0126701 5.91728955,89.3655209 5.91728955,88.564909 C5.91728955,87.7657448 6.56443881,87.1171478 7.36505075,87.1171478 C8.16566269,87.1171478 8.8852,87.7657448 8.8852,88.564909 C8.8852,89.3655209 8.30899104,90.0126701 7.50982687,90.0126701 M13.4442,90.0126701 L13.3008716,90.0126701 C12.5002597,90.0126701 11.8531104,89.3655209 11.8531104,88.564909 C11.8531104,87.7657448 12.5002597,87.1171478 13.3008716,87.1171478 C14.1000358,87.1171478 14.8210209,87.7657448 14.8210209,88.564909 C14.8210209,89.3655209 14.2448119,90.0126701 13.4442,90.0126701 M19.3814687,90.0126701 L19.2352448,90.0126701 C18.4360806,90.0126701 17.7874836,89.3655209 17.7874836,88.564909 C17.7874836,87.7657448 18.4360806,87.1171478 19.2352448,87.1171478 L19.3814687,87.1171478 C20.1820806,87.1171478 20.8292299,87.7657448 20.8292299,88.564909 C20.8292299,89.3655209 20.1820806,90.0126701 19.3814687,90.0126701 M25.3172896,90.0126701 L25.1725134,90.0126701 C24.3719015,90.0126701 23.7247522,89.3655209 23.7247522,88.564909 C23.7247522,87.7657448 24.3719015,87.1171478 25.1725134,87.1171478 C25.9731254,87.1171478 26.6926627,87.7657448 26.6926627,88.564909 C26.6926627,89.3655209 26.1164537,90.0126701 25.3172896,90.0126701 M31.2516627,90.0126701 L31.1083343,90.0126701 C30.3077224,90.0126701 29.6605731,89.3655209 29.6605731,88.564909 C29.6605731,87.7657448 30.3077224,87.1171478 31.1083343,87.1171478 C31.9074985,87.1171478 32.6270358,87.7657448 32.6270358,88.564909 C32.6270358,89.3655209 32.0522746,90.0126701 31.2516627,90.0126701 M37.1889313,90.0126701 L37.0427075,90.0126701 C36.2420955,90.0126701 35.5949463,89.3655209 35.5949463,88.564909 C35.5949463,87.7657448 36.2420955,87.1171478 37.0427075,87.1171478 L37.1889313,87.1171478 C37.9880955,87.1171478 38.6366925,87.7657448 38.6366925,88.564909 C38.6366925,89.3655209 37.9880955,90.0126701 37.1889313,90.0126701 M43.1233045,90.0126701 L42.9799761,90.0126701 C42.1793642,90.0126701 41.5322149,89.3655209 41.5322149,88.564909 C41.5322149,87.7657448 42.1793642,87.1171478 42.9799761,87.1171478 C43.7791403,87.1171478 44.5001254,87.7657448 44.5001254,88.564909 C44.5001254,89.3655209 43.9239164,90.0126701 43.1233045,90.0126701 M49.0605731,90.0126701 L48.9143493,90.0126701 C48.1151851,90.0126701 47.4665881,89.3655209 47.4665881,88.564909 C47.4665881,87.7657448 48.1151851,87.1171478 48.9143493,87.1171478 L49.0605731,87.1171478 C49.8611851,87.1171478 50.5083343,87.7657448 50.5083343,88.564909 C50.5083343,89.3655209 49.8611851,90.0126701 49.0605731,90.0126701 M54.996394,90.0126701 L54.8516179,90.0126701 C54.051006,90.0126701 53.4038567,89.3655209 53.4038567,88.564909 C53.4038567,87.7657448 54.051006,87.1171478 54.8516179,87.1171478 C55.6522299,87.1171478 56.3717672,87.7657448 56.3717672,88.564909 C56.3717672,89.3655209 55.7955582,90.0126701 54.996394,90.0126701 M60.9307672,90.0126701 L60.7874388,90.0126701 C59.9868269,90.0126701 59.3396776,89.3655209 59.3396776,88.564909 C59.3396776,87.7657448 59.9868269,87.1171478 60.7874388,87.1171478 C61.586603,87.1171478 62.3061403,87.7657448 62.3061403,88.564909 C62.3061403,89.3655209 61.7313791,90.0126701 60.9307672,90.0126701 M66.8680358,90.0126701 L66.7218119,90.0126701 C65.9212,90.0126701 65.2740507,89.3655209 65.2740507,88.564909 C65.2740507,87.7657448 65.9212,87.1171478 66.7218119,87.1171478 L66.8680358,87.1171478 C67.6672,87.1171478 68.315797,87.7657448 68.315797,88.564909 C68.315797,89.3655209 67.6672,90.0126701 66.8680358,90.0126701 M72.802409,90.0126701 L72.6590806,90.0126701 C71.8584687,90.0126701 71.2113194,89.3655209 71.2113194,88.564909 C71.2113194,87.7657448 71.8584687,87.1171478 72.6590806,87.1171478 C73.4582448,87.1171478 74.1792299,87.7657448 74.1792299,88.564909 C74.1792299,89.3655209 73.6030209,90.0126701 72.802409,90.0126701 M78.7396776,90.0126701 L78.5934537,90.0126701 C77.7942896,90.0126701 77.1456925,89.3655209 77.1456925,88.564909 C77.1456925,87.7657448 77.7942896,87.1171478 78.5934537,87.1171478 L78.7396776,87.1171478 C79.5402896,87.1171478 80.1874388,87.7657448 80.1874388,88.564909 C80.1874388,89.3655209 79.5402896,90.0126701 78.7396776,90.0126701" id="Fill-20" fill="#999999"></path>
                        <g id="Group-24" transform="translate(11.582090, 42.237419)">
                            <mask id="mask-4" fill="white">
                                <use xlink:href="#path-3"></use>
                            </mask>
                            <g id="Clip-23"></g>
                            <path d="M58.3365239,3.48331343 C57.8355985,3.48331343 57.347703,3.22271642 57.0813149,2.75943284 C56.6802851,2.06595522 56.8829716,1.11767164 57.5764493,0.718089552 C58.2684791,0.319955224 59.1197627,0.495134328 59.5164493,1.18716418 L59.5888373,1.31167164 C59.9898672,2.00514925 59.7509866,2.8911791 59.057509,3.28931343 C58.8302104,3.4210597 58.5811955,3.48331343 58.3365239,3.48331343 M61.3044343,8.62431343 C60.803509,8.62431343 60.3156134,8.36371642 60.0492254,7.89898507 C59.6481955,7.20695522 59.8508821,6.25867164 60.5429119,5.85908955 C61.2349418,5.46240299 62.0876731,5.63613433 62.4843597,6.32816418 L62.5567478,6.45267164 C62.9563299,7.14614925 62.7174493,8.0321791 62.0254194,8.43031343 C61.7981209,8.5620597 61.549106,8.62431343 61.3044343,8.62431343 M64.2737925,13.7653134 C63.7772104,13.7653134 63.2936582,13.5090597 63.0229269,13.0501194 L62.9505388,12.9241642 C62.5451657,12.2350299 62.7753597,11.349 63.464494,10.9436269 C64.1565239,10.5397015 65.041106,10.7684478 65.4464791,11.4590299 L65.5203149,11.5835373 C65.9242403,12.2726716 65.6940463,13.1601493 65.0049119,13.5655224 C64.7747179,13.7001642 64.5213597,13.7653134 64.2737925,13.7653134 M67.2402552,18.9048657 C66.7393299,18.9048657 66.2514343,18.6442687 65.9835985,18.1766418 L65.9112104,18.0521343 C65.5130761,17.357209 65.7534045,16.4726269 66.4483299,16.0759403 C67.1374642,15.677806 68.0249418,15.9166866 68.4230761,16.6116119 L68.4954642,16.7375672 C68.8935985,17.4310448 68.6532701,18.3170746 67.9583448,18.7137612 C67.732494,18.8440597 67.4849269,18.9048657 67.2402552,18.9048657 M70.2081657,24.0458657 C69.7072403,24.0458657 69.2193448,23.7852687 68.951509,23.3176418 L68.8791209,23.1916866 C68.4809866,22.498209 68.7213149,21.6136269 69.4147925,21.2169403 C70.1068224,20.818806 70.9928522,21.0576866 71.3909866,21.7526119 L71.4619269,21.8785672 C71.861509,22.5720448 71.6211806,23.4566269 70.9262552,23.8547612 C70.7004045,23.9850597 70.4528373,24.0458657 70.2081657,24.0458657 M73.1760761,29.1854179 C72.6751507,29.1854179 72.1872552,28.9262687 71.9208672,28.4615373 C71.5198373,27.7680597 71.7225239,26.8212239 72.4160015,26.4216418 C73.1080313,26.0235075 73.9578672,26.1972388 74.3560015,26.8892687 L74.4283896,27.0152239 C74.8294194,27.7072537 74.5905388,28.5932836 73.8970612,28.9928657 C73.6697627,29.1231642 73.4207478,29.1854179 73.1760761,29.1854179 M76.1454343,34.3264179 C75.6488522,34.3264179 75.1653,34.0716119 74.8960164,33.6126716 L74.8221806,33.4881642 C74.4168075,32.7975821 74.6484493,31.9101045 75.3361358,31.5047313 C76.0267179,31.1022537 76.9127478,31.331 77.3181209,32.0201343 L77.3919567,32.1446418 C77.7958821,32.8352239 77.5656881,33.7227015 76.8780015,34.1280746 C76.6463597,34.2627164 76.3944493,34.3264179 76.1454343,34.3264179 M79.1133448,39.4674179 C78.6124194,39.4674179 78.1245239,39.2068209 77.8566881,38.7420896 C77.457106,38.0500597 77.6597925,37.1017761 78.3518224,36.702194 C79.0438522,36.3040597 79.8965836,36.4792388 80.2932701,37.1712687 L80.3656582,37.2957761 C80.7652403,37.9892537 80.5263597,38.8752836 79.8343299,39.2734179 C79.6055836,39.4051642 79.3580164,39.4674179 79.1133448,39.4674179 M80.4916134,45.1339552 C80.4481806,45.1339552 80.4076433,45.1325075 80.3642104,45.1281642 C79.5679418,45.0586716 78.978703,44.359403 79.0481955,43.5645821 C79.1162403,42.7741045 79.8603896,42.1255075 80.6001955,42.1732836 C81.3906731,42.2297463 81.9929418,42.8392537 81.9466134,43.6297313 C81.9466134,43.6427612 81.9335836,43.7947761 81.9335836,43.8092537 C81.8669866,44.5635373 81.2343149,45.1339552 80.4916134,45.1339552 M78.1737478,50.4921194 C77.8175985,50.4921194 77.4614493,50.3618209 77.1820313,50.0983284 C76.5985836,49.5510746 76.5725239,48.6346418 77.1197776,48.0526418 C77.6380761,47.4431343 78.5747776,47.3403433 79.1813896,47.8557463 C79.7923448,48.372597 79.8922403,49.2600746 79.3753896,49.8710299 L79.2291657,50.0375224 C78.942509,50.3401045 78.5588522,50.4921194 78.1737478,50.4921194 M73.1181657,53.3934328 C72.4362701,53.3934328 71.8296582,52.9113284 71.6979119,52.2178507 C71.5473448,51.4317164 72.0613,50.6730896 72.8474343,50.5225224 C73.6321209,50.379194 74.4530015,50.8670896 74.6093597,51.6445373 C74.7671657,52.4234328 74.3386284,53.1675821 73.5611806,53.3326269 C73.552494,53.3340746 73.4004791,53.3659254 73.3903448,53.3673731 C73.2991358,53.3847463 73.2079269,53.3934328 73.1181657,53.3934328 M2.0461209,53.5671642 L1.90279254,53.5671642 C1.1021806,53.5671642 0.455031343,52.9185672 0.455031343,52.119403 C0.455031343,51.3202388 1.1021806,50.6716418 1.90279254,50.6716418 C2.70195672,50.6716418 3.42149403,51.3202388 3.42149403,52.119403 C3.42149403,52.9185672 2.84673284,53.5671642 2.0461209,53.5671642 M7.98338955,53.5671642 L7.83716567,53.5671642 C7.03655373,53.5671642 6.38940448,52.9185672 6.38940448,52.119403 C6.38940448,51.3202388 7.03655373,50.6716418 7.83716567,50.6716418 L7.98338955,50.6716418 C8.78255373,50.6716418 9.43115075,51.3202388 9.43115075,52.119403 C9.43115075,52.9185672 8.78255373,53.5671642 7.98338955,53.5671642 M13.9177627,53.5671642 L13.7744343,53.5671642 C12.9738224,53.5671642 12.3266731,52.9185672 12.3266731,52.119403 C12.3266731,51.3202388 12.9738224,50.6716418 13.7744343,50.6716418 C14.5735985,50.6716418 15.2945836,51.3202388 15.2945836,52.119403 C15.2945836,52.9185672 14.7183746,53.5671642 13.9177627,53.5671642 M19.8535836,53.5671642 L19.7088075,53.5671642 C18.9096433,53.5671642 18.2610463,52.9185672 18.2610463,52.119403 C18.2610463,51.3202388 18.9096433,50.6716418 19.7088075,50.6716418 C20.5094194,50.6716418 21.2289567,51.3202388 21.2289567,52.119403 C21.2289567,52.9185672 20.6541955,53.5671642 19.8535836,53.5671642 M25.7908522,53.5671642 L25.6446284,53.5671642 C24.8440164,53.5671642 24.1968672,52.9185672 24.1968672,52.119403 C24.1968672,51.3202388 24.8440164,50.6716418 25.6446284,50.6716418 L25.7908522,50.6716418 C26.5900164,50.6716418 27.2386134,51.3202388 27.2386134,52.119403 C27.2386134,52.9185672 26.5900164,53.5671642 25.7908522,53.5671642 M31.7252254,53.5671642 L31.581897,53.5671642 C30.7812851,53.5671642 30.1341358,52.9185672 30.1341358,52.119403 C30.1341358,51.3202388 30.7812851,50.6716418 31.581897,50.6716418 C32.3810612,50.6716418 33.1005985,51.3202388 33.1005985,52.119403 C33.1005985,52.9185672 32.5258373,53.5671642 31.7252254,53.5671642 M37.662494,53.5671642 L37.5162701,53.5671642 C36.7156582,53.5671642 36.068509,52.9185672 36.068509,52.119403 C36.068509,51.3202388 36.7156582,50.6716418 37.5162701,50.6716418 L37.662494,50.6716418 C38.4616582,50.6716418 39.1102552,51.3202388 39.1102552,52.119403 C39.1102552,52.9185672 38.4616582,53.5671642 37.662494,53.5671642 M43.5968672,53.5671642 L43.4535388,53.5671642 C42.6529269,53.5671642 42.0057776,52.9185672 42.0057776,52.119403 C42.0057776,51.3202388 42.6529269,50.6716418 43.4535388,50.6716418 C44.252703,50.6716418 44.9736881,51.3202388 44.9736881,52.119403 C44.9736881,52.9185672 44.3974791,53.5671642 43.5968672,53.5671642 M49.5326881,53.5671642 L49.3879119,53.5671642 C48.5887478,53.5671642 47.9401507,52.9185672 47.9401507,52.119403 C47.9401507,51.3202388 48.5887478,50.6716418 49.3879119,50.6716418 C50.1885239,50.6716418 50.9080612,51.3202388 50.9080612,52.119403 C50.9080612,52.9185672 50.3333,53.5671642 49.5326881,53.5671642 M55.4699567,53.5671642 L55.3237328,53.5671642 C54.5231209,53.5671642 53.8759716,52.9185672 53.8759716,52.119403 C53.8759716,51.3202388 54.5231209,50.6716418 55.3237328,50.6716418 L55.4699567,50.6716418 C56.2691209,50.6716418 56.9177179,51.3202388 56.9177179,52.119403 C56.9177179,52.9185672 56.2691209,53.5671642 55.4699567,53.5671642 M61.4043299,53.5671642 L61.2610015,53.5671642 C60.4603896,53.5671642 59.8132403,52.9185672 59.8132403,52.119403 C59.8132403,51.3202388 60.4603896,50.6716418 61.2610015,50.6716418 C62.0601657,50.6716418 62.779703,51.3202388 62.779703,52.119403 C62.779703,52.9185672 62.2049418,53.5671642 61.4043299,53.5671642 M67.3415985,53.5671642 L67.1953746,53.5671642 C66.3947627,53.5671642 65.7476134,52.9185672 65.7476134,52.119403 C65.7476134,51.3202388 66.3947627,50.6716418 67.1953746,50.6716418 L67.3415985,50.6716418 C68.1407627,50.6716418 68.7893597,51.3202388 68.7893597,52.119403 C68.7893597,52.9185672 68.1407627,53.5671642 67.3415985,53.5671642" id="Fill-22" fill="#999999" mask="url(#mask-4)"></path>
                        </g>
                        <path d="M14.0893224,75.2152478 L65.289397,75.2152478 L39.6900836,30.6372328 L14.0893224,75.2152478 Z M70.2914119,78.1107701 L9.08730746,78.1107701 L39.6900836,24.8230239 L70.2914119,78.1107701 Z" id="Fill-25" fill="#0574B9"></path>
                    </g>
                </g>
            </g>
        </g>
    </g>
</svg>