<svg xmlns="http://www.w3.org/2000/svg" width="144" height="153" viewBox="0 0 144 153">
    <g fill="none" fill-rule="evenodd">
        <path fill="#999" d="M136.885 83.6c-.46 0-.918-.176-1.27-.53a1.836 1.836 0 0 1-.008-2.575c.703-.712 1.904-.781 2.61-.073.705.709.772 1.798.072 2.512l-.126.13a1.793 1.793 0 0 1-1.278.537m-3.903 5.825h-.054a1.814 1.814 0 0 1-1.748-1.875c0-1.005.807-1.885 1.802-1.885.994 0 1.8.75 1.8 1.756l-.002.235a1.812 1.812 0 0 1-1.798 1.769m4.646 5.526c-.49 0-.981-.202-1.336-.601l-.12-.137a1.834 1.834 0 0 1 .13-2.572 1.785 1.785 0 0 1 2.541.131l.12.137a1.838 1.838 0 0 1-.129 2.574 1.785 1.785 0 0 1-1.206.468m3.496 6.488c-.785 0-1.505-.521-1.727-1.326-.262-.962.263-2.046 1.21-2.323.943-.28 1.913.177 2.2 1.133l.055.197c.265.97-.295 1.982-1.252 2.251a1.797 1.797 0 0 1-.486.068m.343 7.404c-.104 0-.208-.01-.315-.027a1.817 1.817 0 0 1-1.458-2.11l.031-.185a1.798 1.798 0 0 1 2.09-1.472 1.822 1.822 0 0 1 1.454 2.114l-.032.175a1.804 1.804 0 0 1-1.77 1.505m-2.83 6.847c-.303 0-.611-.077-.892-.24a1.832 1.832 0 0 1-.668-2.487l.09-.159a1.786 1.786 0 0 1 2.455-.673 1.83 1.83 0 0 1 .668 2.484l-.09.158c-.333.587-.94.917-1.562.917m-3.69 6.466c-.304 0-.614-.079-.897-.243a1.831 1.831 0 0 1-.66-2.488c.495-.872 1.64-1.251 2.502-.746.862.502 1.202 1.537.705 2.41l-.09.156c-.333.585-.937.91-1.56.91m-3.728 6.447c-.35 0-.7-.102-1.01-.315a1.835 1.835 0 0 1-.479-2.53c.558-.83 1.725-1.124 2.544-.565.822.561 1.094 1.612.543 2.446-.003.006-.104.16-.108.164-.349.52-.914.8-1.49.8m-5.326 4.98a1.798 1.798 0 0 1-1.568-.89c-.499-.868-.247-1.957.607-2.464.858-.512 2.037-.264 2.54.605.503.867.295 1.938-.564 2.446l-.09.053c-.288.168-.61.25-.925.25m-14.14 1.136c-.154 0-.31-.02-.467-.064l-.173-.047a1.821 1.821 0 0 1-1.273-2.23 1.802 1.802 0 0 1 2.204-1.287l.174.047c.96.259 1.528 1.259 1.273 2.23a1.804 1.804 0 0 1-1.737 1.351m7.083 1.033a1.808 1.808 0 0 1-1.795-1.716 1.81 1.81 0 0 1 1.69-1.923c.944-.071 1.926.692 1.991 1.69.067 1-.588 1.858-1.575 1.93a7.257 7.257 0 0 1-.311.019m-13.27.455c-.151 0-.306-.018-.459-.06a1.822 1.822 0 0 1-1.283-2.224c.25-.973 1.263-1.643 2.22-1.388.96.255 1.558 1.164 1.306 2.137l-.047.176a1.8 1.8 0 0 1-1.737 1.36m-48.908.624a1.802 1.802 0 0 1-1.735-1.342l-.048-.177a1.825 1.825 0 0 1 1.265-2.237 1.803 1.803 0 0 1 2.209 1.279l.046.175a1.822 1.822 0 0 1-1.737 2.302m46.752 6.508c-.261 0-.53-.058-.781-.182a1.833 1.833 0 0 1-.837-2.434c.408-.916 1.499-1.384 2.41-.97.905.415 1.335 1.431.925 2.35l-.094.207a1.8 1.8 0 0 1-1.623 1.029m-44.58.517a1.659 1.659 0 0 1-1.491-.903 3.702 3.702 0 0 0-.061-.119c-.45-.894-.121-2.021.757-2.482.884-.463 1.944-.15 2.403.736.461.888.166 2.067-.71 2.537-.29.155-.598.231-.899.231m40.061 5.299a1.791 1.791 0 0 1-1.411-.687 1.84 1.84 0 0 1 .288-2.56c.77-.622 1.962-.558 2.588.22.623.775.58 1.857-.182 2.493l-.163.137a1.793 1.793 0 0 1-1.12.397m-35.215.391c-.38 0-.762-.122-1.086-.371l-.12-.091a1.836 1.836 0 0 1-.389-2.545 1.787 1.787 0 0 1 2.516-.393l.17.127c.792.609.946 1.752.345 2.552a1.795 1.795 0 0 1-1.436.721m28.622 2.824c-.821 0-1.565-.572-1.754-1.418a1.825 1.825 0 0 1 1.358-2.18c.96-.22 2.012.364 2.237 1.34.227.973-.279 1.93-1.242 2.166l-.198.046a1.676 1.676 0 0 1-.401.046m-21.917.129c-.101 0-.205-.01-.308-.027l-.212-.042a1.819 1.819 0 0 1-1.419-2.139c.191-.987 1.141-1.634 2.113-1.435.98.175 1.705 1.133 1.532 2.124-.155.885-.86 1.519-1.706 1.519m7.367.27h-.178a1.81 1.81 0 0 1-1.8-1.822 1.81 1.81 0 0 1 1.8-1.821c.995 0 1.89.816 1.89 1.821s-.716 1.821-1.712 1.821m7.382 0h-.182c-.993 0-1.8-.816-1.8-1.821s.807-1.821 1.8-1.821h.182c.995 0 1.8.816 1.8 1.821a1.81 1.81 0 0 1-1.8 1.821M99.925 47.864c-.249 0-.499-.053-.738-.162L99 47.615a1.832 1.832 0 0 1-.868-2.421 1.794 1.794 0 0 1 2.394-.878l.14.065a1.828 1.828 0 0 1 .9 2.41 1.797 1.797 0 0 1-1.641 1.073m6.408 3.687c-.346 0-.695-.1-1.003-.31l-.156-.107a1.835 1.835 0 0 1-.48-2.53 1.793 1.793 0 0 1 2.501-.485l.142.098a1.837 1.837 0 0 1 .492 2.529c-.35.522-.917.805-1.496.805m25.452 26.906c-.46 0-.918-.177-1.27-.53a1.84 1.84 0 0 1-.008-2.576c.704-.712 1.904-.781 2.61-.073.705.709.772 1.798.072 2.512l-.126.128c-.353.358-.816.539-1.278.539m-47.45 4.304c-.293 0-.59-.071-.866-.226l.868-1.596-.985 1.532a1.833 1.833 0 0 1-.774-2.453 1.788 1.788 0 0 1 2.427-.782l.198.108a1.831 1.831 0 0 1 .71 2.473 1.797 1.797 0 0 1-1.578.944m-7.17.348a1.792 1.792 0 0 1-1.49-.798 1.838 1.838 0 0 1 .479-2.532l.19-.127a1.787 1.787 0 0 1 2.487.555c.534.849.29 1.975-.548 2.516l-.97-1.536.862 1.608c-.31.212-.66.314-1.01.314m49.402.628c-.46 0-.918-.177-1.27-.53a1.836 1.836 0 0 1-.008-2.575c.702-.713 1.902-.78 2.61-.073.705.708.772 1.797.072 2.511l-.126.128a1.79 1.79 0 0 1-1.278.54M87.924 88.88a1.81 1.81 0 0 1-1.8-1.822h1.8l-1.802-.127a1.814 1.814 0 0 1 1.748-1.874c.018-.002.034-.002.054-.002.969 0 1.768.781 1.798 1.768l.002.235a1.81 1.81 0 0 1-1.8 1.822m-13.759.666a1.81 1.81 0 0 1-1.791-1.66 10.297 10.297 0 0 1-.016-.236 1.81 1.81 0 0 1 1.69-1.925c1.003-.067 1.843.707 1.903 1.712l-1.797.106 1.807.022c.087 1.002-.646 1.887-1.636 1.974-.054.004-.106.007-.16.007m51.579 1.237l-.108-.003c-.994-.059-1.748-.92-1.69-1.926.056-.994.916-1.848 1.879-1.803.983.044 1.751.787 1.724 1.783l-.01.235a1.809 1.809 0 0 1-1.795 1.714m-47.426 4.508c-.234 0-.472-.045-.7-.144l-.206-.093a1.83 1.83 0 0 1-.9-2.41 1.789 1.789 0 0 1 2.38-.908l.126.054a1.828 1.828 0 0 1 .957 2.387 1.799 1.799 0 0 1-1.657 1.114m50.91 1.426a1.78 1.78 0 0 1-1.263-.524l-.128-.13a1.835 1.835 0 0 1-.018-2.575 1.785 1.785 0 0 1 2.546-.016l.127.127c.71.707.717 1.86.018 2.576-.35.36-.817.542-1.281.542m4.644 5.723c-.71 0-1.383-.43-1.667-1.136-.378-.931.025-2.075.945-2.46.922-.382 1.939-.02 2.318.91l.072.178a1.83 1.83 0 0 1-.991 2.374c-.222.09-.45.134-.677.134m-.171 7.259c-.249 0-.5-.053-.74-.164a1.83 1.83 0 0 1-.9-2.408c.41-.918 1.514-1.408 2.417-.993.908.414 1.347 1.41.938 2.326l-.074.166a1.802 1.802 0 0 1-1.641 1.073m-3.66 6.482c-.304 0-.612-.078-.896-.242a1.835 1.835 0 0 1-.66-2.488c.496-.873 1.64-1.25 2.503-.747.86.503 1.203 1.537.704 2.408l-.088.158c-.333.585-.94.911-1.563.911m-3.69 6.468c-.307 0-.62-.08-.907-.25a1.832 1.832 0 0 1-.646-2.49l.092-.158a1.789 1.789 0 0 1 2.462-.654 1.834 1.834 0 0 1 .646 2.492l-.091.157a1.794 1.794 0 0 1-1.556.903m-19.265 3.262a1.81 1.81 0 0 1-.468-.063l-.175-.048a1.824 1.824 0 0 1-1.272-2.231 1.803 1.803 0 0 1 2.205-1.288l.173.048a1.823 1.823 0 0 1 1.272 2.23 1.802 1.802 0 0 1-1.735 1.352m-52.297.05c-.794 0-1.52-.536-1.735-1.347a1.822 1.822 0 0 1 1.267-2.233c.963-.264 2.036.288 2.291 1.259.261.97-.221 1.947-1.18 2.21l-.172.047a1.75 1.75 0 0 1-.471.063m66.463 1.847c-.711 0-1.384-.43-1.669-1.136a1.829 1.829 0 0 1 .992-2.374c.91-.38 2.034.024 2.418.946.381.918.046 1.941-.857 2.34a24 24 0 0 0-.207.088c-.222.093-.45.136-.677.136m-7.038.035c-.153 0-.31-.02-.466-.064l-.175-.045a1.824 1.824 0 0 1-1.272-2.232 1.801 1.801 0 0 1 2.205-1.287l.172.047a1.822 1.822 0 0 1 1.273 2.23 1.802 1.802 0 0 1-1.737 1.351m-66.555.051a1.802 1.802 0 0 1-1.737-1.352 1.824 1.824 0 0 1 1.273-2.23l.174-.048a1.796 1.796 0 0 1 2.203 1.288 1.823 1.823 0 0 1-1.272 2.23l-.173.048a1.81 1.81 0 0 1-.468.064m13.635 1.612c-.247 0-.499-.057-.743-.175l-.184-.091a1.832 1.832 0 0 1-.805-2.444 1.79 1.79 0 0 1 2.416-.815c.895.438 1.34 1.563.907 2.469-.315.657-.934 1.056-1.591 1.056m39.26.093a1.8 1.8 0 0 1-1.613-1.007 1.832 1.832 0 0 1 .805-2.445l.183-.09a1.788 1.788 0 0 1 2.405.846 1.833 1.833 0 0 1-.837 2.434l-.14.069c-.26.13-.533.193-.803.193m-36.691 6.466c-.774 0-1.464-.475-1.67-1.277l-.046-.177a1.82 1.82 0 0 1 1.284-2.224 1.793 1.793 0 0 1 2.196 1.3c.253.972-.3 2.057-1.26 2.312-.17.044-.339.066-.504.066m34.216.27c-.153 0-.308-.02-.461-.06a1.825 1.825 0 0 1-1.282-2.228c.252-.971 1.264-1.643 2.222-1.383.96.257 1.557 1.166 1.305 2.139l-.047.175a1.804 1.804 0 0 1-1.737 1.356m-31.207 6.463c-.426 0-.846-.162-1.182-.503-.002-.002-.069-.067-.07-.07-.697-.713-.724-1.897-.02-2.605.698-.705 1.807-.742 2.509-.03.704.713.767 1.93.063 2.641a1.835 1.835 0 0 1-1.3.567m28.084.167c-.49 0-.981-.2-1.336-.599a1.837 1.837 0 0 1 .128-2.572c.706-.71 1.874-.745 2.58-.032.703.712.734 1.832.032 2.544l-.196.19c-.344.315-.778.47-1.208.47m-21.314 2.519h-.178a1.81 1.81 0 0 1-1.8-1.822 1.81 1.81 0 0 1 1.8-1.821c.995 0 1.89.816 1.89 1.821 0 1.006-.717 1.822-1.712 1.822m7.382 0h-.182c-.994 0-1.8-.816-1.8-1.822 0-1.005.806-1.821 1.8-1.821h.182c.995 0 1.8.816 1.8 1.821a1.81 1.81 0 0 1-1.8 1.822m7.38 0h-.18a1.81 1.81 0 0 1-1.8-1.822 1.81 1.81 0 0 1 1.8-1.821c.995 0 1.89.816 1.89 1.821 0 1.006-.717 1.822-1.71 1.822"/>
        <path fill="#FFF" d="M81.032 108.416c-11.659 0-21.107-9.563-21.107-21.358 0-11.794 9.448-21.357 21.107-21.357 11.657 0 21.105 9.563 21.105 21.357 0 11.795-9.448 21.358-21.105 21.358zm0-7.096c-7.783 0-14.094-6.385-14.094-14.262 0-7.876 6.31-14.26 14.094-14.26 7.783 0 14.092 6.384 14.092 14.26 0 7.877-6.309 14.262-14.092 14.262zm37.578-6.865a1.828 1.828 0 0 1-.496-1.574c.297-1.898.471-3.838.471-5.823 0-1.982-.174-3.922-.471-5.822-.09-.577.088-1.16.496-1.573l8.203-8.302a1.841 1.841 0 0 0 .286-2.199l-7.718-13.526a1.793 1.793 0 0 0-2.025-.849l-11.2 3.037c-.556.15-1.14.013-1.586-.35a37.37 37.37 0 0 0-9.984-5.818 1.798 1.798 0 0 1-1.09-1.214L90.486 39.09a1.805 1.805 0 0 0-1.739-1.35H73.313c-.813 0-1.528.554-1.738 1.35l-3.008 11.352a1.794 1.794 0 0 1-1.09 1.214 37.37 37.37 0 0 0-9.986 5.818c-.446.363-1.03.5-1.584.35l-11.2-3.037a1.793 1.793 0 0 0-2.026.85l-7.717 13.525a1.84 1.84 0 0 0 .285 2.199l8.202 8.302c.41.413.587.996.497 1.573-.297 1.9-.47 3.84-.47 5.822 0 1.985.173 3.925.47 5.823.09.577-.088 1.16-.497 1.574l-8.202 8.302a1.84 1.84 0 0 0-.285 2.198l7.717 13.526a1.793 1.793 0 0 0 2.025.849l11.201-3.035a1.763 1.763 0 0 1 1.584.348 37.315 37.315 0 0 0 9.985 5.816c.535.211.943.656 1.09 1.217l3.009 11.35c.21.797.925 1.35 1.738 1.35h15.435c.814 0 1.529-.553 1.74-1.35l3.007-11.35a1.808 1.808 0 0 1 1.09-1.217c3.637-1.423 7.001-3.384 9.985-5.816.447-.364 1.03-.499 1.586-.348l11.2 3.035a1.793 1.793 0 0 0 2.025-.849l7.718-13.526a1.841 1.841 0 0 0-.286-2.198l-8.203-8.302z"/>
        <path fill="#333" d="M81.032 74.619c-6.78 0-12.294 5.58-12.294 12.44 0 6.858 5.513 12.439 12.294 12.439 6.779 0 12.292-5.581 12.292-12.439 0-6.86-5.513-12.44-12.292-12.44m0 28.522c-8.764 0-15.894-7.215-15.894-16.082 0-8.868 7.13-16.083 15.894-16.083 8.762 0 15.892 7.215 15.892 16.083 0 8.867-7.13 16.082-15.892 16.082m0-35.618c-10.645 0-19.307 8.764-19.307 19.536 0 10.772 8.662 19.535 19.307 19.535 10.643 0 19.305-8.763 19.305-19.535s-8.662-19.536-19.305-19.536m0 42.714c-12.63 0-22.907-10.397-22.907-23.178 0-12.78 10.276-23.18 22.907-23.18 12.63 0 22.905 10.4 22.905 23.18 0 12.781-10.275 23.178-22.905 23.178m-24.678 4.178c.81 0 1.614.279 2.266.809a35.522 35.522 0 0 0 9.504 5.537 3.633 3.633 0 0 1 2.183 2.446l3.006 11.35 15.435-.002 3.008-11.351a3.637 3.637 0 0 1 2.178-2.443 35.486 35.486 0 0 0 9.508-5.537 3.568 3.568 0 0 1 3.18-.689l11.198 3.035 7.72-13.526-8.204-8.302a3.698 3.698 0 0 1-1.003-3.144c.305-1.94.452-3.752.452-5.539s-.147-3.599-.45-5.539a3.683 3.683 0 0 1 1.003-3.144l8.202-8.303-7.72-13.526-11.198 3.036a3.578 3.578 0 0 1-3.18-.69 35.522 35.522 0 0 0-9.504-5.538 3.632 3.632 0 0 1-2.182-2.438l-3.008-11.355H73.313l-3.007 11.35a3.62 3.62 0 0 1-2.182 2.443 35.522 35.522 0 0 0-9.504 5.538 3.578 3.578 0 0 1-3.179.69l-11.2-3.036-7.718 13.526 8.201 8.303a3.688 3.688 0 0 1 1.004 3.142 35.533 35.533 0 0 0-.45 5.541c0 1.794.148 3.607.449 5.537a3.693 3.693 0 0 1-1.001 3.146l-8.205 8.302 7.72 13.526 11.2-3.035c.3-.082.607-.12.913-.12m32.394 23.783H73.313a3.613 3.613 0 0 1-3.477-2.7l-3.008-11.35a38.734 38.734 0 0 1-10.465-6.086l-11.19 3.027c-1.569.43-3.237-.273-4.05-1.696l-7.717-13.528a3.685 3.685 0 0 1 .568-4.395l8.205-8.304c-.339-2.122-.5-4.12-.5-6.107 0-1.989.161-3.985.493-6.107l-8.196-8.304a3.685 3.685 0 0 1-.57-4.397l7.716-13.526a3.589 3.589 0 0 1 4.05-1.697l11.202 3.036a38.637 38.637 0 0 1 10.452-6.105l3.01-11.34c.423-1.59 1.852-2.7 3.477-2.7h15.435c1.626 0 3.055 1.11 3.478 2.7l3.008 11.352a38.68 38.68 0 0 1 10.465 6.084l11.19-3.027a3.59 3.59 0 0 1 4.049 1.695l7.72 13.528a3.686 3.686 0 0 1-.572 4.399l-8.203 8.302c.34 2.13.502 4.127.502 6.107 0 1.98-.162 3.978-.495 6.107l-.003.004 8.199 8.299a3.682 3.682 0 0 1 .572 4.395l-7.718 13.527a3.582 3.582 0 0 1-4.05 1.698l-11.2-3.035a38.716 38.716 0 0 1-10.454 6.104l-3.01 11.34c-.423 1.59-1.852 2.7-3.478 2.7"/>
        <path fill="#FFF" d="M28.438 38.397c-4.477 0-8.107-3.674-8.107-8.204 0-4.532 3.63-8.204 8.107-8.204 4.478 0 8.109 3.672 8.109 8.204 0 4.53-3.63 8.204-8.109 8.204zm21.62-3.95a1.055 1.055 0 0 1-.286-.904 21.84 21.84 0 0 0 .271-3.35c0-1.14-.102-2.257-.271-3.35a1.055 1.055 0 0 1 .286-.905l4.718-4.776c.33-.335.4-.854.165-1.264l-4.44-7.783a1.033 1.033 0 0 0-1.165-.488l-6.444 1.747c-.317.087-.655.009-.913-.2a21.531 21.531 0 0 0-5.742-3.348 1.035 1.035 0 0 1-.63-.698l-1.73-6.53a1.035 1.035 0 0 0-.998-.777h-8.88c-.47 0-.878.318-.999.777l-1.731 6.53c-.085.322-.32.58-.629.698a21.503 21.503 0 0 0-5.742 3.347 1.02 1.02 0 0 1-.912.2l-6.444-1.746a1.033 1.033 0 0 0-1.165.488l-4.44 7.783c-.234.41-.166.93.165 1.264l4.718 4.776c.234.239.338.574.284.905-.169 1.093-.27 2.21-.27 3.35 0 1.142.101 2.257.27 3.35.054.331-.05.666-.284.905l-4.718 4.776c-.331.335-.4.854-.165 1.264l4.44 7.78c.234.412.713.613 1.165.489l6.444-1.745c.317-.086.653-.01.912.2a21.477 21.477 0 0 0 5.742 3.346c.308.12.544.377.629.7L23 57.788c.12.459.53.777 1 .777h8.879c.47 0 .878-.318.999-.777l1.73-6.53c.086-.323.322-.58.63-.7a21.477 21.477 0 0 0 5.741-3.346c.258-.21.596-.286.913-.2l6.444 1.745c.452.124.93-.077 1.165-.488l4.44-7.781c.234-.41.166-.93-.165-1.264l-4.718-4.776z"/>
        <path fill="#0574B9" d="M28.438 23.81c-3.478 0-6.307 2.863-6.307 6.382 0 3.521 2.83 6.383 6.307 6.383 3.48 0 6.309-2.862 6.309-6.383 0-3.519-2.83-6.382-6.309-6.382zm0 16.408c-5.463 0-9.907-4.498-9.907-10.026s4.444-10.025 9.907-10.025 9.909 4.497 9.909 10.025c0 5.528-4.446 10.026-9.909 10.026zm-3.852 16.525h7.706l1.578-5.956c.233-.88.877-1.599 1.72-1.929a19.663 19.663 0 0 0 5.26-3.065 2.828 2.828 0 0 1 2.508-.541l5.877 1.592 3.852-6.752-4.302-4.357-.002-.004a2.898 2.898 0 0 1-.792-2.47c.17-1.083.252-2.085.252-3.069 0-.981-.082-1.985-.25-3.065-.14-.907.155-1.83.79-2.474l4.304-4.358-3.852-6.754-5.877 1.592a2.804 2.804 0 0 1-2.507-.541 19.651 19.651 0 0 0-5.263-3.067 2.86 2.86 0 0 1-1.718-1.922l-1.578-5.96h-7.706L23.006 9.6a2.856 2.856 0 0 1-1.718 1.927 19.656 19.656 0 0 0-5.261 3.066 2.83 2.83 0 0 1-2.507.54l-5.877-1.591-3.852 6.752 4.302 4.357c.64.65.934 1.577.79 2.482a19.576 19.576 0 0 0-.249 3.06c0 .991.081 1.993.249 3.066a2.883 2.883 0 0 1-.789 2.473l-4.303 4.36 3.852 6.753 5.877-1.592a2.829 2.829 0 0 1 2.502.537 19.728 19.728 0 0 0 5.268 3.071 2.858 2.858 0 0 1 1.717 1.93l1.579 5.953zm8.293 3.643h-8.88a2.843 2.843 0 0 1-2.738-2.125l-1.63-6.148a23.32 23.32 0 0 1-5.557-3.238l-6.068 1.643a2.824 2.824 0 0 1-3.188-1.34L.378 41.4a2.903 2.903 0 0 1 .452-3.465l4.44-4.495a23.046 23.046 0 0 1-.236-3.248c0-1.062.078-2.127.236-3.247L.83 22.449a2.897 2.897 0 0 1-.452-3.46l4.44-7.783a2.82 2.82 0 0 1 3.186-1.339l6.068 1.645a23.258 23.258 0 0 1 5.559-3.24l1.63-6.146A2.843 2.843 0 0 1 24 0h8.88c1.281 0 2.408.875 2.737 2.126l1.63 6.145a23.227 23.227 0 0 1 5.56 3.24l6.066-1.642a2.822 2.822 0 0 1 3.187 1.337l4.441 7.78a2.9 2.9 0 0 1-.454 3.465l-4.44 4.496a22.84 22.84 0 0 1 .237 3.245c0 1.055-.077 2.12-.237 3.246l4.442 4.497a2.9 2.9 0 0 1 .452 3.463l-4.44 7.783a2.834 2.834 0 0 1-3.19 1.337l-6.066-1.643a23.311 23.311 0 0 1-5.559 3.24l-1.629 6.146a2.842 2.842 0 0 1-2.737 2.125z"/>
    </g>
</svg>
