<svg xmlns="http://www.w3.org/2000/svg" xmlns:xlink="http://www.w3.org/1999/xlink" width="140" height="160" viewBox="0 0 140 160">
    <defs>
        <path id="a" d="M0 .727h62.76v74.061H0z"/>
        <path id="c" d="M.203 2.1h67.173v115.815H.203z"/>
    </defs>
    <g fill="none" fill-rule="evenodd">
        <path fill="#FFF" d="M35.993 107.832l5.787-1.002a2.827 2.827 0 0 0 2.302-3.268l-1.259-7.27a2.828 2.828 0 0 0-3.267-2.301l-5.787 1.002a2.827 2.827 0 0 0-2.302 3.268l1.26 7.27a2.824 2.824 0 0 0 3.266 2.301"/>
        <path fill="#0574B9" d="M40.04 96.217a.466.466 0 0 0-.096.01l-5.79 1.002a.54.54 0 0 0-.36.229.539.539 0 0 0-.093.413l1.26 7.272a.57.57 0 0 0 .645.456l5.787-1.005a.56.56 0 0 0 .456-.644l-1.261-7.27a.559.559 0 0 0-.549-.463m-4.53 13.926a5.101 5.101 0 0 1-5.017-4.227l-1.26-7.268a5.068 5.068 0 0 1 .855-3.802 5.068 5.068 0 0 1 3.292-2.087l5.79-1.002a5.095 5.095 0 0 1 5.888 4.145l1.261 7.272a5.104 5.104 0 0 1-4.152 5.89l-5.787 1.002a4.95 4.95 0 0 1-.87.077"/>
        <path fill="#FFF" d="M2.887 68.942c3.293 19.003 18.72 32.198 34.454 29.472 15.737-2.728 25.824-20.343 22.531-39.345-3.295-19.005-18.721-32.2-34.454-29.474C9.681 32.322-.405 49.937 2.888 68.942"/>
        <g transform="translate(0 26.247)">
            <mask id="b" fill="#fff">
                <use xlink:href="#a"/>
            </mask>
            <path fill="#0574B9" d="M5.121 42.307C8.194 60.05 22.491 72.43 36.954 69.933c14.479-2.51 23.758-18.984 20.683-36.726C54.56 15.467 40.299 3.071 25.804 5.581 11.326 8.091 2.05 24.565 5.121 42.307m28.105 32.481C17.93 74.788 3.845 61.491.652 43.083-2.85 22.876 8.087 4.048 25.029 1.112 41.963-1.81 58.603 12.225 62.106 32.434c3.502 20.204-7.433 39.03-24.376 41.967-1.506.26-3.012.387-4.504.387" mask="url(#b)"/>
        </g>
        <path fill="#FFF" d="M42.211 130.976c-7.521-10.016 3.143-13.447-3.968-23.533"/>
        <path fill="#0574B9" d="M42.214 133.243a2.27 2.27 0 0 1-1.817-.904c-4.446-5.921-3.367-10.264-2.499-13.751.79-3.182 1.415-5.694-1.507-9.84a2.269 2.269 0 0 1 3.705-2.614c4.118 5.841 3.057 10.114 2.202 13.547-.794 3.206-1.424 5.737 1.728 9.932a2.273 2.273 0 0 1-.452 3.177 2.26 2.26 0 0 1-1.36.453"/>
        <path fill="#FFF" d="M68.51 116.409l-8.403-1.458a4.103 4.103 0 0 1-3.345-4.742l1.83-10.558a4.102 4.102 0 0 1 4.744-3.342l8.406 1.456a4.103 4.103 0 0 1 3.34 4.743l-1.828 10.558a4.103 4.103 0 0 1-4.744 3.343"/>
        <path fill="#333" d="M68.898 114.175c.49.09.973-.028 1.37-.309.4-.281.666-.703.752-1.186l1.828-10.558a1.822 1.822 0 0 0-.308-1.372 1.816 1.816 0 0 0-1.186-.75l-8.406-1.458a1.851 1.851 0 0 0-2.123 1.496l-1.828 10.558a1.838 1.838 0 0 0 1.495 2.12l8.406 1.459zm.326 4.564a6.46 6.46 0 0 1-1.102-.095l-8.403-1.458a6.38 6.38 0 0 1-5.191-7.363l1.83-10.56c.6-3.458 3.893-5.78 7.365-5.188l8.406 1.455a6.314 6.314 0 0 1 4.118 2.608 6.326 6.326 0 0 1 1.07 4.758l-1.83 10.558a6.336 6.336 0 0 1-2.605 4.12 6.34 6.34 0 0 1-3.658 1.165z"/>
        <path fill="#FFF" d="M116.588 59.93c-4.782 27.6-27.184 46.76-50.034 42.801C43.699 98.772 29.05 73.19 33.834 45.59 38.617 17.991 61.02-1.17 83.87 2.789c22.853 3.96 37.502 29.545 32.72 57.141"/>
        <path fill="#333" d="M77.829 4.537c-8.52 0-16.966 3.288-24.277 9.542-9.05 7.741-15.261 19.07-17.483 31.898-2.223 12.83-.189 25.586 5.728 35.921 5.839 10.196 14.768 16.801 25.143 18.6 21.56 3.752 42.853-14.631 47.413-40.956 2.225-12.828.188-25.583-5.728-35.919C102.788 13.426 93.856 6.82 83.482 5.024a33.01 33.01 0 0 0-5.653-.487m-5.295 100.976c-2.111 0-4.236-.179-6.37-.546-11.728-2.034-21.78-9.424-28.302-20.815-6.442-11.25-8.664-25.082-6.263-38.948 2.404-13.869 9.152-26.145 19.003-34.572C60.579 2.102 72.532-1.475 84.257.555c11.73 2.034 21.78 9.424 28.302 20.814 6.443 11.25 8.667 25.082 6.264 38.949l-2.234-.388 2.234.388c-4.547 26.234-24.572 45.195-46.29 45.195"/>
        <path fill="#FFF" d="M59.48 150.019c10.923-14.545-4.565-19.529 5.762-34.177"/>
        <path fill="#333" d="M59.477 152.286a2.26 2.26 0 0 1-1.36-.453 2.273 2.273 0 0 1-.451-3.177c4.87-6.48 3.855-10.562 2.682-15.288-1.251-5.032-2.669-10.735 3.041-18.833a2.265 2.265 0 0 1 3.159-.546 2.265 2.265 0 0 1 .546 3.159c-4.512 6.403-3.508 10.447-2.347 15.127 1.273 5.109 2.71 10.898-3.453 19.107a2.27 2.27 0 0 1-1.817.904"/>
        <g transform="translate(63.493 42.12)">
            <mask id="d" fill="#fff">
                <use xlink:href="#c"/>
            </mask>
            <path fill="#999" d="M65.109 6.863a2.267 2.267 0 0 1-2.268-2.268h2.268l-2.27-.159a2.27 2.27 0 0 1 2.202-2.333c.02-.002.043-.002.068-.002 1.22 0 2.227.973 2.265 2.202l.002.292a2.267 2.267 0 0 1-2.267 2.268m-.404 9.195c-.061 0-.122-.002-.188-.007-1.247-.111-2.177-1.132-2.066-2.379l.03-.29a2.268 2.268 0 0 1 4.503.528c-.104 1.184-1.109 2.148-2.279 2.148m-1.487 9.245a2.27 2.27 0 0 1-2.206-2.803l2.203.535-2.167-.691a2.27 2.27 0 0 1 2.689-1.746 2.266 2.266 0 0 1 1.748 2.687l-.065.285a2.27 2.27 0 0 1-2.202 1.733m-2.708 8.77a2.09 2.09 0 0 1-.74-.135c-1.17-.442-1.8-1.642-1.362-2.812.002-.002.082-.218.084-.222a2.267 2.267 0 1 1 4.238 1.614c-.351.928-1.272 1.556-2.22 1.556m-3.896 8.533a2.265 2.265 0 0 1-1.97-3.386l.09-.16a2.262 2.262 0 0 1 3.073-.912 2.266 2.266 0 0 1 .914 3.072l-.132.236a2.267 2.267 0 0 1-1.975 1.15m-5.109 7.755a2.265 2.265 0 0 1-1.787-3.66l1.79 1.393-1.685-1.531a2.273 2.273 0 0 1 3.172-.472 2.27 2.27 0 0 1 .472 3.173c-.011.013-.159.208-.17.22a2.262 2.262 0 0 1-1.792.877m-6.197 6.92a2.26 2.26 0 0 1-1.653-.713 2.27 2.27 0 0 1 .1-3.207l.113-.109a2.27 2.27 0 0 1 3.207 3.209l-.216.204a2.246 2.246 0 0 1-1.55.617m-7.14 5.943a2.267 2.267 0 0 1-1.32-4.113l.15-.109a2.271 2.271 0 0 1 3.175.474 2.272 2.272 0 0 1-.471 3.172l-.218.155c-.4.285-.86.421-1.315.421m-7.926 4.78c-.836 0-1.648-.453-2.04-1.245-.558-1.122-.13-2.469.988-3.027.003-.002.057-.027.06-.03 1.11-.555 2.532-.144 3.097.958.567 1.102.22 2.415-.873 3l-.213.106a2.265 2.265 0 0 1-1.019.238m-8.605 3.388c-.69 0-1.365-.295-1.805-.873-.758-.998-.617-2.38.38-3.138l.26-.188a2.27 2.27 0 0 1 2.591 3.723c-.422.32-.925.476-1.426.476m-2.025 8.835a2.267 2.267 0 0 1-2.19-2.864l.058-.22a2.273 2.273 0 0 1 2.785-1.592 2.272 2.272 0 0 1 1.592 2.787l-.061.218a2.266 2.266 0 0 1-2.184 1.67m-6.762 5.715a2.266 2.266 0 0 1-.626-4.447l.626 2.18-.426-2.239a2.268 2.268 0 0 1 1.288 4.347c-.005.003-.23.066-.236.068-.207.062-.42.091-.626.091m-2.662 7.535a2.264 2.264 0 0 1-2.202-1.739l-.052-.215a2.266 2.266 0 0 1 1.669-2.737 2.262 2.262 0 0 1 2.737 1.669l.056.229a2.268 2.268 0 0 1-2.208 2.793m1.442 9.16a2.267 2.267 0 0 1-2.268-2.268v-.227a2.266 2.266 0 0 1 2.268-2.268 2.266 2.266 0 0 1 2.268 2.268v.227a2.267 2.267 0 0 1-2.268 2.267m-2.737 8.742a2.266 2.266 0 0 1-1.884-3.526l1.886 1.258-1.793-1.401a2.268 2.268 0 1 1 3.835 2.424c-.012.014-.144.22-.155.236a2.263 2.263 0 0 1-1.89 1.009m-6.405 6.537c-.678 0-1.347-.283-1.782-.845-.77-.99-.656-2.363.33-3.134l.236-.177a2.267 2.267 0 0 1 2.679 3.658 2.378 2.378 0 0 1-1.463.498" mask="url(#d)"/>
        </g>
        <path fill="#999" d="M83.569 128.559a2.27 2.27 0 0 0-1.554 2.807 2.27 2.27 0 0 0 2.808 1.551l.233-.068a2.268 2.268 0 0 0 1.53-2.82 2.26 2.26 0 0 0-2.818-1.527M91.625 114.36l-.259.188c-1 .757-1.138 2.14-.38 3.138a2.251 2.251 0 0 0 1.804.873c.5 0 1.005-.159 1.427-.476a2.268 2.268 0 1 0-2.592-3.723M81.804 153.177a2.274 2.274 0 0 0-3.13.707l1.794 1.4-1.886-1.257a2.263 2.263 0 0 0 1.884 3.524c.732 0 1.454-.354 1.889-1.01l.156-.235a2.271 2.271 0 0 0-.707-3.13M91.439 122.738a2.271 2.271 0 0 0-2.785 1.592l-.059.218a2.268 2.268 0 0 0 4.377 1.195l.059-.22a2.267 2.267 0 0 0-1.592-2.785M83.604 144.364a2.267 2.267 0 0 0-2.267 2.268v.227a2.267 2.267 0 1 0 4.535 0v-.227a2.267 2.267 0 0 0-2.268-2.268M80.843 139.457a2.268 2.268 0 1 0 4.41-1.054l-.054-.23a2.26 2.26 0 0 0-2.737-1.668 2.268 2.268 0 0 0-1.67 2.739l.05.213zM136.643 64.004c-1.214-.265-2.427.524-2.69 1.748l2.17.69-2.204-.536a2.268 2.268 0 1 0 4.406 1.07c.005-.022.064-.262.066-.283a2.266 2.266 0 0 0-1.748-2.69M133.753 73.742a2.268 2.268 0 0 0-2.928 1.313c-.002.002-.081.217-.084.222-.437 1.17.193 2.37 1.36 2.812.243.09.493.134.742.134.948 0 1.869-.628 2.22-1.554a2.27 2.27 0 0 0-1.31-2.927M130.01 83.477a2.262 2.262 0 0 0-3.072.911l-.093.161a2.269 2.269 0 0 0 3.948 2.236l.129-.236a2.265 2.265 0 0 0-.912-3.072M137.767 54.055a2.269 2.269 0 0 0-2.517 1.987l-.029.292c-.111 1.248.819 2.268 2.066 2.38.063.004.127.006.188.006 1.17 0 2.175-.964 2.279-2.148a2.269 2.269 0 0 0-1.987-2.517M114.722 100.063l-.114.109a2.268 2.268 0 0 0 3.105 3.304l.215-.207a2.265 2.265 0 0 0 0-3.206 2.265 2.265 0 0 0-3.206 0M121.208 92.997l1.685 1.528-1.79-1.39a2.265 2.265 0 0 0 1.787 3.658c.676 0 1.345-.3 1.792-.876.011-.013.16-.206.17-.222a2.265 2.265 0 0 0-.472-3.17 2.27 2.27 0 0 0-3.172.472M108.255 106.339l-.15.109a2.267 2.267 0 1 0 2.636 3.691l.215-.156a2.267 2.267 0 1 0-2.7-3.644M101.475 111.546l-.057.027c-1.12.56-1.549 1.907-.99 3.027a2.27 2.27 0 0 0 2.04 1.248c.345 0 .694-.077 1.02-.238.02-.012.193-.098.211-.11 1.096-.582 1.44-1.897.873-3-.566-1.097-1.988-1.507-3.097-.954"/>
        <path fill="#333" d="M107.804 58.409l-4.47-.776c1.608-9.274.14-18.49-4.131-25.95-4.193-7.322-10.594-12.064-18.025-13.352l.775-4.47c8.787 1.525 16.309 7.053 21.184 15.568 4.798 8.377 6.454 18.667 4.667 28.98"/>
    </g>
</svg>
