<svg xmlns="http://www.w3.org/2000/svg" xmlns:xlink="http://www.w3.org/1999/xlink" width="16" height="16" viewBox="0 0 16 16">
    <defs>
        <path id="a" d="M0 0h16v16H0z"/>
    </defs>
    <g fill="none" fill-rule="evenodd">
        <mask id="b" fill="#fff">
            <use xlink:href="#a"/>
        </mask>
        <path fill="#7AAC39" d="M8 5.333a.97.97 0 1 1 .001-1.94A.97.97 0 0 1 8 5.332zm.727 6.546a.727.727 0 1 1-1.454 0V7.515a.727.727 0 1 1 1.454 0v4.364zM8 0C3.589 0 0 3.589 0 8s3.589 8 8 8 8-3.589 8-8-3.589-8-8-8z" mask="url(#b)"/>
    </g>
</svg>
