<svg xmlns="http://www.w3.org/2000/svg" width="28" height="28" viewBox="0 0 28 28">
    <g fill="none" fill-rule="evenodd" stroke="#FFF" stroke-linecap="round" stroke-linejoin="round" stroke-width="2">
        <path d="M26.221 13.61c0 6.965-5.646 12.61-12.61 12.61C6.647 26.22 1 20.575 1 13.61 1 6.646 6.647 1 13.611 1s12.61 5.646 12.61 12.61z"/>
        <path d="M13.61 26.22c3.254 0 6.22-1.232 8.457-3.255-.537-4.198-4.114-7.444-8.457-7.444-4.343 0-7.92 3.246-8.457 7.444a12.567 12.567 0 0 0 8.457 3.256z"/>
        <path d="M18.323 10.808a4.712 4.712 0 1 1-9.426 0 4.714 4.714 0 0 1 9.426 0z"/>
    </g>
</svg>
