<?xml version="1.0" encoding="UTF-8"?>
<svg width="59px" height="71px" viewBox="0 0 59 71" version="1.1" xmlns="http://www.w3.org/2000/svg" xmlns:xlink="http://www.w3.org/1999/xlink">
    <!-- Generator: sketchtool 53.2 (72643) - https://sketchapp.com -->
    <title>F87D4DAD-E4FF-40BF-8AA9-8AB299873DB5</title>
    <desc>Created with sketchtool.</desc>
    <defs>
        <polygon id="path-1" points="0.0001 0.345 44.4791 0.345 44.4791 56.9999 0.0001 56.9999"></polygon>
        <polygon id="path-3" points="0 71 58.479 71 58.479 0.345 0 0.345"></polygon>
    </defs>
    <g id="🚀-Componentes" stroke="none" stroke-width="1" fill="none" fill-rule="evenodd">
        <g id="Componentes-2" transform="translate(-1466.000000, -2604.000000)">
            <g id="Box" transform="translate(445.000000, 1964.000000)">
                <g id="Domicilio-Fiscal" transform="translate(0.000000, 607.000000)">
                    <g id="icon" transform="translate(1021.000000, 32.000000)">
                        <polyline id="Fill-1" fill="#FFFFFF" points="7.0001 56.6547 1.0001 56.6547 1.0001 2.0007 43.4791 2.0007 43.4791 8.0007"></polyline>
                        <g id="Group-68" transform="translate(0.000000, 0.654800)">
                            <g id="Group-4">
                                <mask id="mask-2" fill="white">
                                    <use xlink:href="#path-1"></use>
                                </mask>
                                <g id="Clip-3"></g>
                                <path d="M7.0001,56.9999 L1.9241,56.9999 C0.8611,56.9999 0.0001,56.1389 0.0001,55.0769 L0.0001,2.2689 C0.0001,1.2069 0.8611,0.3449 1.9241,0.3449 L42.5561,0.3449 C43.6181,0.3449 44.4791,1.2069 44.4791,2.2689 L44.4791,7.3449 L42.4791,7.3449 L42.4791,2.3449 L2.0001,2.3449 L2.0001,54.9999 L7.0001,54.9999 L7.0001,56.9999 Z" id="Fill-2" fill="#0574B9" mask="url(#mask-2)"></path>
                            </g>
                            <path d="M38.7911,61.9999 L8.0001,61.9999 C7.4481,61.9999 7.0001,61.5519 7.0001,60.9999 L7.0001,8.3459 C7.0001,7.7929 7.4481,7.3459 8.0001,7.3459 L48.4791,7.3459 C49.0311,7.3459 49.4791,7.7929 49.4791,8.3459 L49.4791,51.3119 C49.4791,51.5779 49.3741,51.8319 49.1871,52.0199 L39.4991,61.7069 C39.3111,61.8949 39.0571,61.9999 38.7911,61.9999" id="Fill-5" fill="#FFFFFF"></path>
                            <path d="M8.0001,8.3451 L8.0001,61.0001 L38.7921,61.0001 L48.4791,51.3121 L48.4791,8.3451 L8.0001,8.3451 Z M38.7921,63.0001 L8.0001,63.0001 C6.8971,63.0001 6.0001,62.1031 6.0001,61.0001 L6.0001,8.3451 C6.0001,7.2421 6.8971,6.3451 8.0001,6.3451 L48.4791,6.3451 C49.5821,6.3451 50.4791,7.2421 50.4791,8.3451 L50.4791,51.3121 C50.4791,51.8461 50.2711,52.3481 49.8941,52.7261 L40.2061,62.4141 C39.8341,62.7861 39.3181,63.0001 38.7921,63.0001 L38.7921,63.0001 Z" id="Fill-7" fill="#333333"></path>
                            <path d="M40.2062,52.7264 L40.2062,59.5854 L47.0652,52.7264 L40.2062,52.7264 Z M39.2062,62.9994 C39.0772,62.9994 38.9472,62.9754 38.8232,62.9234 C38.4492,62.7684 38.2062,62.4044 38.2062,61.9994 L38.2062,51.7264 C38.2062,51.1744 38.6532,50.7264 39.2062,50.7264 L49.4792,50.7264 C49.8842,50.7264 50.2492,50.9704 50.4032,51.3434 C50.5592,51.7174 50.4732,52.1474 50.1862,52.4334 L39.9132,62.7064 C39.7222,62.8984 39.4662,62.9994 39.2062,62.9994 L39.2062,62.9994 Z" id="Fill-9" fill="#333333"></path>
                            <mask id="mask-4" fill="white">
                                <use xlink:href="#path-3"></use>
                            </mask>
                            <g id="Clip-12"></g>
                            <polygon id="Fill-11" fill="#FFFFFF" mask="url(#mask-4)" points="14.465 27.927 26.968 27.927 26.968 19.967 14.465 19.967"></polygon>
                            <path d="M15.465,26.927 L25.969,26.927 L25.969,20.967 L15.465,20.967 L15.465,26.927 Z M13.465,28.927 L27.969,28.927 L27.969,18.967 L13.465,18.967 L13.465,28.927 Z" id="Fill-13" fill="#333333" mask="url(#mask-4)"></path>
                            <path d="M32.4933,19.9667 L42.0143,19.9667" id="Fill-14" fill="#FFFFFF" mask="url(#mask-4)"></path>
                            <polygon id="Fill-15" fill="#333333" mask="url(#mask-4)" points="32.494 20.967 42.015 20.967 42.015 18.967 32.494 18.967"></polygon>
                            <path d="M32.4933,23.9471 L42.0143,23.9471" id="Fill-16" fill="#FFFFFF" mask="url(#mask-4)"></path>
                            <polygon id="Fill-17" fill="#333333" mask="url(#mask-4)" points="32.494 24.947 42.015 24.947 42.015 22.947 32.494 22.947"></polygon>
                            <path d="M32.4933,27.9271 L42.0143,27.9271" id="Fill-18" fill="#FFFFFF" mask="url(#mask-4)"></path>
                            <polygon id="Fill-19" fill="#333333" mask="url(#mask-4)" points="32.494 28.927 42.015 28.927 42.015 26.927 32.494 26.927"></polygon>
                            <polygon id="Fill-20" fill="#333333" mask="url(#mask-4)" points="23.536 39.321 42.015 39.321 42.015 37.321 23.536 37.321"></polygon>
                            <polygon id="Fill-21" fill="#333333" mask="url(#mask-4)" points="23.536 43.644 42.015 43.644 42.015 41.644 23.536 41.644"></polygon>
                            <polygon id="Fill-22" fill="#333333" mask="url(#mask-4)" points="23.536 47.967 42.015 47.967 42.015 45.967 23.536 45.967"></polygon>
                            <path d="M27.4005,68.9999 L27.2995,68.9999 C26.7475,68.9999 26.2995,69.4479 26.2995,69.9999 C26.2995,70.5519 26.7475,70.9999 27.2995,70.9999 L27.4005,70.9999 C27.9535,70.9999 28.4005,70.5519 28.4005,69.9999 C28.4005,69.4479 27.9535,68.9999 27.4005,68.9999" id="Fill-23" fill="#999999" mask="url(#mask-4)"></path>
                            <path d="M46.1075,66.6825 L46.0375,66.7535 C45.6485,67.1445 45.6855,67.7435 46.0775,68.1325 C46.2635,68.3165 46.5125,68.4055 46.7635,68.4055 C47.0415,68.4055 47.3225,68.2975 47.5275,68.0915 C47.9165,67.7005 47.9145,67.0665 47.5225,66.6775 C47.1305,66.2885 46.4995,66.2905 46.1075,66.6825" id="Fill-24" fill="#999999" mask="url(#mask-4)"></path>
                            <path d="M49.0069,63.7836 L48.9369,63.8546 C48.5479,64.2456 48.5849,64.8446 48.9769,65.2336 C49.1629,65.4176 49.4119,65.5066 49.6629,65.5066 C49.9409,65.5066 50.2219,65.3986 50.4269,65.1926 C50.8159,64.8016 50.8139,64.1676 50.4219,63.7786 C50.0299,63.3896 49.3989,63.3916 49.0069,63.7836" id="Fill-25" fill="#999999" mask="url(#mask-4)"></path>
                            <path d="M15.0997,68.9999 L14.9997,68.9999 C14.4477,68.9999 14.0497,69.4479 14.0497,69.9999 C14.0497,70.5519 14.5467,70.9999 15.0997,70.9999 C15.6527,70.9999 16.0997,70.5519 16.0997,69.9999 C16.0997,69.4479 15.6527,68.9999 15.0997,68.9999" id="Fill-26" fill="#999999" mask="url(#mask-4)"></path>
                            <path d="M43.7999,68.9999 L43.6999,68.9999 C43.1479,68.9999 42.7499,69.4479 42.7499,69.9999 C42.7499,70.5519 43.2469,70.9999 43.7999,70.9999 C44.3529,70.9999 44.7999,70.5519 44.7999,69.9999 C44.7999,69.4479 44.3529,68.9999 43.7999,68.9999" id="Fill-27" fill="#999999" mask="url(#mask-4)"></path>
                            <path d="M19.2003,68.9999 L19.0993,68.9999 C18.5473,68.9999 18.0993,69.4479 18.0993,69.9999 C18.0993,70.5519 18.5473,70.9999 19.0993,70.9999 L19.2003,70.9999 C19.7533,70.9999 20.2003,70.5519 20.2003,69.9999 C20.2003,69.4479 19.7533,68.9999 19.2003,68.9999" id="Fill-28" fill="#999999" mask="url(#mask-4)"></path>
                            <path d="M39.7003,68.9999 L39.5993,68.9999 C39.0473,68.9999 38.5993,69.4479 38.5993,69.9999 C38.5993,70.5519 39.0473,70.9999 39.5993,70.9999 L39.7003,70.9999 C40.2533,70.9999 40.7003,70.5519 40.7003,69.9999 C40.7003,69.4479 40.2533,68.9999 39.7003,68.9999" id="Fill-29" fill="#999999" mask="url(#mask-4)"></path>
                            <path d="M35.5997,68.9999 L35.4997,68.9999 C34.9477,68.9999 34.5497,69.4479 34.5497,69.9999 C34.5497,70.5519 35.0467,70.9999 35.5997,70.9999 C36.1527,70.9999 36.5997,70.5519 36.5997,69.9999 C36.5997,69.4479 36.1527,68.9999 35.5997,68.9999" id="Fill-30" fill="#999999" mask="url(#mask-4)"></path>
                            <path d="M31.5001,68.9999 L31.4001,68.9999 C30.8481,68.9999 30.4501,69.4479 30.4501,69.9999 C30.4501,70.5519 30.9471,70.9999 31.5001,70.9999 C32.0531,70.9999 32.5001,70.5519 32.5001,69.9999 C32.5001,69.4479 32.0531,68.9999 31.5001,68.9999" id="Fill-31" fill="#999999" mask="url(#mask-4)"></path>
                            <path d="M23.2999,68.9999 L23.1999,68.9999 C22.6479,68.9999 22.2499,69.4479 22.2499,69.9999 C22.2499,70.5519 22.7469,70.9999 23.2999,70.9999 C23.8529,70.9999 24.2999,70.5519 24.2999,69.9999 C24.2999,69.4479 23.8529,68.9999 23.2999,68.9999" id="Fill-32" fill="#999999" mask="url(#mask-4)"></path>
                            <path d="M51.9093,60.8822 L51.8393,60.9522 C51.4483,61.3432 51.4833,61.9412 51.8743,62.3312 C52.0603,62.5182 52.3103,62.6072 52.5623,62.6072 C52.8403,62.6072 53.1193,62.5002 53.3233,62.2962 C53.7143,61.9052 53.7143,61.2732 53.3233,60.8822 C52.9323,60.4912 52.3003,60.4912 51.9093,60.8822" id="Fill-33" fill="#999999" mask="url(#mask-4)"></path>
                            <path d="M57.4796,33.9037 C56.9266,33.9037 56.4796,34.3517 56.4796,34.9037 L56.4796,35.0037 C56.4796,35.5557 56.9266,36.0037 57.4796,36.0037 C58.0326,36.0037 58.4796,35.5557 58.4796,35.0037 L58.4796,34.9037 C58.4796,34.3517 58.0326,33.9037 57.4796,33.9037" id="Fill-34" fill="#999999" mask="url(#mask-4)"></path>
                            <path d="M57.4796,38.0038 C56.9266,38.0038 56.4796,38.4518 56.4796,39.0038 L56.4796,39.1038 C56.4796,39.6558 56.9266,40.0538 57.4796,40.0538 C58.0326,40.0538 58.4796,39.5558 58.4796,39.0038 C58.4796,38.4518 58.0326,38.0038 57.4796,38.0038" id="Fill-35" fill="#999999" mask="url(#mask-4)"></path>
                            <path d="M57.4796,29.8036 C56.9266,29.8036 56.4796,30.2516 56.4796,30.8036 L56.4796,30.9036 C56.4796,31.4556 56.9266,31.9036 57.4796,31.9036 C58.0326,31.9036 58.4796,31.4556 58.4796,30.9036 L58.4796,30.8036 C58.4796,30.2516 58.0326,29.8036 57.4796,29.8036" id="Fill-36" fill="#999999" mask="url(#mask-4)"></path>
                            <path d="M57.4796,42.1034 C56.9266,42.1034 56.4796,42.5514 56.4796,43.1034 L56.4796,43.2034 C56.4796,43.7554 56.9266,44.2034 57.4796,44.2034 C58.0326,44.2034 58.4796,43.7554 58.4796,43.2034 L58.4796,43.1034 C58.4796,42.5514 58.0326,42.1034 57.4796,42.1034" id="Fill-37" fill="#999999" mask="url(#mask-4)"></path>
                            <path d="M57.4796,25.7035 C56.9266,25.7035 56.4796,26.1515 56.4796,26.7035 L56.4796,26.8035 C56.4796,27.3555 56.9266,27.8035 57.4796,27.8035 C58.0326,27.8035 58.4796,27.3555 58.4796,26.8035 L58.4796,26.7035 C58.4796,26.1515 58.0326,25.7035 57.4796,25.7035" id="Fill-38" fill="#999999" mask="url(#mask-4)"></path>
                            <path d="M57.4796,21.6034 C56.9266,21.6034 56.4796,22.0514 56.4796,22.6034 L56.4796,22.7034 C56.4796,23.2554 56.9266,23.7034 57.4796,23.7034 C58.0326,23.7034 58.4796,23.2554 58.4796,22.7034 L58.4796,22.6034 C58.4796,22.0514 58.0326,21.6034 57.4796,21.6034" id="Fill-39" fill="#999999" mask="url(#mask-4)"></path>
                            <path d="M57.4796,46.2035 C56.9266,46.2035 56.4796,46.6515 56.4796,47.2035 L56.4796,47.3035 C56.4796,47.8555 56.9266,48.3035 57.4796,48.3035 C58.0326,48.3035 58.4796,47.8555 58.4796,47.3035 L58.4796,47.2035 C58.4796,46.6515 58.0326,46.2035 57.4796,46.2035" id="Fill-40" fill="#999999" mask="url(#mask-4)"></path>
                            <path d="M54.8107,57.9803 L54.7397,58.0513 C54.3477,58.4403 54.3457,59.0733 54.7347,59.4653 C54.9307,59.6623 55.1877,59.7603 55.4447,59.7603 C55.6997,59.7603 55.9547,59.6643 56.1497,59.4703 L56.2207,59.3993 C56.6127,59.0103 56.6147,58.3763 56.2257,57.9853 C55.8337,57.5923 55.2027,57.5903 54.8107,57.9803" id="Fill-41" fill="#999999" mask="url(#mask-4)"></path>
                            <path d="M57.4796,54.4037 C56.9266,54.4037 56.4796,54.8517 56.4796,55.4037 L56.4796,55.5037 C56.4796,56.0557 56.9266,56.5037 57.4796,56.5037 C58.0326,56.5037 58.4796,56.0557 58.4796,55.5037 L58.4796,55.4037 C58.4796,54.8517 58.0326,54.4037 57.4796,54.4037" id="Fill-42" fill="#999999" mask="url(#mask-4)"></path>
                            <path d="M57.4796,19.5536 C58.0326,19.5536 58.4796,19.0556 58.4796,18.5036 C58.4796,17.9516 58.0326,17.5036 57.4796,17.5036 C56.9266,17.5036 56.4796,17.9516 56.4796,18.5036 L56.4796,18.6036 C56.4796,19.1556 56.9266,19.5536 57.4796,19.5536" id="Fill-43" fill="#999999" mask="url(#mask-4)"></path>
                            <path d="M57.4796,50.3036 C56.9266,50.3036 56.4796,50.7516 56.4796,51.3036 L56.4796,51.4036 C56.4796,51.9556 56.9266,52.4036 57.4796,52.4036 C58.0326,52.4036 58.4796,51.9556 58.4796,51.4036 L58.4796,51.3036 C58.4796,50.7516 58.0326,50.3036 57.4796,50.3036" id="Fill-44" fill="#999999" mask="url(#mask-4)"></path>
                            <path d="M53.4796,45.475 C54.0326,45.475 54.4796,45.027 54.4796,44.475 L54.4796,44.375 C54.4796,43.823 54.0326,43.375 53.4796,43.375 C52.9266,43.375 52.4796,43.823 52.4796,44.375 L52.4796,44.475 C52.4796,45.027 52.9266,45.475 53.4796,45.475" id="Fill-45" fill="#999999" mask="url(#mask-4)"></path>
                            <path d="M11.0997,64.9999 L10.9997,64.9999 C10.4477,64.9999 10.0497,65.4479 10.0497,65.9999 C10.0497,66.5519 10.5467,66.9999 11.0997,66.9999 C11.6527,66.9999 12.0997,66.5519 12.0997,65.9999 C12.0997,65.4479 11.6527,64.9999 11.0997,64.9999" id="Fill-46" fill="#999999" mask="url(#mask-4)"></path>
                            <path d="M53.4796,49.5751 C54.0326,49.5751 54.4796,49.1271 54.4796,48.5751 L54.4796,48.4751 C54.4796,47.9231 54.0326,47.4751 53.4796,47.4751 C52.9266,47.4751 52.4796,47.9231 52.4796,48.4751 L52.4796,48.5751 C52.4796,49.1271 52.9266,49.5751 53.4796,49.5751" id="Fill-47" fill="#999999" mask="url(#mask-4)"></path>
                            <path d="M53.4796,20.8251 C54.0326,20.8251 54.4796,20.3271 54.4796,19.7751 C54.4796,19.2231 54.0326,18.7751 53.4796,18.7751 C52.9266,18.7751 52.4796,19.2231 52.4796,19.7751 L52.4796,19.8751 C52.4796,20.4271 52.9266,20.8251 53.4796,20.8251" id="Fill-48" fill="#999999" mask="url(#mask-4)"></path>
                            <path d="M53.4796,24.975 C54.0326,24.975 54.4796,24.527 54.4796,23.975 L54.4796,23.875 C54.4796,23.323 54.0326,22.875 53.4796,22.875 C52.9266,22.875 52.4796,23.323 52.4796,23.875 L52.4796,23.975 C52.4796,24.527 52.9266,24.975 53.4796,24.975" id="Fill-49" fill="#999999" mask="url(#mask-4)"></path>
                            <path d="M53.4796,41.3251 C54.0326,41.3251 54.4796,40.8271 54.4796,40.2751 C54.4796,39.7231 54.0326,39.2751 53.4796,39.2751 C52.9266,39.2751 52.4796,39.7231 52.4796,40.2751 L52.4796,40.3751 C52.4796,40.9271 52.9266,41.3251 53.4796,41.3251" id="Fill-50" fill="#999999" mask="url(#mask-4)"></path>
                            <path d="M53.4796,29.0751 C54.0326,29.0751 54.4796,28.6271 54.4796,28.0751 L54.4796,27.9751 C54.4796,27.4231 54.0326,26.9751 53.4796,26.9751 C52.9266,26.9751 52.4796,27.4231 52.4796,27.9751 L52.4796,28.0751 C52.4796,28.6271 52.9266,29.0751 53.4796,29.0751" id="Fill-51" fill="#999999" mask="url(#mask-4)"></path>
                            <path d="M53.4796,16.7753 C54.0326,16.7753 54.4796,16.3273 54.4796,15.7753 L54.4796,15.6753 C54.4796,15.1233 54.0326,14.6753 53.4796,14.6753 C52.9266,14.6753 52.4796,15.1233 52.4796,15.6753 L52.4796,15.7753 C52.4796,16.3273 52.9266,16.7753 53.4796,16.7753" id="Fill-52" fill="#999999" mask="url(#mask-4)"></path>
                            <path d="M53.4796,37.2753 C54.0326,37.2753 54.4796,36.8273 54.4796,36.2753 L54.4796,36.1753 C54.4796,35.6233 54.0326,35.1753 53.4796,35.1753 C52.9266,35.1753 52.4796,35.6233 52.4796,36.1753 L52.4796,36.2753 C52.4796,36.8273 52.9266,37.2753 53.4796,37.2753" id="Fill-53" fill="#999999" mask="url(#mask-4)"></path>
                            <path d="M53.4796,33.1752 C54.0326,33.1752 54.4796,32.7272 54.4796,32.1752 L54.4796,32.0752 C54.4796,31.5232 54.0326,31.0752 53.4796,31.0752 C52.9266,31.0752 52.4796,31.5232 52.4796,32.0752 L52.4796,32.1752 C52.4796,32.7272 52.9266,33.1752 53.4796,33.1752" id="Fill-54" fill="#999999" mask="url(#mask-4)"></path>
                            <path d="M44.1105,65.5087 C44.5015,65.1177 44.5015,64.4857 44.1105,64.0947 C43.7195,63.7037 43.0875,63.7037 42.6965,64.0947 L42.6265,64.1647 C42.2355,64.5557 42.2705,65.1537 42.6615,65.5437 C42.8475,65.7307 43.0975,65.8197 43.3495,65.8197 C43.6275,65.8197 43.9065,65.7127 44.1105,65.5087" id="Fill-55" fill="#999999" mask="url(#mask-4)"></path>
                            <path d="M49.836,59.7836 L49.907,59.7126 C50.299,59.3236 50.301,58.6906 49.912,58.2986 C49.521,57.9066 48.889,57.9046 48.497,58.2936 L48.426,58.3646 C48.034,58.7536 48.032,59.3876 48.421,59.7786 C48.617,59.9756 48.874,60.0746 49.131,60.0746 C49.386,60.0746 49.641,59.9776 49.836,59.7836" id="Fill-56" fill="#999999" mask="url(#mask-4)"></path>
                            <path d="M47.0128,62.6068 C47.4018,62.2148 47.3998,61.5818 47.0078,61.1928 C46.6168,60.8038 45.9848,60.8058 45.5928,61.1978 L45.5228,61.2688 C45.1338,61.6598 45.1708,62.2578 45.5628,62.6478 C45.7488,62.8318 45.9978,62.9208 46.2488,62.9208 C46.5268,62.9208 46.8078,62.8128 47.0128,62.6068" id="Fill-57" fill="#999999" mask="url(#mask-4)"></path>
                            <path d="M39.7999,64.9999 L39.6999,64.9999 C39.1479,64.9999 38.7499,65.4479 38.7499,65.9999 C38.7499,66.5519 39.2469,66.9999 39.7999,66.9999 C40.3529,66.9999 40.7999,66.5519 40.7999,65.9999 C40.7999,65.4479 40.3529,64.9999 39.7999,64.9999" id="Fill-58" fill="#999999" mask="url(#mask-4)"></path>
                            <path d="M15.2003,64.9999 L15.0993,64.9999 C14.5473,64.9999 14.0993,65.4479 14.0993,65.9999 C14.0993,66.5519 14.5473,66.9999 15.0993,66.9999 L15.2003,66.9999 C15.7533,66.9999 16.2003,66.5519 16.2003,65.9999 C16.2003,65.4479 15.7533,64.9999 15.2003,64.9999" id="Fill-59" fill="#999999" mask="url(#mask-4)"></path>
                            <path d="M52.7325,56.8866 L52.8035,56.8166 C53.1975,56.4286 53.2015,55.7956 52.8135,55.4026 C52.4255,55.0086 51.7915,55.0046 51.3995,55.3926 L51.3285,55.4626 C50.9345,55.8506 50.9305,56.4836 51.3185,56.8766 C51.5135,57.0746 51.7725,57.1746 52.0305,57.1746 C52.2845,57.1746 52.5385,57.0786 52.7325,56.8866" id="Fill-60" fill="#999999" mask="url(#mask-4)"></path>
                            <path d="M54.4796,52.5751 C54.4796,52.0231 54.0326,51.5751 53.4796,51.5751 C52.9266,51.5751 52.4796,52.0231 52.4796,52.5751 L52.4796,52.6751 C52.4796,53.2271 52.9266,53.6751 53.4796,53.6751 C54.0326,53.6751 54.4796,53.2271 54.4796,52.6751 L54.4796,52.5751 Z" id="Fill-61" fill="#999999" mask="url(#mask-4)"></path>
                            <path d="M23.4005,64.9999 L23.2995,64.9999 C22.7475,64.9999 22.2995,65.4479 22.2995,65.9999 C22.2995,66.5519 22.7475,66.9999 23.2995,66.9999 L23.4005,66.9999 C23.9535,66.9999 24.4005,66.5519 24.4005,65.9999 C24.4005,65.4479 23.9535,64.9999 23.4005,64.9999" id="Fill-62" fill="#999999" mask="url(#mask-4)"></path>
                            <path d="M19.2999,64.9999 L19.1999,64.9999 C18.6479,64.9999 18.2499,65.4479 18.2499,65.9999 C18.2499,66.5519 18.7469,66.9999 19.2999,66.9999 C19.8529,66.9999 20.2999,66.5519 20.2999,65.9999 C20.2999,65.4479 19.8529,64.9999 19.2999,64.9999" id="Fill-63" fill="#999999" mask="url(#mask-4)"></path>
                            <path d="M31.5997,64.9999 L31.4997,64.9999 C30.9477,64.9999 30.5497,65.4479 30.5497,65.9999 C30.5497,66.5519 31.0467,66.9999 31.5997,66.9999 C32.1527,66.9999 32.5997,66.5519 32.5997,65.9999 C32.5997,65.4479 32.1527,64.9999 31.5997,64.9999" id="Fill-64" fill="#999999" mask="url(#mask-4)"></path>
                            <path d="M35.7003,64.9999 L35.5993,64.9999 C35.0473,64.9999 34.5993,65.4479 34.5993,65.9999 C34.5993,66.5519 35.0473,66.9999 35.5993,66.9999 L35.7003,66.9999 C36.2533,66.9999 36.7003,66.5519 36.7003,65.9999 C36.7003,65.4479 36.2533,64.9999 35.7003,64.9999" id="Fill-65" fill="#999999" mask="url(#mask-4)"></path>
                            <path d="M27.5001,64.9999 L27.4001,64.9999 C26.8481,64.9999 26.4501,65.4479 26.4501,65.9999 C26.4501,66.5519 26.9471,66.9999 27.5001,66.9999 C28.0531,66.9999 28.5001,66.5519 28.5001,65.9999 C28.5001,65.4479 28.0531,64.9999 27.5001,64.9999" id="Fill-66" fill="#999999" mask="url(#mask-4)"></path>
                            <path d="M15.5138,37.3124 L17.1518,37.3124 L17.1518,38.8324 C17.6048,38.8814 17.9728,38.9654 18.2588,39.0834 C18.5428,39.2014 18.7448,39.3004 18.8638,39.3784 L18.1698,40.7214 C18.0328,40.6334 17.8188,40.5324 17.5278,40.4184 C17.2388,40.3064 16.9058,40.2494 16.5328,40.2494 C15.8238,40.2494 15.4688,40.4604 15.4688,40.8834 C15.4688,41.0014 15.5158,41.1044 15.6098,41.1934 C15.7028,41.2824 15.8238,41.3634 15.9708,41.4374 C16.1178,41.5114 16.2878,41.5804 16.4808,41.6444 C16.6718,41.7084 16.8658,41.7784 17.0628,41.8574 C17.3288,41.9664 17.5878,42.0814 17.8368,42.2044 C18.0878,42.3274 18.3078,42.4734 18.4938,42.6404 C18.6818,42.8074 18.8318,43.0034 18.9448,43.2304 C19.0578,43.4564 19.1148,43.7224 19.1148,44.0274 C19.1148,44.6374 18.9428,45.1264 18.5978,45.4954 C18.2528,45.8644 17.7718,46.1134 17.1518,46.2404 L17.1518,47.9674 L15.5138,47.9674 L15.5138,46.2994 C15.0328,46.2404 14.6258,46.1454 14.2958,46.0124 C13.9668,45.8784 13.7128,45.7534 13.5348,45.6354 L14.1998,44.2484 C14.2698,44.2974 14.3658,44.3564 14.4878,44.4254 C14.6108,44.4944 14.7528,44.5634 14.9148,44.6324 C15.0788,44.7004 15.2578,44.7574 15.4538,44.8014 C15.6518,44.8464 15.8638,44.8684 16.0888,44.8684 C16.5328,44.8684 16.8488,44.8094 17.0408,44.6914 C17.2338,44.5724 17.3288,44.4154 17.3288,44.2194 C17.3288,44.0814 17.2718,43.9654 17.1588,43.8724 C17.0458,43.7784 16.8958,43.6924 16.7078,43.6134 C16.5228,43.5354 16.3138,43.4564 16.0808,43.3774 C15.8508,43.2994 15.6168,43.2054 15.3798,43.0974 C14.8988,42.8714 14.4968,42.6014 14.1778,42.2854 C13.8588,41.9714 13.6998,41.5384 13.6998,40.9864 C13.6998,40.4464 13.8568,39.9934 14.1708,39.6294 C14.4858,39.2654 14.9338,39.0204 15.5138,38.8924 L15.5138,37.3124 Z" id="Fill-67" fill="#333333" mask="url(#mask-4)"></path>
                        </g>
                    </g>
                </g>
            </g>
        </g>
    </g>
</svg>