<svg xmlns="http://www.w3.org/2000/svg" xmlns:xlink="http://www.w3.org/1999/xlink" width="261" height="39" viewBox="0 0 261 39">
    <defs>
        <path id="a" d="M.157.377h16.71V17.63H.158z"/>
        <path id="c" d="M0 .03h17.252v16.71H0z"/>
        <path id="e" d="M0 38.792h260.393V0H0z"/>
    </defs>
    <g fill="none" fill-rule="evenodd">
        <path fill="#FFF" d="M19.478 16.706l.02.016c.082.08.17.153.265.216.047.031.096.053.145.079.059.032.115.068.177.093.061.026.125.04.188.059.054.016.106.036.161.047a1.877 1.877 0 0 0 .732 0c.056-.01.107-.031.16-.047.064-.02.128-.033.189-.059.062-.025.119-.06.177-.093.049-.026.1-.048.146-.079.095-.063.182-.136.264-.216l.02-.016 6.486-6.486a1.87 1.87 0 1 0-2.644-2.644l-3.294 3.293v-9a1.87 1.87 0 1 0-3.74 0v9l-3.293-3.293a1.87 1.87 0 0 0-2.645 2.645l6.486 6.485z"/>
        <g transform="translate(12.288 21.161)">
            <mask id="b" fill="#fff">
                <use xlink:href="#a"/>
            </mask>
            <path fill="#FFF" d="M9.835.924L9.814.908A1.871 1.871 0 0 0 9.55.692C9.504.662 9.453.64 9.405.613 9.345.581 9.29.546 9.227.52 9.167.495 9.105.48 9.044.463 8.99.446 8.936.425 8.878.413a1.903 1.903 0 0 0-.34-.033C8.53.379 8.522.377 8.513.377c-.01 0-.018.002-.026.003a1.914 1.914 0 0 0-.34.034c-.058.01-.111.032-.166.049-.061.018-.124.032-.183.057-.063.026-.12.06-.178.094-.048.026-.099.047-.145.078a1.907 1.907 0 0 0-.264.216l-.02.016L.704 7.41a1.87 1.87 0 1 0 2.644 2.645L6.643 6.76v9a1.87 1.87 0 1 0 3.74 0v-9l3.292 3.294c.366.365.845.547 1.323.547s.957-.182 1.323-.547a1.87 1.87 0 0 0 0-2.645L9.835.924z" mask="url(#b)"/>
        </g>
        <g transform="translate(0 11.01)">
            <mask id="d" fill="#fff">
                <use xlink:href="#c"/>
            </mask>
            <path fill="#FFF" d="M16.723 9.686c.079-.08.152-.169.215-.263.033-.049.055-.102.082-.152.03-.056.065-.11.09-.17.026-.064.042-.13.06-.196.016-.052.036-.1.046-.153a1.86 1.86 0 0 0 0-.733c-.01-.054-.03-.103-.046-.156-.019-.065-.034-.13-.06-.193-.025-.062-.06-.118-.092-.176-.027-.049-.048-.1-.08-.146a1.893 1.893 0 0 0-.233-.285L10.22.577a1.87 1.87 0 0 0-2.644 2.644l3.293 3.294h-9a1.87 1.87 0 0 0 0 3.74h9l-3.293 3.293a1.87 1.87 0 0 0 2.644 2.645l6.486-6.485c.006-.007.01-.015.017-.022" mask="url(#d)"/>
        </g>
        <path fill="#FFF" d="M44.841 20.434c.033-.049.055-.101.083-.152.03-.057.064-.11.09-.17.025-.064.04-.13.06-.197.015-.05.035-.1.046-.152a1.88 1.88 0 0 0 0-.733c-.012-.054-.031-.103-.046-.156-.02-.065-.035-.13-.06-.193-.026-.062-.062-.118-.093-.176-.027-.05-.048-.1-.08-.146a1.896 1.896 0 0 0-.233-.286l-6.485-6.485a1.87 1.87 0 0 0-2.644 2.645l3.293 3.293h-9a1.87 1.87 0 1 0 0 3.74h9L35.48 24.56a1.87 1.87 0 1 0 2.644 2.644l6.486-6.486c.006-.006.01-.014.017-.021.079-.081.152-.169.215-.263M60.618 11.215v6.34h.946c.765 0 1.35-.25 1.754-.751.405-.5.61-1.215.62-2.146v-.502c0-.965-.2-1.696-.6-2.194-.4-.498-.985-.747-1.754-.747h-.966zm-1.956 7.91V9.63h2.922c.834 0 1.58.189 2.24.564.658.376 1.172.911 1.542 1.605.37.694.554 1.481.554 2.364v.437c0 .882-.182 1.667-.544 2.354a3.897 3.897 0 0 1-1.536 1.598c-.661.378-1.407.57-2.237.574h-2.941z"/>
        <mask id="f" fill="#fff">
            <use xlink:href="#e"/>
        </mask>
        <path fill="#FFF" d="M67.466 19.125h1.956V9.63h-1.956zM73.192 14.065h1.578c.491 0 .871-.125 1.141-.375s.405-.594.405-1.034c0-.448-.128-.8-.382-1.056-.254-.257-.645-.385-1.17-.385h-1.572v2.85zm1.558 1.585h-1.558v3.476h-1.957V9.63h3.529c1.121 0 1.986.25 2.595.75.608.5.913 1.207.913 2.12 0 .648-.14 1.188-.42 1.62-.281.433-.706.778-1.276 1.034l2.055 3.88v.092h-2.1l-1.78-3.476zM85.472 15.01h-3.756v2.544h4.408v1.572H79.76V9.63h6.352v1.586h-4.395v2.262h3.756zM94.726 15.963c-.074 1.021-.45 1.826-1.132 2.413-.68.587-1.577.88-2.69.88-1.217 0-2.174-.41-2.873-1.23-.697-.819-1.046-1.943-1.046-3.374v-.58c0-.913.16-1.718.483-2.413.321-.696.78-1.23 1.38-1.602.596-.371 1.29-.557 2.083-.557 1.095 0 1.977.293 2.647.88.67.587 1.057 1.411 1.16 2.472h-1.956c-.048-.613-.218-1.058-.511-1.333-.294-.277-.74-.415-1.34-.415-.653 0-1.14.234-1.465.701-.323.468-.49 1.193-.499 2.175v.718c0 1.026.156 1.776.467 2.25.31.473.8.71 1.47.71.605 0 1.056-.138 1.353-.414.298-.276.469-.703.513-1.281h1.956zM103.465 15.963c-.074 1.021-.451 1.826-1.132 2.413-.68.587-1.577.88-2.69.88-1.217 0-2.175-.41-2.873-1.23-.697-.819-1.046-1.943-1.046-3.374v-.58c0-.913.16-1.718.483-2.413.321-.696.78-1.23 1.379-1.602.597-.371 1.292-.557 2.084-.557 1.095 0 1.977.293 2.647.88.67.587 1.057 1.411 1.16 2.472h-1.956c-.048-.613-.218-1.058-.512-1.333-.293-.277-.74-.415-1.34-.415-.652 0-1.14.234-1.464.701-.324.468-.49 1.193-.499 2.175v.718c0 1.026.156 1.776.467 2.25.31.473.8.71 1.47.71.605 0 1.056-.138 1.353-.414.298-.276.469-.703.512-1.281h1.957zM104.874 19.125h1.956V9.63h-1.956zM112.778 7.087h2.054l-1.806 2.021h-1.533l1.285-2.021zm1.682 7.076c0-.995-.178-1.752-.535-2.27-.356-.517-.865-.776-1.526-.776-.656 0-1.163.256-1.519.767-.357.51-.537 1.26-.541 2.246v.464c0 .969.178 1.72.535 2.256.356.534.869.802 1.538.802.657 0 1.161-.258 1.513-.773.353-.516.53-1.266.535-2.253v-.463zm1.983.43c0 .935-.165 1.754-.496 2.459-.33.704-.803 1.248-1.419 1.63-.615.383-1.32.574-2.116.574-.787 0-1.489-.189-2.106-.567-.617-.378-1.095-.919-1.435-1.62-.339-.703-.511-1.51-.515-2.424v-.469c0-.935.169-1.758.506-2.469.336-.71.812-1.256 1.428-1.636.615-.38 1.318-.571 2.11-.571.79 0 1.494.19 2.11.57.615.381 1.09.926 1.427 1.637.337.711.506 1.532.506 2.462v.425zM125.586 19.126h-1.956l-3.809-6.248v6.248h-1.956V9.63h1.956l3.815 6.26V9.63h1.95zM138.134 17.926c-.353.422-.85.749-1.494.981-.643.232-1.356.349-2.139.349-.822 0-1.543-.18-2.162-.538-.62-.359-1.098-.879-1.434-1.562-.337-.682-.51-1.484-.52-2.406v-.646c0-.948.16-1.768.48-2.462.32-.694.78-1.224 1.383-1.591.602-.368 1.308-.55 2.116-.55 1.126 0 2.006.267 2.641.804.635.537 1.011 1.319 1.129 2.345h-1.905c-.087-.544-.279-.941-.577-1.194-.298-.252-.707-.378-1.23-.378-.665 0-1.171.25-1.519.75-.348.5-.524 1.244-.528 2.23v.607c0 .996.189 1.748.567 2.256.378.509.933.764 1.663.764.735 0 1.259-.157 1.572-.47v-1.637h-1.78v-1.441h3.737v3.789zM145.431 15.01h-3.756v2.544h4.408v1.572h-6.365V9.63h6.352v1.586h-4.395v2.262h3.756zM154.953 19.126h-1.957l-3.808-6.248v6.248h-1.957V9.63h1.957l3.815 6.26V9.63h1.95zM162.374 15.01h-3.756v2.544h4.409v1.572h-6.365V9.63h6.351v1.586h-4.395v2.262h3.756zM166.13 14.065h1.579c.491 0 .871-.125 1.14-.375.27-.25.405-.594.405-1.034 0-.448-.127-.8-.381-1.056-.254-.257-.645-.385-1.17-.385h-1.572v2.85zm1.559 1.585h-1.558v3.476h-1.957V9.63h3.528c1.122 0 1.987.25 2.596.75.608.5.913 1.207.913 2.12 0 .648-.14 1.188-.42 1.62-.281.433-.706.778-1.276 1.034l2.055 3.88v.092h-2.1l-1.781-3.476zM175.156 15.585h2.374l-1.193-3.555-1.18 3.555zm2.902 1.584h-3.43l-.652 1.957h-2.08l3.534-9.496h1.813l3.555 9.496h-2.08l-.66-1.957zM183.641 17.554h4.154v1.571h-6.11V9.63h1.956zM194.2 11.215v6.34h.945c.765 0 1.35-.25 1.755-.751.404-.5.61-1.215.619-2.146v-.502c0-.965-.2-1.696-.6-2.194-.4-.498-.985-.747-1.754-.747h-.966zm-1.957 7.91V9.63h2.922c.834 0 1.581.189 2.24.564.658.376 1.173.911 1.542 1.605.37.694.554 1.481.554 2.364v.437c0 .882-.181 1.667-.544 2.354a3.897 3.897 0 0 1-1.536 1.598c-.66.378-1.407.57-2.237.574h-2.941zM206.636 15.01h-3.756v2.544h4.408v1.572h-6.365V9.63h6.352v1.586h-4.395v2.262h3.756zM213.718 14.065h1.579c.491 0 .871-.125 1.14-.375.27-.25.405-.594.405-1.034 0-.448-.127-.8-.381-1.056-.255-.257-.645-.385-1.17-.385h-1.573v2.85zm1.559 1.585h-1.559v3.476h-1.956V9.63h3.528c1.122 0 1.987.25 2.596.75.608.5.913 1.207.913 2.12 0 .648-.14 1.188-.42 1.62-.281.433-.707.778-1.276 1.034l2.055 3.88v.092h-2.1l-1.781-3.476zM225.999 15.01h-3.757v2.544h4.409v1.572h-6.365V9.63h6.351v1.586h-4.395v2.262H226zM235.52 19.126h-1.956l-3.809-6.248v6.248h-1.956V9.63h1.956l3.815 6.26V9.63h1.95zM244.187 11.215h-2.908v7.91h-1.957v-7.91h-2.87V9.63h7.735zM246.978 15.585h2.374l-1.193-3.555-1.18 3.555zm2.902 1.584h-3.43l-.652 1.957h-2.08l3.535-9.496h1.812l3.555 9.496h-2.08l-.66-1.957zM258.43 16.634c0-.369-.13-.653-.39-.85-.262-.198-.732-.407-1.41-.627-.678-.22-1.215-.435-1.61-.648-1.079-.583-1.618-1.367-1.618-2.355 0-.513.145-.97.434-1.373.289-.402.704-.716 1.246-.942.54-.226 1.148-.339 1.822-.339.678 0 1.283.123 1.813.368.53.246.943.593 1.236 1.04.294.449.44.957.44 1.527h-1.956c0-.435-.137-.773-.411-1.015-.274-.24-.659-.362-1.154-.362-.479 0-.85.101-1.116.304a.957.957 0 0 0-.398.799c0 .308.156.567.467.776.31.209.769.404 1.373.587 1.113.335 1.924.75 2.432 1.245.509.496.763 1.114.763 1.853 0 .821-.31 1.466-.932 1.933-.622.467-1.46.701-2.511.701-.73 0-1.396-.134-1.996-.401-.6-.267-1.057-.633-1.373-1.099-.315-.465-.472-1.004-.472-1.617h1.962c0 1.048.627 1.572 1.879 1.572.465 0 .828-.095 1.09-.284.26-.19.39-.453.39-.793M59.99 23.904l2.483 6.198 2.483-6.198h1.3V31.5h-1.002v-2.958l.093-3.193-2.493 6.151h-.767l-2.489-6.136.1 3.178V31.5h-1.002v-7.596zM69.209 31.5h.999v-5.645h-.999V31.5zm-.08-7.143c0-.156.048-.288.147-.396.1-.107.246-.162.44-.162.195 0 .343.055.443.162.1.108.151.24.151.396 0 .157-.05.288-.15.392-.101.104-.249.156-.444.156-.194 0-.34-.052-.44-.156a.547.547 0 0 1-.148-.392zM73.88 25.855l.03.71c.432-.543.995-.814 1.691-.814 1.193 0 1.795.672 1.805 2.019v3.73h-.965v-3.736c-.003-.406-.097-.707-.28-.902-.182-.195-.466-.292-.852-.292-.313 0-.588.083-.825.25a1.694 1.694 0 0 0-.553.657V31.5h-.965v-5.645h.913zM80.198 31.5h.998v-5.645h-.998V31.5zm-.081-7.143c0-.156.05-.288.148-.396.1-.107.246-.162.44-.162s.342.055.443.162c.1.108.15.24.15.396 0 .157-.05.288-.15.392-.1.104-.249.156-.443.156s-.34-.052-.44-.156a.547.547 0 0 1-.148-.392zM87.242 30.003a.711.711 0 0 0-.295-.608c-.196-.144-.54-.27-1.028-.373-.489-.104-.876-.23-1.163-.376-.287-.146-.5-.32-.637-.522a1.246 1.246 0 0 1-.206-.72c0-.462.196-.853.587-1.174.391-.32.891-.48 1.5-.48.64 0 1.159.166 1.557.496.398.331.598.754.598 1.268h-.97c0-.264-.113-.492-.337-.683-.225-.191-.507-.288-.848-.288-.352 0-.626.077-.824.23a.723.723 0 0 0-.298.6c0 .233.092.41.277.527.184.118.517.232.999.339.482.108.872.237 1.17.386.3.15.522.33.666.54.144.21.217.467.217.77 0 .504-.202.908-.605 1.213-.404.305-.927.456-1.571.456-.452 0-.852-.08-1.2-.24a1.95 1.95 0 0 1-.816-.67 1.615 1.615 0 0 1-.295-.931h.965a1 1 0 0 0 .389.769c.242.19.56.284.957.284.365 0 .658-.073.88-.221.22-.148.33-.345.33-.592M92.024 24.488v1.367h1.054v.746h-1.054v3.506c0 .226.047.395.141.509.094.113.254.17.48.17.111 0 .264-.022.459-.063v.777c-.254.07-.5.104-.74.104-.432 0-.757-.13-.976-.391-.22-.26-.33-.631-.33-1.111V26.6h-1.027v-.746h1.028v-1.367h.965zM97.677 26.544c-.39 0-.716.142-.98.425-.265.284-.428.68-.49 1.192h2.827v-.073c-.028-.49-.16-.87-.397-1.14-.236-.27-.556-.404-.96-.404m.12 5.06c-.765 0-1.387-.25-1.867-.753s-.72-1.175-.72-2.017v-.177c0-.56.107-1.06.32-1.5a2.51 2.51 0 0 1 .898-1.033c.384-.249.8-.373 1.25-.373.733 0 1.303.242 1.71.725.408.483.611 1.176.611 2.076v.402h-3.824c.013.557.176 1.007.488 1.349.31.343.707.513 1.186.513.341 0 .63-.069.866-.208a2.16 2.16 0 0 0 .621-.553l.59.46c-.473.726-1.182 1.09-2.128 1.09M105.094 26.72a2.927 2.927 0 0 0-.475-.035c-.633 0-1.062.27-1.288.808V31.5h-.965v-5.645h.938l.017.652c.316-.504.765-.756 1.345-.756.188 0 .331.024.428.072v.898zM107.317 31.5h.999v-5.645h-.999V31.5zm-.08-7.143c0-.156.049-.288.148-.396.1-.107.246-.162.44-.162s.342.055.442.162c.1.108.151.24.151.396 0 .157-.05.288-.15.392-.101.104-.249.156-.443.156s-.34-.052-.44-.156a.545.545 0 0 1-.148-.392zM111.79 28.74c0 .626.145 1.129.435 1.508.29.379.679.569 1.166.569.49 0 .88-.193 1.169-.577.288-.384.433-.922.433-1.615 0-.619-.147-1.12-.441-1.505a1.402 1.402 0 0 0-1.171-.576c-.477 0-.861.19-1.154.568-.292.38-.438.922-.438 1.628zm-.97-.115c0-.553.108-1.05.325-1.492.217-.441.52-.783.908-1.023.388-.24.83-.36 1.328-.36.768 0 1.39.266 1.865.799.474.532.712 1.24.712 2.123v.068c0 .55-.105 1.043-.316 1.48-.21.436-.511.776-.903 1.02-.39.243-.84.364-1.348.364-.765 0-1.385-.266-1.86-.798-.475-.532-.712-1.236-.712-2.113v-.068zM123.044 28.74c0 .64.133 1.141.397 1.503.264.362.629.542 1.095.542.613 0 1.06-.274 1.341-.824v-2.593c-.289-.532-.732-.798-1.33-.798-.473 0-.842.182-1.106.548-.264.364-.397.906-.397 1.622zm-.965-.11c0-.866.206-1.562.616-2.089.41-.527.948-.79 1.612-.79.66 0 1.184.226 1.57.678v-2.943h.965V31.5h-.887l-.047-.605c-.385.473-.923.71-1.612.71-.653 0-1.187-.269-1.599-.804-.412-.536-.618-1.235-.618-2.097v-.074zM131.812 26.544c-.39 0-.716.142-.98.425-.265.284-.429.68-.491 1.192h2.828v-.073c-.028-.49-.16-.87-.397-1.14-.236-.27-.556-.404-.96-.404m.12 5.06c-.765 0-1.387-.25-1.867-.753s-.72-1.175-.72-2.017v-.177c0-.56.106-1.06.32-1.5a2.51 2.51 0 0 1 .898-1.033c.384-.249.8-.373 1.25-.373.733 0 1.303.242 1.71.725.408.483.611 1.176.611 2.076v.402h-3.825c.014.557.177 1.007.489 1.349.31.343.707.513 1.186.513.341 0 .63-.069.866-.208a2.16 2.16 0 0 0 .621-.553l.59.46c-.473.726-1.182 1.09-2.128 1.09M146.385 31.5h-1.007v-3.511h-3.83v3.51h-1.001v-7.596h1.002v3.267h3.83v-3.267h1.006zM151.147 30.764c.302 0 .59-.078.86-.234a1.42 1.42 0 0 0 .59-.61v-1.16h-.756c-1.183 0-1.774.347-1.774 1.039 0 .303.1.54.302.71.202.17.461.255.778.255zm1.601.736c-.055-.111-.1-.31-.135-.595-.45.467-.984.7-1.607.7-.557 0-1.013-.158-1.37-.473a1.525 1.525 0 0 1-.534-1.197c0-.587.223-1.044.67-1.37.447-.325 1.075-.487 1.886-.487h.94v-.444c0-.337-.102-.606-.304-.806-.201-.2-.499-.3-.891-.3-.345 0-.634.087-.867.261-.233.174-.35.384-.35.63h-.97c0-.28.1-.553.3-.815.2-.263.472-.47.814-.624.343-.153.72-.23 1.13-.23.65 0 1.16.163 1.528.488.369.326.56.774.574 1.344v2.598c0 .519.066.93.199 1.237v.083h-1.013zM158.59 30.816c.344 0 .645-.104.902-.313.257-.208.4-.47.428-.782h.913a1.748 1.748 0 0 1-.334.923c-.205.293-.48.526-.822.7a2.368 2.368 0 0 1-1.087.26c-.77 0-1.38-.256-1.834-.77-.454-.512-.681-1.214-.681-2.104v-.162c0-.55.1-1.038.302-1.466.202-.428.492-.76.869-.997.378-.236.824-.354 1.338-.354.633 0 1.16.19 1.578.568.42.38.643.872.67 1.477h-.912a1.332 1.332 0 0 0-.415-.9 1.29 1.29 0 0 0-.92-.352c-.491 0-.871.176-1.14.529-.27.353-.405.863-.405 1.531v.183c0 .65.134 1.151.402 1.503.268.351.65.526 1.148.526M163.254 31.5h.998v-5.645h-.998V31.5zm-.08-7.143c0-.156.05-.288.148-.396.099-.107.245-.162.44-.162.194 0 .341.055.442.162.1.108.151.24.151.396a.54.54 0 0 1-.151.392c-.1.104-.248.156-.442.156-.195 0-.341-.052-.44-.156a.547.547 0 0 1-.149-.392zM169.234 26.544c-.39 0-.716.142-.98.425-.265.284-.429.68-.491 1.192h2.828v-.073c-.028-.49-.16-.87-.397-1.14-.237-.27-.557-.404-.96-.404m.12 5.06c-.765 0-1.388-.25-1.867-.753-.48-.503-.72-1.175-.72-2.017v-.177c0-.56.106-1.06.32-1.5a2.51 2.51 0 0 1 .897-1.033c.385-.249.801-.373 1.25-.373.734 0 1.304.242 1.711.725.407.483.61 1.176.61 2.076v.402h-3.824c.014.557.177 1.007.489 1.349.31.343.706.513 1.186.513.341 0 .63-.069.866-.208a2.16 2.16 0 0 0 .62-.553l.59.46c-.472.726-1.182 1.09-2.128 1.09M174.835 25.855l.032.71c.431-.543.994-.814 1.69-.814 1.193 0 1.795.672 1.805 2.019v3.73h-.965v-3.736c-.003-.406-.097-.707-.28-.902-.182-.195-.466-.292-.852-.292-.313 0-.588.083-.824.25a1.694 1.694 0 0 0-.553.657V31.5h-.966v-5.645h.913zM181.798 28.74c0 .64.133 1.141.397 1.503.264.362.629.542 1.095.542.613 0 1.06-.274 1.341-.824v-2.593c-.289-.532-.732-.798-1.33-.798-.473 0-.842.182-1.106.548-.264.364-.397.906-.397 1.622zm-.965-.11c0-.866.206-1.562.616-2.089.41-.527.948-.79 1.612-.79.66 0 1.184.226 1.57.678v-2.943h.965V31.5h-.887l-.047-.605c-.385.473-.923.71-1.611.71-.654 0-1.188-.269-1.6-.804-.412-.536-.618-1.235-.618-2.097v-.074zM190.228 30.764c.302 0 .59-.078.86-.234a1.42 1.42 0 0 0 .59-.61v-1.16h-.756c-1.183 0-1.774.347-1.774 1.039 0 .303.1.54.302.71.202.17.461.255.778.255zm1.601.736c-.055-.111-.1-.31-.136-.595-.448.467-.984.7-1.607.7-.556 0-1.012-.158-1.369-.473a1.525 1.525 0 0 1-.535-1.197c0-.587.224-1.044.67-1.37.448-.325 1.076-.487 1.887-.487h.939v-.444c0-.337-.101-.606-.303-.806-.201-.2-.499-.3-.892-.3-.344 0-.633.087-.866.261-.233.174-.35.384-.35.63h-.97c0-.28.1-.553.3-.815.2-.263.472-.47.814-.624.343-.153.72-.23 1.13-.23.65 0 1.16.163 1.528.488.369.326.56.774.574 1.344v2.598c0 .519.066.93.199 1.237v.083h-1.013zM201.148 30.086l1.315-4.231h1.033l-2.27 6.516c-.35.94-.909 1.409-1.674 1.409l-.183-.016-.36-.068v-.782l.26.02c.328 0 .583-.065.765-.198.183-.132.334-.373.452-.725l.214-.574-2.014-5.582h1.053l1.41 4.231zM213.843 28.145h-3.188V31.5h-1.001v-7.596h4.706v.819h-3.705v2.603h3.188zM216.744 31.5h1v-5.645h-1V31.5zm-.08-7.143c0-.156.049-.288.148-.396.1-.107.246-.162.44-.162s.342.055.443.162c.1.108.15.24.15.396 0 .157-.05.288-.15.392-.101.104-.249.156-.443.156s-.34-.052-.44-.156a.547.547 0 0 1-.148-.392zM221.415 25.855l.031.71c.431-.543.994-.814 1.69-.814 1.194 0 1.795.672 1.806 2.019v3.73h-.966v-3.736c-.003-.406-.096-.707-.279-.902-.182-.195-.467-.292-.853-.292-.313 0-.587.083-.824.25a1.694 1.694 0 0 0-.553.657V31.5h-.965v-5.645h.913zM229.53 30.764c.303 0 .59-.078.861-.234a1.42 1.42 0 0 0 .59-.61v-1.16h-.756c-1.183 0-1.774.347-1.774 1.039 0 .303.1.54.302.71.202.17.461.255.778.255zm1.602.736c-.055-.111-.1-.31-.135-.595-.45.467-.984.7-1.607.7-.557 0-1.013-.158-1.37-.473a1.525 1.525 0 0 1-.534-1.197c0-.587.223-1.044.67-1.37.447-.325 1.075-.487 1.886-.487h.94v-.444c0-.337-.102-.606-.304-.806-.201-.2-.499-.3-.891-.3-.345 0-.634.087-.867.261-.233.174-.35.384-.35.63h-.97c0-.28.1-.553.3-.815.2-.263.472-.47.814-.624.343-.153.72-.23 1.13-.23.65 0 1.16.163 1.528.488.369.326.56.774.574 1.344v2.598c0 .519.066.93.199 1.237v.083h-1.013zM235.622 25.855l.032.71c.431-.543.994-.814 1.69-.814 1.193 0 1.795.672 1.805 2.019v3.73h-.965v-3.736c-.003-.406-.097-.707-.28-.902-.182-.195-.466-.292-.852-.292-.313 0-.588.083-.824.25a1.694 1.694 0 0 0-.553.657V31.5h-.966v-5.645h.913zM242.763 30.712h3.303v.788h-4.482v-.71l3.114-4.137h-3.067v-.798h4.278v.684zM250.284 30.764c.302 0 .59-.078.86-.234a1.42 1.42 0 0 0 .59-.61v-1.16h-.756c-1.183 0-1.774.347-1.774 1.039 0 .303.1.54.303.71.201.17.46.255.777.255zm1.602.736c-.056-.111-.101-.31-.136-.595-.449.467-.984.7-1.607.7-.556 0-1.013-.158-1.37-.473a1.525 1.525 0 0 1-.534-1.197c0-.587.223-1.044.67-1.37.447-.325 1.076-.487 1.886-.487h.94v-.444c0-.337-.101-.606-.303-.806-.202-.2-.5-.3-.892-.3-.345 0-.634.087-.867.261-.232.174-.349.384-.349.63h-.97c0-.28.1-.553.3-.815.2-.263.471-.47.814-.624.342-.153.719-.23 1.13-.23.65 0 1.159.163 1.528.488.368.326.56.774.573 1.344v2.598c0 .519.067.93.2 1.237v.083h-1.013zM258.75 30.003a.711.711 0 0 0-.295-.608c-.196-.144-.54-.27-1.028-.373-.488-.104-.876-.23-1.163-.376-.287-.146-.5-.32-.637-.522a1.246 1.246 0 0 1-.206-.72c0-.462.196-.853.587-1.174.391-.32.892-.48 1.5-.48.64 0 1.159.166 1.557.496.398.331.598.754.598 1.268h-.97c0-.264-.113-.492-.337-.683-.225-.191-.507-.288-.848-.288-.352 0-.626.077-.824.23a.723.723 0 0 0-.298.6c0 .233.093.41.277.527.184.118.517.232.999.339.482.108.872.237 1.171.386.3.15.52.33.665.54.144.21.217.467.217.77 0 .504-.202.908-.605 1.213-.404.305-.927.456-1.571.456-.452 0-.852-.08-1.2-.24a1.95 1.95 0 0 1-.816-.67 1.615 1.615 0 0 1-.295-.931h.965a1 1 0 0 0 .389.769c.242.19.56.284.957.284.365 0 .658-.073.88-.221.22-.148.33-.345.33-.592" mask="url(#f)"/>
    </g>
</svg>
