<svg xmlns="http://www.w3.org/2000/svg" width="295" height="42" viewBox="0 0 295 42">
    <path fill="#FFF" fill-rule="evenodd" d="M19.184 28.918l5.862 4.603-4.802 7.199-.053.076c-.272.378-.636.67-1.05.856l-.083.036c-.309.126-.642.193-.985.193h-7.537l8.648-12.963zm144.859-15.47c6.268 0 8.037 6.884 8.037 12.806 0 9.768-3.46 13.729-8.383 13.729-5.884 0-8.191-6.23-8.191-13.344 0-7.077 2.807-13.191 8.537-13.191zm125.233.077c1.692 0 3.307.461 4.076.923l-.807 4.346c-.73-.462-1.846-.885-3.307-.885-2.154 0-3.192 1.308-3.192 2.692 0 1.538.769 2.346 3.576 4.038 3.423 2.077 4.692 4.692 4.692 7.422 0 4.73-3.5 7.845-8.576 7.845-2.076 0-4.115-.538-4.96-1.038l.73-4.346c1.038.577 2.807 1 4.268 1 2.385 0 3.538-1.23 3.538-2.923 0-1.884-1.153-2.807-3.345-4.23-3.538-2.153-4.884-4.884-4.884-7.23 0-4.153 2.768-7.614 8.19-7.614zm-161.675 0c1.693 0 3.308.461 4.076.923l-.807 4.346c-.73-.462-1.846-.885-3.307-.885-2.154 0-3.192 1.308-3.192 2.692 0 1.538.77 2.346 3.576 4.038 3.423 2.077 4.692 4.692 4.692 7.422 0 4.73-3.5 7.845-8.576 7.845-2.076 0-4.115-.538-4.96-1.038l.73-4.346c1.038.577 2.807 1 4.269 1 2.384 0 3.538-1.23 3.538-2.923 0-1.884-1.154-2.807-3.346-4.23-3.538-2.153-4.884-4.884-4.884-7.23 0-4.153 2.769-7.614 8.191-7.614zm24.036 0c1.769 0 3 .346 3.5.692l-.847 4.23c-.577-.269-1.23-.5-2.345-.5-2.846 0-5.423 2.462-5.423 8.884 0 6.191 2.346 8.614 5.423 8.614.846 0 1.807-.192 2.422-.384l.5 4.23c-.73.346-2.154.615-3.922.615-6.615 0-9.768-5.46-9.768-12.806 0-9.768 5.422-13.575 10.46-13.575zm-39.115.23l5.038 25.92h-4.884l-1.115-5.922h-4.653l-1.154 5.923h-4.884l5.615-25.92h6.037zm67.846-.115c2.768 0 5.23.385 6.922 1.923 1.576 1.423 2.038 3.154 2.038 5.384 0 2.769-1.346 5.269-4 6.5v.076c1.77.692 2.654 2.346 3.154 5.115l.135.764c.484 2.663 1.098 5.396 1.519 6.273h-5.27l-.033-.085c-.315-.832-.864-3.362-1.235-6.106l-.04-.267c-.461-2.971-1.254-3.86-2.85-3.886h-.802v10.344h-5.038V14.14c1.577-.307 3.577-.5 5.5-.5zm-113.332.116v4.384h-6.23v5.96h5.922v4.192h-5.922v7h6.691v4.384H55.768v-25.92h11.268zm35.107 0v4.653h-4.615v21.266h-5.037V18.41h-4.577v-4.653h14.229zm95.737-.116c2.77 0 5.23.385 6.922 1.923 1.577 1.423 2.039 3.154 2.039 5.384 0 2.769-1.346 5.269-4 6.5v.076c1.77.692 2.654 2.346 3.153 5.115l.108.61c.489 2.71 1.117 5.533 1.546 6.427h-5.268l-.034-.085c-.315-.832-.865-3.362-1.236-6.106l-.04-.267c-.46-2.971-1.253-3.86-2.85-3.886h-.801v10.344h-5.038V14.14c1.577-.307 3.577-.5 5.5-.5zm17.11.116v25.92h-5.038v-25.92h5.038zm50.17 0v4.653h-4.615v21.266h-5.038V18.41h-4.576v-4.653h14.229zm-35.108 0v4.384h-6.23v5.96h5.923v4.192h-5.923v7h6.692v4.384h-11.73v-25.92h11.268zM43.674 13.64c2.769 0 5.23.385 6.922 1.923 1.577 1.423 2.038 3.154 2.038 5.384 0 2.769-1.346 5.269-4 6.5v.076c1.77.692 2.654 2.346 3.154 5.115l.136.764c.484 2.663 1.097 5.396 1.518 6.273h-5.27l-.033-.085c-.315-.832-.864-3.362-1.235-6.106-.455-3.185-1.246-4.127-2.89-4.153h-.802v10.344h-5.037V14.14c1.576-.307 3.576-.5 5.499-.5zm194.386.116l3.999 10.152.31.808c.768 2.011 1.82 4.817 2.459 6.768h.077l-.057-.955c-.169-2.76-.443-6.795-.443-11.043v-5.73h4.422v25.92h-4.614l-3.962-9.845-.173-.453c-.829-2.171-1.903-5.165-2.442-7.354h-.077l.097 2.218c.103 2.471.21 5.694.21 9.588v5.845h-4.421V13.756h4.615zm-163.017 0l4 10.152.478 1.25c.748 1.965 1.696 4.514 2.29 6.326h.077l-.067-1.125c-.17-2.755-.433-6.711-.433-10.873v-5.73h4.422v25.92h-4.614l-3.96-9.845-.174-.453c-.83-2.171-1.904-5.165-2.442-7.354h-.077l.104 2.395c.098 2.388.198 5.456.203 9.134v6.122h-4.422V13.756h4.615zm203.45 0v4.384h-6.23v5.96h5.922v4.192h-5.923v7h6.692v4.384h-11.73v-25.92h11.268zM5.724 28.918l5.862 4.603-1.879 2.827-.053.077c-.472.656-1.22 1.056-2.028 1.084l-.09.001H0l5.725-8.592zM163.85 17.832c-2 0-3.115 3.307-3.115 8.884l.001.35c.044 5.652 1.155 8.533 3.152 8.533 2.115 0 2.923-3.845 2.923-9.114l-.002-.407c-.041-4.374-.759-8.246-2.96-8.246zM18.073 11.74c.312 0 .616.056.9.16l.085.033c.445.181.837.484 1.126.882l.06.087 9.28 13.91-4.478 6.71-14.479-21.782h7.506zM7.55 16.14l.094.001c.062.002.123.007.184.013l.092.012c.71.101 1.352.492 1.768 1.087l.033.048 6.343 9.51-4.476 6.71L.044 16.14H7.55zm101.857 2.385h-.115l-.18 1.179c-.233 1.544-.505 3.386-.715 4.584l-.989 5.544h3.691l-.846-5.422c-.27-1.578-.615-4.154-.846-5.885zm-65.002-.96c-.424 0-.924.038-1.193.153v7.73h.884c2.192 0 3.462-1.77 3.462-4.039 0-2.191-.885-3.768-3.153-3.845zm136.693 0c-.423 0-.923.038-1.192.153v7.73h.884c2.192 0 3.461-1.77 3.461-4.039 0-2.191-.884-3.768-3.153-3.845zm17.513 0c-.423 0-.923.038-1.192.153v7.73h.884c2.192 0 3.461-1.77 3.461-4.039 0-2.191-.884-3.768-3.153-3.845zm-67.335-15.9c.534 0 1.007.129 1.42.385.412.257.731.626.956 1.107.225.482.34 1.042.342 1.68v.365c0 .642-.111 1.205-.333 1.69-.222.484-.54.856-.952 1.116-.412.26-.887.389-1.424.389-.53 0-1.004-.13-1.42-.39-.415-.259-.736-.629-.962-1.108-.226-.48-.342-1.034-.344-1.66v-.37c0-.639.113-1.203.34-1.691.226-.49.545-.864.958-1.123.412-.26.885-.39 1.42-.39zm-24.614 0c.723 0 1.305.197 1.746.588.44.391.697.945.77 1.662h-1.135c-.054-.47-.19-.81-.411-1.019-.22-.208-.544-.312-.97-.312-.495 0-.875.18-1.14.542-.266.362-.402.893-.408 1.592v.581c0 .709.127 1.25.38 1.621.254.373.625.559 1.114.559.447 0 .783-.1 1.008-.302.225-.2.367-.535.427-1.003h1.134c-.066.7-.324 1.244-.774 1.636-.45.391-1.048.587-1.795.587-.522 0-.981-.124-1.38-.371-.396-.248-.703-.6-.92-1.055-.215-.456-.328-.986-.336-1.589V4.77c0-.618.109-1.162.328-1.633.219-.47.533-.834.942-1.089.41-.255.883-.382 1.42-.382zm-14.012 0c.723 0 1.305.197 1.746.588.44.391.697.945.77 1.662H94.03c-.054-.47-.191-.81-.412-1.019-.22-.208-.543-.312-.969-.312-.495 0-.875.18-1.14.542-.266.362-.402.893-.408 1.592v.581c0 .709.127 1.25.38 1.621.254.373.625.559 1.114.559.447 0 .783-.1 1.008-.302.225-.2.367-.535.427-1.003h1.134c-.066.7-.324 1.244-.774 1.636-.45.391-1.048.587-1.795.587-.522 0-.981-.124-1.38-.371-.397-.248-.703-.6-.92-1.055-.215-.456-.328-.986-.336-1.589V4.77c0-.618.109-1.162.328-1.633.219-.47.533-.834.942-1.089.41-.255.883-.382 1.42-.382zm77.936 0c.729 0 1.307.182 1.737.543.428.361.686.881.773 1.559h-1.115c-.127-.789-.584-1.183-1.373-1.183-.51 0-.897.183-1.163.55-.265.368-.403.906-.412 1.616v.504c0 .707.15 1.256.448 1.647.299.391.713.587 1.244.587.582 0 .996-.132 1.242-.396V5.809h-1.35v-.864h2.484v2.51c-.237.31-.566.543-.986.702-.42.16-.897.239-1.43.239-.55 0-1.035-.124-1.458-.374-.423-.249-.75-.605-.979-1.068-.23-.464-.348-1.004-.358-1.622v-.513c0-.99.237-1.763.712-2.32.473-.556 1.135-.834 1.984-.834zm122.65.09v.919h-3.114V4.48h2.69v.9h-2.69v2.016h3.145v.909h-4.284V1.755h4.252zm-78.857 0v.919h-3.113V4.48h2.69v.9h-2.69v2.016h3.145v.909h-4.284V1.755h4.252zm-133.004 0v.919H78.26V4.48h2.69v.9h-2.69v2.016h3.145v.909h-4.283V1.755h4.252zm195.548 0c.579 0 1.092.13 1.54.388.45.258.796.623 1.042 1.098.246.474.37 1.016.37 1.628v.329c0 .62-.124 1.167-.372 1.638-.247.47-.6.833-1.057 1.088-.458.255-.982.383-1.573.383h-1.885V1.755h1.935zm-24.184 0v5.643h2.974v.909h-4.112V1.755h1.138zm-12.42 0l2.48 6.552h-1.189l-.535-1.526h-2.538l-.53 1.526h-1.184l2.475-6.551h1.021zm-96.045 0l2.929 4.667V1.755h1.13v6.55h-1.14l-2.92-4.647v4.648h-1.138V1.755h1.139zm81.355 0c.756 0 1.339.17 1.75.51.41.339.616.83.616 1.472 0 .439-.105.805-.317 1.101-.211.296-.506.523-.884.682l1.471 2.728v.059h-1.22l-1.313-2.52h-1.269v2.52h-1.138V1.755h2.304zm-106.237 0v6.552h-1.134V1.755h1.134zm77.31 0l2.928 4.667V1.755h1.13v6.55h-1.138l-2.92-4.647v4.648h-1.139V1.755h1.138zm-155.985 0c.58 0 1.093.13 1.541.388.449.258.796.623 1.042 1.098.246.474.369 1.016.369 1.628v.329c0 .62-.124 1.167-.372 1.638-.247.47-.6.833-1.057 1.088-.457.255-.981.383-1.572.383h-1.885V1.755h1.934zm13.24 0v6.552h-1.134V1.755h1.134zm11.695 0c.756 0 1.34.17 1.75.51.411.339.617.83.617 1.472 0 .439-.106.805-.317 1.101-.212.296-.507.523-.885.682l1.472 2.728v.059h-1.22l-1.314-2.52h-1.268v2.52h-1.139V1.755h2.304zm120.965 0v.919h-3.113V4.48h2.69v.9h-2.69v2.016h3.145v.909h-4.284V1.755h4.252zm-55.34.855c-.493 0-.877.193-1.155.579-.277.385-.419.93-.425 1.635v.378c0 .72.14 1.276.42 1.67.281.393.67.589 1.168.589.504 0 .892-.192 1.164-.576.271-.384.407-.945.407-1.683V4.86c0-.726-.137-1.282-.412-1.669-.275-.387-.664-.58-1.168-.58zm145.646.064h-.797v4.724h.743c.596 0 1.055-.187 1.374-.56.32-.374.482-.91.489-1.609v-.364c0-.71-.155-1.254-.464-1.629-.309-.375-.757-.562-1.345-.562zm-236.206 0h-.796v4.724h.742c.597 0 1.055-.187 1.375-.56.32-.374.482-.91.488-1.609v-.364c0-.71-.155-1.254-.464-1.629-.308-.375-.757-.562-1.345-.562zm199.09.472l-.95 2.718h1.899l-.95-2.718zM65.687 2.673h-1.201v2.195h1.17c.384 0 .683-.097.9-.29.215-.193.323-.458.323-.794 0-.351-.1-.622-.299-.815-.2-.191-.497-.29-.893-.296zm159.977 0h-1.202v2.195h1.17c.384 0 .684-.097.9-.29.216-.193.324-.458.324-.794 0-.351-.1-.622-.3-.815-.199-.191-.496-.29-.892-.296zM132.855 0l-1.246 1.363-.877-.002.877-1.361h1.247z"/>
</svg>
