<svg xmlns="http://www.w3.org/2000/svg" width="29" height="30" viewBox="0 0 29 30">
    <g fill="#7AAC39" fill-rule="nonzero">
        <path d="M28.153 8.119L20.51.177A.577.577 0 0 0 20.094 0H8.704A2.314 2.314 0 0 0 6.39 2.311v8.074H1.775c-.954 0-1.73.775-1.73 1.729v8.657c0 .953.776 1.729 1.73 1.729H6.39v5.193A2.312 2.312 0 0 0 8.703 30h17.3a2.311 2.311 0 0 0 2.311-2.306V8.52a.577.577 0 0 0-.16-.4zm-7.916-6.562l6.275 6.52h-6.275v-6.52zM1.775 21.347a.576.576 0 0 1-.576-.576v-8.657c0-.317.258-.576.576-.576h15.579c.317 0 .576.259.576.576v8.657a.576.576 0 0 1-.576.575H1.774zm25.385 6.347c0 .635-.52 1.152-1.158 1.152H8.703a1.157 1.157 0 0 1-1.158-1.153V22.5h9.809c.954 0 1.73-.776 1.73-1.73v-8.656c0-.954-.776-1.73-1.73-1.73H7.545V2.312c0-.638.52-1.157 1.158-1.157h10.38v7.5c0 .318.259.577.577.577h7.5v18.463z"/>
        <path d="M6.942 14.642a1.3 1.3 0 0 0-.713-.485c-.185-.05-.581-.074-1.19-.074H3.433v4.955h1.001V17.17h.652c.453 0 .8-.024 1.038-.07a1.45 1.45 0 0 0 .52-.236c.17-.118.31-.281.42-.488.11-.208.166-.463.166-.768 0-.394-.096-.716-.288-.965zm-.857 1.364a.657.657 0 0 1-.312.244c-.133.051-.397.077-.791.077h-.548v-1.406h.483c.36 0 .6.011.72.034.163.03.297.102.403.22a.64.64 0 0 1 .159.446.666.666 0 0 1-.114.385zM12.04 15.437a2.165 2.165 0 0 0-.473-.803 1.657 1.657 0 0 0-.747-.457c-.217-.063-.531-.094-.944-.094H8.048v4.955H9.93c.37 0 .664-.034.885-.104.295-.095.53-.227.703-.396.23-.223.407-.515.531-.875.101-.296.152-.647.152-1.055 0-.464-.054-.855-.162-1.171zm-.974 2.035c-.067.222-.155.381-.262.478a.923.923 0 0 1-.404.206c-.124.032-.325.047-.605.047h-.747v-3.282h.45c.408 0 .682.016.821.047.187.041.342.119.463.234.122.115.217.275.284.48.068.205.102.499.102.882s-.034.686-.102.908zM16.455 14.921v-.838h-3.398v4.955h1.001v-2.106h2.069v-.838h-2.069v-1.173z"/>
    </g>
</svg>
