<?xml version="1.0" encoding="UTF-8"?>
<svg width="17px" height="15px" viewBox="0 0 17 15" version="1.1" xmlns="http://www.w3.org/2000/svg" xmlns:xlink="http://www.w3.org/1999/xlink">
    <!-- Generator: sketchtool 53.2 (72643) - https://sketchapp.com -->
    <title>98273167-5A75-4BF2-BD3F-E7D7FCDD80BD</title>
    <desc>Created with sketchtool.</desc>
    <g id="Symbols" stroke="none" stroke-width="1" fill="none" fill-rule="evenodd" stroke-linecap="round" stroke-linejoin="round">
        <g id="Options/Plus" transform="translate(-11.000000, -12.000000)" fill="#7AAC39" fill-rule="nonzero" stroke="#7AAC39">
            <g id="+">
                <path d="M19.826087,19.173913 L26.673913,19.173913 C26.8540059,19.173913 27,19.3199071 27,19.5 C27,19.6800929 26.8540059,19.826087 26.673913,19.826087 L19.826087,19.826087 L19.826087,26.673913 C19.826087,26.8540059 19.6800929,27 19.5,27 C19.3199071,27 19.173913,26.8540059 19.173913,26.673913 L19.173913,19.826087 L12.326087,19.826087 C12.1459941,19.826087 12,19.6800929 12,19.5 C12,19.3199071 12.1459941,19.173913 12.326087,19.173913 L19.173913,19.173913 L19.173913,12.326087 C19.173913,12.1459941 19.3199071,12 19.5,12 C19.6800929,12 19.826087,12.1459941 19.826087,12.326087 L19.826087,19.173913 Z" id="Combined-Shape"></path>
            </g>
        </g>
    </g>
</svg>