<?xml version="1.0" encoding="UTF-8"?>
<svg width="20px" height="22px" viewBox="0 0 20 22" version="1.1" xmlns="http://www.w3.org/2000/svg" xmlns:xlink="http://www.w3.org/1999/xlink">
    <title>Print</title>
    <g id="00-Recorte" stroke="none" stroke-width="1" fill="none" fill-rule="evenodd">
        <path d="M14.8445482,0 C15.1311572,0 15.3219409,0.190792145 15.3219409,0.477392672 L15.3219409,5.05975337 L17.8996245,5.05975337 C19.0452147,5.05975337 20,6.01453872 20,7.16012889 L20,14.9876941 C20,16.1811758 19.0452147,17.1350942 17.8996245,17.1350942 L15.3219409,17.1350942 L15.3219409,20.6668022 C15.3219409,20.9534111 15.1311487,21.1441948 14.8445482,21.1441948 L5.15545181,21.1441948 C4.86884282,21.1441948 4.67805914,20.9534027 4.67805914,20.6668022 L4.67805914,17.1350942 L2.10037552,17.1350942 C0.954785556,17.1350942 0,16.1803089 0,14.9876941 L0,7.16012889 C0,6.01453872 0.954785556,5.05975337 2.10037552,5.05975337 L4.67805914,5.05975337 L4.67805914,0.477392672 C4.67805914,0.238696336 4.86885128,0 5.15545181,0 L14.8445482,0 Z M14.3671555,14.3196023 L5.63271762,14.3196023 L5.63271762,20.1904879 L14.3671555,20.1904879 L14.3671555,14.3196023 Z M17.8996245,6.01464444 L2.10092527,6.01464444 C1.48064063,6.01464444 0.955335093,6.53994976 0.955335093,7.16023462 L0.955335093,14.9877998 C0.955335093,15.6559973 1.48064041,16.1812815 2.10092527,16.1812815 L4.67860888,16.1812815 L4.67860888,13.8423154 C4.67860888,13.5557064 4.86940103,13.3649227 5.15600156,13.3649227 L14.8450979,13.3649227 C15.1317069,13.3649227 15.3224906,13.5557148 15.3224906,13.8423154 L15.3224906,16.1812815 L17.8996245,16.1812815 C18.5199093,16.1812815 19.0452147,15.6559762 19.0452147,14.9877998 L19.0452147,7.16023462 C19.0452147,6.53994976 18.5199093,6.01464444 17.8996245,6.01464444 Z M16.0373321,7.06434588 C16.5147248,7.06434588 16.8963133,7.4459344 16.8963133,7.92332707 C16.8963133,8.40071975 16.5147248,8.78230826 16.0373321,8.78230826 C15.5599394,8.78230826 15.1783509,8.40071975 15.1783509,7.92332707 C15.1783509,7.4459344 15.5599394,7.06434588 16.0373321,7.06434588 Z M14.3672824,0.954954498 L5.63284448,0.954954498 L5.63284448,5.05988024 L14.3672824,5.05988024 L14.3672824,0.954954498 Z" id="Print" fill="#7AAC39" fill-rule="nonzero"></path>
    </g>
</svg>