<?xml version="1.0" encoding="UTF-8"?>
<svg width="144px" height="153px" viewBox="0 0 144 153" version="1.1" xmlns="http://www.w3.org/2000/svg" xmlns:xlink="http://www.w3.org/1999/xlink">
    <!-- Generator: sketchtool 56.2 (101010) - https://sketch.com -->
    <title>F90455E2-5400-4323-92A6-7654A65CD7EB</title>
    <desc>Created with sketchtool.</desc>
    <g id="Symbols" stroke="none" stroke-width="1" fill="none" fill-rule="evenodd">
        <g id="Ilustra-/-Error-Sistema" transform="translate(-33.000000, -57.000000)">
            <g id="Error" transform="translate(33.000000, 57.000000)">
                <path d="M136.8846,83.6006571 C136.4256,83.6006571 135.9666,83.4239786 135.6156,83.0706214 C134.91,82.3620857 134.9064,81.2091214 135.6066,80.4951214 C136.3104,79.7829429 137.511,79.7137286 138.2166,80.4222643 C138.9222,81.1308 138.9888,82.2200143 138.2886,82.9340143 L138.1626,83.0633357 C137.8098,83.4203357 137.3472,83.6006571 136.8846,83.6006571 M132.9822,89.4255857 C132.9624,89.4255857 132.9462,89.4255857 132.9282,89.4255857 C131.9346,89.3964429 131.1516,88.5567643 131.1804,87.5513357 C131.1804,86.5459071 131.9868,85.6661571 132.9822,85.6661571 C133.9758,85.6661571 134.7822,86.4165857 134.7822,87.4220143 L134.7804,87.6569786 C134.7498,88.6460143 133.9506,89.4255857 132.9822,89.4255857 M137.628,94.9518 C137.1384,94.9518 136.647,94.7496214 136.2924,94.3507286 L136.1718,94.2141214 C135.504,93.4673357 135.5634,92.3161929 136.3014,91.6422643 C137.0376,90.9701571 138.1752,91.0248 138.843,91.7734071 L138.9636,91.9100143 C139.6296,92.6568 139.572,93.8079429 138.834,94.4836929 C138.4902,94.7969786 138.0582,94.9518 137.628,94.9518 M141.1236,101.439729 C140.3388,101.439729 139.6188,100.9188 139.3974,100.113729 C139.1346,99.1520143 139.6602,98.0682643 140.607,97.7914071 C141.5502,97.5109071 142.5204,97.9680857 142.8066,98.9243357 C142.8102,98.9370857 142.857,99.1064786 142.8624,99.12105 C143.127,100.09005 142.5672,101.102764 141.6096,101.372336 C141.4476,101.417871 141.2838,101.439729 141.1236,101.439729 M141.4674,108.843836 C141.363,108.843836 141.2586,108.834729 141.1524,108.816514 C140.1732,108.641657 139.5198,107.696336 139.6944,106.7073 L139.725,106.521514 C139.9014,105.532479 140.823,104.873121 141.8148,105.0498 C142.7922,105.2283 143.4456,106.175443 143.2692,107.164479 L143.2368,107.339336 C143.0838,108.222729 142.3242,108.843836 141.4674,108.843836 M138.6378,115.690586 C138.3336,115.690586 138.0258,115.614086 137.745,115.450157 C136.881,114.949264 136.5822,113.836371 137.0772,112.963907 L137.1672,112.805443 C137.6622,111.931157 138.7638,111.630621 139.6224,112.131514 C140.4864,112.630586 140.7852,113.743479 140.2902,114.615943 L140.2002,114.774407 C139.8672,115.360907 139.2606,115.690586 138.6378,115.690586 M134.9478,122.156657 C134.6436,122.156657 134.334,122.078336 134.0514,121.914407 C133.1892,121.411693 132.8922,120.296979 133.3908,119.426336 C133.8858,118.553871 135.0306,118.175014 135.8928,118.67955 C136.755,119.182264 137.0952,120.216836 136.5984,121.0893 L136.5084,121.245943 C136.1754,121.830621 135.5706,122.156657 134.9478,122.156657 M131.22,128.602693 C130.8708,128.602693 130.5198,128.500693 130.2102,128.287586 C129.3876,127.722943 129.1734,126.590014 129.7314,125.757621 C130.2894,124.928871 131.4558,124.6338 132.2748,125.192979 C133.0974,125.753979 133.3692,126.804943 132.8184,127.639157 C132.8148,127.644621 132.714,127.799443 132.7104,127.803086 C132.3612,128.322193 131.796,128.602693 131.22,128.602693 M125.8938,133.582479 C125.2692,133.582479 124.6572,133.269193 124.326,132.693621 C123.8274,131.8248 124.0794,130.735586 124.9326,130.229229 C125.7912,129.717407 126.9702,129.965121 127.4724,130.833943 C127.9764,131.700943 127.7676,132.771943 126.909,133.280121 C126.9054,133.281943 126.8226,133.331121 126.819,133.332943 C126.531,133.500514 126.2088,133.582479 125.8938,133.582479 M111.7548,134.71905 C111.6,134.71905 111.4434,134.699014 111.2868,134.6553 L111.114,134.607943 C110.1528,134.3493 109.584,133.349336 109.8414,132.378514 C110.097,131.407693 111.0906,130.833943 112.0446,131.090764 L112.2192,131.138121 C113.1786,131.396764 113.7474,132.396729 113.4918,133.36755 C113.2776,134.181729 112.5486,134.71905 111.7548,134.71905 M118.8378,135.7518 C117.891,135.7518 117.099,135.005014 117.0432,134.036014 C116.9838,133.032407 117.7398,132.170871 118.7334,132.112586 C119.6766,132.04155 120.6594,132.804729 120.7242,133.802871 C120.7908,134.802836 120.1356,135.660729 119.1492,135.733586 C119.142,135.735407 118.953,135.748157 118.944,135.748157 C118.9098,135.749979 118.872,135.7518 118.8378,135.7518 M105.5682,136.207157 C105.417,136.207157 105.2622,136.188943 105.1092,136.14705 C104.148,135.89205 103.572,134.895729 103.8258,133.923086 C104.076,132.950443 105.0894,132.280157 106.0452,132.535157 C107.0064,132.790157 107.604,133.69905 107.352,134.671693 L107.3052,134.848371 C107.0946,135.666193 106.3656,136.207157 105.5682,136.207157 M56.6604,136.831907 C55.8684,136.831907 55.143,136.30005 54.9252,135.489514 L54.8766,135.312836 C54.6156,134.342014 55.1808,133.34205 56.142,133.076121 C57.0924,132.817479 58.0896,133.382121 58.3506,134.354764 L58.3974,134.529621 C58.6602,135.500443 58.095,136.502229 57.1338,136.766336 C56.9754,136.81005 56.8188,136.831907 56.6604,136.831907 M103.4118,143.339871 C103.1508,143.339871 102.8826,143.281586 102.6306,143.157729 C101.736,142.720586 101.3616,141.62955 101.7936,140.7243 C102.2022,139.808121 103.293,139.340014 104.2038,139.753479 C105.1092,140.168764 105.5394,141.185121 105.129,142.103121 L105.0354,142.310764 C104.724,142.961014 104.0814,143.339871 103.4118,143.339871 M58.8312,143.857157 C58.2246,143.857157 57.6522,143.545693 57.3408,142.953729 C57.3372,142.944621 57.285,142.844443 57.2796,142.835336 C56.8296,141.941014 57.159,140.81355 58.0374,140.352729 C58.9212,139.890086 59.9814,140.203371 60.4404,141.088586 C60.9012,141.977443 60.606,143.155907 59.7294,143.625836 C59.4396,143.780657 59.1318,143.857157 58.8312,143.857157 M98.892,149.155693 C98.361,149.155693 97.8372,148.920729 97.4808,148.469014 C96.8634,147.682157 96.9912,146.534657 97.7688,145.908086 C98.5392,145.286979 99.7308,145.350729 100.3572,146.128479 C100.98,146.904407 100.9368,147.986336 100.1754,148.622014 C100.1682,148.6293 100.0206,148.751336 100.0116,148.758621 C99.6786,149.02455 99.2826,149.155693 98.892,149.155693 M63.6768,149.5473 C63.297,149.5473 62.9154,149.425264 62.5914,149.175729 L62.4708,149.084657 C61.6698,148.490871 61.4952,147.350657 62.082,146.540121 C62.6688,145.729586 63.7974,145.551086 64.5984,146.146693 L64.7676,146.274193 C65.5596,146.88255 65.7144,148.026407 65.1132,148.826014 C64.7586,149.297764 64.2204,149.5473 63.6768,149.5473 M92.2986,152.370514 C91.4778,152.370514 90.7344,151.798586 90.5454,150.953443 C90.3258,149.971693 90.9342,148.997229 91.9026,148.773193 C92.8638,148.5528 93.915,149.137479 94.14,150.113764 C94.3668,151.086407 93.861,152.042657 92.898,152.279443 C92.8908,152.281264 92.709,152.323157 92.7,152.324979 C92.5668,152.357764 92.4318,152.370514 92.2986,152.370514 M70.3818,152.499836 C70.281,152.499836 70.1766,152.490729 70.074,152.472514 L69.8616,152.430621 C68.886,152.23755 68.2506,151.279479 68.4432,150.292264 C68.634,149.30505 69.5844,148.658443 70.5564,148.856979 C71.5356,149.031836 72.261,149.989907 72.0882,150.980764 C71.9334,151.865979 71.2278,152.499836 70.3818,152.499836 M77.7492,152.769407 L77.571,152.769407 C76.5756,152.769407 75.771,151.953407 75.771,150.947979 C75.771,149.94255 76.5756,149.12655 77.571,149.12655 C78.5664,149.12655 79.461,149.94255 79.461,150.947979 C79.461,151.953407 78.7446,152.769407 77.7492,152.769407 M85.131,152.769407 L84.9492,152.769407 C83.9556,152.769407 83.1492,151.953407 83.1492,150.947979 C83.1492,149.94255 83.9556,149.12655 84.9492,149.12655 L85.131,149.12655 C86.1264,149.12655 86.931,149.94255 86.931,150.947979 C86.931,151.953407 86.1264,152.769407 85.131,152.769407" id="Fill-1" fill="#999999"></path>
                <path d="M99.92484,47.8640464 C99.67644,47.8640464 99.42624,47.811225 99.18684,47.7019393 L98.99964,47.6145107 C98.09964,47.1882964 97.71264,46.1045464 98.13204,45.1938321 C98.55324,44.2831179 99.62604,43.8915107 100.52604,44.3159036 L100.66644,44.381475 C101.57364,44.7949393 101.97684,45.8750464 101.56644,46.791225 C101.26584,47.4651536 100.61244,47.8640464 99.92484,47.8640464 M106.33284,51.5506179 C105.98724,51.5506179 105.63804,51.4504393 105.33024,51.240975 L105.17364,51.1335107 C104.35104,50.5688679 104.13684,49.4359393 104.69484,48.6035464 C105.25464,47.772975 106.37604,47.5580464 107.19504,48.1190464 L107.33724,48.2174036 C108.16344,48.7784036 108.38124,49.9113321 107.82864,50.7455464 C107.47944,51.2682964 106.91244,51.5506179 106.33284,51.5506179 M131.78484,78.4567607 C131.32584,78.4567607 130.86684,78.2800821 130.51584,77.926725 C129.81204,77.2181893 129.80844,76.065225 130.50684,75.351225 C131.21064,74.6390464 132.41124,74.5698321 133.11684,75.2783679 C133.82244,75.9869036 133.88904,77.0761179 133.18884,77.7901179 L133.06284,77.9176179 C132.71004,78.2764393 132.24744,78.4567607 131.78484,78.4567607 M84.33504,82.7607964 C84.04164,82.7607964 83.74464,82.6897607 83.46924,82.5349393 L84.33684,80.9393679 L83.35224,82.4711893 C82.47024,82.0103679 82.12284,80.9120464 82.57824,80.017725 C83.03364,79.125225 84.12264,78.7700464 85.00464,79.2363321 C85.01904,79.2436179 85.19004,79.3365107 85.20264,79.3437964 C86.07564,79.8282964 86.39244,80.935725 85.91364,81.8172964 C85.58604,82.4201893 84.96864,82.7607964 84.33504,82.7607964 M77.16564,83.1086893 C76.58964,83.1086893 76.02444,82.8300107 75.67524,82.3109036 C75.11724,81.4785107 75.33144,80.3455821 76.15404,79.7791179 C76.16844,79.7700107 76.33224,79.660725 76.34484,79.6516179 C77.18544,79.1088321 78.29604,79.3601893 78.83064,80.2071536 C79.36524,81.0559393 79.12044,82.1815821 78.28344,82.7225464 L77.31324,81.1870821 L78.17544,82.7954036 C77.86584,83.0066893 77.51484,83.1086893 77.16564,83.1086893 M126.56664,83.7370821 C126.10764,83.7370821 125.64864,83.5604036 125.29764,83.2070464 C124.59204,82.4985107 124.58844,81.3455464 125.28864,80.6315464 C125.99064,79.9193679 127.19124,79.851975 127.89864,80.5586893 C128.60424,81.267225 128.67084,82.3564393 127.97064,83.0704393 L127.84464,83.1979393 C127.49004,83.5567607 127.02924,83.7370821 126.56664,83.7370821 M87.92424,88.8807964 C86.92884,88.8807964 86.12424,88.0647964 86.12424,87.0593679 L87.92424,87.0593679 L86.12244,86.9318679 C86.09364,85.9264393 86.87664,85.0867607 87.87024,85.0576179 C87.88824,85.0557964 87.90444,85.0557964 87.92424,85.0557964 C88.89264,85.0557964 89.69184,85.8371893 89.72244,86.8244036 C89.72244,86.8426179 89.72424,87.0411536 89.72424,87.0593679 C89.72424,88.0647964 88.91964,88.8807964 87.92424,88.8807964 M74.16504,89.5474393 C73.24344,89.5474393 72.45684,88.8334393 72.37404,87.8862964 C72.37224,87.8680821 72.35784,87.6695464 72.35784,87.6513321 C72.29844,86.6459036 73.05444,85.7843679 74.04804,85.7260821 C75.05064,85.6586893 75.89124,86.4327964 75.95064,87.438225 L74.15424,87.5438679 L75.96144,87.565725 C76.04784,88.5675107 75.31524,89.452725 74.32524,89.5401536 C74.27124,89.5437964 74.21904,89.5474393 74.16504,89.5474393 M125.74404,90.7841893 C125.70804,90.7841893 125.67204,90.7823679 125.63604,90.7805464 C124.64244,90.7222607 123.88824,89.860725 123.94584,88.8552964 C124.00164,87.8607964 124.86204,87.0065464 125.82504,87.0520821 C126.80784,87.0957964 127.57644,87.8389393 127.54944,88.8352607 C127.54764,88.8516536 127.54044,89.0520107 127.53864,89.070225 C127.48284,90.0374036 126.68904,90.7841893 125.74404,90.7841893 M78.31764,95.292225 C78.08364,95.292225 77.84604,95.2466893 77.61744,95.1483321 L77.41224,95.0554393 C76.50504,94.641975 76.10364,93.5636893 76.51224,92.6456893 C76.92264,91.7295107 77.99004,91.3196893 78.89184,91.7367964 L79.01784,91.7914393 C79.93404,92.1830464 80.36244,93.2504036 79.97544,94.1775107 C79.68564,94.8732964 79.01964,95.292225 78.31764,95.292225 M129.22884,96.7184036 C128.77164,96.7184036 128.31444,96.5435464 127.96524,96.1938321 L127.83744,96.0645107 C127.12824,95.3596179 127.12104,94.2048321 127.81944,93.4890107 C128.51784,92.7731893 129.66084,92.7659036 130.36464,93.4726179 L130.49244,93.6001179 C131.20164,94.3068321 131.20884,95.4597964 130.51044,96.1756179 C130.15944,96.5362607 129.69324,96.7184036 129.22884,96.7184036 M133.87284,102.441332 C133.16364,102.441332 132.49044,102.011475 132.20604,101.304761 C131.82804,100.374011 132.23124,99.2301536 133.15104,98.8458321 C134.07264,98.4633321 135.08964,98.8257964 135.46944,99.754725 L135.54144,99.933225 C135.91584,100.865796 135.47124,101.927689 134.54964,102.306546 C134.32824,102.397618 134.09964,102.441332 133.87284,102.441332 M133.70184,109.699725 C133.45344,109.699725 133.20144,109.646904 132.96204,109.535796 C132.05664,109.122332 131.65344,108.044046 132.06204,107.127868 C132.47244,106.209868 133.57584,105.719904 134.47944,106.135189 C135.38664,106.548654 135.82584,107.544975 135.41724,108.461154 L135.34344,108.626904 C135.04284,109.299011 134.38764,109.699725 133.70184,109.699725 M130.04244,116.182189 C129.73824,116.182189 129.43044,116.103868 129.14604,115.939939 C128.28564,115.437225 127.98864,114.322511 128.48544,113.451868 C128.98224,112.579404 130.12524,112.202368 130.98924,112.705082 C131.84964,113.207796 132.19164,114.242368 131.69304,115.113011 L131.60484,115.271475 C131.27184,115.856154 130.66524,116.182189 130.04244,116.182189 M126.35244,122.650082 C126.04464,122.650082 125.73144,122.569939 125.44524,122.400546 C124.58664,121.894189 124.29864,120.777654 124.79904,119.910654 L124.89084,119.752189 C125.39124,118.885189 126.49284,118.590118 127.35324,119.098296 C128.21184,119.604654 128.49984,120.721189 127.99944,121.590011 L127.90764,121.746654 C127.57284,122.327689 126.96984,122.650082 126.35244,122.650082 M107.08704,125.912261 C106.93224,125.912261 106.77564,125.890404 106.61904,125.848511 L106.44444,125.801154 C105.48504,125.540689 104.91444,124.542546 105.17184,123.569904 C105.42924,122.599082 106.41924,122.025332 107.37684,122.282154 L107.54964,122.329511 C108.51084,122.589975 109.07964,123.588118 108.82224,124.560761 C108.60804,125.374939 107.88084,125.912261 107.08704,125.912261 M54.78984,125.961439 C53.99604,125.961439 53.27064,125.425939 53.05464,124.615404 C52.79364,123.644582 53.36244,122.644618 54.32184,122.382332 C55.28484,122.118225 56.35764,122.670118 56.61324,123.640939 C56.87424,124.611761 56.39184,125.588046 55.43244,125.850332 L55.26144,125.897689 C55.10484,125.941404 54.94644,125.961439 54.78984,125.961439 M121.25304,127.808368 C120.54204,127.808368 119.86884,127.378511 119.58444,126.671796 C119.21004,125.739225 119.65464,124.675511 120.57624,124.298475 C121.48524,123.917796 122.61024,124.322154 122.99364,125.243796 C123.37524,126.161796 123.04044,127.185439 122.13684,127.584332 C122.12244,127.589796 121.94244,127.666296 121.92984,127.671761 C121.70844,127.764654 121.47984,127.808368 121.25304,127.808368 M114.21504,127.842975 C114.06204,127.842975 113.90544,127.822939 113.74884,127.779225 L113.57424,127.733689 C112.61484,127.473225 112.04424,126.475082 112.30164,125.502439 C112.55904,124.531618 113.54904,123.956046 114.50664,124.214689 L114.67944,124.262046 C115.63884,124.520689 116.20944,125.520654 115.95204,126.491475 C115.73784,127.305654 115.01064,127.842975 114.21504,127.842975 M47.66004,127.893975 C46.86444,127.893975 46.13724,127.356654 45.92304,126.542475 C45.66564,125.569832 46.23624,124.571689 47.19564,124.311225 L47.37024,124.263868 C48.33144,124.005225 49.31964,124.580796 49.57344,125.551618 C49.83084,126.524261 49.26204,127.522404 48.30084,127.782868 L48.12804,127.830225 C47.97144,127.872118 47.81484,127.893975 47.66004,127.893975 M61.29504,129.505939 C61.04844,129.505939 60.79644,129.449475 60.55164,129.331082 L60.36804,129.240011 C59.47884,128.790118 59.11884,127.695439 59.56344,126.795654 C60.00804,125.895868 61.08984,125.531582 61.97904,125.981475 C62.87364,126.418618 63.31824,127.544261 62.88624,128.449511 C62.57124,129.107046 61.95204,129.505939 61.29504,129.505939 M100.55484,129.598832 C99.89244,129.598832 99.25884,129.229082 98.94204,128.591582 C98.49744,127.691796 98.85744,126.597118 99.74664,126.147225 L99.93024,126.056154 C100.83384,125.617189 101.90304,125.997868 102.33504,126.903118 C102.76704,127.808368 102.39264,128.897582 101.49804,129.336546 L101.35764,129.405761 C101.09844,129.536904 100.82484,129.598832 100.55484,129.598832 M63.86364,136.064904 C63.08964,136.064904 62.40024,135.589511 62.19324,134.788082 L62.14824,134.611404 C61.89444,133.638761 62.46864,132.642439 63.43164,132.387439 C64.38924,132.130618 65.37924,132.711654 65.62764,133.686118 C65.88144,134.658761 65.32884,135.744332 64.36764,135.999332 C64.19844,136.043046 64.02924,136.064904 63.86364,136.064904 M98.07984,136.334475 C97.92684,136.334475 97.77204,136.314439 97.61904,136.274368 C96.65784,136.017546 96.08364,135.021225 96.33744,134.046761 C96.58944,133.075939 97.60104,132.403832 98.55864,132.664296 C99.51984,132.921118 100.11564,133.830011 99.86364,134.802654 L99.81684,134.977511 C99.60444,135.793511 98.87544,136.334475 98.07984,136.334475 M66.87324,142.796904 C66.44664,142.796904 66.02724,142.634796 65.69064,142.294189 C65.68884,142.292368 65.62224,142.226796 65.62044,142.223154 C64.92384,141.510975 64.89684,140.327046 65.60064,139.618511 C66.29904,138.913618 67.40784,138.877189 68.10984,139.589368 C68.81364,140.301546 68.87664,141.518261 68.17284,142.230439 C67.80564,142.602011 67.33764,142.796904 66.87324,142.796904 M94.95684,142.964475 C94.46724,142.964475 93.97584,142.764118 93.62124,142.365225 C92.95524,141.618439 93.01284,140.467296 93.74904,139.793368 C94.45464,139.083011 95.62284,139.048404 96.32844,139.760582 C97.03224,140.472761 97.06284,141.592939 96.36084,142.305118 L96.16464,142.494546 C95.82084,142.809654 95.38704,142.964475 94.95684,142.964475 M73.64304,145.483511 L73.46484,145.483511 C72.46944,145.483511 71.66484,144.667511 71.66484,143.662082 C71.66484,142.656654 72.46944,141.840654 73.46484,141.840654 C74.46024,141.840654 75.35484,142.656654 75.35484,143.662082 C75.35484,144.667511 74.63844,145.483511 73.64304,145.483511 M81.02484,145.483511 L80.84304,145.483511 C79.84944,145.483511 79.04304,144.667511 79.04304,143.662082 C79.04304,142.656654 79.84944,141.840654 80.84304,141.840654 L81.02484,141.840654 C82.02024,141.840654 82.82484,142.656654 82.82484,143.662082 C82.82484,144.667511 82.02024,145.483511 81.02484,145.483511 M88.40484,145.483511 L88.22484,145.483511 C87.22944,145.483511 86.42484,144.667511 86.42484,143.662082 C86.42484,142.656654 87.22944,141.840654 88.22484,141.840654 C89.22024,141.840654 90.11484,142.656654 90.11484,143.662082 C90.11484,144.667511 89.39844,145.483511 88.40484,145.483511" id="Fill-3" fill="#999999"></path>
                <path d="M81.03186,108.4158 C69.37326,108.4158 59.92506,98.8533 59.92506,87.0577286 C59.92506,75.2639786 69.37326,65.7014786 81.03186,65.7014786 C92.68866,65.7014786 102.13686,75.2639786 102.13686,87.0577286 C102.13686,98.8533 92.68866,108.4158 81.03186,108.4158 L81.03186,108.4158 Z M81.03186,101.319514 C73.24866,101.319514 66.93786,94.9354071 66.93786,87.0577286 C66.93786,79.1818714 73.24866,72.7977643 81.03186,72.7977643 C88.81506,72.7977643 95.12406,79.1818714 95.12406,87.0577286 C95.12406,94.9354071 88.81506,101.319514 81.03186,101.319514 L81.03186,101.319514 Z M118.61046,94.45455 C118.20186,94.0410857 118.02366,93.4582286 118.11366,92.8808357 C118.41066,90.9829071 118.58526,89.0430857 118.58526,87.0577286 C118.58526,85.0760143 118.41066,83.1361929 118.11366,81.2364429 C118.02366,80.65905 118.20186,80.0761929 118.61046,79.6627286 L126.81306,71.3606571 C127.38906,70.7778 127.50426,69.8761929 127.09926,69.1621929 L119.38086,55.6362643 C118.97226,54.9222643 118.14246,54.5743714 117.35586,54.7874786 L106.15626,57.8238 C105.60006,57.9731571 105.01686,57.83655 104.57046,57.4740857 C101.58606,55.0424786 98.22186,53.0808 94.58586,51.6564429 C94.05126,51.4488 93.64446,51.00255 93.49506,50.44155 L90.48726,39.0904071 C90.27666,38.2944429 89.56206,37.7407286 88.74846,37.7407286 L73.31346,37.7407286 C72.49986,37.7407286 71.78526,38.2944429 71.57466,39.0904071 L68.56686,50.44155 C68.41926,51.00255 68.01066,51.4488 67.47606,51.6564429 C63.84006,53.0808 60.47586,55.0424786 57.49146,57.4740857 C57.04506,57.83655 56.46186,57.9731571 55.90746,57.8238 L44.70606,54.7874786 C43.91946,54.5743714 43.08966,54.9222643 42.68106,55.6362643 L34.96446,69.1621929 C34.55766,69.8761929 34.67466,70.7778 35.24886,71.3606571 L43.45146,79.6627286 C43.86006,80.0761929 44.03826,80.65905 43.94826,81.2364429 C43.65126,83.1361929 43.47846,85.0760143 43.47846,87.0577286 C43.47846,89.0430857 43.65126,90.9829071 43.94826,92.8808357 C44.03826,93.4582286 43.86006,94.0410857 43.45146,94.45455 L35.24886,102.756621 C34.67466,103.339479 34.55766,104.241086 34.96446,104.955086 L42.68106,118.481014 C43.08966,119.195014 43.91946,119.542907 44.70606,119.3298 L55.90746,116.2953 C56.46186,116.144121 57.04506,116.278907 57.49146,116.643193 C60.47586,119.0748 63.84006,121.036479 67.47606,122.459014 C68.01066,122.6703 68.41926,123.114729 68.56686,123.675729 L71.57466,135.026871 C71.78526,135.822836 72.49986,136.37655 73.31346,136.37655 L88.74846,136.37655 C89.56206,136.37655 90.27666,135.822836 90.48726,135.026871 L93.49506,123.675729 C93.64446,123.114729 94.05126,122.6703 94.58586,122.459014 C98.22186,121.036479 101.58606,119.0748 104.57046,116.643193 C105.01686,116.278907 105.60006,116.144121 106.15626,116.2953 L117.35586,119.3298 C118.14246,119.542907 118.97226,119.195014 119.38086,118.481014 L127.09926,104.955086 C127.50426,104.241086 127.38906,103.339479 126.81306,102.756621 L118.61046,94.45455 Z" id="Fill-5" fill="#FFFFFF"></path>
                <path d="M81.03186,74.6188286 C74.25126,74.6188286 68.73786,80.1996857 68.73786,87.0591857 C68.73786,93.9168643 74.25126,99.4977214 81.03186,99.4977214 C87.81066,99.4977214 93.32406,93.9168643 93.32406,87.0591857 C93.32406,80.1996857 87.81066,74.6188286 81.03186,74.6188286 M81.03186,103.140579 C72.26766,103.140579 65.13786,95.9259 65.13786,87.0591857 C65.13786,78.19065 72.26766,70.9759714 81.03186,70.9759714 C89.79426,70.9759714 96.92406,78.19065 96.92406,87.0591857 C96.92406,95.9259 89.79426,103.140579 81.03186,103.140579 M81.03186,67.5225429 C70.38666,67.5225429 61.72506,76.2872571 61.72506,87.0591857 C61.72506,97.8311143 70.38666,106.594007 81.03186,106.594007 C91.67526,106.594007 100.33686,97.8311143 100.33686,87.0591857 C100.33686,76.2872571 91.67526,67.5225429 81.03186,67.5225429 M81.03186,110.236864 C68.40126,110.236864 58.12506,99.84015 58.12506,87.0591857 C58.12506,74.2782214 68.40126,63.8796857 81.03186,63.8796857 C93.66246,63.8796857 103.93686,74.2782214 103.93686,87.0591857 C103.93686,99.84015 93.66246,110.236864 81.03186,110.236864 M56.35386,114.415221 C57.16386,114.415221 57.96846,114.6939 58.62006,115.223936 C61.46766,117.544436 64.66446,119.405936 68.12406,120.761079 C69.20046,121.18365 70.01406,122.096186 70.30746,123.207257 L73.31346,134.556579 L88.74846,134.554757 L91.75626,123.203614 C92.05146,122.092543 92.86506,121.181829 93.93426,120.761079 C97.39746,119.405936 100.59426,117.544436 103.44186,115.223936 C104.33826,114.495364 105.52266,114.236721 106.62246,114.535436 L117.82026,117.569936 L125.54046,104.044007 L117.33606,95.7419357 C116.53146,94.9241143 116.15706,93.7492929 116.33346,92.59815 C116.63766,90.6583286 116.78526,88.8460071 116.78526,87.0591857 C116.78526,85.2723643 116.63766,83.4600429 116.33526,81.5202214 C116.15706,80.3672571 116.53146,79.1924357 117.33786,78.3764357 L125.54046,70.0725429 L117.82026,56.5466143 L106.62246,59.5829357 C105.52446,59.8780071 104.33466,59.6211857 103.44186,58.8926143 C100.59426,56.5721143 97.39746,54.7106143 93.93786,53.3554714 C92.86686,52.9383643 92.05326,52.0258286 91.75626,50.9165786 L88.74846,39.5617929 L73.31346,39.5617929 L70.30566,50.9129357 C70.01406,52.0221857 69.19866,52.9365429 68.12406,53.3554714 C64.66446,54.7106143 61.46766,56.5721143 58.62006,58.8926143 C57.72546,59.6211857 56.53566,59.8780071 55.44126,59.5829357 L44.24166,56.5466143 L36.52326,70.0725429 L44.72406,78.3764357 C45.53046,79.1924357 45.90486,80.3672571 45.72846,81.5184 C45.42606,83.4527571 45.27846,85.2632571 45.27846,87.0591857 C45.27846,88.8532929 45.42606,90.6656143 45.72666,92.5963286 C45.90486,93.7492929 45.53046,94.9241143 44.72586,95.7419357 L36.52146,104.044007 L44.24166,117.569936 L55.44126,114.535436 C55.74186,114.453471 56.04786,114.415221 56.35386,114.415221 M88.74846,138.197614 L73.31346,138.197614 C71.68806,138.197614 70.25706,137.088364 69.83586,135.498257 L66.82806,124.147114 C63.01926,122.668114 59.49846,120.617186 56.36286,118.061721 L45.17226,121.088936 C43.60446,121.518793 41.93586,120.815721 41.12226,119.393186 L33.40566,105.865436 C32.59386,104.4429 32.82786,102.634221 33.97446,101.470329 L42.17886,93.1664357 C41.84046,91.0444714 41.67846,89.0463643 41.67846,87.0591857 C41.67846,85.0701857 41.84046,83.0739 42.17166,80.9519357 L33.97626,72.6480429 C32.82786,71.48415 32.59386,69.6754714 33.40566,68.2511143 L41.12226,54.7251857 C41.93586,53.3008286 43.59906,52.6014 45.17226,53.0276143 L56.37366,56.0639357 C59.49846,53.4993643 63.01926,51.4484357 66.82626,49.9585071 L69.83586,38.6182929 C70.25886,37.0281857 71.68806,35.9189357 73.31346,35.9189357 L88.74846,35.9189357 C90.37386,35.9189357 91.80306,37.0281857 92.22606,38.6182929 L95.23386,49.9712571 C99.04266,51.4484357 102.56346,53.4993643 105.69906,56.0548286 L116.88966,53.0276143 C118.45746,52.6014 120.12426,53.3008286 120.93786,54.7233643 L128.65806,68.2511143 C129.46986,69.6809357 129.23406,71.4877929 128.08566,72.6498643 L119.88306,80.9519357 C120.22326,83.0811857 120.38526,85.0792929 120.38526,87.0591857 C120.38526,89.0390786 120.22326,91.0371857 119.89026,93.1664357 L119.88666,93.1700786 L128.08566,101.468507 C129.23406,102.630579 129.46986,104.439257 128.65806,105.863614 L120.93966,119.391364 C120.12786,120.815721 118.46466,121.518793 116.88966,121.088936 L105.69006,118.054436 C102.56346,120.617186 99.04266,122.668114 95.23566,124.158043 L92.22606,135.498257 C91.80306,137.088364 90.37386,138.197614 88.74846,138.197614" id="Fill-7" fill="#333333"></path>
                <path d="M28.43802,38.396625 C23.96142,38.396625 20.33082,34.7228036 20.33082,30.1929107 C20.33082,25.6611964 23.96142,21.9891964 28.43802,21.9891964 C32.91642,21.9891964 36.54702,25.6611964 36.54702,30.1929107 C36.54702,34.7228036 32.91642,38.396625 28.43802,38.396625 L28.43802,38.396625 Z M50.05782,34.4477679 C49.82382,34.2091607 49.71942,33.8740179 49.77162,33.5425179 C49.94082,32.4496607 50.04342,31.3349464 50.04342,30.1929107 C50.04342,29.0526964 49.94082,27.9361607 49.77162,26.8433036 C49.71942,26.5118036 49.82382,26.1766607 50.05782,25.9380536 L54.77562,21.1622679 C55.10682,20.827125 55.17522,20.3080179 54.94122,19.8981964 L50.50062,12.1152321 C50.26662,11.7054107 49.78782,11.5050536 49.33602,11.6270893 L42.89202,13.3738393 C42.57522,13.4612679 42.23682,13.3829464 41.97942,13.1734821 C40.26222,11.774625 38.32722,10.6453393 36.23742,9.82569643 C35.92962,9.70730357 35.69382,9.45048214 35.60742,9.12808929 L33.87762,2.59826786 C33.75702,2.13926786 33.34842,1.82051786 32.87862,1.82051786 L23.99922,1.82051786 C23.52942,1.82051786 23.12082,2.13926786 23.00022,2.59826786 L21.26862,9.12808929 C21.18402,9.45048214 20.94822,9.70730357 20.64042,9.82569643 C18.55062,10.6453393 16.61382,11.774625 14.89842,13.1734821 C14.63922,13.3829464 14.30262,13.4612679 13.98582,13.3738393 L7.54182,11.6270893 C7.09002,11.5050536 6.61122,11.7054107 6.37722,12.1152321 L1.93662,19.8981964 C1.70262,20.3080179 1.77102,20.827125 2.10222,21.1622679 L6.82002,25.9380536 C7.05402,26.1766607 7.15842,26.5118036 7.10442,26.8433036 C6.93522,27.9361607 6.83442,29.0526964 6.83442,30.1929107 C6.83442,31.3349464 6.93522,32.4496607 7.10442,33.5425179 C7.15842,33.8740179 7.05402,34.2091607 6.82002,34.4477679 L2.10222,39.2235536 C1.77102,39.5586964 1.70262,40.0778036 1.93662,40.487625 L6.37722,48.2687679 C6.61122,48.6804107 7.09002,48.8807679 7.54182,48.7569107 L13.98582,47.0119821 C14.30262,46.926375 14.63922,47.002875 14.89842,47.2123393 C16.61562,48.6111964 18.55062,49.7404821 20.64042,50.5583036 C20.94822,50.6785179 21.18402,50.9353393 21.26862,51.2577321 L23.00022,57.7875536 C23.12082,58.2465536 23.52942,58.5653036 23.99922,58.5653036 L32.87862,58.5653036 C33.34842,58.5653036 33.75702,58.2465536 33.87762,57.7875536 L35.60742,51.2577321 C35.69382,50.9353393 35.92962,50.6785179 36.23742,50.5583036 C38.32722,49.7404821 40.26222,48.6111964 41.97942,47.2123393 C42.23682,47.002875 42.57522,46.926375 42.89202,47.0119821 L49.33602,48.7569107 C49.78782,48.8807679 50.26662,48.6804107 50.50062,48.2687679 L54.94122,40.487625 C55.17522,40.0778036 55.10682,39.5586964 54.77562,39.2235536 L50.05782,34.4477679 Z" id="Fill-9" fill="#FFFFFF"></path>
                <path d="M28.43802,23.8100786 C24.96042,23.8100786 22.13082,26.6733643 22.13082,30.1923643 C22.13082,33.7131857 24.96042,36.57465 28.43802,36.57465 C31.91742,36.57465 34.74702,33.7131857 34.74702,30.1923643 C34.74702,26.6733643 31.91742,23.8100786 28.43802,23.8100786 L28.43802,23.8100786 Z M28.43802,40.2175071 C22.97502,40.2175071 18.53082,35.7204 18.53082,30.1923643 C18.53082,24.6643286 22.97502,20.1672214 28.43802,20.1672214 C33.90102,20.1672214 38.34702,24.6643286 38.34702,30.1923643 C38.34702,35.7204 33.90102,40.2175071 28.43802,40.2175071 L28.43802,40.2175071 Z M24.58602,56.7433286 L32.29182,56.7433286 L33.87042,50.7872571 C34.10262,49.9075071 34.74702,49.1880429 35.58942,48.8583643 C37.50462,48.1079357 39.27582,47.0770071 40.85082,45.7929 C41.55462,45.21915 42.49782,45.0206143 43.35822,45.2519357 L49.23522,46.8438643 L53.08722,40.0918286 L48.78522,35.7349714 C48.78342,35.73315 48.78342,35.73315 48.78342,35.7313286 C48.14802,35.0883643 47.85282,34.1667214 47.99142,33.2614714 C48.16062,32.1777214 48.24342,31.1759357 48.24342,30.1923643 C48.24342,29.2106143 48.16062,28.2070071 47.99322,27.1269 C47.85282,26.2198286 48.14802,25.2963643 48.78342,24.6534 L53.08722,20.2947214 L49.23522,13.5408643 L43.35822,15.1327929 C42.49242,15.3714 41.55642,15.1655786 40.85082,14.5918286 C39.27582,13.3077214 37.50462,12.2749714 35.58762,11.5245429 C34.74702,11.1966857 34.10262,10.4772214 33.87042,9.60293571 L32.29182,3.64322143 L24.58602,3.64322143 L23.00562,9.59929286 C22.77702,10.4735786 22.13442,11.1948643 21.28842,11.5263643 C19.37142,12.2767929 17.60022,13.3095429 16.02702,14.5918286 C15.31602,15.1655786 14.37642,15.3659357 13.51962,15.1327929 L7.64262,13.5408643 L3.79062,20.2929 L8.09262,24.6497571 C8.73342,25.3000071 9.02682,26.2271143 8.88282,27.1323643 C8.71542,28.1997214 8.63442,29.2015071 8.63442,30.1923643 C8.63442,31.1832214 8.71542,32.1850071 8.88282,33.2578286 C9.02682,34.1594357 8.73342,35.0847214 8.09442,35.7313286 L3.79062,40.0918286 L7.64262,46.8438643 L13.51962,45.2519357 C14.38542,45.0206143 15.31782,45.2209714 16.02162,45.7892571 C17.60202,47.0770071 19.37322,48.1079357 21.29022,48.8601857 C22.13442,49.1898643 22.77702,49.9129714 23.00742,50.7909 L24.58602,56.7433286 Z M32.87862,60.3861857 L23.99922,60.3861857 C22.71762,60.3861857 21.59262,59.5119 21.26142,58.2605786 L19.63062,52.1132571 C17.62542,51.28815 15.75882,50.2007571 14.07402,48.8747571 L8.00622,50.5176857 C6.78042,50.85465 5.45742,50.3045786 4.81842,49.1789357 L0.37782,41.3996143 C-0.26118,40.2757929 -0.07578,38.8514357 0.82962,37.9352571 L5.27022,33.4399714 C5.11182,32.3179714 5.03442,31.2524357 5.03442,30.1923643 C5.03442,29.1304714 5.11182,28.0649357 5.27022,26.9447571 L0.82962,22.4494714 C-0.07578,21.5369357 -0.26118,20.1125786 0.37782,18.9887571 L4.81842,11.2057929 C5.45742,10.0837929 6.75702,9.53372143 8.00442,9.86704286 L14.07222,11.5117929 C15.75342,10.1876143 17.62182,9.09657857 19.63062,8.27147143 L21.26142,2.12597143 C21.59262,0.87465 22.71762,0.000364285714 23.99922,0.000364285714 L32.87862,0.000364285714 C34.16022,0.000364285714 35.28702,0.87465 35.61642,2.12597143 L37.24542,8.27147143 C39.25242,9.09475714 41.11902,10.1839714 42.80562,11.5117929 L48.87162,9.86886429 C50.11182,9.53372143 51.42042,10.0837929 52.05942,11.2057929 L56.50002,18.9869357 C57.13902,20.1125786 56.95362,21.5369357 56.04642,22.4512929 L51.60582,26.9465786 C51.76602,28.0704 51.84342,29.1377571 51.84342,30.1923643 C51.84342,31.2469714 51.76602,32.3125071 51.60582,33.43815 L56.04822,37.9352571 C56.95362,38.8514357 57.13902,40.2757929 56.50002,41.3977929 L52.05942,49.1807571 C51.42042,50.3027571 50.10642,50.8473643 48.86982,50.5176857 L42.80382,48.8747571 C41.11722,50.2025786 39.25062,51.2899714 37.24542,52.1150786 L35.61642,58.2605786 C35.28702,59.5119 34.16022,60.3861857 32.87862,60.3861857 L32.87862,60.3861857 Z" id="Fill-11" fill="#0574B9"></path>
            </g>
        </g>
    </g>
</svg>