<svg xmlns="http://www.w3.org/2000/svg" xmlns:xlink="http://www.w3.org/1999/xlink" width="88" height="95" viewBox="0 0 88 95">
    <defs>
        <path id="a" d="M.424.697H44.46v87.127H.424z"/>
        <path id="c" d="M0 1.01h33.185v53.096H0z"/>
    </defs>
    <g fill="none" fill-rule="evenodd">
        <path fill="#999" d="M74.318 10.414c-.312 0-.626-.11-.877-.337-.533-.48-.63-1.345-.154-1.885.474-.538 1.245-.638 1.79-.166l.118.103a1.311 1.311 0 0 1-.877 2.285zm3.42 4.116a1.31 1.31 0 0 1-1.131-.647c-.363-.62-.194-1.471.42-1.842s1.38-.233 1.756.376l.085.139a1.311 1.311 0 0 1-1.13 1.974zm2.049 4.948a1.311 1.311 0 0 1-1.273-1.002c-.17-.696.236-1.462.93-1.642.69-.176 1.388.17 1.575.862l.043.162a1.313 1.313 0 0 1-1.275 1.62zm.756 5.275c-.687 0-1.26-.506-1.301-1.202-.042-.722.506-1.408 1.226-1.45.712-.042 1.341.443 1.383 1.167.002.006.004.077.006.084.03.72-.522 1.362-1.242 1.4l-.072.001zm-.388 5.378a1.309 1.309 0 0 1-1.283-1.578l.026-.128a1.31 1.31 0 1 1 2.565.536l-.026.128a1.31 1.31 0 0 1-1.282 1.042zm-1.838 5.031a1.313 1.313 0 0 1-1.176-1.889l.08-.154a1.309 1.309 0 0 1 1.774-.54c.64.34.881 1.135.54 1.774l-1.156-.617 1.116.695a1.311 1.311 0 0 1-1.178.731zm-3.029 4.43a1.313 1.313 0 0 1-1.019-2.135c.005-.003.091-.11.095-.114a1.312 1.312 0 0 1 2.017 1.674l-1.008-.836.938.924c-.261.321-.64.488-1.023.488zm-3.639 3.95a1.31 1.31 0 0 1-.908-2.256c.514-.513 1.38-.546 1.891-.036.512.512.55 1.305.037 1.816l-.113.112c-.253.244-.58.364-.907.364zm-3.889 3.71a1.312 1.312 0 0 1-.907-2.257l.094-.09a1.312 1.312 0 0 1 1.816 1.89l-.096.092c-.254.244-.58.365-.907.365zm-3.506 4.05a1.312 1.312 0 0 1-1.096-2.03c.383-.614 1.219-.844 1.832-.463.616.382.831 1.147.45 1.762l-.088.139a1.31 1.31 0 0 1-1.098.592zm-.628 3.854l-1.3-.183-1.284-.273c.151-.707.858-1.223 1.565-1.075.708.15 1.175.78 1.027 1.488l-1.284-.269 1.276.312zm-1.692 6.483l-.08-.002a1.31 1.31 0 0 1-1.23-1.386c.042-.722.662-1.367 1.388-1.296.724.042 1.278.596 1.236 1.32l-.008.13a1.312 1.312 0 0 1-1.306 1.234zm-.293 5.367l-.077-.003a1.311 1.311 0 0 1-1.232-1.385l.008-.131a1.291 1.291 0 0 1 1.385-1.231 1.31 1.31 0 0 1 1.231 1.384l-.008.131a1.31 1.31 0 0 1-1.307 1.235zm.01 5.371c-.712 0-1.296-.57-1.31-1.284l-.003-.131a1.312 1.312 0 0 1 1.285-1.337h.026c.713 0 1.297.57 1.31 1.286l.004.13a1.31 1.31 0 0 1-1.286 1.336h-.025zm.069 5.375a1.31 1.31 0 0 1-1.31-1.285c-.015-.723.558-1.388 1.282-1.402.704-.028 1.322.495 1.336 1.22l.003.131a1.312 1.312 0 0 1-1.286 1.336h-.025zm-1.101 5.2c-.15 0-.303-.028-.45-.084-.672-.257-1.022-.98-.77-1.653l.047-.123a1.311 1.311 0 1 1 2.455.921 1.36 1.36 0 0 1-1.282.939zm-2.967 4.436a1.31 1.31 0 0 1-.763-2.378c.581-.414 1.439-.327 1.866.244.426.571.37 1.34-.194 1.778a4.34 4.34 0 0 1-.148.11c-.231.166-.497.246-.76.246zm-15.454.987c-.18 0-.363-.042-.541-.128l-.134-.065a1.311 1.311 0 0 1 1.173-2.345c.652.314.975 1.123.66 1.776-.229.475-.68.762-1.158.762zm10.437.828a1.307 1.307 0 0 1-1.288-1.076 1.308 1.308 0 0 1 1.054-1.523l.137-.025a1.309 1.309 0 0 1 1.518 1.063 1.308 1.308 0 0 1-1.063 1.518l-.122.022c-.08.016-.158.021-.236.021zm-5.219.412h-.04l-.13-.004a1.313 1.313 0 0 1-1.274-1.348c.02-.725.649-1.265 1.347-1.274l.134.004a1.314 1.314 0 0 1 1.273 1.349 1.313 1.313 0 0 1-1.31 1.273z"/>
        <g transform="translate(43.257 7.041)">
            <mask id="b" fill="#fff">
                <use xlink:href="#a"/>
            </mask>
            <path fill="#999" d="M38.185 3.397c-.423 0-.84-.205-1.092-.584-.41-.596-.29-1.459.304-1.869.595-.41 1.38-.308 1.792.287l.085.127a1.31 1.31 0 0 1-1.089 2.039zm2.438 4.72a1.23 1.23 0 0 1-1.143-.738l-.054-.127a1.321 1.321 0 0 1 .7-1.725 1.3 1.3 0 0 1 1.71.692l.009.022c.278.662-.01 1.475-.669 1.76-.18.078-.37.116-.553.116zm1.749 5.138a1.312 1.312 0 0 1-1.265-.971l-.04-.157a1.31 1.31 0 1 1 2.549-.619l.023.097a1.31 1.31 0 0 1-1.267 1.65zm.776 5.31a1.312 1.312 0 0 1-1.31-1.271c-.02-.717.534-1.383 1.25-1.414.761-.04 1.32.452 1.363 1.167l.009.17a1.312 1.312 0 0 1-1.273 1.348h-.04zm-.586 5.325a1.31 1.31 0 0 1-1.285-1.578l.04-.17a1.31 1.31 0 1 1 2.547.62l-1.275-.31 1.254.396a1.308 1.308 0 0 1-1.281 1.042zm-1.536 5.154a1.314 1.314 0 0 1-1.228-1.772c.251-.669 1.009-1.079 1.69-.836.674.24 1.052.914.822 1.593l-.056.164c-.198.526-.699.851-1.228.851zm-2.305 4.845a1.31 1.31 0 0 1-1.09-2.037c.384-.615 1.213-.843 1.83-.462.614.383.827 1.154.445 1.769l-.093.146a1.308 1.308 0 0 1-1.092.584zm-3.275 4.252a1.312 1.312 0 0 1-.992-2.167l.105-.119a1.31 1.31 0 1 1 1.947 1.756l-.973-.878.905.955c-.258.3-.625.453-.992.453zm-3.765 3.833a1.309 1.309 0 0 1-.903-2.26c.523-.5 1.401-.524 1.9 0 .498.524.526 1.31.002 1.808l-.095.09a1.31 1.31 0 0 1-.904.362zm-2.909 3.277l-.978-.876-.926-.926c.51-.512 1.386-.56 1.899-.048.512.513.558 1.295.047 1.808l-.927-.927.885.969zm-4.06 4.805A1.31 1.31 0 0 1 23.52 48.2l.068-.143a1.312 1.312 0 0 1 2.36 1.142l-.044.094a1.312 1.312 0 0 1-1.193.764zm-1.301 5.178l-.066-.001a1.31 1.31 0 0 1-1.245-1.374l.005-.131a1.31 1.31 0 1 1 2.619.128l-.005.131a1.312 1.312 0 0 1-1.308 1.247zm-.292 5.366h-.066a1.312 1.312 0 0 1-1.245-1.375 1.363 1.363 0 0 1 1.377-1.31c.721.035 1.282.586 1.248 1.308l-.006.13a1.311 1.311 0 0 1-1.308 1.247zm-.235 5.368c-.713 0-1.296-.57-1.31-1.286l-.003-.13a1.312 1.312 0 0 1 1.285-1.336h.025c.713 0 1.297.57 1.311 1.284l.003.131a1.312 1.312 0 0 1-1.285 1.337h-.026zm.068 5.373a1.31 1.31 0 0 1-1.31-1.284c-.015-.724.56-1.388 1.283-1.402.72-.028 1.32.496 1.335 1.22l.003.13a1.31 1.31 0 0 1-1.286 1.336h-.025zm-.086 5.367a1.31 1.31 0 0 1-1.296-1.506c.107-.716.783-1.276 1.499-1.166.714.106 1.216.707 1.111 1.423 0 0-.018.133-.02.135a1.309 1.309 0 0 1-1.294 1.114zm-1.687 5.082a1.312 1.312 0 0 1-1.163-1.912l.068-.132a1.319 1.319 0 0 1 1.775-.541c.638.342.88 1.136.54 1.775l-.054.1c-.233.452-.69.71-1.166.71zm-3.707 3.757a1.311 1.311 0 0 1-.603-2.475c.642-.342 1.486-.125 1.824.512.341.64.15 1.407-.489 1.748l-.132.069a1.316 1.316 0 0 1-.6.146zm-15.61 1.759c-.062 0-.125-.006-.188-.015-.002 0-.134-.018-.135-.02a1.309 1.309 0 0 1-1.1-1.491 1.307 1.307 0 0 1 1.492-1.1c.715.108 1.272.784 1.164 1.5-.097.65-.603 1.126-1.234 1.126zm10.56.05a1.312 1.312 0 0 1-.301-2.585c.705-.17 1.472.246 1.644.95.17.704-.202 1.399-.906 1.568l-.136.034a1.4 1.4 0 0 1-.302.034zm-5.207.469h-.038c-.014-.002-.156-.007-.17-.008a1.311 1.311 0 0 1-1.232-1.386 1.313 1.313 0 0 1 1.386-1.23c.716.041 1.33.652 1.298 1.368-.03.703-.548 1.256-1.244 1.256z" mask="url(#b)"/>
        </g>
        <g transform="translate(0 29.325)">
            <mask id="d" fill="#fff">
                <use xlink:href="#c"/>
            </mask>
            <path fill="#0574B9" d="M17.119 3.632c-1.312 0-2.32.355-3.077 1.086-.746.719-1.107 1.615-1.107 2.741 0 1.147.372 2.058 1.136 2.787.783.747 1.779 1.11 3.048 1.11 1.267 0 2.265-.363 3.047-1.11.765-.729 1.137-1.64 1.137-2.787 0-1.125-.362-2.021-1.108-2.74-.759-.732-1.766-1.087-3.076-1.087zm0 10.346c-1.947 0-3.581-.618-4.857-1.834-1.292-1.232-1.95-2.808-1.95-4.685 0-1.85.643-3.407 1.912-4.628 1.252-1.209 2.9-1.821 4.895-1.821 1.993 0 3.641.612 4.894 1.822 1.268 1.22 1.911 2.778 1.911 4.627 0 1.877-.656 3.453-1.95 4.686-1.277 1.215-2.91 1.833-4.855 1.833zm-2.946 5.19l-.055.846c-.288 2.58-1.413 4.802-3.35 6.666l-2.753 2.619c-2.025 1.962-3.457 3.758-4.244 5.325a10.717 10.717 0 0 0-1.15 4.86c0 3.873 1.152 6.767 3.524 8.846 2.385 2.092 5.85 3.154 10.295 3.154 4.397 0 7.887-1.122 10.373-3.335 2.197-1.954 3.411-4.536 3.689-7.863h-7.264c-.24 1.565-.855 2.864-1.84 3.872-1.257 1.288-2.925 1.943-4.958 1.943-4.258 0-6.603-2.505-6.603-7.053 0-1.502.405-2.945 1.2-4.287.756-1.273 2.177-2.829 4.345-4.76 1.885-1.679 3.19-3.383 3.881-5.069.595-1.452.941-3.387 1.032-5.765h-6.122zm2.267 34.938c-5.1 0-9.146-1.281-12.023-3.804-2.931-2.57-4.418-6.21-4.418-10.817 0-2.121.483-4.153 1.43-6.038.933-1.857 2.494-3.833 4.77-6.04l2.756-2.623c1.5-1.442 2.337-3.08 2.552-5.002l.13-2.01a1.312 1.312 0 0 1 1.308-1.226h8.684c.725 0 1.311.587 1.311 1.31 0 3.373-.409 6.013-1.25 8.07-.843 2.058-2.38 4.087-4.565 6.032-1.937 1.725-3.226 3.117-3.831 4.14-.563.946-.835 1.91-.835 2.95 0 3.106 1.191 4.43 3.98 4.43 1.318 0 2.327-.375 3.082-1.15.775-.793 1.17-1.9 1.205-3.386a1.311 1.311 0 0 1 1.31-1.278h9.838a1.314 1.314 0 0 1 1.311 1.325c-.05 4.69-1.608 8.43-4.628 11.119-2.982 2.651-7.058 3.998-12.117 3.998z" mask="url(#d)"/>
        </g>
        <path fill="#333" d="M42.146 55.937h11.35l.138-2.092c.436-3.907 2.158-7.303 5.123-10.154l4.404-4.19c3.31-3.21 5.654-6.155 6.956-8.745a17.963 17.963 0 0 0 1.924-8.135c0-6.441-1.933-11.266-5.908-14.753-3.97-3.482-9.692-5.246-17.003-5.246-7.236 0-13.001 1.864-17.131 5.538-3.866 3.44-5.91 8.017-6.225 13.964H38.94c.28-2.644 1.223-4.804 2.815-6.436 1.859-1.906 4.34-2.872 7.374-2.872 4.462 0 9.782 1.822 9.782 10.504 0 2.261-.61 4.436-1.811 6.463-1.166 1.964-3.39 4.396-6.8 7.433-3.111 2.77-5.272 5.597-6.42 8.405-1.054 2.577-1.637 6.043-1.735 10.316zm13.805 2.621H39.51v-1.31c0-5.221.654-9.467 1.945-12.62 1.301-3.18 3.691-6.332 7.103-9.37 3.16-2.815 5.276-5.108 6.287-6.813.974-1.638 1.446-3.315 1.446-5.125 0-5.377-2.276-7.882-7.161-7.882-2.332 0-4.13.68-5.497 2.08-1.384 1.418-2.09 3.365-2.153 5.95l-.032 1.278H23.096l.014-1.325c.076-7.274 2.48-13.068 7.145-17.219C34.881 2.086 41.232.001 49.13.001 57.097 0 63.4 1.984 67.86 5.897c4.515 3.958 6.802 9.584 6.802 16.724 0 3.27-.742 6.403-2.204 9.312-1.435 2.854-3.952 6.035-7.482 9.458l-4.407 4.194c-2.544 2.445-3.96 5.225-4.325 8.492l-.294 4.481zm-7.907 8.31c-2.241 0-4.015.651-5.424 1.992-1.388 1.324-2.063 2.97-2.063 5.032 0 2.03.66 3.65 2.015 4.956 1.368 1.32 3.157 1.961 5.472 1.961 2.314 0 4.103-.642 5.473-1.96 1.355-1.307 2.015-2.929 2.015-4.957 0-2.062-.677-3.708-2.065-5.032-1.41-1.34-3.183-1.992-5.423-1.992zm0 16.563c-2.983 0-5.436-.907-7.29-2.695-1.87-1.8-2.819-4.103-2.819-6.844 0-2.779.968-5.11 2.877-6.93 1.893-1.802 4.326-2.716 7.232-2.716 2.906 0 5.338.914 7.23 2.716 1.91 1.82 2.88 4.151 2.88 6.93 0 2.74-.95 5.043-2.819 6.844-1.856 1.788-4.309 2.695-7.29 2.695z"/>
    </g>
</svg>
