<?xml version="1.0" encoding="UTF-8"?>
<svg width="126px" height="135px" viewBox="0 0 126 135" version="1.1" xmlns="http://www.w3.org/2000/svg" xmlns:xlink="http://www.w3.org/1999/xlink">
    <!-- Generator: sketchtool 52.2 (67145) - http://www.bohemiancoding.com/sketch -->
    <title>B370CBC0-59A2-4145-A686-99187A7C42D4</title>
    <desc>Created with sketchtool.</desc>
    <g id="Symbols" stroke="none" stroke-width="1" fill="none" fill-rule="evenodd">
        <g id="Ilustra-/-Expiro" transform="translate(-42.000000, -75.000000)">
            <g id="Reloj" transform="translate(42.000000, 75.000000)">
                <path d="M110.64204,25.97094 C110.10564,25.97094 109.57464,25.73154 109.22004,25.27614 L109.06884,25.07094 C108.49104,24.26274 108.67824,23.13774 109.48644,22.55994 C110.29644,21.98034 111.41964,22.17114 111.99744,22.97934 L112.06044,23.06574 C112.67244,23.85054 112.53024,24.98094 111.74544,25.59114 C111.41784,25.84854 111.02724,25.97094 110.64204,25.97094 M114.68124,32.14674 C114.07824,32.14674 113.49144,31.84434 113.15124,31.29534 L113.02164,31.07754 C112.53204,30.21174 112.83624,29.11374 113.70024,28.62414 C114.56964,28.13454 115.66404,28.43874 116.15544,29.30274 L116.20944,29.39634 C116.73324,30.24054 116.47404,31.35114 115.62984,31.87494 C115.33284,32.05854 115.00524,32.14674 114.68124,32.14674 M118.02384,38.72214 C117.32904,38.72214 116.66844,38.31894 116.37324,37.64214 C115.96284,36.73674 116.33364,35.59914 117.23904,35.18874 C118.14444,34.78374 119.17944,35.10774 119.58804,36.01674 L119.67084,36.20214 C120.06864,37.11114 119.65464,38.17134 118.74204,38.57094 C118.50804,38.67534 118.26324,38.72214 118.02384,38.72214 M120.62664,45.62334 C119.87964,45.62334 119.18124,45.15354 118.92564,44.40834 L118.85004,44.17254 C118.56024,43.22214 119.09844,42.21594 120.05064,41.92794 C121.00644,41.64174 122.00544,42.17994 122.29524,43.12854 L122.32764,43.23834 C122.65164,44.17794 122.15304,45.20394 121.21164,45.52434 C121.01904,45.59094 120.81924,45.62334 120.62664,45.62334 M122.46804,52.76754 C121.61124,52.76754 120.85164,52.15374 120.69864,51.28074 C120.52584,50.31234 121.14504,49.29894 122.10984,49.11174 C123.06204,48.92634 123.99084,49.45554 124.19604,50.41854 C124.19964,50.43834 124.23924,50.63274 124.24284,50.65434 C124.41564,51.63354 123.76224,52.56594 122.78304,52.73874 C122.67864,52.75854 122.57244,52.76754 122.46804,52.76754 M123.53544,60.06654 C122.63544,60.06654 121.85604,59.39334 121.74984,58.47894 L121.72644,58.24674 C121.63824,57.25674 122.37264,56.38374 123.36084,56.29554 C124.36524,56.19654 125.22744,56.93994 125.31204,57.92994 L125.32464,58.05594 C125.44164,59.04414 124.73424,59.93874 123.74784,60.05574 C123.67584,60.06294 123.60564,60.06654 123.53544,60.06654 M123.81264,67.39254 C123.80904,67.39254 123.80364,67.39074 123.80184,67.39074 C122.81184,67.38354 122.01264,66.62574 122.01264,65.63574 C122.01264,64.64034 122.82084,63.74574 123.81264,63.74574 C124.80804,63.74574 125.61444,64.46214 125.61444,65.45754 C125.61444,65.46474 125.61264,65.56374 125.61264,65.57274 C125.60004,66.55734 124.79544,67.39254 123.81264,67.39254 M123.30144,74.79594 C123.23124,74.79594 123.16104,74.79234 123.08904,74.78334 C122.10264,74.66814 121.39704,73.77354 121.51224,72.78534 L121.53384,72.60534 C121.64904,71.61714 122.54004,70.90794 123.53184,71.02854 C124.51824,71.14554 125.22564,72.04014 125.10864,73.02834 L125.08704,73.20654 C124.98084,74.12274 124.20144,74.79594 123.30144,74.79594 M122.00364,82.05534 C121.88304,82.05534 121.76064,82.04274 121.63824,82.01934 C120.66444,81.81774 120.03804,80.86554 120.23784,79.89354 L120.29184,79.65594 C120.52404,78.68934 121.50144,78.09534 122.46444,78.33114 C123.43104,78.56514 124.02504,79.53894 123.79104,80.50374 L123.76404,80.61714 C123.58764,81.47034 122.83884,82.05534 122.00364,82.05534 M119.92644,89.13114 C119.71584,89.13114 119.50344,89.09334 119.29464,89.01594 C118.36404,88.66674 117.89244,87.62994 118.24164,86.69754 C118.58724,85.77954 119.63844,85.22334 120.56544,85.55274 C121.49064,85.88574 122.00724,86.81634 121.68864,87.74694 C121.68324,87.76314 121.61844,87.94854 121.61304,87.96294 C121.34124,88.68654 120.65364,89.13114 119.92644,89.13114 M117.09864,95.94234 C116.84304,95.94234 116.58564,95.88834 116.33904,95.77314 C115.43724,95.35374 115.04844,94.28094 115.46964,93.38094 C115.47324,93.37374 115.55424,93.20454 115.55604,93.19734 C115.98984,92.30634 117.06444,91.93194 117.96084,92.36034 C118.85544,92.79414 119.22984,93.87054 118.79784,94.76514 L117.17784,93.98034 L118.73124,94.90374 C118.42524,95.55714 117.77724,95.94234 117.09864,95.94234 M113.54544,102.40614 C113.22324,102.40614 112.89384,102.31794 112.59864,102.13434 C111.75264,101.61054 111.49524,100.49994 112.01904,99.65754 C112.54464,98.81154 113.70024,98.47674 114.54444,98.99874 C115.39044,99.52434 115.69644,100.55934 115.17264,101.40174 L115.07724,101.55474 C114.73524,102.10374 114.14664,102.40614 113.54544,102.40614 M109.31724,108.44334 C108.91944,108.44334 108.51984,108.31374 108.18864,108.04554 C107.41464,107.41914 107.29404,106.28694 107.91684,105.51294 C108.53784,104.74614 109.71324,104.54634 110.49264,105.16374 C111.26664,105.77754 111.45564,106.82874 110.84904,107.60814 C110.84184,107.61714 110.72664,107.76654 110.71944,107.77374 C110.36304,108.21474 109.84284,108.44334 109.31724,108.44334 M104.45544,113.98914 C104.01984,113.98914 103.58244,113.83434 103.23864,113.51574 C102.50424,112.84254 102.45924,111.70314 103.13064,110.97234 C103.14864,110.95254 103.29084,110.80674 103.30884,110.78874 C104.01084,110.08494 105.15024,110.08494 105.85404,110.78874 C106.55604,111.49254 106.55604,112.63194 105.85404,113.33394 L104.58144,112.06134 L105.78204,113.40774 C105.42744,113.79474 104.94144,113.98914 104.45544,113.98914 M99.02844,118.98954 C98.50464,118.98954 97.98804,118.76274 97.62984,118.32714 C97.00344,117.55494 97.11864,116.42094 97.88904,115.79274 C98.65044,115.15374 99.84024,115.19694 100.48284,115.95654 C101.12544,116.71614 101.08584,117.80514 100.32804,118.44774 L100.16424,118.58454 C99.82944,118.85814 99.42804,118.98954 99.02844,118.98954 M93.09204,123.36894 C92.51604,123.36894 91.94904,123.09354 91.60164,122.58054 C91.04184,121.75794 91.25604,120.63834 92.07864,120.08034 L92.25504,119.96334 C93.08844,119.41794 94.20264,119.65194 94.74804,120.48354 C95.29164,121.31514 95.05944,122.43114 94.22784,122.97654 L94.10184,123.05934 C93.79224,123.26994 93.43944,123.36894 93.09204,123.36894 M22.99284,126.27774 C22.72284,126.27774 22.44744,126.21114 22.18464,126.07254 L21.98664,125.96454 C21.12264,125.47314 20.81844,124.37514 21.30804,123.50934 C21.79944,122.64714 22.89384,122.34294 23.76144,122.83254 C24.63984,123.29874 25.02864,124.42194 24.56244,125.30034 C24.23304,125.91414 23.62824,126.27774 22.99284,126.27774 M86.71824,127.07874 C86.04864,127.07874 85.40604,126.70434 85.09644,126.06174 C84.66264,125.16714 85.03704,124.09254 85.93164,123.65874 C86.80824,123.18894 87.94944,123.50034 88.41564,124.37334 C88.88364,125.25174 88.60104,126.31554 87.72444,126.78534 L87.50124,126.89874 C87.24744,127.02114 86.97924,127.07874 86.71824,127.07874 M29.66544,129.44214 C29.45304,129.44214 29.23344,129.40074 29.01924,129.31434 L28.83384,129.23694 C27.91584,128.85354 27.48564,127.79874 27.87084,126.88254 C28.25424,125.96634 29.30904,125.52894 30.22524,125.91774 C31.14684,126.29214 31.66344,127.37214 31.28904,128.29374 C31.00284,128.99934 30.36204,129.44214 29.66544,129.44214 M79.97184,130.07214 C79.26084,130.07214 78.58764,129.64914 78.30324,128.94894 C77.92884,128.02734 78.37344,126.97794 79.29504,126.60354 L79.50744,126.52074 C80.43984,126.17694 81.47844,126.64314 81.82584,127.57374 C82.17504,128.50614 81.70344,129.54294 80.77284,129.89214 L80.64864,129.94074 C80.42724,130.03074 80.19864,130.07214 79.97184,130.07214 M36.64764,131.86134 C36.49824,131.86134 36.34524,131.84154 36.19224,131.80014 C36.17064,131.79474 35.97804,131.73894 35.95644,131.73174 C35.00604,131.43654 34.47864,130.42494 34.77564,129.47814 C35.07264,128.52774 36.08064,127.99674 37.02924,128.29734 C37.96524,128.58894 38.58264,129.60234 38.30544,130.54374 C38.07684,131.33214 37.41084,131.86134 36.64764,131.86134 M72.94464,132.31494 C72.13104,132.31494 71.39484,131.76234 71.19684,130.93794 C70.96284,129.97314 71.55504,128.99934 72.52164,128.76534 C73.47924,128.53494 74.53044,129.08934 74.77524,130.04334 C75.02184,130.99734 74.54304,131.94774 73.59264,132.20694 C73.57644,132.20874 73.38744,132.26094 73.36944,132.26454 C73.22724,132.29874 73.08504,132.31494 72.94464,132.31494 M43.84764,133.51554 C43.74684,133.51554 43.64244,133.50654 43.53984,133.48674 L43.35264,133.45434 C42.37344,133.27614 41.72544,132.34014 41.90364,131.36274 C42.08184,130.38354 43.02144,129.72474 43.99704,129.91374 C44.97624,130.08654 45.71424,131.03334 45.54144,132.01254 C45.38664,132.88734 44.69004,133.51554 43.84764,133.51554 M65.71584,133.78734 C64.84104,133.78734 64.07244,133.15014 63.93924,132.25734 C63.78984,131.27454 64.46484,130.35654 65.44944,130.20894 C65.45124,130.20714 65.63124,130.18194 65.63304,130.18194 C66.61224,130.02354 67.53204,130.71654 67.67604,131.69934 C67.82004,132.68394 67.14144,133.59834 66.15684,133.74234 L65.89584,131.96214 L65.98584,133.76754 C65.89584,133.78194 65.80584,133.78734 65.71584,133.78734 M51.17724,134.38674 C51.14124,134.38674 51.10704,134.38494 51.07104,134.38314 C51.05484,134.38314 50.85684,134.37054 50.83884,134.36874 C49.85064,134.28054 49.11624,133.40754 49.20444,132.41754 C49.29264,131.42754 50.15484,130.69854 51.15564,130.78314 C52.13664,130.86774 52.95384,131.73174 52.88184,132.71454 C52.81344,133.65774 52.10604,134.38674 51.17724,134.38674 M58.37364,134.47674 C57.42864,134.47674 56.63484,133.73874 56.57904,132.78294 C56.52144,131.79114 57.27744,130.93794 58.26924,130.88034 C58.28724,130.87854 58.48344,130.87134 58.50144,130.86954 L58.55544,130.86954 C59.52564,130.86954 60.32484,131.64174 60.35544,132.61734 C60.38244,133.61094 59.60124,134.44074 58.60764,134.46954 L58.55544,132.66954 L58.47984,134.47314 C58.44564,134.47494 58.40784,134.47674 58.37364,134.47674" id="Fill-1" fill="#999999"></path>
                <path d="M98.90676,23.31144 C98.44596,23.31144 97.98516,23.13504 97.63416,22.78404 C96.93036,22.08024 96.86736,20.87784 97.57116,20.17584 C98.27496,19.47024 99.35136,19.41084 100.05336,20.11284 L100.17936,20.23884 C100.88316,20.94264 100.88316,22.08024 100.17936,22.78404 C99.82836,23.13504 99.36756,23.31144 98.90676,23.31144 M103.78656,28.84644 C103.25016,28.84644 102.71916,28.60704 102.36456,28.15164 L102.25296,28.00944 C101.64456,27.22464 101.78496,26.09424 102.56796,25.48404 C103.35636,24.87024 104.48676,25.01784 105.09516,25.79904 L105.20496,25.94124 C105.81696,26.72604 105.67476,27.85644 104.88996,28.46664 C104.56236,28.72404 104.17176,28.84644 103.78656,28.84644 M107.96256,34.93044 C107.33616,34.93044 106.72776,34.60104 106.39476,34.01784 C105.87096,33.17364 106.10316,32.01804 106.94736,31.49244 C107.79336,30.97404 108.87516,31.18284 109.39716,32.02704 L109.52676,32.24304 C110.01816,33.10704 109.71396,34.20684 108.84816,34.69644 C108.56736,34.85484 108.26316,34.93044 107.96256,34.93044 M111.36636,41.47704 C110.67156,41.47704 110.01096,41.07384 109.71576,40.39704 C109.30536,39.49164 109.67616,38.35224 110.58156,37.94364 C111.48696,37.53864 112.52196,37.86264 112.93056,38.77164 L113.01336,38.95524 C113.41296,39.86604 112.99716,40.92624 112.08456,41.32584 C111.85056,41.42844 111.60756,41.47704 111.36636,41.47704 M113.94396,48.38544 C113.17896,48.38544 112.46796,47.89224 112.22676,47.12184 L112.16916,46.93464 C111.88116,45.98424 112.41936,44.97804 113.36976,44.69004 C114.32736,44.40204 115.32636,44.94024 115.61436,45.89064 L115.66296,46.04904 C115.95996,46.99584 115.43076,48.00744 114.48036,48.30264 C114.30396,48.35844 114.12216,48.38544 113.94396,48.38544 M115.67196,55.55664 C114.81876,55.55664 114.06096,54.94824 113.90436,54.07884 L113.87016,53.89164 C113.69736,52.91244 114.35076,51.98004 115.32996,51.80724 C116.30736,51.62904 117.24336,52.28784 117.41436,53.26704 L117.44496,53.43444 C117.62316,54.41184 116.97516,55.34964 115.99596,55.52604 C115.88796,55.54764 115.77996,55.55664 115.67196,55.55664 M116.52696,62.87904 C115.58196,62.87904 114.78816,62.14104 114.73236,61.18524 C114.67476,60.19344 115.42536,59.25204 116.41896,59.19444 C117.45936,59.10624 118.25676,59.80284 118.31436,60.79464 L118.32516,60.97464 C118.38276,61.96644 117.62676,62.81784 116.63496,62.87544 C116.59896,62.87724 116.56296,62.87904 116.52696,62.87904 M116.50176,70.25544 C116.46756,70.25544 116.42976,70.25364 116.39556,70.25184 C115.40196,70.19424 114.64596,69.34104 114.70356,68.34924 C114.76116,67.35744 115.60356,66.50424 116.61156,66.56904 C117.60516,66.62664 118.36656,67.38984 118.30716,68.38164 L118.29636,68.56164 C118.24056,69.51744 117.44856,70.25544 116.50176,70.25544 M115.59456,77.57424 C115.48656,77.57424 115.37856,77.56704 115.27056,77.54544 C114.29136,77.36724 113.64336,76.43124 113.82156,75.45384 C113.99436,74.47464 114.96276,73.74744 115.92036,73.90764 C116.89956,74.08224 117.56916,74.93184 117.39456,75.91104 L117.36216,76.09644 C117.20556,76.96764 116.44776,77.57424 115.59456,77.57424 M113.80896,84.73104 C113.63256,84.73104 113.45076,84.70404 113.27256,84.64824 C112.32396,84.35304 111.79476,83.34324 112.09176,82.39464 C112.37976,81.44064 113.41656,80.82684 114.35976,81.11484 C115.31196,81.40284 115.87356,82.32984 115.58556,83.28024 L115.52616,83.46744 C115.28676,84.23964 114.57576,84.73104 113.80896,84.73104 M111.17376,91.61604 C110.92716,91.61604 110.67516,91.56564 110.43576,91.45584 C109.52856,91.04724 109.12716,89.98164 109.53576,89.07624 C109.94616,88.16904 111.04776,87.68484 111.95316,88.09344 C112.86036,88.50384 113.29956,89.48844 112.89096,90.39384 L112.81716,90.55584 C112.51656,91.22364 111.86136,91.61604 111.17376,91.61604 M107.72316,98.13024 C107.41536,98.13024 107.10216,98.05104 106.81596,97.88364 C105.95736,97.37964 105.67116,96.27804 106.17336,95.42124 C106.18056,95.40864 106.28136,95.24124 106.29036,95.22864 C106.81596,94.38624 107.92476,94.12704 108.76896,94.64904 C109.61316,95.17284 109.87236,96.28344 109.34856,97.12764 L107.81856,96.17724 L109.27836,97.24104 C108.94356,97.81344 108.34236,98.13024 107.72316,98.13024 M103.50936,104.17824 C103.11156,104.17824 102.71196,104.04864 102.38076,103.77864 C101.60676,103.15224 101.48616,102.02184 102.10896,101.24784 C102.72996,100.47744 103.90536,100.28124 104.68476,100.89864 C105.45876,101.51064 105.64776,102.56184 105.04116,103.34304 C105.03396,103.35204 104.91876,103.50144 104.91156,103.50864 C104.55516,103.94964 104.03496,104.17824 103.50936,104.17824 M98.59356,109.67364 C98.12016,109.67364 97.64856,109.49004 97.29396,109.12104 C96.60816,108.40284 96.62976,107.26524 97.34796,106.57584 C98.04996,105.87024 99.24156,105.82344 99.94356,106.52544 C100.64736,107.22924 100.69776,108.31824 99.99396,109.02024 L99.84096,109.17324 C99.49176,109.50804 99.04176,109.67364 98.59356,109.67364 M17.78436,114.26004 C17.42796,114.26004 17.07156,114.14664 16.75656,113.90184 C16.74756,113.89464 16.59816,113.77944 16.59276,113.77224 C15.81876,113.14584 15.69636,112.01364 16.32096,111.24144 C16.94736,110.46564 18.08136,110.34504 18.85176,110.96964 C19.62216,111.59064 19.81836,112.76964 19.20276,113.54544 C18.83736,114.00804 18.31356,114.26004 17.78436,114.26004 M93.05496,114.54624 C92.51856,114.54624 91.98756,114.30684 91.63296,113.85144 C91.02096,113.06484 91.16316,111.93444 91.94796,111.32424 L92.09016,111.21444 C92.87676,110.60244 94.00536,110.74824 94.61556,111.52944 C95.22756,112.31424 95.08536,113.44464 94.30056,114.05484 L94.15836,114.16644 C93.83076,114.42204 93.44016,114.54624 93.05496,114.54624 M23.91516,118.48824 C23.59116,118.48824 23.26356,118.40004 22.96836,118.21824 L23.91696,116.68824 L22.85316,118.14804 C21.99456,117.64404 21.70836,116.54244 22.21236,115.68384 C22.71096,114.82704 23.81256,114.53724 24.67476,115.04304 C24.68736,115.05024 24.85296,115.14924 24.86556,115.15824 C25.71156,115.68204 25.96896,116.79444 25.44516,117.63684 C25.10496,118.18584 24.51636,118.48824 23.91516,118.48824 M86.96556,118.71504 C86.33916,118.71504 85.73076,118.38564 85.39776,117.80244 C84.90816,116.93844 85.21236,115.83864 86.07636,115.34904 C86.92596,114.82344 88.07616,115.05924 88.60176,115.89984 C89.12556,116.74584 88.91316,117.82764 88.06896,118.35144 L87.85116,118.48104 C87.57036,118.63944 87.26616,118.71504 86.96556,118.71504 M30.39696,121.92264 C30.16656,121.92264 29.92896,121.87404 29.69856,121.76784 L29.53476,121.69404 C28.62756,121.28544 28.22436,120.21984 28.63476,119.31444 C29.04336,118.40904 30.11076,118.00224 31.01436,118.41444 C31.92156,118.82484 32.40756,119.92644 31.99716,120.83184 C31.69296,121.50684 31.06836,121.92264 30.39696,121.92264 M80.41896,122.10804 C79.72416,122.10804 79.06356,121.70484 78.76836,121.02804 C78.36876,120.11724 78.78276,119.05704 79.69536,118.65924 C80.60076,118.24884 81.74016,118.61964 82.14876,119.52504 C82.55916,120.43224 82.22796,121.46364 81.32076,121.87404 L81.13716,121.95684 C80.90316,122.05944 80.65836,122.10804 80.41896,122.10804 M37.30896,124.54704 C37.14336,124.54704 36.97596,124.52364 36.80676,124.47144 L36.61956,124.41384 C35.67096,124.11864 35.14176,123.10704 35.43876,122.16024 C35.73396,121.20984 36.74556,120.67884 37.69236,120.97944 C38.64456,121.26744 39.26016,122.29524 38.97216,123.24744 C38.73456,124.02864 38.06856,124.54704 37.30896,124.54704 M73.50156,124.68024 C72.73476,124.68024 72.02376,124.18884 71.78436,123.41664 C71.48736,122.46984 72.01656,121.45824 72.96516,121.16304 L73.15056,121.10544 C74.10636,120.81564 75.10716,121.35744 75.39516,122.30604 C75.68496,123.25644 75.14676,124.26264 74.19456,124.55064 L74.03796,124.59924 C73.85976,124.65504 73.67796,124.68024 73.50156,124.68024 M44.48376,126.32184 C44.38116,126.32184 44.27856,126.31284 44.17416,126.29304 L43.93656,126.24984 C42.96276,126.04104 42.34176,125.08704 42.54696,124.11504 C42.75576,123.14304 43.71696,122.52204 44.68176,122.72544 C45.66096,122.90004 46.37196,123.84504 46.20096,124.82424 C46.04616,125.69724 45.33156,126.32184 44.48376,126.32184 M66.32496,126.39924 C65.47176,126.39924 64.71396,125.79084 64.55736,124.91964 C64.37736,123.94224 65.02716,123.00624 66.00636,122.82804 L66.19176,122.79564 C67.17096,122.61024 68.10516,123.27444 68.27616,124.25364 C68.45076,125.23284 67.79736,126.16704 66.81816,126.33804 L66.64896,126.36864 C66.54096,126.39024 66.43296,126.39924 66.32496,126.39924 M51.80616,127.22004 C51.77016,127.22004 51.73596,127.21824 51.69996,127.21644 L51.52176,127.20564 C50.52816,127.14804 49.77216,126.29484 49.82976,125.30304 C49.88916,124.31124 50.77116,123.57144 51.73236,123.61284 C52.72596,123.67044 53.57016,124.52724 53.51256,125.51904 C53.45676,126.47484 52.74576,127.22004 51.80616,127.22004 M58.99896,127.24344 C58.05396,127.24344 57.26016,126.50544 57.20436,125.54964 C57.14676,124.55784 57.90276,123.70464 58.89456,123.64704 C59.83056,123.61464 60.82956,124.34004 60.88716,125.33364 C60.94476,126.32364 60.27876,127.17144 59.28516,127.22904 L59.10696,127.23984 C59.07096,127.24164 59.03496,127.24344 58.99896,127.24344" id="Fill-3" fill="#999999"></path>
                <path d="M21.35574,119.6379 C21.02094,119.6379 20.68614,119.5461 20.38374,119.3517 C19.54854,118.8135 19.30554,117.7011 19.84374,116.8641 L54.11394,63.5643 C54.65034,62.7273 55.76454,62.4807 56.60154,63.0243 C57.43674,63.5625 57.67974,64.6749 57.14154,65.5119 L22.87134,118.8117 C22.52754,119.3463 21.94794,119.6379 21.35574,119.6379" id="Fill-7" fill="#252528"></path>
                <path d="M55.62774,64.53738 L89.89794,117.83718" id="Fill-9" fill="#FFFFFF"></path>
                <path d="M89.89974,119.6379 C89.30754,119.6379 88.72794,119.3463 88.38414,118.8117 L54.11394,65.5119 C53.57574,64.6749 53.81874,63.5625 54.65394,63.0243 C55.49454,62.4879 56.60514,62.7273 57.14154,63.5643 L91.41174,116.8641 C91.94994,117.7011 91.70694,118.8135 90.87174,119.3517 C90.56934,119.5443 90.23454,119.6379 89.89974,119.6379" id="Fill-11" fill="#333333"></path>
                <path d="M109.45548,64.53738 C109.45548,94.26618 85.35528,118.36458 55.62828,118.36458 C25.89948,118.36458 1.79928,94.26618 1.79928,64.53738 C1.79928,34.80858 25.89948,10.71018 55.62828,10.71018 C85.35528,10.71018 109.45548,34.80858 109.45548,64.53738" id="Fill-13" fill="#FFFFFF"></path>
                <path d="M55.62774,12.50964 C26.93934,12.50964 3.60054,35.85024 3.60054,64.53684 C3.60054,93.22524 26.93934,116.56584 55.62774,116.56584 C84.31614,116.56584 107.65494,93.22524 107.65494,64.53684 C107.65494,35.85024 84.31614,12.50964 55.62774,12.50964 M55.62774,120.16584 C24.95394,120.16584 0.00054,95.21064 0.00054,64.53684 C0.00054,33.86304 24.95394,8.90964 55.62774,8.90964 C86.30154,8.90964 111.25494,33.86304 111.25494,64.53684 C111.25494,95.21064 86.30154,120.16584 55.62774,120.16584" id="Fill-15" fill="#333333"></path>
                <path d="M99.75762,64.53738 C99.75762,88.91118 79.99902,108.66978 55.62702,108.66978 C31.25322,108.66978 11.49642,88.91118 11.49642,64.53738 C11.49642,40.16358 31.25322,20.40498 55.62702,20.40498 C79.99902,20.40498 99.75762,40.16358 99.75762,64.53738" id="Fill-17" fill="#FFFFFF"></path>
                <path d="M55.62774,22.20588 C32.28534,22.20588 13.29534,41.19588 13.29534,64.53828 C13.29534,87.87888 32.28534,106.86888 55.62774,106.86888 C78.96834,106.86888 97.95834,87.87888 97.95834,64.53828 C97.95834,41.19588 78.96834,22.20588 55.62774,22.20588 M55.62774,110.46888 C30.30174,110.46888 9.69534,89.86428 9.69534,64.53828 C9.69534,39.21048 30.30174,18.60588 55.62774,18.60588 C80.95374,18.60588 101.55834,39.21048 101.55834,64.53828 C101.55834,89.86428 80.95374,110.46888 55.62774,110.46888" id="Fill-19" fill="#333333"></path>
                <path d="M55.62774,66.33738 C54.63234,66.33738 53.82774,65.53278 53.82774,64.53738 L53.82774,36.31158 C53.82774,35.31798 54.63234,34.51158 55.62774,34.51158 C56.62314,34.51158 57.42774,35.31798 57.42774,36.31158 L57.42774,64.53738 C57.42774,65.53278 56.62314,66.33738 55.62774,66.33738" id="Fill-21" fill="#0574B9"></path>
                <path d="M74.71926,66.33738 L55.62846,66.33738 C54.63306,66.33738 53.82846,65.53278 53.82846,64.53738 C53.82846,63.54198 54.63306,62.73738 55.62846,62.73738 L74.71926,62.73738 C75.71466,62.73738 76.51926,63.54198 76.51926,64.53738 C76.51926,65.53278 75.71466,66.33738 74.71926,66.33738" id="Fill-23" fill="#333333"></path>
                <path d="M15.9786,21.08088 C15.3576,21.08088 14.7528,20.75868 14.4198,20.18268 C12.6198,17.07588 12.1374,13.45428 13.0644,9.98568 C13.9896,6.51528 16.2108,3.61368 19.3176,1.81548 C22.4262,0.01728 26.0478,-0.46512 29.5164,0.46008 C32.9868,1.38528 35.8884,3.60648 37.6866,6.71508 C38.1852,7.57548 37.89,8.67528 37.0296,9.17388 C36.1638,9.67428 35.0694,9.37728 34.5708,8.51868 C33.255,6.24168 31.1292,4.61628 28.5894,3.93948 C26.0514,3.26088 23.3964,3.61368 21.1212,4.92948 C18.8478,6.24888 17.2188,8.37108 16.542,10.91268 C15.8652,13.45248 16.218,16.10388 17.5338,18.37908 C18.0342,19.23948 17.7408,20.34108 16.8786,20.83788 C16.596,21.00348 16.2846,21.08088 15.9786,21.08088" id="Fill-25" fill="#0574B9"></path>
                <path d="M95.27526,21.08088 C94.96926,21.08088 94.65786,21.00348 94.37526,20.83788 C93.51306,20.34108 93.21966,19.23948 93.72006,18.37908 C95.03586,16.10388 95.38866,13.45248 94.71186,10.91268 C94.03506,8.37108 92.40606,6.24888 90.13266,4.92948 C87.85746,3.61548 85.20966,3.26268 82.66446,3.93948 C80.12466,4.61628 78.00066,6.24348 76.68306,8.51868 C76.18446,9.37728 75.07926,9.67248 74.22426,9.17388 C73.36206,8.67528 73.06866,7.57368 73.56726,6.71508 C75.36546,3.60648 78.26886,1.38528 81.73746,0.46008 C85.20246,-0.46512 88.82586,0.01368 91.93626,1.81548 C95.04306,3.61368 97.26426,6.51528 98.18946,9.98568 C99.11646,13.45428 98.63406,17.07588 96.83406,20.18268 C96.50106,20.75868 95.89626,21.08088 95.27526,21.08088" id="Fill-27" fill="#0574B9"></path>
            </g>
        </g>
    </g>
</svg>