<?xml version="1.0" encoding="UTF-8"?>
<svg width="52px" height="35px" viewBox="0 0 52 35" version="1.1" xmlns="http://www.w3.org/2000/svg" xmlns:xlink="http://www.w3.org/1999/xlink">
    <!-- Generator: sketchtool 52.2 (67145) - http://www.bohemiancoding.com/sketch -->
    <title>3507D143-33F0-4E3A-8AE1-9A614CE7F767</title>
    <desc>Created with sketchtool.</desc>
    <g id="Symbols" stroke="none" stroke-width="1" fill="none" fill-rule="evenodd">
        <g id="Riesgo/Bajo">
            <g id="Bajo">
                <rect id="Rectangle-6" fill="#0574B9" x="0" y="13.7878788" width="13.7878788" height="21.2121212" rx="6.89393939"></rect>
                <path d="M25.9848485,4.74242424 C22.4535733,4.74242424 19.5909091,7.60508842 19.5909091,11.1363636 L19.5909091,28.1060606 C19.5909091,31.6373358 22.4535733,34.5 25.9848485,34.5 C29.5161237,34.5 32.3787879,31.6373358 32.3787879,28.1060606 L32.3787879,11.1363636 C32.3787879,7.60508842 29.5161237,4.74242424 25.9848485,4.74242424 Z" id="Rectangle-6-Copy" stroke="#0574B9"></path>
                <path d="M45.0757576,0.5 C41.5444824,0.5 38.6818182,3.36266418 38.6818182,6.89393939 L38.6818182,28.1060606 C38.6818182,31.6373358 41.5444824,34.5 45.0757576,34.5 C48.6070328,34.5 51.469697,31.6373358 51.469697,28.1060606 L51.469697,6.89393939 C51.469697,3.36266418 48.6070328,0.5 45.0757576,0.5 Z" id="Rectangle-6-Copy-2" stroke="#0574B9"></path>
            </g>
        </g>
    </g>
</svg>