<svg xmlns="http://www.w3.org/2000/svg" width="14" height="14" viewBox="0 0 14 14">
    <path fill="#333" fill-rule="nonzero" d="M6.125 10.5h1.75V8.75h-1.75v1.75zM3.5 7.875h1.75v-1.75H3.5v1.75zm0 2.625h1.75V8.75H3.5v1.75zM4.375 0h-1.75v1.75h1.75V0zM8.75 10.5h1.75V8.75H8.75v1.75zM12.25 0v1.75a.875.875 0 0 1-.875.875h-1.75a.875.875 0 0 1-.875-.875V0h-3.5v1.75a.875.875 0 0 1-.875.875h-1.75a.875.875 0 0 1-.875-.875V0A1.75 1.75 0 0 0 0 1.75v10.5C0 13.217.783 14 1.75 14h10.5A1.75 1.75 0 0 0 14 12.25V1.75A1.75 1.75 0 0 0 12.25 0zm0 11.375a.875.875 0 0 1-.875.875h-8.75a.875.875 0 0 1-.875-.875V5.25c0-.483.392-.875.875-.875h8.75c.483 0 .875.392.875.875v6.125zm-6.125-3.5h1.75v-1.75h-1.75v1.75zm2.625 0h1.75v-1.75H8.75v1.75zM11.375 0h-1.75v1.75h1.75V0z"/>
</svg>
