<svg xmlns="http://www.w3.org/2000/svg" xmlns:xlink="http://www.w3.org/1999/xlink" width="153" height="108" viewBox="0 0 153 108">
    <defs>
        <path id="a" d="M.59.192h135.825v93.407H.591z"/>
    </defs>
    <g fill="none" fill-rule="evenodd">
        <g transform="translate(16.306 14.208)">
            <mask id="b" fill="#fff">
                <use xlink:href="#a"/>
            </mask>
            <path fill="#999" d="M134.603 3.972a1.805 1.805 0 0 1-1.811-1.8v-.18c0-.994.81-1.8 1.811-1.8 1.002 0 1.812.806 1.812 1.8v.18c0 .993-.81 1.8-1.812 1.8m0 7.38a1.805 1.805 0 0 1-1.811-1.8v-.18c0-.994.81-1.8 1.811-1.8 1.002 0 1.812.806 1.812 1.8v.18c0 .993-.81 1.8-1.812 1.8m0 7.38a1.805 1.805 0 0 1-1.811-1.8c0-.996.81-1.89 1.811-1.89 1.002 0 1.812.716 1.812 1.71v.18c0 .993-.81 1.8-1.812 1.8m0 7.38a1.805 1.805 0 0 1-1.811-1.8v-.18c0-.996.81-1.8 1.811-1.8 1.002 0 1.812.804 1.812 1.8v.18c0 .993-.81 1.8-1.812 1.8m0 7.38a1.805 1.805 0 0 1-1.811-1.8v-.18c0-.994.81-1.8 1.811-1.8 1.002 0 1.812.806 1.812 1.8v.18c0 .993-.81 1.8-1.812 1.8m0 7.38a1.805 1.805 0 0 1-1.811-1.8v-.18c0-.994.81-1.8 1.811-1.8 1.002 0 1.812.806 1.812 1.8v.18c0 .993-.81 1.8-1.812 1.8m0 7.38a1.805 1.805 0 0 1-1.811-1.8v-.18c0-.994.81-1.8 1.811-1.8 1.002 0 1.812.806 1.812 1.8v.18c0 .993-.81 1.8-1.812 1.8m0 7.38a1.805 1.805 0 0 1-1.811-1.8c0-.996.81-1.89 1.811-1.89 1.002 0 1.812.716 1.812 1.71v.18c0 .993-.81 1.8-1.812 1.8m0 7.38a1.805 1.805 0 0 1-1.811-1.8v-.18c0-.996.81-1.8 1.811-1.8 1.002 0 1.812.804 1.812 1.8v.18c0 .993-.81 1.8-1.812 1.8m0 7.38a1.805 1.805 0 0 1-1.811-1.8v-.18c0-.994.81-1.8 1.811-1.8 1.002 0 1.812.806 1.812 1.8v.18c0 .993-.81 1.8-1.812 1.8m-.003 7.378c-.018 0-.036 0-.055-.002a1.806 1.806 0 0 1-1.759-1.85c.031-.976.837-1.838 1.816-1.838h.025c.991.014 1.786.727 1.786 1.712l-.003.228a1.808 1.808 0 0 1-1.81 1.75m-1.834 7.047c-.268 0-.54-.06-.791-.187-.89-.447-1.267-1.49-.821-2.378.447-.887 1.574-1.328 2.466-.887.893.44 1.302 1.436.862 2.327l-.06.117a1.871 1.871 0 0 1-1.656 1.008m-4.774 5.603a1.814 1.814 0 0 1-1.445-.71 1.792 1.792 0 0 1 .347-2.522c.796-.602 2.006-.5 2.611.291.605.792.522 1.867-.277 2.468l-.143.108c-.328.246-.71.365-1.093.365m-6.754 2.916a1.798 1.798 0 0 1-.322-3.571c.965-.174 2.007.447 2.192 1.42.186.972-.364 1.892-1.34 2.083l-.204.04a1.83 1.83 0 0 1-.326.028M2.584 93.6h-.181A1.804 1.804 0 0 1 .59 91.8c0-.994.81-1.8 1.812-1.8 1.001 0 1.902.806 1.902 1.8 0 .995-.72 1.8-1.721 1.8m7.428 0h-.181a1.804 1.804 0 0 1-1.812-1.8c0-.994.81-1.8 1.812-1.8h.181c1.002 0 1.812.806 1.812 1.8 0 .995-.81 1.8-1.812 1.8m7.428 0h-.18c-1.001 0-1.813-.805-1.813-1.8 0-.994.812-1.8 1.812-1.8 1.002 0 1.902.806 1.902 1.8 0 .995-.719 1.8-1.72 1.8m7.43 0h-.184a1.804 1.804 0 0 1-1.811-1.8c0-.994.81-1.8 1.811-1.8h.183c1 0 1.812.806 1.812 1.8 0 .995-.812 1.8-1.812 1.8m7.427 0h-.18a1.804 1.804 0 0 1-1.811-1.8c0-.994.81-1.8 1.811-1.8 1 0 1.9.806 1.9 1.8 0 .995-.718 1.8-1.72 1.8m7.428 0h-.181a1.804 1.804 0 0 1-1.812-1.8c0-.994.81-1.8 1.812-1.8s1.902.806 1.902 1.8c0 .995-.72 1.8-1.721 1.8m7.428 0h-.181a1.804 1.804 0 0 1-1.812-1.8c0-.994.81-1.8 1.812-1.8h.181c1.002 0 1.812.806 1.812 1.8 0 .995-.81 1.8-1.812 1.8m7.428 0h-.18c-1 0-1.813-.805-1.813-1.8 0-.994.812-1.8 1.812-1.8 1.002 0 1.903.806 1.903 1.8 0 .995-.72 1.8-1.722 1.8m7.43 0h-.183a1.804 1.804 0 0 1-1.811-1.8c0-.994.81-1.8 1.811-1.8h.183c1 0 1.812.806 1.812 1.8 0 .995-.811 1.8-1.812 1.8m7.427 0h-.18a1.804 1.804 0 0 1-1.811-1.8c0-.994.81-1.8 1.812-1.8 1 0 1.9.806 1.9 1.8 0 .995-.72 1.8-1.721 1.8m7.428 0h-.181a1.804 1.804 0 0 1-1.812-1.8c0-.994.81-1.8 1.812-1.8s1.902.806 1.902 1.8c0 .995-.719 1.8-1.72 1.8m7.427 0h-.18a1.804 1.804 0 0 1-1.813-1.8c0-.994.81-1.8 1.812-1.8h.181c1.002 0 1.812.806 1.812 1.8 0 .995-.81 1.8-1.812 1.8m7.429 0h-.182c-1 0-1.811-.805-1.811-1.8 0-.994.811-1.8 1.811-1.8 1.002 0 1.903.806 1.903 1.8 0 .995-.72 1.8-1.721 1.8m7.43 0h-.183a1.804 1.804 0 0 1-1.812-1.8c0-.994.81-1.8 1.812-1.8h.183c1 0 1.811.806 1.811 1.8 0 .995-.811 1.8-1.811 1.8m7.426 0h-.18a1.804 1.804 0 0 1-1.811-1.8c0-.994.81-1.8 1.812-1.8 1 0 1.9.806 1.9 1.8 0 .995-.719 1.8-1.72 1.8m7.427 0h-.18a1.804 1.804 0 0 1-1.813-1.8c0-.994.81-1.8 1.812-1.8s1.902.806 1.902 1.8c0 .995-.719 1.8-1.72 1.8" mask="url(#b)"/>
        </g>
        <path fill="#999" d="M143.662 12.78a1.805 1.805 0 0 1-1.812-1.8v-.18c0-.993.81-1.8 1.812-1.8s1.812.807 1.812 1.8v.18c0 .994-.81 1.8-1.812 1.8m0 7.38a1.805 1.805 0 0 1-1.812-1.8v-.18c0-.993.81-1.8 1.812-1.8s1.812.807 1.812 1.8v.18c0 .994-.81 1.8-1.812 1.8m0 7.38a1.805 1.805 0 0 1-1.812-1.8c0-.995.81-1.89 1.812-1.89s1.812.717 1.812 1.71v.18c0 .994-.81 1.8-1.812 1.8m0 7.38a1.805 1.805 0 0 1-1.812-1.8v-.18c0-.995.81-1.8 1.812-1.8s1.812.805 1.812 1.8v.18c0 .994-.81 1.8-1.812 1.8m0 7.38a1.805 1.805 0 0 1-1.812-1.8v-.18c0-.993.81-1.8 1.812-1.8s1.812.807 1.812 1.8v.18c0 .994-.81 1.8-1.812 1.8m0 7.38a1.805 1.805 0 0 1-1.812-1.8v-.18c0-.993.81-1.8 1.812-1.8s1.812.807 1.812 1.8v.18c0 .994-.81 1.8-1.812 1.8m0 7.38a1.805 1.805 0 0 1-1.812-1.8v-.18c0-.993.81-1.8 1.812-1.8s1.812.807 1.812 1.8v.18c0 .994-.81 1.8-1.812 1.8m0 7.38a1.805 1.805 0 0 1-1.812-1.8c0-.995.81-1.89 1.812-1.89s1.812.717 1.812 1.71v.18c0 .994-.81 1.8-1.812 1.8m0 7.38a1.805 1.805 0 0 1-1.812-1.8v-.18c0-.995.81-1.8 1.812-1.8s1.812.805 1.812 1.8v.18c0 .994-.81 1.8-1.812 1.8m0 7.38a1.805 1.805 0 0 1-1.812-1.8v-.18c0-.993.81-1.8 1.812-1.8s1.812.807 1.812 1.8v.18c0 .994-.81 1.8-1.812 1.8m0 7.38a1.805 1.805 0 0 1-1.812-1.8v-.18c0-.993.81-1.8 1.812-1.8s1.812.807 1.812 1.8v.18c0 .994-.81 1.8-1.812 1.8m-.304 7.353c-.16 0-.319-.021-.478-.065a1.8 1.8 0 0 1-1.272-2.21c.26-.949 1.268-1.595 2.223-1.355.958.244 1.563 1.123 1.33 2.08l-.057.224c-.219.799-.95 1.326-1.746 1.326m-4.493 5.616a1.815 1.815 0 0 1-1.602-.952 1.794 1.794 0 0 1 .747-2.435c.871-.477 2.049-.2 2.529.671.484.871.232 1.928-.645 2.407l-.18.097a1.812 1.812 0 0 1-.85.212m-125.922 1.059h-.182a1.804 1.804 0 0 1-1.811-1.8c0-.994.81-1.8 1.811-1.8 1.002 0 1.903.806 1.903 1.8 0 .995-.721 1.8-1.721 1.8m7.428 0h-.181a1.804 1.804 0 0 1-1.812-1.8c0-.994.81-1.8 1.812-1.8h.18c1.003 0 1.813.806 1.813 1.8 0 .995-.81 1.8-1.812 1.8m7.428 0h-.181a1.804 1.804 0 0 1-1.812-1.8c0-.994.81-1.8 1.812-1.8s1.902.806 1.902 1.8c0 .995-.719 1.8-1.72 1.8m7.427 0h-.18a1.804 1.804 0 0 1-1.813-1.8c0-.994.81-1.8 1.812-1.8h.181c1.002 0 1.812.806 1.812 1.8 0 .995-.81 1.8-1.812 1.8m7.429 0h-.182c-1 0-1.811-.805-1.811-1.8 0-.994.811-1.8 1.811-1.8 1.002 0 1.903.806 1.903 1.8 0 .995-.72 1.8-1.721 1.8m7.428 0h-.181a1.804 1.804 0 0 1-1.812-1.8c0-.994.81-1.8 1.812-1.8s1.902.806 1.902 1.8c0 .995-.721 1.8-1.721 1.8m7.428 0h-.181a1.804 1.804 0 0 1-1.812-1.8c0-.994.81-1.8 1.812-1.8h.181c1.002 0 1.812.806 1.812 1.8 0 .995-.81 1.8-1.812 1.8m7.428 0h-.18a1.804 1.804 0 0 1-1.813-1.8c0-.994.81-1.8 1.812-1.8s1.902.806 1.902 1.8c0 .995-.719 1.8-1.72 1.8m7.427 0h-.18a1.804 1.804 0 0 1-1.812-1.8c0-.994.81-1.8 1.811-1.8h.181c1.002 0 1.812.806 1.812 1.8 0 .995-.81 1.8-1.812 1.8m7.429 0h-.181c-1 0-1.812-.805-1.812-1.8 0-.994.811-1.8 1.812-1.8s1.902.806 1.902 1.8c0 .995-.72 1.8-1.721 1.8m7.428 0h-.181a1.804 1.804 0 0 1-1.812-1.8c0-.994.81-1.8 1.812-1.8s1.902.806 1.902 1.8c0 .995-.72 1.8-1.721 1.8m7.428 0h-.181a1.804 1.804 0 0 1-1.812-1.8c0-.994.81-1.8 1.812-1.8h.181c1.002 0 1.812.806 1.812 1.8 0 .995-.81 1.8-1.812 1.8m7.428 0h-.18a1.804 1.804 0 0 1-1.813-1.8c0-.994.81-1.8 1.812-1.8s1.903.806 1.903 1.8c0 .995-.72 1.8-1.722 1.8m7.429 0h-.182a1.804 1.804 0 0 1-1.811-1.8c0-.994.81-1.8 1.811-1.8h.182c1.002 0 1.811.806 1.811 1.8 0 .995-.81 1.8-1.811 1.8m7.428 0h-.181c-1 0-1.812-.805-1.812-1.8 0-.994.812-1.8 1.812-1.8 1.002 0 1.902.806 1.902 1.8 0 .995-.72 1.8-1.721 1.8m7.428 0h-.181a1.804 1.804 0 0 1-1.812-1.8c0-.994.81-1.8 1.812-1.8s1.902.806 1.902 1.8c0 .995-.72 1.8-1.72 1.8m7.427 0h-.18a1.804 1.804 0 0 1-1.813-1.8c0-.994.81-1.8 1.812-1.8h.181c1.002 0 1.812.806 1.812 1.8 0 .995-.81 1.8-1.812 1.8"/>
        <path fill="#FFF" d="M134.603 91.61H3.623a1.805 1.805 0 0 1-1.811-1.8V3.6c0-.993.81-1.8 1.812-1.8h130.98c1.001 0 1.811.807 1.811 1.8v86.21c0 .993-.81 1.8-1.812 1.8"/>
        <path fill="#333" d="M3.624 3.6v86.21h130.981l-.002-86.21H3.623zm130.98 89.81H3.623C1.625 93.41 0 91.794 0 89.81V3.6C0 1.615 1.625 0 3.624 0h130.98c1.996 0 3.623 1.615 3.623 3.6v86.21c0 1.985-1.627 3.6-3.624 3.6z"/>
        <path fill="#FFF" d="M3.624 89.81l49.035-39.588"/>
        <path fill="#333" d="M3.626 91.61a1.815 1.815 0 0 1-1.408-.665 1.792 1.792 0 0 1 .262-2.532l49.038-39.588a1.824 1.824 0 0 1 2.549.261 1.794 1.794 0 0 1-.265 2.533L4.767 91.206c-.337.272-.74.403-1.141.403"/>
        <path fill="#FFF" d="M134.603 89.81L85.568 50.221"/>
        <path fill="#333" d="M134.602 91.61c-.403 0-.805-.132-1.142-.404L84.425 51.62a1.794 1.794 0 0 1-.265-2.533 1.824 1.824 0 0 1 2.55-.26l49.037 39.587c.777.626.893 1.76.262 2.532-.358.438-.88.664-1.407.664"/>
        <path fill="#FFF" d="M1.812 16.591L67.1 59.931c1.219.81 2.808.81 4.025 0l65.29-43.34"/>
        <path fill="#333" d="M69.114 62.343a5.45 5.45 0 0 1-3.02-.915L.806 18.088a1.793 1.793 0 0 1-.5-2.497 1.816 1.816 0 0 1 2.512-.497l65.29 43.34a1.813 1.813 0 0 0 2.01.003l65.29-43.343a1.817 1.817 0 0 1 2.514.497 1.793 1.793 0 0 1-.5 2.497l-65.29 43.34a5.44 5.44 0 0 1-3.018.915"/>
        <path fill="#FFF" d="M82.915 11.27c11.98-5.399 11.98 4.705 25.354-1.8"/>
        <path fill="#0574B9" d="M100.03 13.542c-2.354 0-4.184-.603-5.9-1.17-2.875-.948-5.357-1.767-10.466.537a1.816 1.816 0 0 1-2.399-.897 1.794 1.794 0 0 1 .902-2.381c6.405-2.886 9.967-1.712 13.105-.675 3.18 1.048 5.919 1.95 12.2-1.103a1.816 1.816 0 0 1 2.424.824 1.796 1.796 0 0 1-.831 2.408c-3.805 1.852-6.682 2.457-9.035 2.457"/>
        <path fill="#FFF" d="M82.915 18.47c11.98-5.399 11.98 4.705 25.354-1.8"/>
        <path fill="#0574B9" d="M100.03 20.742c-2.354 0-4.184-.603-5.9-1.17-2.875-.948-5.357-1.767-10.466.537a1.816 1.816 0 0 1-2.399-.897 1.794 1.794 0 0 1 .902-2.381c6.405-2.887 9.967-1.712 13.105-.675 3.18 1.047 5.919 1.95 12.2-1.103a1.816 1.816 0 0 1 2.424.824 1.796 1.796 0 0 1-.831 2.408c-3.805 1.852-6.682 2.457-9.035 2.457"/>
        <path fill="#FFF" d="M82.915 25.67c11.98-5.399 11.98 4.705 25.354-1.8"/>
        <path fill="#0574B9" d="M100.03 27.942c-2.354 0-4.184-.603-5.9-1.17-2.875-.946-5.357-1.767-10.466.537a1.815 1.815 0 0 1-2.399-.897 1.794 1.794 0 0 1 .902-2.381c6.405-2.887 9.967-1.712 13.105-.675 3.18 1.047 5.919 1.951 12.2-1.104a1.816 1.816 0 0 1 2.424.825 1.796 1.796 0 0 1-.831 2.408c-3.805 1.852-6.682 2.457-9.035 2.457"/>
    </g>
</svg>
