<?xml version="1.0" encoding="UTF-8"?>
<svg width="76px" height="61px" viewBox="0 0 76 61" version="1.1" xmlns="http://www.w3.org/2000/svg" xmlns:xlink="http://www.w3.org/1999/xlink">
    <title>9729041E-0E89-485E-98CD-9085E400E8E1</title>
    <defs>
        <polygon id="path-1" points="0 60.3667 75.046 60.3667 75.046 -0.0003 0 -0.0003"></polygon>
    </defs>
    <g id="HIstórico-+-Presentación-de-DDJJ" stroke="none" stroke-width="1" fill="none" fill-rule="evenodd">
        <g id="DDJJs---carga-de-archivo" transform="translate(-1151.000000, -363.000000)">
            <g id="Seleccion-de-periodo" transform="translate(165.000000, 285.000000)">
                <g id="Domicilio-Fiscal" transform="translate(2.000000, 41.000000)">
                    <g id="icon" transform="translate(984.000000, 37.000000)">
                        <path d="M65,51.0005 L2,51.0005 C1.447,51.0005 1,50.5525 1,50.0005 L1,2.0005 C1,1.4475 1.447,1.0005 2,1.0005 L65,1.0005 C65.552,1.0005 66,1.4475 66,2.0005 L66,50.0005 C66,50.5525 65.552,51.0005 65,51.0005" id="Fill-1" fill="#FFFFFF"></path>
                        <mask id="mask-2" fill="white">
                            <use xlink:href="#path-1"></use>
                        </mask>
                        <g id="Clip-4"></g>
                        <path d="M2,50.0007 L65,50.0007 L65,2.0007 L2,2.0007 L2,50.0007 Z M65,50.0007 L65,51.0007 L65.001,50.0007 L65,50.0007 Z M65,52.0007 L2,52.0007 C0.897,52.0007 0,51.1027 0,50.0007 L0,1.9997 C0,0.8967 0.897,-0.0003 2,-0.0003 L65,-0.0003 C66.103,-0.0003 67,0.8967 67,1.9997 L67,50.0007 C67,51.1027 66.103,52.0007 65,52.0007 L65,52.0007 Z" id="Fill-3" fill="#333333" mask="url(#mask-2)"></path>
                        <path d="M9.0498,60.3667 C8.4968,60.3667 8.0258,59.9197 8.0258,59.3667 C8.0258,58.8137 8.4468,58.3667 8.9998,58.3667 L9.0498,58.3667 C9.6028,58.3667 10.0498,58.8137 10.0498,59.3667 C10.0498,59.9197 9.6028,60.3667 9.0498,60.3667" id="Fill-5" fill="#999999" mask="url(#mask-2)"></path>
                        <path d="M74.0459,14.1636 C73.4929,14.1636 73.0459,13.7166 73.0459,13.1636 L73.0459,13.0626 C73.0459,12.5106 73.4929,12.0626 74.0459,12.0626 C74.5989,12.0626 75.0459,12.5106 75.0459,13.0626 L75.0459,13.1636 C75.0459,13.7166 74.5989,14.1636 74.0459,14.1636 M74.0459,18.2696 C73.4929,18.2696 73.0459,17.8226 73.0459,17.2696 L73.0459,17.1696 C73.0459,16.6166 73.4929,16.1696 74.0459,16.1696 C74.5989,16.1696 75.0459,16.6166 75.0459,17.1696 L75.0459,17.2696 C75.0459,17.8226 74.5989,18.2696 74.0459,18.2696 M74.0459,22.3256 C73.4929,22.3256 73.0459,21.9286 73.0459,21.3756 L73.0459,21.2756 C73.0459,20.7236 73.4929,20.2756 74.0459,20.2756 C74.5989,20.2756 75.0459,20.7236 75.0459,21.2756 C75.0459,21.8286 74.5989,22.3256 74.0459,22.3256 M74.0459,26.4326 C73.4929,26.4326 73.0459,26.0346 73.0459,25.4816 L73.0459,25.3826 C73.0459,24.8296 73.4929,24.3826 74.0459,24.3826 C74.5989,24.3826 75.0459,24.8296 75.0459,25.3826 C75.0459,25.9346 74.5989,26.4326 74.0459,26.4326 M74.0459,30.5386 C73.4929,30.5386 73.0459,30.1416 73.0459,29.5886 L73.0459,29.4886 C73.0459,28.9356 73.4929,28.4886 74.0459,28.4886 C74.5989,28.4886 75.0459,28.9356 75.0459,29.4886 C75.0459,30.0416 74.5989,30.5386 74.0459,30.5386 M74.0459,34.6446 C73.4929,34.6446 73.0459,34.2476 73.0459,33.6946 L73.0459,33.5956 C73.0459,33.0426 73.4929,32.5956 74.0459,32.5956 C74.5989,32.5956 75.0459,33.0426 75.0459,33.5956 C75.0459,34.1476 74.5989,34.6446 74.0459,34.6446 M74.0459,38.7516 C73.4929,38.7516 73.0459,38.3536 73.0459,37.8016 L73.0459,37.7016 C73.0459,37.1486 73.4929,36.7016 74.0459,36.7016 C74.5989,36.7016 75.0459,37.1486 75.0459,37.7016 C75.0459,38.2546 74.5989,38.7516 74.0459,38.7516 M74.0459,42.9076 C73.4929,42.9076 73.0459,42.4606 73.0459,41.9076 L73.0459,41.8076 C73.0459,41.2546 73.4929,40.8076 74.0459,40.8076 C74.5989,40.8076 75.0459,41.2546 75.0459,41.8076 L75.0459,41.9076 C75.0459,42.4606 74.5989,42.9076 74.0459,42.9076 M74.0459,47.0146 C73.4929,47.0146 73.0459,46.5666 73.0459,46.0146 L73.0459,45.9136 C73.0459,45.3606 73.4929,44.9136 74.0459,44.9136 C74.5989,44.9136 75.0459,45.3606 75.0459,45.9136 L75.0459,46.0146 C75.0459,46.5666 74.5989,47.0146 74.0459,47.0146 M74.0459,51.1206 C73.4929,51.1206 73.0459,50.6736 73.0459,50.1206 L73.0459,50.0196 C73.0459,49.4676 73.4929,49.0196 74.0459,49.0196 C74.5989,49.0196 75.0459,49.4676 75.0459,50.0196 L75.0459,50.1206 C75.0459,50.6736 74.5989,51.1206 74.0459,51.1206 M74.0459,55.2266 C73.4929,55.2266 73.0459,54.7796 73.0459,54.2266 L73.0459,54.1266 C73.0459,53.5736 73.4929,53.1266 74.0459,53.1266 C74.5989,53.1266 75.0459,53.5736 75.0459,54.1266 L75.0459,54.2266 C75.0459,54.7796 74.5989,55.2266 74.0459,55.2266 M74.0459,59.3336 C73.4929,59.3336 73.0459,58.8866 73.0459,58.3336 L73.0459,58.2326 C73.0459,57.6806 73.4929,57.2326 74.0459,57.2326 C74.5989,57.2326 75.0459,57.6806 75.0459,58.2326 L75.0459,58.3336 C75.0459,58.8866 74.5989,59.3336 74.0459,59.3336 M13.1559,60.3666 L13.0559,60.3666 C12.5029,60.3666 12.0559,59.9196 12.0559,59.3666 C12.0559,58.8136 12.5029,58.3666 13.0559,58.3666 L13.1559,58.3666 C13.7089,58.3666 14.1559,58.8136 14.1559,59.3666 C14.1559,59.9196 13.7089,60.3666 13.1559,60.3666 M17.2619,60.3666 C16.7089,60.3666 16.2119,59.9196 16.2119,59.3666 C16.2119,58.8136 16.6089,58.3666 17.1619,58.3666 L17.2619,58.3666 C17.8149,58.3666 18.2619,58.8136 18.2619,59.3666 C18.2619,59.9196 17.8149,60.3666 17.2619,60.3666 M21.3679,60.3666 C20.8159,60.3666 20.3179,59.9196 20.3179,59.3666 C20.3179,58.8136 20.7159,58.3666 21.2689,58.3666 L21.3679,58.3666 C21.9209,58.3666 22.3679,58.8136 22.3679,59.3666 C22.3679,59.9196 21.9209,60.3666 21.3679,60.3666 M25.4749,60.3666 C24.9219,60.3666 24.4249,59.9196 24.4249,59.3666 C24.4249,58.8136 24.8219,58.3666 25.3749,58.3666 L25.4749,58.3666 C26.0269,58.3666 26.4749,58.8136 26.4749,59.3666 C26.4749,59.9196 26.0269,60.3666 25.4749,60.3666 M29.5809,60.3666 C29.0279,60.3666 28.5309,59.9196 28.5309,59.3666 C28.5309,58.8136 28.9289,58.3666 29.4819,58.3666 L29.5809,58.3666 C30.1339,58.3666 30.5809,58.8136 30.5809,59.3666 C30.5809,59.9196 30.1339,60.3666 29.5809,60.3666 M33.6879,60.3666 C33.1349,60.3666 32.6379,59.9196 32.6379,59.3666 C32.6379,58.8136 33.0349,58.3666 33.5879,58.3666 L33.6879,58.3666 C34.2399,58.3666 34.6879,58.8136 34.6879,59.3666 C34.6879,59.9196 34.2399,60.3666 33.6879,60.3666 M37.7939,60.3666 L37.6929,60.3666 C37.1409,60.3666 36.6929,59.9196 36.6929,59.3666 C36.6929,58.8136 37.1409,58.3666 37.6929,58.3666 L37.7939,58.3666 C38.3469,58.3666 38.7939,58.8136 38.7939,59.3666 C38.7939,59.9196 38.3469,60.3666 37.7939,60.3666 M41.8999,60.3666 L41.7999,60.3666 C41.2469,60.3666 40.7999,59.9196 40.7999,59.3666 C40.7999,58.8136 41.2469,58.3666 41.7999,58.3666 L41.8999,58.3666 C42.4529,58.3666 42.8999,58.8136 42.8999,59.3666 C42.8999,59.9196 42.4529,60.3666 41.8999,60.3666 M46.0069,60.3666 L45.9059,60.3666 C45.3539,60.3666 44.9059,59.9196 44.9059,59.3666 C44.9059,58.8136 45.3539,58.3666 45.9059,58.3666 L46.0069,58.3666 C46.5599,58.3666 47.0069,58.8136 47.0069,59.3666 C47.0069,59.9196 46.5599,60.3666 46.0069,60.3666 M50.1129,60.3666 L50.0129,60.3666 C49.4599,60.3666 49.0129,59.9196 49.0129,59.3666 C49.0129,58.8136 49.4599,58.3666 50.0129,58.3666 L50.1129,58.3666 C50.6659,58.3666 51.1129,58.8136 51.1129,59.3666 C51.1129,59.9196 50.6659,60.3666 50.1129,60.3666 M54.2199,60.3666 L54.1189,60.3666 C53.5669,60.3666 53.1189,59.9196 53.1189,59.3666 C53.1189,58.8136 53.5669,58.3666 54.1189,58.3666 L54.2199,58.3666 C54.7729,58.3666 55.2199,58.8136 55.2199,59.3666 C55.2199,59.9196 54.7729,60.3666 54.2199,60.3666 M58.3259,60.3666 L58.2259,60.3666 C57.6729,60.3666 57.2259,59.9196 57.2259,59.3666 C57.2259,58.8136 57.6729,58.3666 58.2259,58.3666 L58.3259,58.3666 C58.8789,58.3666 59.3259,58.8136 59.3259,59.3666 C59.3259,59.9196 58.8789,60.3666 58.3259,60.3666 M62.4329,60.3666 L62.3319,60.3666 C61.7789,60.3666 61.3319,59.9196 61.3319,59.3666 C61.3319,58.8136 61.7789,58.3666 62.3319,58.3666 L62.4329,58.3666 C62.9849,58.3666 63.4329,58.8136 63.4329,59.3666 C63.4329,59.9196 62.9849,60.3666 62.4329,60.3666 M66.5379,60.3666 C65.9849,60.3666 65.4879,59.9196 65.4879,59.3666 C65.4879,58.8136 65.8859,58.3666 66.4389,58.3666 L66.5379,58.3666 C67.0909,58.3666 67.5379,58.8136 67.5379,59.3666 C67.5379,59.9196 67.0909,60.3666 66.5379,60.3666 M70.6449,60.3666 C70.0919,60.3666 69.5949,59.9196 69.5949,59.3666 C69.5949,58.8136 69.9919,58.3666 70.5449,58.3666 L70.6449,58.3666 C71.1969,58.3666 71.6449,58.8136 71.6449,59.3666 C71.6449,59.9196 71.1969,60.3666 70.6449,60.3666" id="Fill-6" fill="#999999" mask="url(#mask-2)"></path>
                        <path d="M74.0459,10.0249 C73.4929,10.0249 73.0459,9.6029 73.0459,9.0499 L73.0459,8.9999 C73.0459,8.4479 73.4929,7.9999 74.0459,7.9999 C74.5989,7.9999 75.0459,8.4479 75.0459,8.9999 C75.0459,9.5519 74.5989,10.0249 74.0459,10.0249" id="Fill-7" fill="#999999" mask="url(#mask-2)"></path>
                        <path d="M5.0498,56.3667 C4.4968,56.3667 4.0258,55.9197 4.0258,55.3667 C4.0258,54.8137 4.4468,54.3667 4.9998,54.3667 L5.0498,54.3667 C5.6028,54.3667 6.0498,54.8137 6.0498,55.3667 C6.0498,55.9197 5.6028,56.3667 5.0498,56.3667" id="Fill-8" fill="#999999" mask="url(#mask-2)"></path>
                        <path d="M70.0459,10.1631 C69.4929,10.1631 69.0459,9.7151 69.0459,9.1631 L69.0459,9.0631 C69.0459,8.5111 69.4929,8.0631 70.0459,8.0631 C70.5989,8.0631 71.0459,8.5111 71.0459,9.0631 L71.0459,9.1631 C71.0459,9.7151 70.5989,10.1631 70.0459,10.1631 M70.0459,14.2701 C69.4929,14.2701 69.0459,13.8231 69.0459,13.2701 L69.0459,13.1691 C69.0459,12.6171 69.4929,12.1691 70.0459,12.1691 C70.5989,12.1691 71.0459,12.6171 71.0459,13.1691 L71.0459,13.2701 C71.0459,13.8231 70.5989,14.2701 70.0459,14.2701 M70.0459,18.3261 C69.4929,18.3261 69.0459,17.9281 69.0459,17.3751 L69.0459,17.2761 C69.0459,16.7231 69.4929,16.2761 70.0459,16.2761 C70.5989,16.2761 71.0459,16.7231 71.0459,17.2761 C71.0459,17.8291 70.5989,18.3261 70.0459,18.3261 M70.0459,22.4321 C69.4929,22.4321 69.0459,22.0351 69.0459,21.4821 L69.0459,21.3821 C69.0459,20.8301 69.4929,20.3821 70.0459,20.3821 C70.5989,20.3821 71.0459,20.8301 71.0459,21.3821 C71.0459,21.9351 70.5989,22.4321 70.0459,22.4321 M70.0459,26.5381 C69.4929,26.5381 69.0459,26.1411 69.0459,25.5881 L69.0459,25.4891 C69.0459,24.9361 69.4929,24.4891 70.0459,24.4891 C70.5989,24.4891 71.0459,24.9361 71.0459,25.4891 C71.0459,26.0411 70.5989,26.5381 70.0459,26.5381 M70.0459,30.6451 C69.4929,30.6451 69.0459,30.2471 69.0459,29.6951 L69.0459,29.5951 C69.0459,29.0421 69.4929,28.5951 70.0459,28.5951 C70.5989,28.5951 71.0459,29.0421 71.0459,29.5951 C71.0459,30.1481 70.5989,30.6451 70.0459,30.6451 M70.0459,34.7511 C69.4929,34.7511 69.0459,34.3541 69.0459,33.8011 L69.0459,33.7021 C69.0459,33.1491 69.4929,32.7021 70.0459,32.7021 C70.5989,32.7021 71.0459,33.1491 71.0459,33.7021 C71.0459,34.2541 70.5989,34.7511 70.0459,34.7511 M70.0459,38.9081 C69.4929,38.9081 69.0459,38.4601 69.0459,37.9081 L69.0459,37.8071 C69.0459,37.2541 69.4929,36.8071 70.0459,36.8071 C70.5989,36.8071 71.0459,37.2541 71.0459,37.8071 L71.0459,37.9081 C71.0459,38.4601 70.5989,38.9081 70.0459,38.9081 M70.0459,43.0141 C69.4929,43.0141 69.0459,42.5671 69.0459,42.0141 L69.0459,41.9131 C69.0459,41.3611 69.4929,40.9131 70.0459,40.9131 C70.5989,40.9131 71.0459,41.3611 71.0459,41.9131 L71.0459,42.0141 C71.0459,42.5671 70.5989,43.0141 70.0459,43.0141 M70.0459,47.1211 C69.4929,47.1211 69.0459,46.6731 69.0459,46.1211 L69.0459,46.0201 C69.0459,45.4671 69.4929,45.0201 70.0459,45.0201 C70.5989,45.0201 71.0459,45.4671 71.0459,46.0201 L71.0459,46.1211 C71.0459,46.6731 70.5989,47.1211 70.0459,47.1211 M70.0459,51.2271 C69.4929,51.2271 69.0459,50.7801 69.0459,50.2271 L69.0459,50.1261 C69.0459,49.5741 69.4929,49.1261 70.0459,49.1261 C70.5989,49.1261 71.0459,49.5741 71.0459,50.1261 L71.0459,50.2271 C71.0459,50.7801 70.5989,51.2271 70.0459,51.2271 M70.0459,55.3331 C69.4929,55.3331 69.0459,54.8861 69.0459,54.3331 L69.0459,54.2331 C69.0459,53.6801 69.4929,53.2331 70.0459,53.2331 C70.5989,53.2331 71.0459,53.6801 71.0459,54.2331 L71.0459,54.3331 C71.0459,54.8861 70.5989,55.3331 70.0459,55.3331 M9.1559,56.3671 L9.0559,56.3671 C8.5029,56.3671 8.0559,55.9191 8.0559,55.3671 C8.0559,54.8141 8.5029,54.3671 9.0559,54.3671 L9.1559,54.3671 C9.7089,54.3671 10.1559,54.8141 10.1559,55.3671 C10.1559,55.9191 9.7089,56.3671 9.1559,56.3671 M13.2619,56.3671 C12.7089,56.3671 12.2119,55.9191 12.2119,55.3671 C12.2119,54.8141 12.6089,54.3671 13.1619,54.3671 L13.2619,54.3671 C13.8149,54.3671 14.2619,54.8141 14.2619,55.3671 C14.2619,55.9191 13.8149,56.3671 13.2619,56.3671 M17.3679,56.3671 C16.8159,56.3671 16.3179,55.9191 16.3179,55.3671 C16.3179,54.8141 16.7159,54.3671 17.2689,54.3671 L17.3679,54.3671 C17.9209,54.3671 18.3679,54.8141 18.3679,55.3671 C18.3679,55.9191 17.9209,56.3671 17.3679,56.3671 M21.4749,56.3671 C20.9219,56.3671 20.4249,55.9191 20.4249,55.3671 C20.4249,54.8141 20.8219,54.3671 21.3749,54.3671 L21.4749,54.3671 C22.0269,54.3671 22.4749,54.8141 22.4749,55.3671 C22.4749,55.9191 22.0269,56.3671 21.4749,56.3671 M25.5809,56.3671 C25.0279,56.3671 24.5309,55.9191 24.5309,55.3671 C24.5309,54.8141 24.9289,54.3671 25.4819,54.3671 L25.5809,54.3671 C26.1339,54.3671 26.5809,54.8141 26.5809,55.3671 C26.5809,55.9191 26.1339,56.3671 25.5809,56.3671 M29.6879,56.3671 C29.1349,56.3671 28.6379,55.9191 28.6379,55.3671 C28.6379,54.8141 29.0349,54.3671 29.5879,54.3671 L29.6879,54.3671 C30.2399,54.3671 30.6879,54.8141 30.6879,55.3671 C30.6879,55.9191 30.2399,56.3671 29.6879,56.3671 M33.7939,56.3671 L33.6929,56.3671 C33.1409,56.3671 32.6929,55.9191 32.6929,55.3671 C32.6929,54.8141 33.1409,54.3671 33.6929,54.3671 L33.7939,54.3671 C34.3469,54.3671 34.7939,54.8141 34.7939,55.3671 C34.7939,55.9191 34.3469,56.3671 33.7939,56.3671 M37.8999,56.3671 L37.7999,56.3671 C37.2469,56.3671 36.7999,55.9191 36.7999,55.3671 C36.7999,54.8141 37.2469,54.3671 37.7999,54.3671 L37.8999,54.3671 C38.4529,54.3671 38.8999,54.8141 38.8999,55.3671 C38.8999,55.9191 38.4529,56.3671 37.8999,56.3671 M42.0069,56.3671 L41.9059,56.3671 C41.3539,56.3671 40.9059,55.9191 40.9059,55.3671 C40.9059,54.8141 41.3539,54.3671 41.9059,54.3671 L42.0069,54.3671 C42.5599,54.3671 43.0069,54.8141 43.0069,55.3671 C43.0069,55.9191 42.5599,56.3671 42.0069,56.3671 M46.1129,56.3671 L46.0129,56.3671 C45.4599,56.3671 45.0129,55.9191 45.0129,55.3671 C45.0129,54.8141 45.4599,54.3671 46.0129,54.3671 L46.1129,54.3671 C46.6659,54.3671 47.1129,54.8141 47.1129,55.3671 C47.1129,55.9191 46.6659,56.3671 46.1129,56.3671 M50.2199,56.3671 L50.1189,56.3671 C49.5669,56.3671 49.1189,55.9191 49.1189,55.3671 C49.1189,54.8141 49.5669,54.3671 50.1189,54.3671 L50.2199,54.3671 C50.7729,54.3671 51.2199,54.8141 51.2199,55.3671 C51.2199,55.9191 50.7729,56.3671 50.2199,56.3671 M54.3259,56.3671 L54.2259,56.3671 C53.6729,56.3671 53.2259,55.9191 53.2259,55.3671 C53.2259,54.8141 53.6729,54.3671 54.2259,54.3671 L54.3259,54.3671 C54.8789,54.3671 55.3259,54.8141 55.3259,55.3671 C55.3259,55.9191 54.8789,56.3671 54.3259,56.3671 M58.4329,56.3671 L58.3319,56.3671 C57.7789,56.3671 57.3319,55.9191 57.3319,55.3671 C57.3319,54.8141 57.7789,54.3671 58.3319,54.3671 L58.4329,54.3671 C58.9849,54.3671 59.4329,54.8141 59.4329,55.3671 C59.4329,55.9191 58.9849,56.3671 58.4329,56.3671 M62.5379,56.3671 C61.9849,56.3671 61.4879,55.9191 61.4879,55.3671 C61.4879,54.8141 61.8859,54.3671 62.4389,54.3671 L62.5379,54.3671 C63.0909,54.3671 63.5379,54.8141 63.5379,55.3671 C63.5379,55.9191 63.0909,56.3671 62.5379,56.3671 M66.6449,56.3671 C66.0919,56.3671 65.5949,55.9191 65.5949,55.3671 C65.5949,54.8141 65.9919,54.3671 66.5449,54.3671 L66.6449,54.3671 C67.1969,54.3671 67.6449,54.8141 67.6449,55.3671 C67.6449,55.9191 67.1969,56.3671 66.6449,56.3671" id="Fill-9" fill="#999999" mask="url(#mask-2)"></path>
                        <path d="M70.0459,6.0249 C69.4929,6.0249 69.0459,5.6029 69.0459,5.0499 L69.0459,4.9999 C69.0459,4.4479 69.4929,3.9999 70.0459,3.9999 C70.5989,3.9999 71.0459,4.4479 71.0459,4.9999 C71.0459,5.5519 70.5989,6.0249 70.0459,6.0249" id="Fill-10" fill="#999999" mask="url(#mask-2)"></path>
                        <polygon id="Fill-11" fill="#333333" mask="url(#mask-2)" points="1 7.9997 65.249 7.9997 65.249 5.9997 1 5.9997"></polygon>
                        <polygon id="Fill-12" fill="#0574B9" mask="url(#mask-2)" points="10.088 15.2077 18.468 15.2077 18.468 13.2077 10.088 13.2077"></polygon>
                        <polygon id="Fill-13" fill="#0574B9" mask="url(#mask-2)" points="10.088 20.0037 18.468 20.0037 18.468 18.0037 10.088 18.0037"></polygon>
                        <polygon id="Fill-14" fill="#0574B9" mask="url(#mask-2)" points="10.088 29.5957 18.468 29.5957 18.468 27.5957 10.088 27.5957"></polygon>
                        <polygon id="Fill-15" fill="#0574B9" mask="url(#mask-2)" points="10.088 24.7997 18.468 24.7997 18.468 22.7997 10.088 22.7997"></polygon>
                        <polygon id="Fill-16" fill="#0574B9" mask="url(#mask-2)" points="10.088 34.3907 18.468 34.3907 18.468 32.3907 10.088 32.3907"></polygon>
                        <polygon id="Fill-17" fill="#0574B9" mask="url(#mask-2)" points="10.088 39.1877 18.468 39.1877 18.468 37.1877 10.088 37.1877"></polygon>
                        <polygon id="Fill-18" fill="#0574B9" mask="url(#mask-2)" points="10.088 43.9837 18.468 43.9837 18.468 41.9837 10.088 41.9837"></polygon>
                        <polygon id="Fill-19" fill="#0574B9" mask="url(#mask-2)" points="22.824 15.2077 31.68 15.2077 31.68 13.2077 22.824 13.2077"></polygon>
                        <polygon id="Fill-20" fill="#999999" mask="url(#mask-2)" points="22.824 20.0037 31.68 20.0037 31.68 18.0037 22.824 18.0037"></polygon>
                        <polygon id="Fill-21" fill="#999999" mask="url(#mask-2)" points="22.824 29.5957 31.68 29.5957 31.68 27.5957 22.824 27.5957"></polygon>
                        <polygon id="Fill-22" fill="#999999" mask="url(#mask-2)" points="22.824 24.7997 31.68 24.7997 31.68 22.7997 22.824 22.7997"></polygon>
                        <polygon id="Fill-23" fill="#999999" mask="url(#mask-2)" points="22.824 34.3907 31.68 34.3907 31.68 32.3907 22.824 32.3907"></polygon>
                        <polygon id="Fill-24" fill="#999999" mask="url(#mask-2)" points="22.824 39.1877 31.68 39.1877 31.68 37.1877 22.824 37.1877"></polygon>
                        <polygon id="Fill-25" fill="#999999" mask="url(#mask-2)" points="22.824 43.9837 31.68 43.9837 31.68 41.9837 22.824 41.9837"></polygon>
                        <polygon id="Fill-26" fill="#0574B9" mask="url(#mask-2)" points="35.559 15.2077 44.415 15.2077 44.415 13.2077 35.559 13.2077"></polygon>
                        <polygon id="Fill-27" fill="#999999" mask="url(#mask-2)" points="35.559 20.0037 44.415 20.0037 44.415 18.0037 35.559 18.0037"></polygon>
                        <polygon id="Fill-28" fill="#999999" mask="url(#mask-2)" points="35.559 29.5957 44.415 29.5957 44.415 27.5957 35.559 27.5957"></polygon>
                        <polygon id="Fill-29" fill="#999999" mask="url(#mask-2)" points="35.559 24.7997 44.415 24.7997 44.415 22.7997 35.559 22.7997"></polygon>
                        <polygon id="Fill-30" fill="#999999" mask="url(#mask-2)" points="35.559 34.3907 44.415 34.3907 44.415 32.3907 35.559 32.3907"></polygon>
                        <polygon id="Fill-31" fill="#999999" mask="url(#mask-2)" points="35.559 39.1877 44.415 39.1877 44.415 37.1877 35.559 37.1877"></polygon>
                        <polygon id="Fill-32" fill="#999999" mask="url(#mask-2)" points="35.559 43.9837 44.415 43.9837 44.415 41.9837 35.559 41.9837"></polygon>
                        <polygon id="Fill-33" fill="#0574B9" mask="url(#mask-2)" points="48.295 15.2077 57.151 15.2077 57.151 13.2077 48.295 13.2077"></polygon>
                        <polygon id="Fill-34" fill="#999999" mask="url(#mask-2)" points="48.295 20.0037 57.151 20.0037 57.151 18.0037 48.295 18.0037"></polygon>
                        <polygon id="Fill-35" fill="#999999" mask="url(#mask-2)" points="48.295 29.5957 57.151 29.5957 57.151 27.5957 48.295 27.5957"></polygon>
                        <polygon id="Fill-36" fill="#999999" mask="url(#mask-2)" points="48.295 24.7997 57.151 24.7997 57.151 22.7997 48.295 22.7997"></polygon>
                        <polygon id="Fill-37" fill="#999999" mask="url(#mask-2)" points="48.295 34.3907 57.151 34.3907 57.151 32.3907 48.295 32.3907"></polygon>
                        <polygon id="Fill-38" fill="#999999" mask="url(#mask-2)" points="48.295 39.1877 57.151 39.1877 57.151 37.1877 48.295 37.1877"></polygon>
                        <polygon id="Fill-39" fill="#999999" mask="url(#mask-2)" points="48.295 43.9837 57.151 43.9837 57.151 41.9837 48.295 41.9837"></polygon>
                    </g>
                </g>
            </g>
        </g>
    </g>
</svg>