<svg xmlns="http://www.w3.org/2000/svg" xmlns:xlink="http://www.w3.org/1999/xlink" width="81" height="109" viewBox="0 0 81 109">
    <defs>
        <path id="a" d="M0 .204h80.818v108.349H0z"/>
    </defs>
    <g fill="none" fill-rule="evenodd">
        <path fill="#FFF" d="M16.455 40.679h21.12V19.558h-21.12z"/>
        <g transform="translate(0 .244)">
            <mask id="b" fill="#fff">
                <use xlink:href="#a"/>
            </mask>
            <path fill="#0574B9" d="M17.902 38.988h18.226V20.76H17.902v18.227zm19.673 2.895h-21.12c-.8 0-1.447-.649-1.447-1.448V19.314c0-.8.647-1.448 1.447-1.448h21.12c.8 0 1.447.649 1.447 1.448v21.121c0 .8-.646 1.447-1.447 1.447z" mask="url(#b)"/>
            <path fill="#FFF" d="M49.543 41.82l-20-6.786 6.787-20.002 20 6.789z" mask="url(#b)"/>
            <path fill="#0574B9" d="M31.379 34.128l17.258 5.856 5.857-17.259-17.258-5.856-5.857 17.259zm18.164 9.14a1.44 1.44 0 0 1-.465-.077l-20-6.788a1.447 1.447 0 0 1-.907-1.835l6.788-20a1.45 1.45 0 0 1 1.836-.906l20 6.788a1.449 1.449 0 0 1 .907 1.835l-6.788 20a1.448 1.448 0 0 1-1.371.983z" mask="url(#b)"/>
            <path fill="#999" d="M74.096 30.646c-.03 0-.058 0-.087-.003a1.447 1.447 0 0 1-1.36-1.53c.047-.796.736-1.497 1.535-1.432.797.047 1.41.66 1.363 1.458l-.008.145a1.447 1.447 0 0 1-1.443 1.362m-.348 5.924c-.029 0-.056 0-.087-.003a1.446 1.446 0 0 1-1.359-1.529l.01-.144c.045-.8.68-1.4 1.528-1.36.797.045 1.406.73 1.36 1.529l-.009.145a1.447 1.447 0 0 1-1.443 1.362m-.347 5.924c-.029 0-.06 0-.087-.003a1.445 1.445 0 0 1-1.359-1.53c.046-.798.727-1.494 1.533-1.431.799.046 1.411.66 1.363 1.457l-.007.145a1.448 1.448 0 0 1-1.443 1.362m-.349 5.924c-.027 0-.056 0-.085-.002a1.45 1.45 0 0 1-1.36-1.53l.008-.144c.046-.8.705-1.417 1.53-1.36a1.447 1.447 0 0 1 1.359 1.53l-.009.144a1.446 1.446 0 0 1-1.443 1.362m-.347 5.924c-.028 0-.058 0-.087-.003a1.447 1.447 0 0 1-1.36-1.53c.046-.797.722-1.51 1.535-1.431.798.046 1.41.66 1.363 1.457l-.008.145a1.447 1.447 0 0 1-1.443 1.362m-.348 5.924a1.447 1.447 0 0 1-1.446-1.533c.047-.797.718-1.51 1.533-1.431.8.046 1.411.66 1.365 1.457l-.009.144a1.447 1.447 0 0 1-1.443 1.363m-.347 5.924l-.087-.001a1.447 1.447 0 0 1-1.359-1.53l.007-.146c.048-.797.685-1.423 1.53-1.36.798.047 1.407.731 1.36 1.53l-.008.145a1.448 1.448 0 0 1-1.443 1.362m-.349 5.924a1.447 1.447 0 0 1-1.446-1.533c.048-.797.756-1.506 1.535-1.431.798.046 1.41.66 1.363 1.457l-.009.144a1.446 1.446 0 0 1-1.443 1.363m-.347 5.924a1.448 1.448 0 0 1-1.446-1.533c.046-.797.751-1.503 1.534-1.431.798.046 1.41.659 1.364 1.457l-.01.144a1.447 1.447 0 0 1-1.442 1.363m-.347 5.924a1.448 1.448 0 0 1-1.446-1.533l.008-.144c.047-.798.702-1.43 1.529-1.36.797.047 1.407.732 1.36 1.53l-.008.145a1.447 1.447 0 0 1-1.444 1.362m-.347 5.924a1.445 1.445 0 0 1-1.446-1.533c.047-.797.743-1.5 1.533-1.43.799.045 1.411.658 1.365 1.457l-.009.143a1.448 1.448 0 0 1-1.443 1.363m-.349 5.924l-.085-.002a1.448 1.448 0 0 1-1.36-1.53l.008-.145a1.422 1.422 0 0 1 1.53-1.36 1.447 1.447 0 0 1 1.359 1.53l-.009.145a1.446 1.446 0 0 1-1.443 1.362m-.385 5.92a1.448 1.448 0 0 1-1.384-1.874 1.437 1.437 0 0 1 1.674-1.157 1.46 1.46 0 0 1 1.17 1.694c-.01.058-.059.257-.076.314a1.45 1.45 0 0 1-1.384 1.023m-58.73 1.034h-.144a1.447 1.447 0 1 1 0-2.895c.8 0 1.52.647 1.52 1.447s-.577 1.448-1.376 1.448m5.935 0h-.145a1.447 1.447 0 1 1 0-2.895h.145a1.447 1.447 0 1 1 0 2.895m5.934 0h-.145a1.448 1.448 0 0 1 0-2.895c.8 0 1.52.647 1.52 1.447s-.575 1.448-1.375 1.448m5.933 0h-.144a1.447 1.447 0 1 1 0-2.895c.8 0 1.52.647 1.52 1.447s-.576 1.448-1.376 1.448m5.935 0h-.146a1.448 1.448 0 0 1 0-2.895h.146a1.447 1.447 0 1 1 0 2.895m5.934 0h-.144a1.447 1.447 0 1 1 0-2.895c.8 0 1.52.647 1.52 1.447s-.577 1.448-1.375 1.448m5.934 0h-.145a1.447 1.447 0 1 1 0-2.895h.145a1.447 1.447 0 1 1 0 2.895m5.934 0h-.145a1.448 1.448 0 0 1 0-2.895c.8 0 1.52.647 1.52 1.447s-.575 1.448-1.375 1.448m5.933 0h-.144a1.447 1.447 0 1 1 0-2.895c.8 0 1.52.647 1.52 1.447s-.576 1.448-1.376 1.448m5.935 0h-.146a1.448 1.448 0 0 1 0-2.895h.146a1.447 1.447 0 1 1 0 2.895M79.362 36.435l-.1-.003a1.45 1.45 0 0 1-1.346-1.543c.057-.8.747-1.48 1.549-1.417.797.054 1.404.673 1.35 1.47l-.01.144a1.448 1.448 0 0 1-1.443 1.349m-.376 5.923l-.086-.003a1.448 1.448 0 0 1-1.36-1.53c.046-.798.716-1.511 1.534-1.432.799.047 1.41.66 1.364 1.458l-.01.143a1.446 1.446 0 0 1-1.442 1.364m-.378 5.922a1.448 1.448 0 0 1-1.446-1.533c.048-.797.743-1.508 1.534-1.43.8.045 1.412.658 1.364 1.457l-.008.143a1.45 1.45 0 0 1-1.444 1.363m-.376 5.921c-.03 0-.057 0-.087-.002a1.446 1.446 0 0 1-1.36-1.529l.01-.145a1.427 1.427 0 0 1 1.528-1.36 1.449 1.449 0 0 1 1.36 1.53l-.008.145a1.447 1.447 0 0 1-1.443 1.361m-.378 5.923a1.45 1.45 0 0 1-1.446-1.546l.01-.144c.055-.798.712-1.4 1.543-1.345.798.054 1.4.744 1.346 1.541l-.01.147a1.448 1.448 0 0 1-1.443 1.347m-.378 5.921c-.033 0-.066 0-.1-.003A1.45 1.45 0 0 1 76.03 64.5c.055-.8.769-1.48 1.55-1.417.796.055 1.403.673 1.35 1.47l-.01.145a1.446 1.446 0 0 1-1.444 1.347m-.376 5.923c-.035 0-.067-.002-.101-.003a1.45 1.45 0 0 1-1.346-1.543c.057-.799.75-1.469 1.55-1.417.797.055 1.404.673 1.349 1.47l-.01.145a1.449 1.449 0 0 1-1.442 1.348m-.378 5.923c-.035 0-.066-.002-.101-.003a1.449 1.449 0 0 1-1.345-1.543c.055-.8.769-1.477 1.549-1.417.797.053 1.404.673 1.35 1.47l-.01.144a1.448 1.448 0 0 1-1.443 1.349m-.376 5.922A1.447 1.447 0 0 1 74.9 82.28c.045-.797.724-1.506 1.534-1.431.798.046 1.41.66 1.364 1.457l-.01.144a1.447 1.447 0 0 1-1.442 1.363m-.378 5.923l-.085-.003a1.449 1.449 0 0 1-1.36-1.53l.008-.145c.046-.797.708-1.425 1.53-1.359.797.047 1.405.731 1.359 1.529l-.009.144a1.446 1.446 0 0 1-1.443 1.364m-.376 5.921l-.087-.001a1.447 1.447 0 0 1-1.36-1.53l.008-.145c.05-.798.692-1.394 1.53-1.36a1.447 1.447 0 0 1 1.359 1.53l-.007.144a1.448 1.448 0 0 1-1.443 1.362m-.378 5.923l-.087-.003a1.446 1.446 0 0 1-1.359-1.53c.046-.798.714-1.495 1.533-1.432.799.047 1.411.66 1.365 1.458l-.009.143a1.447 1.447 0 0 1-1.443 1.364m-.434 5.914c-.158 0-.32-.026-.478-.083a1.445 1.445 0 0 1-.889-1.842 1.456 1.456 0 0 1 1.745-1.071 1.45 1.45 0 0 1 1.07 1.745 6.183 6.183 0 0 1-.082.28 1.45 1.45 0 0 1-1.366.97m-58.734 1.06H15.9a1.448 1.448 0 0 1 0-2.895c.8 0 1.52.647 1.52 1.448 0 .799-.575 1.447-1.375 1.447m5.934 0h-.145a1.447 1.447 0 1 1 0-2.895c.8 0 1.52.647 1.52 1.448 0 .799-.576 1.447-1.375 1.447m5.934 0h-.145a1.447 1.447 0 1 1 0-2.895h.145a1.447 1.447 0 1 1 0 2.895m5.934 0h-.145a1.447 1.447 0 1 1 0-2.895c.8 0 1.52.647 1.52 1.448 0 .799-.576 1.447-1.375 1.447m5.934 0h-.144a1.447 1.447 0 1 1 0-2.895h.144a1.447 1.447 0 1 1 0 2.895m5.935 0h-.145a1.448 1.448 0 0 1 0-2.895c.8 0 1.52.647 1.52 1.448 0 .799-.575 1.447-1.375 1.447m5.934 0h-.145a1.447 1.447 0 1 1 0-2.895c.8 0 1.52.647 1.52 1.448 0 .799-.576 1.447-1.375 1.447m5.934 0h-.145a1.447 1.447 0 1 1 0-2.895h.145a1.447 1.447 0 1 1 0 2.895m5.934 0h-.145a1.447 1.447 0 1 1 0-2.895c.8 0 1.52.647 1.52 1.448 0 .799-.576 1.447-1.375 1.447m5.934 0h-.144a1.447 1.447 0 1 1 0-2.895h.144a1.447 1.447 0 1 1 0 2.895" mask="url(#b)"/>
            <path fill="#FFF" d="M62.708 95.526H9.548a1.449 1.449 0 0 1-1.445-1.356L3.94 26.16a1.447 1.447 0 0 1 1.445-1.537h61.483c.835 0 1.496.703 1.444 1.537l-4.161 68.01a1.447 1.447 0 0 1-1.444 1.356" mask="url(#b)"/>
            <path fill="#333" d="M5.387 26.07l4.16 68.011 53.161-.002L66.87 26.07 5.387 26.07zm57.321 70.903H9.548a2.9 2.9 0 0 1-2.89-2.712l-4.16-68.013c-.05-.792.234-1.58.778-2.16a2.907 2.907 0 0 1 2.11-.913H66.87c.795 0 1.566.333 2.11.913.545.58.829 1.368.78 2.162l-4.162 68.008a2.899 2.899 0 0 1-2.889 2.715z" mask="url(#b)"/>
            <path fill="#333" d="M23.09 87.347a1.447 1.447 0 0 1-1.443-1.366L18.752 34.33a1.448 1.448 0 0 1 1.364-1.527 1.46 1.46 0 0 1 1.525 1.365l2.895 51.652a1.448 1.448 0 0 1-1.363 1.527l-.083.001M49.165 87.347l-.082-.001a1.448 1.448 0 0 1-1.364-1.527l2.895-51.652a1.437 1.437 0 0 1 1.526-1.365 1.448 1.448 0 0 1 1.363 1.527L50.608 85.98a1.447 1.447 0 0 1-1.443 1.366M36.128 87.347c-.8 0-1.448-.648-1.448-1.447V34.248a1.447 1.447 0 1 1 2.895 0V85.9c0 .799-.647 1.447-1.447 1.447" mask="url(#b)"/>
            <path fill="#FFF" d="M70.81 9.182H1.446" mask="url(#b)"/>
            <path fill="#333" d="M70.81 10.629H1.446a1.447 1.447 0 1 1 0-2.895H70.81a1.447 1.447 0 1 1 0 2.895" mask="url(#b)"/>
            <path fill="#FFF" d="M45.907 9.182h-19.56V4.546c0-1.6 1.297-2.895 2.895-2.895h13.77a2.895 2.895 0 0 1 2.895 2.895v4.636z" mask="url(#b)"/>
            <path fill="#333" d="M27.795 7.734H44.46V4.546a1.45 1.45 0 0 0-1.447-1.448h-13.77c-.8 0-1.448.65-1.448 1.448v3.188zm19.56 2.895H24.901V4.546A4.347 4.347 0 0 1 29.243.204h13.77a4.347 4.347 0 0 1 4.342 4.342v6.083z" mask="url(#b)"/>
        </g>
    </g>
</svg>
