<svg xmlns="http://www.w3.org/2000/svg" width="15" height="17" viewBox="0 0 15 17">
    <g fill="none" fill-rule="evenodd" stroke="#333" stroke-linecap="round" stroke-linejoin="round">
        <path d="M11.71 16.134H2.346a.254.254 0 0 1-.254-.24L1.357 3.913a.255.255 0 0 1 .254-.271h10.833c.148 0 .264.124.255.27l-.733 11.984a.256.256 0 0 1-.255.239zM4.392 6.655l.253 6.156M9.664 6.655L9.41 12.81M7.028 6.655v6.156M13.556 3.641H.5M10.158 3.641H3.897V1.426c0-.512.415-.926.927-.926h4.407c.512 0 .927.414.927.926v2.215z"/>
    </g>
</svg>
