<?xml version="1.0" encoding="UTF-8"?>
<svg width="92px" height="92px" viewBox="0 0 92 92" version="1.1" xmlns="http://www.w3.org/2000/svg" xmlns:xlink="http://www.w3.org/1999/xlink">
    <!-- Generator: sketchtool 53.2 (72643) - https://sketchapp.com -->
    <title>41888FF6-4F05-42C2-A222-2AFF7FF77995</title>
    <desc>Created with sketchtool.</desc>
    <g id="🚀-Componentes" stroke="none" stroke-width="1" fill="none" fill-rule="evenodd">
        <g id="Componentes-6" transform="translate(-574.000000, -4513.000000)">
            <g id="Ayuda" transform="translate(445.000000, 4360.000000)">
                <g id="2" transform="translate(0.000000, 99.000000)">
                    <g id="icon-usuarios" transform="translate(129.000000, 54.000000)">
                        <path d="M37.2505444,77.1103111 L34.6949889,77.1103111 C34.6949889,64.6570889 37.1751556,59.8641444 37.2812111,59.6660889 L39.5352111,60.8684778 L38.4082111,60.2666444 L39.5403222,60.8608111 C39.5160444,60.9055333 37.2505444,65.4237556 37.2505444,77.1103111" id="Fill-1" fill="#0574B9"></path>
                        <path d="M46.3010444,77.1103111 L43.7454889,77.1103111 C43.7454889,65.4237556 41.4787111,60.9055333 41.4557111,60.8608111 L43.7135444,59.6660889 C43.8196,59.8628667 46.3010444,64.6570889 46.3010444,77.1103111" id="Fill-3" fill="#0574B9"></path>
                        <path d="M69.9174444,77.8190944 C70.288,69.8610944 70.7952778,61.8622056 71.0993889,57.2903167 C77.0423333,65.3262611 78.2677222,74.2604833 78.4657778,76.3087611 C77.4601667,76.7994278 74.5085,77.3450389 69.9174444,77.8190944 L69.9174444,77.8190944 Z M67.3465556,78.0618722 C61.8367778,78.5372056 54.4844444,78.90265 45.5834444,79.00615 C47.9371111,74.0023722 54.142,59.8560944 56.0893333,46.0305389 C61.4968889,48.0443167 65.6126111,51.0560389 68.7329444,54.4229833 C68.4978333,57.8129278 67.8103889,68.01215 67.3465556,78.0618722 L67.3465556,78.0618722 Z M40.5272778,79.0368167 C39.7529444,79.0368167 39.0118333,79.0304278 38.2566667,79.0265944 C36.8076667,76.0238167 31.0781111,63.66515 28.3436667,50.7762056 C28.5225556,50.7020944 28.7091111,50.6177611 28.9007778,50.50915 C29.6981111,51.5467056 31.1049444,53.1222056 33.3385,54.76415 L34.8539444,52.70565 C32.637,51.0752056 31.3541111,49.5405944 30.7446111,48.7062056 C31.1330556,48.0788167 31.4473889,47.2635944 31.6582222,46.2682056 C34.4859444,48.2794278 37.5436667,49.4102611 40.4978889,49.4102611 C43.4508333,49.4102611 46.5085556,48.2794278 49.3388333,46.2682056 C49.5483889,47.2623167 49.8627222,48.0788167 50.2498889,48.7062056 C49.6416667,49.5405944 48.3600556,51.0752056 46.1431111,52.70565 L47.6572778,54.76415 C49.8908333,53.1222056 51.2963889,51.5467056 52.0937222,50.5078722 C52.2853889,50.6177611 52.4719444,50.7020944 52.6508333,50.7762056 C49.9176667,63.6600389 44.1855556,76.0238167 42.7378333,79.0278722 C42.0018333,79.0317056 41.2811667,79.0368167 40.5272778,79.0368167 L40.5272778,79.0368167 Z M13.6479444,78.0580389 C13.1879444,68.0722056 12.5056111,57.9368722 12.2666667,54.4855944 C15.3831667,51.1058722 19.4950556,48.0788167 24.9077222,46.0535389 C26.8588889,59.87015 33.0586667,74.00365 35.4110556,79.0048722 C26.5049444,78.9013722 19.1526111,78.53465 13.6479444,78.0580389 L13.6479444,78.0580389 Z M29.3224444,44.7118722 C29.1499444,46.7908167 28.4522778,47.7465944 27.8402222,48.1887056 C27.6664444,47.2022611 27.5105556,46.2170944 27.3789444,45.2357611 C28.0114444,45.0492056 28.658,44.8715944 29.3224444,44.7118722 L29.3224444,44.7118722 Z M39.2201111,23.6707056 L39.2201111,46.7499278 C31.4090556,45.7162056 22.9488889,35.4288167 22.5003889,22.1795389 C27.9846111,23.10465 33.5902222,23.6055389 39.2201111,23.6707056 L39.2201111,23.6707056 Z M39.2201111,2.61037222 L39.2201111,21.1062056 C33.5966111,21.0397611 27.9884444,20.5388722 22.5144444,19.5958722 C23.0945556,9.63048333 29.4783333,3.13426111 39.2201111,2.61037222 L39.2201111,2.61037222 Z M41.7756667,23.6707056 C47.4042778,23.6055389 53.0111667,23.1033722 58.4953889,22.1795389 C58.0456111,35.4288167 49.5841667,45.7162056 41.7756667,46.7499278 L41.7756667,23.6707056 Z M41.7756667,2.61037222 C51.5174444,3.13426111 57.8986667,9.63048333 58.4800556,19.5945944 C53.0073333,20.5375944 47.3978889,21.0410389 41.7756667,21.1074833 L41.7756667,2.61037222 Z M53.6181111,45.2165944 C53.4865,46.2055944 53.3306111,47.1958722 53.153,48.1887056 C52.5422222,47.7453167 51.842,46.7857056 51.6695,44.6965389 C52.3352222,44.8549833 52.9830556,45.0313167 53.6181111,45.2165944 L53.6181111,45.2165944 Z M2.59005556,76.3087611 C2.78683333,74.2668722 4.00583333,65.3824833 9.90022222,57.3657056 C10.2068889,61.9478167 10.7090556,69.9019833 11.0783333,77.8127056 C6.52177778,77.3399278 3.59055556,76.7968722 2.59005556,76.3087611 L2.59005556,76.3087611 Z M71.3562222,53.5502611 C71.3613333,53.4812611 71.3638889,53.4352611 71.3651667,53.4275944 L71.2437778,53.41865 C67.1932222,48.7700944 61.4662222,44.6773722 53.429,42.5204833 C57.8961111,37.4195944 61.0956667,29.86665 61.0956667,21.0908722 C61.0956667,8.47409444 52.8169444,-0.000127777778 40.4978889,-0.000127777778 C28.1775556,-0.000127777778 19.8988333,8.47409444 19.8988333,21.0908722 C19.8988333,29.8743167 23.1035,37.4323722 27.5757222,42.5332611 C19.5678889,44.6927056 13.8562222,48.7764833 9.81461111,53.4148167 L9.63061111,53.4275944 C9.63061111,53.4365389 9.63572222,53.5017056 9.64338889,53.61415 C0.868888889,63.8350944 0,76.5272611 0,76.74065 C0,78.18965 0.951944444,79.4750944 12.6576667,80.5407611 C20.1083889,81.2192611 30.0060556,81.5923722 40.5272778,81.5923722 C51.0485,81.5923722 60.9461667,81.2192611 68.3981667,80.5407611 C80.1038889,79.4750944 81.0558333,78.18965 81.0558333,76.74065 C81.0558333,76.5272611 80.1818333,63.7814278 71.3562222,53.5502611 L71.3562222,53.5502611 Z" id="Fill-5" fill="#333333"></path>
                        <path d="M67.6201278,9.68261667 C67.1154056,9.68261667 66.6375167,9.38233889 66.4356278,8.88528333 C66.1711278,8.23489444 66.4586278,7.43245 67.1090167,7.16411667 C67.7581278,6.89833889 68.4787944,7.14750556 68.7496833,7.79278333 C68.7522389,7.79789444 68.8020722,7.91928333 68.8046278,7.92439444 C69.0704056,8.57861667 68.7547944,9.32356111 68.1005722,9.58933889 C67.9434056,9.65322778 67.7811278,9.68261667 67.6201278,9.68261667 L67.6201278,9.68261667 Z M69.1917944,14.6710611 C68.6027389,14.6710611 68.0711833,14.2596167 67.9434056,13.6577833 C67.7990167,12.97545 68.2155722,12.2407278 68.8966278,12.0861167 C69.5764056,11.9315056 70.2434056,12.2918389 70.4069611,12.9690611 C70.4095167,12.9805611 70.4414611,13.1172833 70.4440167,13.1287833 C70.5896833,13.8187833 70.14885,14.4972833 69.4575722,14.6442278 C69.3694056,14.6621167 69.2799611,14.6710611 69.1917944,14.6710611 L69.1917944,14.6710611 Z M69.9392944,19.85245 C69.2850722,19.85245 68.7266833,19.3515611 68.6679056,18.6871167 C68.6666278,18.6743389 68.6576833,18.5350611 68.6576833,18.5222833 C68.6155167,17.8182278 69.1521833,17.2138389 69.8575167,17.1716722 C70.5462389,17.1346167 71.1659611,17.6687278 71.2081278,18.3727833 L69.9329056,18.4468944 L71.2145167,18.4622278 C71.27585,19.1650056 70.7557944,19.7847278 70.0530167,19.8473389 C70.0146833,19.8511722 69.9776278,19.85245 69.9392944,19.85245 L69.9392944,19.85245 Z M69.9469611,25.08495 C69.9099056,25.08495 69.87285,25.0836722 69.8332389,25.0798389 C69.1317389,25.0172278 68.6104056,24.3975056 68.6730167,23.6947278 C68.73435,22.9983389 69.3732389,22.4233389 70.0440722,22.4693389 C70.7404611,22.52045 71.2707389,23.0571167 71.22985,23.7547833 C71.22985,23.7662833 71.2196278,23.9068389 71.21835,23.9196167 C71.16085,24.5840611 70.6024611,25.08495 69.9469611,25.08495 L69.9469611,25.08495 Z M69.2684611,30.2740056 C69.1841278,30.2740056 69.0959611,30.2650611 69.01035,30.24845 C68.3190722,30.1053389 67.8731278,29.4293944 68.0162389,28.7393944 C68.1580722,28.0532278 68.8391278,27.5446722 69.5214611,27.6801167 C70.2089056,27.8117278 70.6740167,28.4110056 70.5475167,29.0997278 C70.5462389,29.10995 70.5219611,29.2453944 70.5194056,29.2530611 C70.3941833,29.8587278 69.8626278,30.2740056 69.2684611,30.2740056 L69.2684611,30.2740056 Z M67.9689611,35.3493389 C67.8322389,35.3493389 67.6916833,35.3263389 67.5536833,35.2790611 C66.8866833,35.0516167 66.5314611,34.3232833 66.7614611,33.6562833 C66.9646278,32.9803389 67.6942389,32.5612278 68.36635,32.7643944 C69.0422944,32.9701167 69.43585,33.6447833 69.2314056,34.31945 L69.1777389,34.4868389 C68.9950167,35.0158389 68.4992389,35.3493389 67.9689611,35.3493389 L67.9689611,35.3493389 Z M67.2585167,39.8471167 C67.0387389,39.8471167 66.8164056,39.7908944 66.6132389,39.6720611 C65.9986278,39.3245056 65.7354056,38.51695 66.0842389,37.9036167 C66.4317944,37.2890056 67.1639611,37.0462278 67.7785722,37.3937833 L67.90635,37.4678944 C68.5145722,37.8243944 68.7177389,38.6076722 68.3612389,39.2158944 C68.12485,39.6222278 67.6980722,39.8471167 67.2585167,39.8471167 L67.2585167,39.8471167 Z M71.6157389,42.7476722 C71.3589056,42.7476722 71.0995167,42.6697278 70.8746278,42.5087278 L70.7302389,42.4001167 C70.1731278,41.9682278 70.0721833,41.1657833 70.5066278,40.6073944 C70.9397944,40.0541167 71.7422389,39.9493389 72.29935,40.3837833 L72.3594056,40.4297833 C72.9331278,40.83995 73.0672944,41.6385611 72.65585,42.2122833 C72.4066833,42.5611167 72.0144056,42.7476722 71.6157389,42.7476722 L71.6157389,42.7476722 Z M75.6714056,46.0520056 C75.4235167,46.0520056 75.17435,45.98045 74.9545722,45.83095 C74.3552944,45.4591167 74.13935,44.6502833 74.5111833,44.0510056 C74.8842944,43.45045 75.6369056,43.2447278 76.2387389,43.6191167 L76.3895167,43.7175056 C76.9734611,44.1123389 77.1255167,44.9071167 76.7294056,45.4910611 C76.4827944,45.8565056 76.0802944,46.0520056 75.6714056,46.0520056 L75.6714056,46.0520056 Z M79.1559056,49.8891722 C78.6997389,49.8891722 78.2576278,49.6425611 78.0276278,49.2132278 C77.6954056,48.5896722 77.9011278,47.7603944 78.5234056,47.4268944 C79.1469611,47.0946722 79.88935,47.2735611 80.22285,47.8971167 L80.2829056,48.0095611 C80.6151278,48.6318389 80.3787389,49.4061722 79.7564611,49.7396722 C79.5647944,49.8406167 79.3590722,49.8891722 79.1559056,49.8891722 L79.1559056,49.8891722 Z M82.1535722,54.1761167 C81.7331833,54.1761167 81.3217389,53.9691167 81.0776833,53.5896167 C80.6905167,52.9992833 80.8234056,52.1585056 81.4137389,51.7713389 C82.00535,51.3841722 82.7656278,51.5030056 83.1515167,52.0907833 L83.2269056,52.2070611 C83.6089611,52.8012278 83.4364611,53.5921722 82.8435722,53.97295 C82.6289056,54.1122278 82.3912389,54.1761167 82.1535722,54.1761167 L82.1535722,54.1761167 Z M84.7449056,58.7275611 C84.28235,58.7275611 83.8351278,58.4758389 83.6089611,58.0362833 L83.5361278,57.8918944 C83.2294611,57.2555611 83.4952389,56.4927278 84.1302944,56.1847833 C84.7704611,55.8793944 85.5307389,56.1438944 85.8374056,56.7776722 L85.8795722,56.8632833 C86.20285,57.4906722 85.9575167,58.26245 85.3301278,58.58445 C85.1422944,58.6815611 84.9429611,58.7275611 84.7449056,58.7275611 L84.7449056,58.7275611 Z M86.8430167,63.5256167 C86.3267944,63.5256167 85.8386833,63.2100056 85.6457389,62.6963389 L85.6010167,62.5775056 C85.3544056,61.9156167 85.6891833,61.1796167 86.3485167,60.93045 C87.0104056,60.6863944 87.7464056,61.0173389 87.9942944,61.67795 L88.0390167,61.7980611 C88.2869056,62.45995 87.9521278,63.19595 87.2927944,63.4438389 C87.1432944,63.4987833 86.9925167,63.5256167 86.8430167,63.5256167 L86.8430167,63.5256167 Z M88.44535,68.5127833 C87.8831278,68.5127833 87.3681833,68.1396722 87.2135722,67.5710611 L87.18035,67.4471167 C86.9937944,66.7673389 87.3962944,66.0645611 88.07735,65.8780056 C88.7520167,65.6927278 89.4599056,66.0926722 89.6451833,66.7762833 L89.6796833,66.89895 C89.8649611,67.5800056 89.4637389,68.2815056 88.7826833,68.4680611 C88.6702389,68.4987278 88.5577944,68.5127833 88.44535,68.5127833 L88.44535,68.5127833 Z M89.5212389,73.6060056 C88.9206833,73.6060056 88.3955167,73.2022278 88.28435,72.5888944 C88.2830722,72.5863389 88.26135,72.4598389 88.26135,72.4572833 C88.1386833,71.7621722 88.6025167,71.0990056 89.2976278,70.9776167 C89.9850722,70.8498389 90.6546278,71.3175056 90.7772944,72.0126167 C90.7785722,72.0177278 90.7900722,72.0828944 90.79135,72.0880056 C90.9037944,72.7805611 90.4425167,73.4680056 89.7512389,73.5868389 C89.6745722,73.5996167 89.5966278,73.6060056 89.5212389,73.6060056 L89.5212389,73.6060056 Z M89.9774056,78.85895 L89.94035,78.85895 C89.2337389,78.8372278 88.6779056,78.24945 88.69835,77.5441167 L88.7072944,77.3780056 C88.7481833,76.67395 89.34235,76.1423944 90.0579056,76.1768944 C90.7619611,76.2177833 91.2986278,76.82345 91.2577389,77.5275056 L91.2539056,77.61695 C91.2334611,78.3107833 90.6661278,78.85895 89.9774056,78.85895 L89.9774056,78.85895 Z M88.4466278,83.7975611 C88.2064056,83.7975611 87.9636278,83.7298389 87.7476833,83.5892833 C87.15735,83.2021167 86.9925167,82.4098944 87.3784056,81.8195611 C87.7515167,81.2202833 88.5667389,80.9941167 89.1634611,81.3672278 C89.7640167,81.7390611 89.9735722,82.4865611 89.6017389,83.0845611 L89.5174056,83.2200056 C89.2707944,83.5943944 88.8631833,83.7975611 88.4466278,83.7975611 L88.4466278,83.7975611 Z M84.6222389,87.2846167 C84.1826833,87.2846167 83.7559056,87.0597278 83.5182389,86.6533944 C83.1617389,86.0451722 83.3649056,85.2618944 83.9744056,84.9053944 L84.1009056,84.8325611 C84.71935,84.4837278 85.4936833,84.70095 85.8437944,85.3130056 C86.19135,85.9276167 85.9754056,86.7070611 85.3620722,87.0558944 L85.2675167,87.1095611 C85.0630722,87.2283944 84.8420167,87.2846167 84.6222389,87.2846167 L84.6222389,87.2846167 Z M79.7487944,89.1770056 C79.1725167,89.1770056 78.6499056,88.7847278 78.5080722,88.1995056 C78.3432389,87.5146167 78.7636278,86.8233389 79.4497944,86.6572278 C80.1282944,86.4962278 80.8757944,86.8872278 81.0495722,87.56445 C81.22335,88.2403944 80.8847389,88.9163389 80.2100722,89.0990611 C80.1985722,89.1016167 80.0631278,89.1386722 80.0516278,89.1412278 C79.9494056,89.1655056 79.8484611,89.1770056 79.7487944,89.1770056 L79.7487944,89.1770056 Z M74.6031833,90.1557833 C73.9655722,90.1557833 73.4135722,89.6791722 73.3356278,89.0313389 C73.2500167,88.3311167 73.7496278,87.6935056 74.4511278,87.6078944 C75.1424056,87.52995 75.8426278,88.0065611 75.93335,88.6991167 C76.0266278,89.3916722 75.6075167,90.0228944 74.9162389,90.1238389 C74.9047389,90.1251167 74.7692944,90.1455611 74.7577944,90.1468389 C74.7054056,90.1532278 74.6542944,90.1557833 74.6031833,90.1557833 L74.6031833,90.1557833 Z M6.73401667,90.1890056 C6.68546111,90.1890056 6.63435,90.18645 6.58451667,90.1800611 C6.57173889,90.1787833 6.43118333,90.1596167 6.41840556,90.1570611 C5.71946111,90.0522833 5.24029444,89.4018944 5.34635,88.7042278 C5.44985,88.0052833 6.10407222,87.5235611 6.79918333,87.6321722 C7.48918333,87.7356722 8.03096111,88.3822278 7.93768333,89.0735056 C7.85207222,89.71495 7.35757222,90.1890056 6.73401667,90.1890056 L6.73401667,90.1890056 Z M69.3885722,90.7103389 C68.7330722,90.7103389 68.1759611,90.20945 68.1171833,89.5450056 C68.0545722,88.8422278 68.5746278,88.2225056 69.2774056,88.1598944 C69.9967944,88.0832278 70.6637944,88.6122278 70.7264056,89.3137278 C70.7877389,90.0177833 70.3315722,90.6323944 69.6287944,90.6937278 L69.5022944,90.7052278 C69.4626833,90.7090611 69.4256278,90.7103389 69.3885722,90.7103389 L69.3885722,90.7103389 Z M11.9447944,90.7358944 C11.9064611,90.7358944 11.8694056,90.7346167 11.83235,90.7307833 L11.7045722,90.7192833 C11.0017944,90.6566722 10.4817389,90.03695 10.54435,89.3341722 C10.6069611,88.6313944 11.2139056,88.1126167 11.9294611,88.17395 C12.6322389,88.2365611 13.2161833,88.8613944 13.1535722,89.56545 C13.0947944,90.2298944 12.5939056,90.7358944 11.9447944,90.7358944 L11.9447944,90.7358944 Z M64.1637389,91.1192278 C63.5082389,91.1192278 62.9511278,90.6196167 62.89235,89.9538944 C62.8297389,89.2511167 63.3497944,88.6313944 64.0525722,88.5687833 C64.06535,88.5675056 64.2046278,88.5585611 64.2174056,88.5585611 C64.9061278,88.5215056 65.52585,89.0543389 65.5680167,89.7583944 C65.6089056,90.46245 65.0722389,91.0668389 64.3669056,91.1090056 L64.2927944,89.8337833 L64.2774611,91.1141167 C64.2391278,91.11795 64.2007944,91.1192278 64.1637389,91.1192278 L64.1637389,91.1192278 Z M17.1696278,91.1358389 C17.1440722,91.1358389 17.1197944,91.1345611 17.0942389,91.1332833 C17.0814611,91.1332833 16.9421833,91.1230611 16.9294056,91.1217833 C16.2266278,91.06045 15.7065722,90.43945 15.7691833,89.7366722 C15.8317944,89.0351722 16.4310722,88.5163944 17.1542944,88.57645 C17.8506833,88.6377833 18.4307944,89.2511167 18.3796833,89.9475056 C18.3311278,90.6183389 17.8289611,91.1358389 17.1696278,91.1358389 L17.1696278,91.1358389 Z M58.9325167,91.4118389 C58.2450722,91.4118389 57.6777389,90.8636722 57.6560167,90.1711167 C57.63685,89.4657833 58.1914056,88.8780056 58.8967389,88.8562833 C59.6084611,88.8613944 60.2435167,89.3788944 60.2741833,90.0740056 C60.30485,90.77295 59.83335,91.3620056 59.1356833,91.4028944 C59.1241833,91.4041722 58.9836278,91.4105611 58.97085,91.4118389 L58.9325167,91.4118389 Z M22.40085,91.4233389 C22.3765722,91.4233389 22.3497389,91.4220611 22.3254611,91.4207833 L22.3995722,90.1455611 L22.2347389,91.41695 C21.5306833,91.3952278 20.97485,90.8061722 20.9952944,90.1021167 C21.0157389,89.4095611 21.58435,88.8613944 22.2717944,88.8613944 L22.3101278,88.8613944 C22.3229056,88.8626722 22.4621833,88.8690611 22.4749611,88.8703389 C23.1802944,88.9112278 23.7169611,89.5168944 23.6747944,90.2196722 C23.6351833,90.89945 23.0729611,91.4233389 22.40085,91.4233389 L22.40085,91.4233389 Z M53.6974611,91.6150056 C53.0100167,91.6150056 52.4426833,91.0668389 52.4209611,90.3742833 C52.4017944,89.6702278 52.95635,89.0811722 53.6616833,89.05945 L53.7000167,89.05945 C54.3900167,89.05945 55.0199611,89.6050611 55.0404056,90.2976167 C55.06085,91.0042278 54.5689056,91.5907278 53.8635722,91.6111722 L53.7370722,91.6150056 L53.6974611,91.6150056 Z M27.6346278,91.6213944 L27.5975722,91.6213944 L27.4697944,91.6175611 C26.7644611,91.5958389 26.2099056,91.0080611 26.2290722,90.3027278 C26.2507944,89.6101722 26.8181278,89.0620056 27.5055722,89.0620056 L27.5451833,89.0620056 C28.2492389,89.0837278 28.8689611,89.6740611 28.8485167,90.3793944 C28.8280722,91.07195 28.3207944,91.6213944 27.6346278,91.6213944 L27.6346278,91.6213944 Z M48.4611278,91.7453389 C47.7545167,91.7453389 47.18335,91.1728944 47.18335,90.4675611 C47.18335,89.76095 47.7545167,89.1897833 48.4611278,89.1897833 C49.1600722,89.1897833 49.7925722,89.7481722 49.8027944,90.4471167 C49.8117389,91.1460611 49.3249056,91.7210611 48.6259611,91.7427833 C48.6131833,91.7427833 48.4739056,91.7453389 48.4611278,91.7453389 L48.4611278,91.7453389 Z M32.8747944,91.7478944 L32.8351833,91.7478944 L32.8735167,90.4701167 L32.7457389,91.7453389 C32.0391278,91.7453389 31.4679611,91.1728944 31.4679611,90.4675611 C31.4679611,89.76095 32.0391278,89.1897833 32.7457389,89.1897833 C32.7585167,89.1897833 32.8977944,89.1923389 32.9105722,89.1923389 C33.6159056,89.2127833 34.1704611,89.8018389 34.1512944,90.5071722 C34.1295722,91.1997278 33.5622389,91.7478944 32.8747944,91.7478944 L32.8747944,91.7478944 Z M38.1136833,91.80795 C38.1009056,91.80795 37.9616278,91.8066722 37.94885,91.8066722 C37.2447944,91.7862278 36.6889611,91.1971722 36.7094056,90.4918389 C36.72985,89.7992833 37.2984611,89.2511167 37.9859056,89.2511167 L38.0242389,89.2511167 C38.7231833,89.2728389 39.3377944,89.8503944 39.3275722,90.5493389 C39.3186278,91.2470056 38.8126278,91.80795 38.1136833,91.80795 L38.1136833,91.80795 Z M43.2222389,91.80795 C42.5347944,91.80795 41.9674611,91.2610611 41.9457389,90.5685056 C41.9265722,89.8631722 42.4811278,89.2741167 43.1864611,89.2523944 C43.1992389,89.2523944 43.3385167,89.2511167 43.3512944,89.2511167 C44.0579056,89.2511167 44.6290722,89.8235611 44.6290722,90.5288944 C44.6290722,91.2355056 44.0579056,91.8066722 43.3512944,91.8066722 L43.3512944,90.5288944 L43.26185,91.80795 L43.2222389,91.80795 Z" id="Fill-7" fill="#999999"></path>
                        <path d="M84.0915778,72.4346667 C83.4910222,72.4346667 82.9658556,72.0308889 82.8546889,71.4175556 C82.8534111,71.415 82.8329667,71.2885 82.8329667,71.2859444 C82.7090222,70.5908333 83.1728556,69.9276667 83.8679667,69.805 C84.5554111,69.6785 85.2262444,70.1461667 85.3476333,70.8412778 C85.3489111,70.8463889 85.3604111,70.9115556 85.3616889,70.9166667 C85.4741333,71.6092222 85.0141333,72.2966667 84.3228556,72.4142222 C84.2449111,72.4282778 84.1682444,72.4346667 84.0915778,72.4346667 L84.0915778,72.4346667 Z M59.9006889,6.33011111 C59.5211889,6.33011111 59.1442444,6.16016667 58.8912444,5.83688889 L58.8133,5.73594444 C58.3788556,5.17755556 58.4798,4.37511111 59.0369111,3.94194444 C59.5953,3.5075 60.3977444,3.61227778 60.8296333,4.16555556 L60.9075778,4.2665 C61.3420222,4.82488889 61.2410778,5.62733333 60.6852444,6.0605 C60.4514111,6.24194444 60.1741333,6.33011111 59.9006889,6.33011111 L59.9006889,6.33011111 Z M62.5738,10.8189444 C62.0856889,10.8189444 61.6218556,10.5403889 61.4084667,10.0663333 C61.1184111,9.42361111 61.3778,8.60966667 62.0218,8.31833333 C62.6632444,8.02955556 63.3966889,8.257 63.6841889,8.89972222 L63.7365778,9.016 C64.0279111,9.65872222 63.7416889,10.4151667 63.0976889,10.7052222 C62.9290222,10.7831667 62.7501333,10.8189444 62.5738,10.8189444 L62.5738,10.8189444 Z M64.1953,15.7588333 C63.6215778,15.7588333 63.1079111,15.3831667 62.9711889,14.8005 C62.8101889,14.1130556 63.2190778,13.3642778 63.9039667,13.202 C64.5850222,13.0371667 65.2635222,13.3975 65.4283556,14.0811111 C65.4296333,14.0875 65.4475222,14.1628889 65.4488,14.1705556 C65.6034111,14.8567222 65.1804667,15.5658889 64.4955778,15.7243333 C64.3946333,15.7473333 64.2936889,15.7588333 64.1953,15.7588333 L64.1953,15.7588333 Z M64.8840222,20.9734444 C64.1965778,20.9734444 63.6279667,20.4252778 63.6075222,19.7327222 C63.5870778,19.0350556 64.1275778,18.3859444 64.8252444,18.3552778 C65.5395222,18.3105556 66.1132444,18.7948333 66.1541333,19.4925 C66.1554111,19.5052778 66.1618,19.6458333 66.1630778,19.6573333 C66.1822444,20.3626667 65.6276889,20.9517222 64.9223556,20.9734444 L64.8840222,20.9734444 Z M64.7153556,26.2021111 C64.6783,26.2021111 64.6399667,26.2008333 64.6016333,26.197 C63.8988556,26.1356667 63.3788,25.5146667 63.4414111,24.8118889 L63.4593,24.6483333 C63.5410778,23.9468333 64.1671889,23.4446667 64.8776333,23.529 C65.5778556,23.6107778 66.0787444,24.2458333 65.9969667,24.9473333 L65.9867444,25.0367778 C65.9279667,25.7025 65.3708556,26.2021111 64.7153556,26.2021111 L64.7153556,26.2021111 Z M63.7851333,31.3553889 C63.6739667,31.3553889 63.5615222,31.3413333 63.4490778,31.3093889 C62.7680222,31.1241111 62.3655222,30.4213333 62.5520778,29.7415556 C62.7348,29.0668889 63.4478,28.6056111 64.1186333,28.7781111 C64.7945778,28.9518889 65.2213556,29.5754444 65.0578,30.2539444 C65.0552444,30.2667222 65.0194667,30.4008889 65.0169111,30.4123889 C64.8623,30.9822778 64.3473556,31.3553889 63.7851333,31.3553889 L63.7851333,31.3553889 Z M62.1764111,36.3055 C62.0294667,36.3055 61.8812444,36.2786667 61.7381333,36.2237222 C61.0826333,35.9732778 60.7414667,35.2692222 60.9868,34.6111667 L61.0328,34.4923333 C61.2806889,33.8304444 62.0166889,33.4982222 62.6785778,33.7448333 C63.3391889,33.9927222 63.6739667,34.7287222 63.4260778,35.3906111 C63.4235222,35.3957222 63.3992444,35.4596111 63.3966889,35.466 C63.1960778,35.9771111 62.6977444,36.3055 62.1764111,36.3055 L62.1764111,36.3055 Z M59.9390222,41.0690556 C59.7358556,41.0690556 59.5301333,41.0205 59.3384667,40.9195556 C58.7161889,40.5860556 58.4798,39.813 58.8120222,39.1894444 L58.8899667,39.0488889 C59.2400778,38.4368333 60.0156889,38.2208889 60.6328556,38.5671667 C61.2461889,38.916 61.4621333,39.6954444 61.1145778,40.3087778 L61.0673,40.3931111 C60.8373,40.8237222 60.3951889,41.0690556 59.9390222,41.0690556 L59.9390222,41.0690556 Z M63.5704667,43.6399444 C63.3685778,43.6399444 63.1628556,43.5913889 62.9711889,43.4904444 C62.3476333,43.1569444 62.0563,42.3532222 62.3885222,41.7309444 C62.7194667,41.1086667 63.4337444,40.8416111 64.0611333,41.1738333 L64.1735778,41.2338889 C64.7958556,41.5673889 65.0322444,42.3404444 64.7000222,42.964 C64.4700222,43.3933333 64.0279111,43.6399444 63.5704667,43.6399444 L63.5704667,43.6399444 Z M68.0030778,46.4267778 C67.7385778,46.4267778 67.4728,46.3462778 67.2428,46.1763333 C66.6690778,45.7661667 66.4940222,44.9368889 66.9041889,44.3631667 C67.3143556,43.7894444 68.0669667,43.6246111 68.6432444,44.0347778 L68.7659111,44.1229444 C69.3319667,44.5433333 69.4508,45.3432222 69.0316889,45.9105556 C68.7812444,46.2491667 68.3953556,46.4267778 68.0030778,46.4267778 L68.0030778,46.4267778 Z M72.0101889,49.7975556 C71.6920222,49.7975556 71.3738556,49.68 71.1259667,49.4423333 L71.0326889,49.3541667 C70.5241333,48.8647778 70.5075222,48.0559444 70.9956333,47.5461111 C71.4837444,47.0362778 72.2951333,47.0209444 72.8024111,47.5090556 L72.8944111,47.5985 C73.4042444,48.0853333 73.4208556,48.8941667 72.9327444,49.4052778 C72.6810222,49.6659444 72.3462444,49.7975556 72.0101889,49.7975556 L72.0101889,49.7975556 Z M75.4499667,53.59 C75.0870778,53.59 74.7267444,53.4366667 74.4737444,53.1363889 L74.3613,52.9971111 C73.9268556,52.44 74.0278,51.6375556 74.5849111,51.2043889 C75.1433,50.7686667 75.9444667,50.8734444 76.3776333,51.428 L76.4249111,51.4867778 C76.8798,52.0247222 76.8133556,52.831 76.2741333,53.2884444 C76.0339111,53.4903333 75.7413,53.59 75.4499667,53.59 L75.4499667,53.59 Z M78.4438,57.8858889 C78.0157444,57.8858889 77.5991889,57.6712222 77.3564111,57.2827778 C76.9845778,56.6835 77.1353556,55.8414444 77.7346333,55.4683333 C78.3339111,55.0977778 79.0903556,55.2281111 79.4609111,55.8261111 L79.5286333,55.9347222 C79.9004667,56.534 79.7164667,57.3223889 79.1159111,57.6942222 C78.9063556,57.8232778 78.6738,57.8858889 78.4438,57.8858889 L78.4438,57.8858889 Z M80.8894667,62.5165556 C80.4141333,62.5165556 79.9592444,62.2507778 79.7381889,61.7958889 L79.6704667,61.6489444 C79.3791333,61.0062222 79.6653556,60.2497778 80.3093556,59.9584444 C80.9520778,59.6658333 81.7098,59.9546111 81.9985778,60.5973333 L82.0394667,60.6829444 C82.3461333,61.318 82.0803556,62.0808333 81.4453,62.3900556 C81.2651333,62.4756667 81.0760222,62.5165556 80.8894667,62.5165556 L80.8894667,62.5165556 Z M82.7844111,67.4002222 C82.2349667,67.4002222 81.7276889,67.0437222 81.5615778,66.493 C81.3584111,65.8234444 81.7110778,65.0555 82.3768,64.8433889 C83.0374111,64.6312778 83.7350778,64.9315556 83.9561333,65.5947222 L82.7435222,65.9997778 L83.9625222,65.6177222 C83.9676333,65.6305 84.0034111,65.7391111 84.0072444,65.7518889 C84.2116889,66.4265556 83.8296333,67.1395556 83.1549667,67.3452778 C83.0310222,67.3823333 82.9058,67.4002222 82.7844111,67.4002222 L82.7844111,67.4002222 Z M84.8671889,77.648 C84.1989111,77.648 83.6379667,77.1343333 83.5945222,76.4571111 C83.5510778,75.7581667 84.0749667,75.0886111 84.7739111,75.0387778 C85.4524111,74.9863889 86.0785222,75.4463889 86.1360222,76.1453333 C86.1360222,76.1542778 86.1436889,76.2743889 86.1436889,76.2833333 C86.1884111,76.9873889 85.6543,77.602 84.9489667,77.6454444 C84.9208556,77.6467222 84.8940222,77.648 84.8671889,77.648 L84.8671889,77.648 Z M82.9198556,82.2735556 C82.5390778,82.2735556 82.1621333,82.1036111 81.9104111,81.7803333 C81.4759667,81.2232222 81.5769111,80.4207778 82.1340222,79.9876111 C82.6834667,79.5582778 83.5229667,79.6119444 83.9599667,80.1498889 C84.3982444,80.6903889 84.3739667,81.4417222 83.8424111,81.8902222 C83.8296333,81.9017222 83.7171889,81.9937222 83.7031333,82.0039444 C83.4705778,82.1866667 83.1933,82.2735556 82.9198556,82.2735556 L82.9198556,82.2735556 Z M78.1614111,84.364 C77.6004667,84.364 77.0855222,83.9908889 76.9309111,83.4222778 C76.7443556,82.7412222 77.1455778,82.0397222 77.8279111,81.8531667 C77.8381333,81.8506111 77.9735778,81.8161111 77.9863556,81.8135556 C78.6712444,81.6461667 79.3625222,82.0678333 79.5286333,82.754 C79.6947444,83.4388889 79.2730778,84.1301667 78.5869111,84.2962778 L78.2866333,83.0555556 L78.4987444,84.3192778 C78.3863,84.3499444 78.2738556,84.364 78.1614111,84.364 L78.1614111,84.364 Z M5.11213333,84.9913889 C5.0623,84.9913889 5.01246667,84.9888333 4.96135556,84.9824444 L4.83485556,84.9683889 C4.13463333,84.8853333 3.63246667,84.2502778 3.71552222,83.5487778 C3.7973,82.8472778 4.4298,82.3463889 5.13385556,82.4294444 L5.26163333,82.4447778 C5.96057778,82.5265556 6.46274444,83.1628889 6.38096667,83.8631111 C6.3043,84.5135 5.75102222,84.9913889 5.11213333,84.9913889 L5.11213333,84.9913889 Z M72.9928,85.2188333 C72.3539111,85.2188333 71.8019111,84.7409444 71.7252444,84.0905556 C71.6434667,83.3890556 72.1443556,82.754 72.8445778,82.6722222 L72.9723556,82.6568889 C73.6700222,82.5674444 74.3089111,83.0747222 74.3906889,83.7762222 C74.4737444,84.4777222 73.9715778,85.1127778 73.2713556,85.1945556 L73.1448556,85.2098889 C73.0937444,85.2162778 73.0439111,85.2188333 72.9928,85.2188333 L72.9928,85.2188333 Z M10.3318556,85.4526667 C10.2948,85.4526667 10.2577444,85.4526667 10.2194111,85.4488333 L10.0929111,85.4373333 C9.39013333,85.3747222 8.87007778,84.755 8.93268889,84.0522222 C8.9953,83.3494444 9.59841111,82.8268333 10.3178,82.892 C11.0193,82.9533333 11.6045222,83.5794444 11.5419111,84.2822222 C11.4831333,84.9479444 10.9809667,85.4526667 10.3318556,85.4526667 L10.3318556,85.4526667 Z M67.7756333,85.7222778 C67.1214111,85.7222778 66.5630222,85.2226667 66.5042444,84.5569444 C66.4416333,83.8554444 66.9629667,83.2344444 67.6657444,83.1718333 C68.3902444,83.1002778 69.0508556,83.6254444 69.1134667,84.3269444 C69.1760778,85.0297222 68.7199111,85.6443333 68.0171333,85.7069444 L67.8893556,85.7184444 C67.8510222,85.721 67.8139667,85.7222778 67.7756333,85.7222778 L67.7756333,85.7222778 Z M15.5554111,85.8998889 C15.5183556,85.8998889 15.4813,85.8986111 15.4416889,85.8947778 L15.5541333,84.6221111 L15.3522444,85.8871111 C14.6469111,85.8462222 14.1102444,85.2405556 14.1524111,84.5377778 C14.1933,83.8337222 14.8040778,83.2970556 15.5017444,83.3366667 C15.5145222,83.3366667 15.6538,83.3481667 15.6665778,83.3494444 C16.3693556,83.4120556 16.8894111,84.0317778 16.8268,84.7345556 C16.7680222,85.399 16.2109111,85.8998889 15.5554111,85.8998889 L15.5554111,85.8998889 Z M62.5520778,86.0992222 C61.8799667,86.0992222 61.3177444,85.5753333 61.2781333,84.8968333 C61.2359667,84.1927778 61.7726333,83.5883889 62.4779667,83.5462222 C63.1424111,83.5245 63.8503,84.0381667 63.8911889,84.7435 C63.9333556,85.4475556 63.4605778,86.0481111 62.7552444,86.0902778 L62.6274667,86.0966667 C62.6031889,86.0979444 62.5763556,86.0992222 62.5520778,86.0992222 L62.5520778,86.0992222 Z M20.7853556,86.227 C20.7610778,86.227 20.7342444,86.2257222 20.7086889,86.2244444 L20.7840778,84.9492222 L20.6192444,86.2206111 C19.9139111,86.1988889 19.3593556,85.6111111 19.3785222,84.9057778 C19.4002444,84.2132222 19.9675778,83.6650556 20.6550222,83.6650556 L20.6946333,83.6650556 C20.7074111,83.6663333 20.8466889,83.6727222 20.8594667,83.674 C21.5635222,83.7148889 22.1001889,84.3205556 22.0593,85.0246111 C22.0196889,85.7031111 21.4561889,86.227 20.7853556,86.227 L20.7853556,86.227 Z M57.3195778,86.3662778 C56.6474667,86.3662778 56.0852444,85.8423889 56.0456333,85.1638889 C56.0047444,84.4598333 56.5401333,83.8554444 57.2454667,83.8132778 C57.2582444,83.812 57.3975222,83.8068889 57.4103,83.8056111 C58.0900778,83.7953889 58.7046889,84.3397222 58.7251333,85.0463333 C58.7455778,85.7516667 58.1897444,86.3407222 57.4856889,86.3611667 L57.4473556,85.0833889 L57.3949667,86.3637222 C57.3706889,86.365 57.3438556,86.3662778 57.3195778,86.3662778 L57.3195778,86.3662778 Z M26.0178556,86.4557222 L25.9795222,86.4557222 C25.9680222,86.4544444 25.8274667,86.4493333 25.8159667,86.4480556 C25.1106333,86.4071667 24.5739667,85.8015 24.6148556,85.0974444 C24.6557444,84.3933889 25.2844111,83.8541667 25.9654667,83.8976111 C26.6631333,83.9385 27.2611333,84.5339444 27.2304667,85.2316111 C27.2010778,85.9165 26.6963556,86.4557222 26.0178556,86.4557222 L26.0178556,86.4557222 Z M52.0819667,86.5502778 C51.3945222,86.5502778 50.8271889,86.0021111 50.8054667,85.3095556 C50.7863,84.6042222 51.3408556,84.0151667 52.0461889,83.9947222 C52.6991333,83.9845 53.4031889,84.525 53.4249111,85.2328889 C53.4453556,85.9382222 52.9534111,86.5247222 52.2480778,86.5464444 L52.1203,86.5502778 L52.0819667,86.5502778 Z M31.2567444,86.6052222 L31.2184111,86.6052222 L31.2554667,85.3274444 L31.1289667,86.6026667 C30.4223556,86.6026667 29.8511889,86.0315 29.8511889,85.3248889 C29.8511889,84.6182778 30.4223556,84.0471111 31.1289667,84.0471111 C31.1417444,84.0471111 31.2810222,84.0496667 31.2938,84.0496667 C31.9978556,84.0701111 32.5536889,84.6591667 32.5332444,85.3645 C32.5128,86.0570556 31.9441889,86.6052222 31.2567444,86.6052222 L31.2567444,86.6052222 Z M46.8456333,86.6614444 C46.1390222,86.6614444 45.5678556,86.0902778 45.5678556,85.3836667 C45.5678556,84.6770556 46.1390222,84.1058889 46.8456333,84.1058889 C47.5433,84.1058889 48.1770778,84.6642778 48.1860222,85.3632222 C48.1962444,86.0621667 47.7081333,86.6371667 47.0091889,86.6588889 C46.9976889,86.6588889 46.8571333,86.6614444 46.8456333,86.6614444 L46.8456333,86.6614444 Z M36.4943556,86.6844444 L36.3295222,86.6831667 C35.6229111,86.6627222 35.0683556,86.0749444 35.0875222,85.3696111 C35.1079667,84.663 35.6701889,84.1033333 36.4023556,84.1276111 C37.1076889,84.1276111 37.7261333,84.7013333 37.7261333,85.4066667 C37.7261333,86.112 37.2009667,86.6844444 36.4943556,86.6844444 L36.4943556,86.6844444 Z M41.7358,86.7023333 L41.6080222,86.7023333 C40.9014111,86.7023333 40.3302444,86.1311667 40.3302444,85.4245556 C40.3302444,84.7179444 40.9014111,84.1467778 41.6080222,84.1467778 C42.3146333,84.1467778 42.9496889,84.7179444 42.9496889,85.4245556 C42.9496889,86.1311667 42.4411333,86.7023333 41.7358,86.7023333 L41.7358,86.7023333 Z" id="Fill-9" fill="#999999"></path>
                        <path d="M35.3587944,54.1988611 C35.7204056,55.8139722 38.2644611,61.0490278 40.4967389,61.0490278 C42.7162389,61.0490278 45.2436833,55.8753056 45.63085,54.1950278 C45.0635167,53.8346944 43.2350167,53.2890833 40.4967389,53.2890833 C37.7507944,53.2890833 35.9184611,53.8385278 35.3587944,54.1988611 M40.4967389,63.6045833 C35.9670167,63.6045833 32.7649056,55.5750278 32.7649056,53.9739722 C32.7649056,51.5819722 36.9291833,50.7335278 40.4967389,50.7335278 C44.0642944,50.7335278 48.22985,51.5819722 48.22985,53.9739722 C48.22985,55.5750278 45.0277389,63.6045833 40.4967389,63.6045833" id="Fill-11" fill="#0574B9"></path>
                    </g>
                </g>
            </g>
        </g>
    </g>
</svg>