<svg width="28" height="28" viewBox="0 0 28 28" fill="none" xmlns="http://www.w3.org/2000/svg">
<mask id="mask0_41_181903" style="mask-type:alpha" maskUnits="userSpaceOnUse" x="5" y="5" width="18" height="18">
<path d="M20.9997 15.1663H15.1663V20.9997C15.1663 21.6413 14.6413 22.1663 13.9997 22.1663C13.358 22.1663 12.833 21.6413 12.833 20.9997V15.1663H6.99967C6.35801 15.1663 5.83301 14.6413 5.83301 13.9997C5.83301 13.358 6.35801 12.833 6.99967 12.833H12.833V6.99967C12.833 6.35801 13.358 5.83301 13.9997 5.83301C14.6413 5.83301 15.1663 6.35801 15.1663 6.99967V12.833H20.9997C21.6413 12.833 22.1663 13.358 22.1663 13.9997C22.1663 14.6413 21.6413 15.1663 20.9997 15.1663Z" fill="black"/>
</mask>
<g mask="url(#mask0_41_181903)">
<rect width="28" height="28" fill="white"/>
</g>
</svg>
